%TF.GenerationSoftware,Altium Limited,Altium Designer,24.0.1 (36)*%
G04 Layer_Color=0*
%FSLAX45Y45*%
%MOMM*%
%TF.SameCoordinates,BC388B4F-315D-4572-B472-8F8CFEE0C7CC*%
%TF.FilePolarity,Positive*%
%TF.FileFunction,Plated,1,4,PTH,Drill*%
%TF.Part,Single*%
G01*
G75*
%TA.AperFunction,ComponentDrill*%
%ADD89C,0.80000*%
%ADD90C,1.00000*%
%ADD91O,1.70000X0.60000*%
%ADD92O,1.40000X0.60000*%
%ADD93C,1.00000*%
%TA.AperFunction,OtherDrill,Pad Free-MH (82.55mm,90.805mm)*%
%ADD94C,3.17500*%
%TA.AperFunction,OtherDrill,Pad Free-MH (8.89mm,90.805mm)*%
%ADD95C,3.17500*%
%TA.AperFunction,OtherDrill,Pad Free-MH (85.09mm,5.08mm)*%
%ADD96C,3.17500*%
%TA.AperFunction,OtherDrill,Pad Free-MH (5.08mm,5.08mm)*%
%ADD97C,3.17500*%
%TA.AperFunction,ComponentDrill*%
%ADD98C,1.02000*%
%TA.AperFunction,ViaDrill,NotFilled*%
%ADD99C,0.30000*%
D89*
X8575000Y1808000D02*
D03*
Y1300000D02*
D03*
X7559000D02*
D03*
Y1808000D02*
D03*
D90*
X7100000Y2125000D02*
D03*
Y1875000D02*
D03*
Y3375000D02*
D03*
Y3125000D02*
D03*
Y4625000D02*
D03*
Y4375000D02*
D03*
Y5875000D02*
D03*
Y5625000D02*
D03*
X4150000Y1125000D02*
D03*
Y1375000D02*
D03*
Y2375000D02*
D03*
Y2625000D02*
D03*
Y3625000D02*
D03*
Y3875000D02*
D03*
Y4875000D02*
D03*
Y5125000D02*
D03*
X3600000Y2125000D02*
D03*
Y1875000D02*
D03*
Y3375000D02*
D03*
Y3125000D02*
D03*
Y4625000D02*
D03*
Y4375000D02*
D03*
Y5875000D02*
D03*
Y5625000D02*
D03*
X650000Y1125000D02*
D03*
Y1375000D02*
D03*
Y2375000D02*
D03*
Y2625000D02*
D03*
Y3625000D02*
D03*
Y3875000D02*
D03*
Y4875000D02*
D03*
Y5125000D02*
D03*
X7100000Y875000D02*
D03*
Y625000D02*
D03*
X3812500Y7117500D02*
D03*
X1375000Y7577500D02*
D03*
X2496820Y9357500D02*
D03*
X7875000Y2225000D02*
D03*
X1985000Y6117500D02*
D03*
X7022500Y6987500D02*
D03*
X5225000Y7530000D02*
D03*
D91*
X627000Y8600000D02*
D03*
Y7735000D02*
D03*
D92*
X210000Y8600000D02*
D03*
Y7735000D02*
D03*
D93*
X3812500Y6390000D02*
D03*
D94*
X8255000Y9080500D02*
D03*
D95*
X889000D02*
D03*
D96*
X8509000Y508000D02*
D03*
D97*
X508000D02*
D03*
D98*
X2159000Y9080500D02*
D03*
X3683000D02*
D03*
X2921000D02*
D03*
X2667000D02*
D03*
X2413000D02*
D03*
X3429000D02*
D03*
X1905000D02*
D03*
X1651000D02*
D03*
X3175000D02*
D03*
X1397000D02*
D03*
X6223000D02*
D03*
X6477000Y8826500D02*
D03*
X7493000Y9080500D02*
D03*
Y8826500D02*
D03*
X7239000Y9080500D02*
D03*
Y8826500D02*
D03*
X6985000Y9080500D02*
D03*
Y8826500D02*
D03*
X6731000Y9080500D02*
D03*
Y8826500D02*
D03*
X6477000Y9080500D02*
D03*
X7747000D02*
D03*
Y8826500D02*
D03*
X6223000D02*
D03*
X3175000D02*
D03*
X4445000D02*
D03*
X3683000D02*
D03*
X3937000D02*
D03*
X4191000D02*
D03*
X3429000D02*
D03*
X5969000D02*
D03*
X5715000D02*
D03*
X5461000D02*
D03*
X4699000D02*
D03*
X4953000D02*
D03*
X5207000D02*
D03*
X2159000D02*
D03*
X2921000D02*
D03*
X2667000D02*
D03*
X2413000D02*
D03*
X1905000D02*
D03*
X1651000D02*
D03*
X1397000D02*
D03*
X5207000Y9080500D02*
D03*
X5969000D02*
D03*
X5715000D02*
D03*
X5461000D02*
D03*
X4953000D02*
D03*
X4699000D02*
D03*
X4445000D02*
D03*
X4191000D02*
D03*
X3937000D02*
D03*
X2159000Y8572500D02*
D03*
X3683000D02*
D03*
X2921000D02*
D03*
X2667000D02*
D03*
X2413000D02*
D03*
X3429000D02*
D03*
X1905000D02*
D03*
X1651000D02*
D03*
X3175000D02*
D03*
X1397000D02*
D03*
X6223000D02*
D03*
X6477000Y8318500D02*
D03*
X7493000Y8572500D02*
D03*
Y8318500D02*
D03*
X7239000Y8572500D02*
D03*
Y8318500D02*
D03*
X6985000Y8572500D02*
D03*
Y8318500D02*
D03*
X6731000Y8572500D02*
D03*
Y8318500D02*
D03*
X6477000Y8572500D02*
D03*
X7747000D02*
D03*
Y8318500D02*
D03*
X6223000D02*
D03*
X3175000D02*
D03*
X4445000D02*
D03*
X3683000D02*
D03*
X3937000D02*
D03*
X4191000D02*
D03*
X3429000D02*
D03*
X5969000D02*
D03*
X5715000D02*
D03*
X5461000D02*
D03*
X4699000D02*
D03*
X4953000D02*
D03*
X5207000D02*
D03*
X2159000D02*
D03*
X2921000D02*
D03*
X2667000D02*
D03*
X2413000D02*
D03*
X1905000D02*
D03*
X1651000D02*
D03*
X1397000D02*
D03*
X5207000Y8572500D02*
D03*
X5969000D02*
D03*
X5715000D02*
D03*
X5461000D02*
D03*
X4953000D02*
D03*
X4699000D02*
D03*
X4445000D02*
D03*
X4191000D02*
D03*
X3937000D02*
D03*
D99*
X5015000Y5867500D02*
D03*
X5285400Y5972500D02*
D03*
X5284755Y6064755D02*
D03*
X5300000Y5700000D02*
D03*
Y5800000D02*
D03*
X5191760Y5892800D02*
D03*
X8860006Y3060003D02*
D03*
Y2660003D02*
D03*
Y2260003D02*
D03*
Y1860002D02*
D03*
Y1460002D02*
D03*
Y1060002D02*
D03*
Y260002D02*
D03*
X8760006Y2460003D02*
D03*
Y2060002D02*
D03*
Y1660002D02*
D03*
X8660006Y1460002D02*
D03*
X8760006Y1260002D02*
D03*
Y860002D02*
D03*
X8460006Y8660006D02*
D03*
X8560006Y8460006D02*
D03*
X8460006Y8260006D02*
D03*
X8560006Y8060006D02*
D03*
X8460006Y7860006D02*
D03*
X8560006Y7660006D02*
D03*
X8460006Y7460005D02*
D03*
X8560006Y7260005D02*
D03*
X8460006Y7060005D02*
D03*
X8560006Y6860005D02*
D03*
X8460006Y6660005D02*
D03*
X8560006Y6460005D02*
D03*
X8460006Y6260005D02*
D03*
X8560006Y6060005D02*
D03*
X8460006Y5860005D02*
D03*
X8560006Y5660004D02*
D03*
X8460006Y5460004D02*
D03*
X8560006Y5260004D02*
D03*
X8460006Y5060004D02*
D03*
X8560006Y4860004D02*
D03*
X8460006Y4660004D02*
D03*
X8560006Y4460004D02*
D03*
X8460006Y4260004D02*
D03*
X8560006Y4060004D02*
D03*
X8460006Y3860003D02*
D03*
X8560006Y3660003D02*
D03*
X8460006Y3460003D02*
D03*
X8560006Y3260003D02*
D03*
Y2460003D02*
D03*
X8460006Y1460002D02*
D03*
X8260006Y8660006D02*
D03*
X8360006Y8460006D02*
D03*
X8260006Y8260006D02*
D03*
X8360006Y8060006D02*
D03*
X8260006Y7860006D02*
D03*
X8360006Y7660006D02*
D03*
X8260006Y7460005D02*
D03*
X8360006Y7260005D02*
D03*
X8260006Y7060005D02*
D03*
X8360006Y6860005D02*
D03*
X8260006Y6660005D02*
D03*
X8360006Y6460005D02*
D03*
X8260006Y6260005D02*
D03*
X8360006Y6060005D02*
D03*
X8260006Y5860005D02*
D03*
X8360006Y5660004D02*
D03*
X8260006Y5460004D02*
D03*
X8360006Y5260004D02*
D03*
X8260006Y5060004D02*
D03*
X8360006Y4860004D02*
D03*
X8260006Y4660004D02*
D03*
X8360006Y4460004D02*
D03*
X8260006Y4260004D02*
D03*
X8360006Y4060004D02*
D03*
X8260006Y3860003D02*
D03*
X8360006Y3660003D02*
D03*
X8260006Y3460003D02*
D03*
X8360006Y3260003D02*
D03*
Y2860003D02*
D03*
X8260006Y2660003D02*
D03*
X8360006Y2460003D02*
D03*
X8260006Y2260003D02*
D03*
X8360006Y2060002D02*
D03*
X8260006Y1860002D02*
D03*
X8360006Y1660002D02*
D03*
X8260006Y1460002D02*
D03*
X8360006Y1260002D02*
D03*
X8060006Y8660006D02*
D03*
X8160006Y8460006D02*
D03*
X8060006Y8260006D02*
D03*
X8160006Y8060006D02*
D03*
X8060006Y7860006D02*
D03*
X8160006Y7660006D02*
D03*
X8060006Y7460005D02*
D03*
X8160006Y7260005D02*
D03*
X8060006Y7060005D02*
D03*
X8160006Y6860005D02*
D03*
X8060006Y6660005D02*
D03*
X8160006Y6460005D02*
D03*
X8060006Y6260005D02*
D03*
X8160006Y6060005D02*
D03*
X8060006Y5860005D02*
D03*
X8160006Y5660004D02*
D03*
X8060006Y5460004D02*
D03*
X8160006Y5260004D02*
D03*
X8060006Y5060004D02*
D03*
X8160006Y4860004D02*
D03*
X8060006Y4660004D02*
D03*
X8160006Y4460004D02*
D03*
X8060006Y4260004D02*
D03*
X8160006Y4060004D02*
D03*
X8060006Y3860003D02*
D03*
X8160006Y3660003D02*
D03*
X8060006Y3460003D02*
D03*
X8160006Y3260003D02*
D03*
Y2860003D02*
D03*
X8060006Y2660003D02*
D03*
X8160006Y2460003D02*
D03*
X8060006Y2260003D02*
D03*
X8160006Y2060002D02*
D03*
X8060006Y1860002D02*
D03*
X8160006Y1660002D02*
D03*
X8060006Y1460002D02*
D03*
X8160006Y1260002D02*
D03*
Y860002D02*
D03*
X8060006Y660002D02*
D03*
Y260002D02*
D03*
X7960006Y8460006D02*
D03*
Y8060006D02*
D03*
X7860006Y7860006D02*
D03*
X7960006Y7660006D02*
D03*
X7860006Y7460005D02*
D03*
X7960006Y7260005D02*
D03*
X7860006Y7060005D02*
D03*
X7960006Y6860005D02*
D03*
X7860006Y6660005D02*
D03*
X7960006Y6460005D02*
D03*
X7860006Y6260005D02*
D03*
X7960006Y6060005D02*
D03*
X7860006Y5860005D02*
D03*
X7960006Y5660004D02*
D03*
X7860006Y5460004D02*
D03*
X7960006Y5260004D02*
D03*
X7860006Y5060004D02*
D03*
X7960006Y4860004D02*
D03*
X7860006Y4660004D02*
D03*
X7960006Y4460004D02*
D03*
X7860006Y4260004D02*
D03*
X7960006Y4060004D02*
D03*
X7860006Y3860003D02*
D03*
X7960006Y3660003D02*
D03*
X7860006Y3460003D02*
D03*
X7960006Y3260003D02*
D03*
Y2860003D02*
D03*
X7860006Y2660003D02*
D03*
X7960006Y2460003D02*
D03*
Y2060002D02*
D03*
X7860006Y1860002D02*
D03*
X7960006Y1660002D02*
D03*
X7860006Y1460002D02*
D03*
X7960006Y1260002D02*
D03*
Y860002D02*
D03*
X7860006Y660002D02*
D03*
X7960006Y460002D02*
D03*
X7860006Y260002D02*
D03*
X7760006Y9260006D02*
D03*
Y8060006D02*
D03*
Y7660006D02*
D03*
Y7260005D02*
D03*
Y6860005D02*
D03*
Y6460005D02*
D03*
Y6060005D02*
D03*
Y5660004D02*
D03*
Y5260004D02*
D03*
Y4860004D02*
D03*
Y4460004D02*
D03*
Y4060004D02*
D03*
Y3660003D02*
D03*
Y3260003D02*
D03*
Y2860003D02*
D03*
X7660006Y2660003D02*
D03*
X7760006Y2460003D02*
D03*
Y2060002D02*
D03*
Y1660002D02*
D03*
X7660006Y1460002D02*
D03*
X7760006Y1260002D02*
D03*
Y860002D02*
D03*
X7660006Y660002D02*
D03*
X7760006Y460002D02*
D03*
X7660006Y260002D02*
D03*
X7560005Y9260006D02*
D03*
X7460005Y7860006D02*
D03*
Y7460005D02*
D03*
Y7060005D02*
D03*
Y6260005D02*
D03*
Y5860005D02*
D03*
Y5460004D02*
D03*
Y5060004D02*
D03*
Y4660004D02*
D03*
Y4260004D02*
D03*
Y3860003D02*
D03*
Y3460003D02*
D03*
Y3060003D02*
D03*
Y2660003D02*
D03*
Y1460002D02*
D03*
X7560005Y860002D02*
D03*
X7460005Y660002D02*
D03*
X7560005Y460002D02*
D03*
X7460005Y260002D02*
D03*
X7360005Y9260006D02*
D03*
Y8460006D02*
D03*
Y8060006D02*
D03*
X7260005Y7860006D02*
D03*
X7360005Y7660006D02*
D03*
X7260005Y7460005D02*
D03*
X7360005Y7260005D02*
D03*
X7260005Y7060005D02*
D03*
X7360005Y6860005D02*
D03*
Y6460005D02*
D03*
X7260005Y6260005D02*
D03*
X7360005Y6060005D02*
D03*
Y5260004D02*
D03*
X7260005Y5060004D02*
D03*
X7360005Y4860004D02*
D03*
Y4060004D02*
D03*
X7260005Y3860003D02*
D03*
X7360005Y3660003D02*
D03*
Y3260003D02*
D03*
Y2860003D02*
D03*
X7260005Y2660003D02*
D03*
X7360005Y2460003D02*
D03*
X7260005Y2260003D02*
D03*
X7360005Y2060002D02*
D03*
Y1660002D02*
D03*
X7260005Y1460002D02*
D03*
X7360005Y1260002D02*
D03*
Y860002D02*
D03*
X7260005Y660002D02*
D03*
X7360005Y460002D02*
D03*
X7260005Y260002D02*
D03*
X7160005Y9260006D02*
D03*
Y8060006D02*
D03*
X7060005Y7860006D02*
D03*
X7160005Y7660006D02*
D03*
X7060005Y7460005D02*
D03*
X7160005Y7260005D02*
D03*
X7060005Y5460004D02*
D03*
X7160005Y5260004D02*
D03*
Y4060004D02*
D03*
Y2860003D02*
D03*
Y1660002D02*
D03*
X7060005Y1460002D02*
D03*
X7160005Y1260002D02*
D03*
X7060005Y1060002D02*
D03*
X7160005Y460002D02*
D03*
X7060005Y260002D02*
D03*
X6960005Y9260006D02*
D03*
Y8060006D02*
D03*
X6860005Y7860006D02*
D03*
X6960005Y7660006D02*
D03*
X6860005Y7460005D02*
D03*
X6960005Y7260005D02*
D03*
X6860005Y7060005D02*
D03*
X6960005Y6460005D02*
D03*
X6860005Y6260005D02*
D03*
X6960005Y6060005D02*
D03*
X6860005Y5060004D02*
D03*
X6960005Y4860004D02*
D03*
X6860005Y3860003D02*
D03*
X6960005Y3660003D02*
D03*
X6860005Y2660003D02*
D03*
X6960005Y2460003D02*
D03*
X6860005Y2260003D02*
D03*
X6960005Y1660002D02*
D03*
X6860005Y1460002D02*
D03*
X6960005Y1260002D02*
D03*
X6860005Y1060002D02*
D03*
Y660002D02*
D03*
X6960005Y460002D02*
D03*
X6860005Y260002D02*
D03*
X6760005Y9260006D02*
D03*
Y8060006D02*
D03*
X6660005Y7860006D02*
D03*
X6760005Y7660006D02*
D03*
X6660005Y7460005D02*
D03*
X6760005Y7260005D02*
D03*
X6660005Y7060005D02*
D03*
X6760005Y6460005D02*
D03*
X6660005Y6260005D02*
D03*
X6760005Y6060005D02*
D03*
Y5660004D02*
D03*
X6660005Y5460004D02*
D03*
X6760005Y5260004D02*
D03*
X6660005Y5060004D02*
D03*
X6760005Y4860004D02*
D03*
X6660005Y4260004D02*
D03*
X6760005Y4060004D02*
D03*
X6660005Y3860003D02*
D03*
X6760005Y3660003D02*
D03*
Y3260003D02*
D03*
Y2860003D02*
D03*
X6660005Y2660003D02*
D03*
X6760005Y2460003D02*
D03*
X6660005Y2260003D02*
D03*
X6760005Y1660002D02*
D03*
X6660005Y1460002D02*
D03*
X6760005Y1260002D02*
D03*
X6660005Y1060002D02*
D03*
X6760005Y860002D02*
D03*
X6660005Y660002D02*
D03*
X6760005Y460002D02*
D03*
X6660005Y260002D02*
D03*
X6560005Y9260006D02*
D03*
Y8060006D02*
D03*
X6460005Y7860006D02*
D03*
X6560005Y7660006D02*
D03*
X6460005Y7460005D02*
D03*
X6560005Y7260005D02*
D03*
X6460005Y7060005D02*
D03*
X6560005Y6460005D02*
D03*
X6460005Y6260005D02*
D03*
X6560005Y6060005D02*
D03*
Y5660004D02*
D03*
X6460005Y5460004D02*
D03*
X6560005Y5260004D02*
D03*
X6460005Y5060004D02*
D03*
X6560005Y4860004D02*
D03*
X6460005Y4260004D02*
D03*
X6560005Y4060004D02*
D03*
X6460005Y3860003D02*
D03*
X6560005Y3660003D02*
D03*
Y3260003D02*
D03*
Y2860003D02*
D03*
X6460005Y2660003D02*
D03*
X6560005Y2460003D02*
D03*
X6460005Y2260003D02*
D03*
X6560005Y1660002D02*
D03*
X6460005Y1460002D02*
D03*
X6560005Y1260002D02*
D03*
X6460005Y1060002D02*
D03*
X6560005Y860002D02*
D03*
X6460005Y660002D02*
D03*
X6560005Y460002D02*
D03*
X6460005Y260002D02*
D03*
X6360005Y9260006D02*
D03*
X6260005Y7860006D02*
D03*
X6360005Y7660006D02*
D03*
X6260005Y7460005D02*
D03*
X6360005Y7260005D02*
D03*
X6260005Y7060005D02*
D03*
X6360005Y6460005D02*
D03*
X6260005Y6260005D02*
D03*
X6360005Y6060005D02*
D03*
Y5660004D02*
D03*
X6260005Y5460004D02*
D03*
X6360005Y5260004D02*
D03*
X6260005Y5060004D02*
D03*
X6360005Y4860004D02*
D03*
X6260005Y4260004D02*
D03*
X6360005Y4060004D02*
D03*
X6260005Y3860003D02*
D03*
X6360005Y3660003D02*
D03*
Y3260003D02*
D03*
Y2860003D02*
D03*
X6260005Y2660003D02*
D03*
X6360005Y2460003D02*
D03*
X6260005Y2260003D02*
D03*
X6360005Y1660002D02*
D03*
X6260005Y1460002D02*
D03*
X6360005Y1260002D02*
D03*
X6260005Y1060002D02*
D03*
X6360005Y860002D02*
D03*
X6260005Y660002D02*
D03*
X6360005Y460002D02*
D03*
X6260005Y260002D02*
D03*
X6160005Y9260006D02*
D03*
Y7660006D02*
D03*
X6060005Y7460005D02*
D03*
X6160005Y7260005D02*
D03*
X6060005Y7060005D02*
D03*
X6160005Y6460005D02*
D03*
X6060005Y6260005D02*
D03*
X6160005Y6060005D02*
D03*
Y5660004D02*
D03*
X6060005Y5460004D02*
D03*
X6160005Y5260004D02*
D03*
X6060005Y5060004D02*
D03*
X6160005Y4860004D02*
D03*
X6060005Y4260004D02*
D03*
X6160005Y4060004D02*
D03*
X6060005Y3860003D02*
D03*
X6160005Y3660003D02*
D03*
Y3260003D02*
D03*
Y2860003D02*
D03*
X6060005Y2660003D02*
D03*
X6160005Y2460003D02*
D03*
X6060005Y2260003D02*
D03*
X6160005Y1660002D02*
D03*
X6060005Y1460002D02*
D03*
X6160005Y1260002D02*
D03*
X6060005Y1060002D02*
D03*
X6160005Y860002D02*
D03*
X5960005Y9260006D02*
D03*
Y8060006D02*
D03*
X5860005Y7860006D02*
D03*
Y7460005D02*
D03*
X5960005Y7260005D02*
D03*
X5860005Y7060005D02*
D03*
X5960005Y6460005D02*
D03*
X5860005Y6260005D02*
D03*
X5960005Y6060005D02*
D03*
Y5660004D02*
D03*
X5860005Y5460004D02*
D03*
X5960005Y1660002D02*
D03*
X5860005Y1460002D02*
D03*
X5960005Y1260002D02*
D03*
X5860005Y1060002D02*
D03*
X5960005Y860002D02*
D03*
X5760004Y9260006D02*
D03*
Y8060006D02*
D03*
X5660004Y7860006D02*
D03*
X5760004Y7260005D02*
D03*
Y6460005D02*
D03*
Y6060005D02*
D03*
Y5660004D02*
D03*
Y4860004D02*
D03*
Y4460004D02*
D03*
X5660004Y4260004D02*
D03*
X5760004Y4060004D02*
D03*
X5660004Y3860003D02*
D03*
X5760004Y3660003D02*
D03*
Y3260003D02*
D03*
X5660004Y3060003D02*
D03*
X5760004Y2860003D02*
D03*
X5660004Y2660003D02*
D03*
X5760004Y2460003D02*
D03*
X5660004Y2260003D02*
D03*
Y1860002D02*
D03*
X5760004Y1660002D02*
D03*
X5660004Y1460002D02*
D03*
X5760004Y1260002D02*
D03*
X5660004Y1060002D02*
D03*
X5760004Y860002D02*
D03*
X5560004Y8060006D02*
D03*
X5460004Y7860006D02*
D03*
X5560004Y7660006D02*
D03*
Y4860004D02*
D03*
Y4460004D02*
D03*
X5460004Y4260004D02*
D03*
X5560004Y4060004D02*
D03*
X5460004Y3860003D02*
D03*
X5560004Y3660003D02*
D03*
Y3260003D02*
D03*
X5460004Y3060003D02*
D03*
X5560004Y2860003D02*
D03*
X5460004Y2660003D02*
D03*
X5560004Y2460003D02*
D03*
X5460004Y2260003D02*
D03*
Y1860002D02*
D03*
X5560004Y1660002D02*
D03*
X5460004Y1460002D02*
D03*
X5560004Y1260002D02*
D03*
X5460004Y1060002D02*
D03*
X5560004Y860002D02*
D03*
X5360004Y8060006D02*
D03*
X5260004Y7860006D02*
D03*
X5360004Y4460004D02*
D03*
X5260004Y4260004D02*
D03*
X5360004Y4060004D02*
D03*
X5260004Y3860003D02*
D03*
X5360004Y3660003D02*
D03*
Y3260003D02*
D03*
X5260004Y3060003D02*
D03*
X5360004Y2860003D02*
D03*
X5260004Y2660003D02*
D03*
X5360004Y2460003D02*
D03*
X5260004Y2260003D02*
D03*
Y1860002D02*
D03*
X5360004Y1660002D02*
D03*
X5260004Y1460002D02*
D03*
X5360004Y1260002D02*
D03*
X5260004Y1060002D02*
D03*
X5360004Y860002D02*
D03*
X5160004Y8060006D02*
D03*
Y2460003D02*
D03*
X5060004Y2260003D02*
D03*
Y1860002D02*
D03*
X5160004Y1660002D02*
D03*
X5060004Y1460002D02*
D03*
X5160004Y1260002D02*
D03*
X5060004Y1060002D02*
D03*
X5160004Y860002D02*
D03*
X4960004Y8060006D02*
D03*
X4860004Y4660004D02*
D03*
X4960004Y4060004D02*
D03*
X4860004Y3860003D02*
D03*
X4960004Y3660003D02*
D03*
X4860004Y3460003D02*
D03*
X4960004Y2860003D02*
D03*
Y2460003D02*
D03*
X4860004Y2260003D02*
D03*
X4960004Y1660002D02*
D03*
X4860004Y1460002D02*
D03*
X4960004Y1260002D02*
D03*
X4860004Y1060002D02*
D03*
X4960004Y860002D02*
D03*
X4760004Y8060006D02*
D03*
X4660004Y4660004D02*
D03*
X4760004Y4460004D02*
D03*
Y4060004D02*
D03*
X4660004Y3860003D02*
D03*
X4760004Y3660003D02*
D03*
X4660004Y3460003D02*
D03*
X4760004Y3260003D02*
D03*
X4660004Y3060003D02*
D03*
X4760004Y2460003D02*
D03*
X4660004Y2260003D02*
D03*
X4760004Y2060002D02*
D03*
X4660004Y1860002D02*
D03*
Y1460002D02*
D03*
X4760004Y1260002D02*
D03*
X4660004Y1060002D02*
D03*
X4760004Y860002D02*
D03*
X4560004Y8460006D02*
D03*
Y8060006D02*
D03*
Y5660004D02*
D03*
Y5260004D02*
D03*
X4460004Y4660004D02*
D03*
X4560004Y4460004D02*
D03*
X4460004Y4260004D02*
D03*
X4560004Y3660003D02*
D03*
X4460004Y3460003D02*
D03*
X4560004Y3260003D02*
D03*
X4460004Y3060003D02*
D03*
X4560004Y2460003D02*
D03*
X4460004Y2260003D02*
D03*
X4560004Y2060002D02*
D03*
X4460004Y1860002D02*
D03*
X4560004Y1260002D02*
D03*
X4460004Y1060002D02*
D03*
X4560004Y860002D02*
D03*
X4360004Y8060006D02*
D03*
X4260004Y7860006D02*
D03*
X4360004Y5260004D02*
D03*
Y4460004D02*
D03*
X4260004Y4260004D02*
D03*
X4360004Y4060004D02*
D03*
Y3660003D02*
D03*
X4260004Y3460003D02*
D03*
X4360004Y3260003D02*
D03*
X4260004Y3060003D02*
D03*
X4360004Y2860003D02*
D03*
Y2060002D02*
D03*
X4260004Y1860002D02*
D03*
X4360004Y1660002D02*
D03*
Y860002D02*
D03*
X4160004Y8060006D02*
D03*
X4060004Y7860006D02*
D03*
X4160004Y4460004D02*
D03*
Y4060004D02*
D03*
Y3260003D02*
D03*
Y2860003D02*
D03*
Y2060002D02*
D03*
Y1660002D02*
D03*
Y860002D02*
D03*
X3960004Y8060006D02*
D03*
X3860003Y7860006D02*
D03*
Y5460004D02*
D03*
X3960004Y4860004D02*
D03*
Y3660003D02*
D03*
X3860003Y1460002D02*
D03*
Y1060002D02*
D03*
X3960004Y860002D02*
D03*
X3760003Y8060006D02*
D03*
X3660003Y7860006D02*
D03*
Y5460004D02*
D03*
Y3860003D02*
D03*
Y2660003D02*
D03*
X3760003Y1660002D02*
D03*
X3560003Y8460006D02*
D03*
Y8060006D02*
D03*
X3460003Y7860006D02*
D03*
X3560003Y7660006D02*
D03*
X3460003Y6260005D02*
D03*
X3560003Y5260004D02*
D03*
Y4860004D02*
D03*
Y4060004D02*
D03*
Y2860003D02*
D03*
X3460003Y2660003D02*
D03*
X3560003Y2460003D02*
D03*
Y1660002D02*
D03*
X3360003Y9260006D02*
D03*
Y8060006D02*
D03*
X3260003Y7860006D02*
D03*
X3360003Y7660006D02*
D03*
X3260003Y7460005D02*
D03*
Y6260005D02*
D03*
X3360003Y3660003D02*
D03*
Y3260003D02*
D03*
X3260003Y3060003D02*
D03*
X3360003Y2860003D02*
D03*
X3260003Y2660003D02*
D03*
X3360003Y2460003D02*
D03*
X3260003Y2260003D02*
D03*
Y1860002D02*
D03*
X3360003Y1660002D02*
D03*
X3160003Y8060006D02*
D03*
X3060003Y7860006D02*
D03*
X3160003Y7660006D02*
D03*
X3060003Y7460005D02*
D03*
Y7060005D02*
D03*
Y6260005D02*
D03*
X3160003Y6060005D02*
D03*
X3060003Y5860005D02*
D03*
Y5460004D02*
D03*
X3160003Y5260004D02*
D03*
X3060003Y5060004D02*
D03*
X3160003Y4860004D02*
D03*
Y4460004D02*
D03*
X3060003Y4260004D02*
D03*
X3160003Y4060004D02*
D03*
X3060003Y3860003D02*
D03*
X3160003Y3660003D02*
D03*
Y3260003D02*
D03*
X3060003Y3060003D02*
D03*
X3160003Y2860003D02*
D03*
X3060003Y2660003D02*
D03*
X3160003Y2460003D02*
D03*
X3060003Y2260003D02*
D03*
Y1860002D02*
D03*
X3160003Y1660002D02*
D03*
X2960003Y8060006D02*
D03*
Y7660006D02*
D03*
X2860003Y7060005D02*
D03*
Y6260005D02*
D03*
X2960003Y6060005D02*
D03*
X2860003Y5860005D02*
D03*
Y5460004D02*
D03*
X2960003Y5260004D02*
D03*
X2860003Y5060004D02*
D03*
X2960003Y4860004D02*
D03*
Y4460004D02*
D03*
X2860003Y4260004D02*
D03*
X2960003Y4060004D02*
D03*
X2860003Y3860003D02*
D03*
X2960003Y3660003D02*
D03*
Y3260003D02*
D03*
X2860003Y3060003D02*
D03*
X2960003Y2860003D02*
D03*
X2860003Y2660003D02*
D03*
X2960003Y2460003D02*
D03*
X2860003Y2260003D02*
D03*
Y1860002D02*
D03*
X2960003Y1660002D02*
D03*
X2660003Y7060005D02*
D03*
Y6260005D02*
D03*
X2760003Y6060005D02*
D03*
X2660003Y5860005D02*
D03*
Y5460004D02*
D03*
X2760003Y5260004D02*
D03*
X2660003Y5060004D02*
D03*
X2760003Y4860004D02*
D03*
Y4460004D02*
D03*
X2660003Y4260004D02*
D03*
X2760003Y4060004D02*
D03*
X2660003Y3860003D02*
D03*
X2760003Y3660003D02*
D03*
Y3260003D02*
D03*
X2660003Y3060003D02*
D03*
X2760003Y2860003D02*
D03*
X2660003Y2660003D02*
D03*
X2760003Y2460003D02*
D03*
X2660003Y2260003D02*
D03*
Y1860002D02*
D03*
X2760003Y1660002D02*
D03*
X2560003Y8460006D02*
D03*
Y8060006D02*
D03*
X2460003Y7060005D02*
D03*
X2560003Y1660002D02*
D03*
X2360003Y8060006D02*
D03*
X2260003Y7460005D02*
D03*
Y7060005D02*
D03*
Y6660005D02*
D03*
Y6260005D02*
D03*
Y5860005D02*
D03*
Y5460004D02*
D03*
Y4260004D02*
D03*
X2360003Y3660003D02*
D03*
Y3260003D02*
D03*
X2260003Y3060003D02*
D03*
X2360003Y2860003D02*
D03*
Y2460003D02*
D03*
X2260003Y2260003D02*
D03*
Y1860002D02*
D03*
X2360003Y1660002D02*
D03*
X2160003Y9260006D02*
D03*
Y8060006D02*
D03*
Y7660006D02*
D03*
X2060002Y7460005D02*
D03*
Y6660005D02*
D03*
X2160003Y6460005D02*
D03*
Y6060005D02*
D03*
X2060002Y5860005D02*
D03*
Y5460004D02*
D03*
X2160003Y5260004D02*
D03*
Y4860004D02*
D03*
Y4460004D02*
D03*
X2060002Y4260004D02*
D03*
X2160003Y4060004D02*
D03*
Y3660003D02*
D03*
Y3260003D02*
D03*
X2060002Y3060003D02*
D03*
X2160003Y2860003D02*
D03*
Y2460003D02*
D03*
X2060002Y2260003D02*
D03*
Y1860002D02*
D03*
X2160003Y1660002D02*
D03*
X1960002Y9260006D02*
D03*
Y8060006D02*
D03*
Y7660006D02*
D03*
X1860002Y7460005D02*
D03*
X1960002Y6860005D02*
D03*
Y6460005D02*
D03*
X1860002Y6260005D02*
D03*
Y5860005D02*
D03*
Y5460004D02*
D03*
X1960002Y5260004D02*
D03*
Y4860004D02*
D03*
Y4460004D02*
D03*
X1860002Y4260004D02*
D03*
X1960002Y4060004D02*
D03*
Y3660003D02*
D03*
Y3260003D02*
D03*
X1860002Y3060003D02*
D03*
X1960002Y2860003D02*
D03*
Y2460003D02*
D03*
X1860002Y2260003D02*
D03*
Y1860002D02*
D03*
X1960002Y1660002D02*
D03*
X1860002Y1460002D02*
D03*
Y1060002D02*
D03*
Y660002D02*
D03*
Y260002D02*
D03*
X1760002Y9260006D02*
D03*
Y8460006D02*
D03*
Y8060006D02*
D03*
Y7660006D02*
D03*
X1660002Y7460005D02*
D03*
X1760002Y6460005D02*
D03*
X1660002Y6260005D02*
D03*
X1760002Y6060005D02*
D03*
X1660002Y5860005D02*
D03*
Y5460004D02*
D03*
X1760002Y5260004D02*
D03*
Y4860004D02*
D03*
Y4460004D02*
D03*
X1660002Y4260004D02*
D03*
X1760002Y4060004D02*
D03*
Y3660003D02*
D03*
Y3260003D02*
D03*
X1660002Y3060003D02*
D03*
X1760002Y2860003D02*
D03*
Y2460003D02*
D03*
X1660002Y2260003D02*
D03*
Y1860002D02*
D03*
X1760002Y1660002D02*
D03*
X1660002Y1460002D02*
D03*
X1760002Y1260002D02*
D03*
X1660002Y1060002D02*
D03*
X1760002Y860002D02*
D03*
X1660002Y660002D02*
D03*
X1760002Y460002D02*
D03*
X1660002Y260002D02*
D03*
X1560002Y9260006D02*
D03*
Y8060006D02*
D03*
Y7660006D02*
D03*
X1460002Y6260005D02*
D03*
X1560002Y6060005D02*
D03*
X1460002Y5860005D02*
D03*
Y5460004D02*
D03*
X1560002Y5260004D02*
D03*
Y4860004D02*
D03*
X1460002Y4660004D02*
D03*
Y4260004D02*
D03*
X1560002Y4060004D02*
D03*
Y3660003D02*
D03*
X1460002Y3460003D02*
D03*
X1560002Y2860003D02*
D03*
Y2460003D02*
D03*
X1460002Y2260003D02*
D03*
X1560002Y1660002D02*
D03*
X1460002Y1460002D02*
D03*
X1560002Y1260002D02*
D03*
X1460002Y1060002D02*
D03*
X1560002Y860002D02*
D03*
X1460002Y660002D02*
D03*
X1560002Y460002D02*
D03*
X1460002Y260002D02*
D03*
X1360002Y9260006D02*
D03*
X1260002Y8660006D02*
D03*
X1360002Y8060006D02*
D03*
X1260002Y6260005D02*
D03*
X1360002Y6060005D02*
D03*
X1260002Y5860005D02*
D03*
X1360002Y5260004D02*
D03*
Y4860004D02*
D03*
X1260002Y4660004D02*
D03*
X1360002Y4060004D02*
D03*
Y3660003D02*
D03*
X1260002Y3460003D02*
D03*
X1360002Y3260003D02*
D03*
Y2860003D02*
D03*
Y2460003D02*
D03*
X1260002Y2260003D02*
D03*
X1360002Y2060002D02*
D03*
Y1660002D02*
D03*
X1260002Y1460002D02*
D03*
X1360002Y1260002D02*
D03*
X1260002Y1060002D02*
D03*
X1360002Y860002D02*
D03*
X1260002Y660002D02*
D03*
X1360002Y460002D02*
D03*
X1260002Y260002D02*
D03*
X1060002Y8660006D02*
D03*
X1160002Y8460006D02*
D03*
Y8060006D02*
D03*
X1060002Y7060005D02*
D03*
Y6260005D02*
D03*
X1160002Y6060005D02*
D03*
X1060002Y5860005D02*
D03*
X1160002Y5660004D02*
D03*
X1060002Y5460004D02*
D03*
X1160002Y4860004D02*
D03*
X1060002Y4660004D02*
D03*
X1160002Y4460004D02*
D03*
X1060002Y4260004D02*
D03*
X1160002Y3660003D02*
D03*
X1060002Y3460003D02*
D03*
X1160002Y3260003D02*
D03*
X1060002Y3060003D02*
D03*
X1160002Y2460003D02*
D03*
X1060002Y2260003D02*
D03*
X1160002Y2060002D02*
D03*
X1060002Y1860002D02*
D03*
X1160002Y1260002D02*
D03*
X1060002Y1060002D02*
D03*
X1160002Y860002D02*
D03*
X1060002Y660002D02*
D03*
X1160002Y460002D02*
D03*
X1060002Y260002D02*
D03*
X860002Y8660006D02*
D03*
X960002Y7660006D02*
D03*
X860002Y7460005D02*
D03*
Y7060005D02*
D03*
Y6660005D02*
D03*
X960002Y6460005D02*
D03*
X860002Y6260005D02*
D03*
X960002Y6060005D02*
D03*
X860002Y5860005D02*
D03*
X960002Y5660004D02*
D03*
X860002Y5460004D02*
D03*
X960002Y4860004D02*
D03*
X860002Y4660004D02*
D03*
X960002Y4460004D02*
D03*
X860002Y4260004D02*
D03*
X960002Y3660003D02*
D03*
X860002Y3460003D02*
D03*
X960002Y3260003D02*
D03*
X860002Y3060003D02*
D03*
X960002Y2860003D02*
D03*
Y2460003D02*
D03*
X860002Y2260003D02*
D03*
X960002Y2060002D02*
D03*
X860002Y1860002D02*
D03*
X960002Y1660002D02*
D03*
Y1260002D02*
D03*
X860002Y1060002D02*
D03*
X960002Y860002D02*
D03*
Y460002D02*
D03*
X860002Y260002D02*
D03*
X660002Y6660005D02*
D03*
X760002Y6460005D02*
D03*
X660002Y6260005D02*
D03*
X760002Y6060005D02*
D03*
X660002Y5860005D02*
D03*
X760002Y5660004D02*
D03*
X660002Y5460004D02*
D03*
X760002Y5260004D02*
D03*
X660002Y4660004D02*
D03*
X760002Y4460004D02*
D03*
X660002Y4260004D02*
D03*
X760002Y4060004D02*
D03*
X660002Y3460003D02*
D03*
X760002Y3260003D02*
D03*
X660002Y3060003D02*
D03*
X760002Y2860003D02*
D03*
Y2060002D02*
D03*
X660002Y1860002D02*
D03*
X760002Y1660002D02*
D03*
Y860002D02*
D03*
X460002Y9060006D02*
D03*
Y7060005D02*
D03*
X560002Y6860005D02*
D03*
X460002Y6660005D02*
D03*
X560002Y6460005D02*
D03*
X460002Y6260005D02*
D03*
X560002Y6060005D02*
D03*
X460002Y5860005D02*
D03*
X560002Y5660004D02*
D03*
X460002Y5460004D02*
D03*
X560002Y5260004D02*
D03*
X460002Y4660004D02*
D03*
X560002Y4460004D02*
D03*
X460002Y4260004D02*
D03*
X560002Y4060004D02*
D03*
X460002Y3460003D02*
D03*
X560002Y3260003D02*
D03*
X460002Y3060003D02*
D03*
X560002Y2860003D02*
D03*
X460002Y2260003D02*
D03*
X560002Y2060002D02*
D03*
X460002Y1860002D02*
D03*
Y1060002D02*
D03*
X360002Y9260006D02*
D03*
X260002Y9060006D02*
D03*
Y8260006D02*
D03*
Y7860006D02*
D03*
X360002Y2060002D02*
D03*
X260002Y1860002D02*
D03*
X360002Y1660002D02*
D03*
X260002Y1460002D02*
D03*
X360002Y1260002D02*
D03*
X260002Y1060002D02*
D03*
X4827500Y6526000D02*
D03*
X4977500Y6376000D02*
D03*
X4827500D02*
D03*
X5127500D02*
D03*
Y6676000D02*
D03*
X4827500D02*
D03*
X5127500Y6526000D02*
D03*
X4977500Y6676000D02*
D03*
X4977499Y6526001D02*
D03*
X1553340Y6847059D02*
D03*
X4532500Y6682500D02*
D03*
X4575000Y7507500D02*
D03*
X5605000Y5122500D02*
D03*
X5405000D02*
D03*
X4480000Y5572500D02*
D03*
X5020000Y5327500D02*
D03*
X5677500Y6607500D02*
D03*
Y6807500D02*
D03*
X5298452Y5501548D02*
D03*
X5300000Y5600000D02*
D03*
X4260000Y6300000D02*
D03*
X5350000Y7050400D02*
D03*
X5195011Y7200000D02*
D03*
X5050000D02*
D03*
X5350000D02*
D03*
X5500000Y6600000D02*
D03*
X5150000Y5800000D02*
D03*
X5100000Y6000000D02*
D03*
X4200000Y6100000D02*
D03*
X4300000Y6000000D02*
D03*
X4400000Y5900000D02*
D03*
X4550000D02*
D03*
X4050000Y6550000D02*
D03*
Y6650000D02*
D03*
Y6750000D02*
D03*
Y6850000D02*
D03*
X1633220Y7239000D02*
D03*
X1503680D02*
D03*
X519836Y8167562D02*
D03*
X526918Y8067336D02*
D03*
X958340Y6771580D02*
D03*
Y6872060D02*
D03*
X660400Y7442200D02*
D03*
X560986Y7442214D02*
D03*
X1195840Y6592060D02*
D03*
X5108697Y6099098D02*
D03*
X1568340Y6392060D02*
D03*
X4500000Y6782500D02*
D03*
X8570000Y3040000D02*
D03*
X4727500Y6977500D02*
D03*
%TF.MD5,8b63775d91d73e6a12f0029730e73b00*%
M02*
