%TF.GenerationSoftware,Altium Limited,Altium Designer,24.0.1 (36)*%
G04 Layer_Color=0*
%FSLAX45Y45*%
%MOMM*%
%TF.SameCoordinates,35AB2F61-03EE-4C9E-862A-60B4A91D9B88*%
%TF.FilePolarity,Positive*%
%TF.FileFunction,Profile,NP*%
%TF.Part,Single*%
G01*
G75*
%TA.AperFunction,Profile*%
%ADD90C,0.02540*%
D90*
X119348Y235D02*
G03*
X119583Y0I235J0D01*
G01*
X1912620D01*
D02*
G03*
X2032000Y119380I0J119380D01*
G01*
Y1277620D01*
D02*
G02*
X2151380Y1397000I119380J0D01*
G01*
X3563620D01*
D02*
G02*
X3683000Y1277620I0J-119380D01*
G01*
Y754380D01*
D02*
G03*
X3802380Y635000I119380J0D01*
G01*
X5976620D01*
D02*
G02*
X6096000Y515620I0J-119380D01*
G01*
Y119380D01*
D02*
G03*
X6215380Y0I119380J0D01*
G01*
X8897620D01*
D02*
G03*
X9017000Y119380I0J119380D01*
G01*
Y3182620D01*
D02*
G03*
X8896850Y3301997I-119380J0D01*
G01*
X8818880Y3302000D01*
D02*
G02*
X8699500Y3421380I0J119380D01*
G01*
Y9469120D01*
D02*
G03*
X8580120Y9588500I-119380J0D01*
G01*
X5758180D01*
D02*
G03*
X5638800Y9469120I0J-119380D01*
G01*
Y9415780D01*
D02*
G02*
X5519420Y9296400I-119380J0D01*
G01*
X3726180D01*
D02*
G02*
X3606800Y9415780I0J119380D01*
G01*
Y9469120D01*
D02*
G03*
X3487420Y9588500I-119380J0D01*
G01*
X119380D01*
D02*
G03*
X0Y9469120I0J-119380D01*
G01*
Y7675880D01*
D02*
G03*
X119380Y7556500I119380J0D01*
G01*
X134620D01*
D02*
G02*
X254000Y7437120I0J-119380D01*
G01*
Y2151380D01*
D02*
G02*
X134620Y2032000I-119380J0D01*
G01*
X119380D01*
D02*
G03*
X0Y1912620I0J-119380D01*
G01*
Y116840D01*
D02*
G03*
X119348Y235I119347J2775D01*
G01*
%TF.MD5,058abec3a900ee6d943ea7e54b8ae349*%
M02*
