%TF.GenerationSoftware,Altium Limited,Altium Designer,24.0.1 (36)*%
G04 Layer_Physical_Order=4*
G04 Layer_Color=16711680*
%FSLAX45Y45*%
%MOMM*%
%TF.SameCoordinates,35AB2F61-03EE-4C9E-862A-60B4A91D9B88*%
%TF.FilePolarity,Positive*%
%TF.FileFunction,Copper,L4,Bot,Signal*%
%TF.Part,Single*%
G01*
G75*
%TA.AperFunction,Conductor*%
%ADD30C,0.50000*%
%ADD31C,0.30000*%
%ADD32C,0.20000*%
%ADD34C,0.28600*%
%TA.AperFunction,WasherPad*%
%ADD35C,1.30000*%
%TA.AperFunction,ComponentPad*%
%ADD36R,1.50000X1.50000*%
%ADD37R,1.50800X1.50800*%
%ADD38C,1.50800*%
%ADD39R,1.50000X1.50000*%
%ADD40O,1.70000X0.90000*%
%ADD41O,2.00000X0.90000*%
%ADD42C,0.60000*%
%TA.AperFunction,ViaPad*%
%ADD43C,6.35000*%
%TA.AperFunction,ComponentPad*%
%ADD44R,1.30000X1.30000*%
%ADD45C,1.30000*%
%ADD46C,1.37000*%
%ADD47R,1.37000X1.37000*%
%TA.AperFunction,ViaPad*%
%ADD48C,0.60000*%
%ADD49C,0.70000*%
D30*
X7691500Y3040000D02*
X8570000D01*
X7619500Y3112000D02*
Y8901546D01*
Y3112000D02*
X7691500Y3040000D01*
X7568046Y8953000D02*
X7619500Y8901546D01*
X3047500Y8953000D02*
X7568046D01*
X2921000Y8826500D02*
X3047500Y8953000D01*
D31*
X5591250Y5121250D02*
Y5122392D01*
X5422500Y5122500D02*
X5591142D01*
X5591250Y5122392D01*
X1407500Y6896220D02*
Y7757500D01*
X1195840Y6684560D02*
X1407500Y6896220D01*
X1195840Y6592060D02*
Y6684560D01*
Y6492060D02*
Y6592060D01*
Y6492060D02*
X1295840Y6392060D01*
X1568340D01*
D32*
X5677500Y6807500D02*
X5860000D01*
X5957500Y6905000D01*
X5677500Y6607500D02*
Y6807500D01*
Y6594000D02*
Y6607500D01*
X5117500Y2701960D02*
Y5637500D01*
X5220000Y5820439D02*
X5387141Y5987581D01*
X5117500Y5637500D02*
X5220000Y5740000D01*
X5040540Y2625000D02*
X5117500Y2701960D01*
X5220000Y5740000D02*
Y5820439D01*
X4480000Y5572500D02*
X4725000Y5327500D01*
X5020000D01*
X3780000Y5130942D02*
X4449458Y5800400D01*
X3740000Y5147511D02*
X4490000Y5897511D01*
X4449458Y5800400D02*
X5149600D01*
X3780000Y3520000D02*
Y5130942D01*
X4125000Y5625000D02*
X4400000Y5900000D01*
X3600000Y5625000D02*
X4125000D01*
X5500000Y6609852D02*
X5565400Y6675252D01*
Y7134600D01*
X5500000Y7200000D02*
X5565400Y7134600D01*
X5500000Y6600000D02*
Y6609852D01*
X5305000Y5595000D02*
X5402511D01*
X5298452Y5501548D02*
X5299214Y5502309D01*
X5300000Y5600000D02*
X5305000Y5595000D01*
X5299214Y5502309D02*
X5438634D01*
X3505680Y6120680D02*
X3902890D01*
X3980139Y6100000D02*
X4200000D01*
X3488180Y6160680D02*
X3919459D01*
X3902890Y6120680D02*
X4023571Y6000000D01*
X3919459Y6160680D02*
X3980139Y6100000D01*
X4023571Y6000000D02*
X4300000D01*
X3327500D02*
X3488180Y6160680D01*
X3367500Y5982500D02*
X3505680Y6120680D01*
X5402511Y5595000D02*
X5912480Y5085032D01*
X5387141Y5987581D02*
Y6096199D01*
X5350000Y7200000D02*
X5500000D01*
X3600400Y3125400D02*
X3695400D01*
X3760000Y3190000D02*
Y3426611D01*
X3695400Y3125400D02*
X3760000Y3190000D01*
X3600000Y3125000D02*
X3600400Y3125400D01*
X3800000Y1947500D02*
Y3443432D01*
X3600000Y1875000D02*
X3727500D01*
X3800000Y1947500D01*
X3974613Y1445388D02*
Y3325388D01*
X4045000Y1375000D02*
X4150000D01*
X3974613Y1445388D02*
X4045000Y1375000D01*
X3780000Y3520000D02*
X3974613Y3325388D01*
X3367500Y3875932D02*
X3800000Y3443432D01*
X3740000Y4515000D02*
Y5147511D01*
X3600000Y4375000D02*
X3740000Y4515000D01*
X3367500Y3875932D02*
Y5982500D01*
X3327500Y3859111D02*
X3760000Y3426611D01*
X5129611Y7134600D02*
X5195011Y7200000D01*
X5022911Y7134600D02*
X5129611D01*
X4966980Y7335520D02*
X5050000Y7252500D01*
X1535520Y7335520D02*
X4966980D01*
X4947500Y7295000D02*
X4984600Y7257900D01*
X1691760Y7295000D02*
X4947500D01*
X1633220Y7236460D02*
X1691760Y7295000D01*
X5050000Y7200000D02*
Y7252500D01*
X4984600Y7172911D02*
Y7257900D01*
Y7172911D02*
X5022911Y7134600D01*
X1503680Y7303680D02*
X1535520Y7335520D01*
X1503680Y7239000D02*
Y7303680D01*
X650000Y5125000D02*
X2330000D01*
X2405000Y5200000D02*
Y6775000D01*
X2330000Y5125000D02*
X2405000Y5200000D01*
X650000Y3875000D02*
X2380000D01*
X2452500Y3947500D02*
Y6672500D01*
X2380000Y3875000D02*
X2452500Y3947500D01*
Y6672500D02*
X2530000Y6750000D01*
X2405000Y6775000D02*
X2480000Y6850000D01*
X2432500Y2625000D02*
X2500000Y2692500D01*
Y6582500D01*
X650000Y2625000D02*
X2432500D01*
X2545000Y1837500D02*
Y6485000D01*
X2470473Y1762973D02*
X2545000Y1837500D01*
X722973Y1762973D02*
X2470473D01*
X650000Y1690000D02*
X722973Y1762973D01*
X650000Y1375000D02*
Y1690000D01*
X2530000Y6750000D02*
X4050000D01*
X2567500Y6650000D02*
X4050000D01*
X2500000Y6582500D02*
X2567500Y6650000D01*
X2610000Y6550000D02*
X4050000D01*
X2545000Y6485000D02*
X2610000Y6550000D01*
X2480000Y6850000D02*
X4050000D01*
X3327500Y3859111D02*
Y6000000D01*
X4035206Y7087294D02*
X4145000Y6977500D01*
Y6287500D02*
X4467100Y5965400D01*
X4145000Y6287500D02*
Y6977500D01*
X4467100Y5965400D02*
X4786700D01*
X4822500Y5929600D01*
X5130039D01*
X3842706Y7087294D02*
X4035206D01*
X3812500Y7117500D02*
X3842706Y7087294D01*
X5300000Y5800000D02*
X5400000Y5900000D01*
X5214723Y5994723D02*
X5284755Y6064755D01*
X5300000Y5700000D02*
X5400000D01*
X5149600Y5800400D02*
X5150000Y5800000D01*
X5195162Y5994723D02*
X5214723D01*
X5130039Y5929600D02*
X5195162Y5994723D01*
X5400000Y5900000D02*
X6825000D01*
X5400000Y5700000D02*
X5952480Y5147520D01*
X5912480Y3198500D02*
Y5085032D01*
X5438634Y5502309D02*
X5872480Y5068463D01*
X5952480Y4448820D02*
Y5147520D01*
X6825000Y5900000D02*
X7100000Y5625000D01*
X5345840Y6137500D02*
X5387141Y6096199D01*
X4490000Y5897511D02*
X4547511D01*
X4550000Y5900000D01*
X4150000Y2625000D02*
X5040540D01*
X5155147Y6137500D02*
X5345840D01*
X5872480Y1948180D02*
X5945660Y1875000D01*
X5872480Y1948180D02*
Y5068463D01*
X5945660Y1875000D02*
X7100000D01*
X5985980Y3125000D02*
X7100000D01*
X5912480Y3198500D02*
X5985980Y3125000D01*
X6026300Y4375000D02*
X7100000D01*
X5952480Y4448820D02*
X6026300Y4375000D01*
X5116745Y6099098D02*
X5155147Y6137500D01*
X5108697Y6099098D02*
X5116745D01*
D34*
X560986Y7442214D02*
Y7453417D01*
X947137Y6771580D02*
X958340D01*
X586226Y7074510D02*
X863376Y6797360D01*
X586226Y7074510D02*
Y7405771D01*
X560986Y7431011D02*
Y7442214D01*
X660400Y7430997D02*
Y7442200D01*
X635146Y7094773D02*
X883640Y6846280D01*
X635146Y7094773D02*
Y7405743D01*
X883640Y6846280D02*
X921357D01*
X635146Y7405743D02*
X660400Y7430997D01*
X947137Y6872060D02*
X958340D01*
X863376Y6797360D02*
X921357D01*
X560986Y7431011D02*
X586226Y7405771D01*
X921357Y6846280D02*
X947137Y6872060D01*
X921357Y6797360D02*
X947137Y6771580D01*
X508633Y8167562D02*
X519836D01*
X482853Y8141782D02*
X508633Y8167562D01*
X383612Y8093885D02*
X431509Y8141782D01*
X482853D01*
X383612Y7723672D02*
Y8093885D01*
X586243Y7478673D02*
Y7521041D01*
X560986Y7453417D02*
X586243Y7478673D01*
X383612Y7723672D02*
X586243Y7521041D01*
X635163Y7478640D02*
Y7541305D01*
X432533Y7743935D02*
X635163Y7541305D01*
X451772Y8092861D02*
X490191D01*
X515716Y8067336D01*
X432533Y8073621D02*
X451772Y8092861D01*
X515716Y8067336D02*
X526918D01*
X432533Y7743935D02*
Y8073621D01*
X660400Y7442200D02*
Y7453403D01*
X635163Y7478640D02*
X660400Y7453403D01*
D35*
X8777500Y935000D02*
D03*
X277500Y9317500D02*
D03*
D36*
X3812500Y6390000D02*
D03*
D37*
X4150000Y4875000D02*
D03*
X650000Y1125000D02*
D03*
Y4875000D02*
D03*
Y3625000D02*
D03*
Y2375000D02*
D03*
X3600000Y4625000D02*
D03*
Y5875000D02*
D03*
Y2125000D02*
D03*
Y3375000D02*
D03*
X4150000Y3625000D02*
D03*
Y2375000D02*
D03*
Y1125000D02*
D03*
X7100000Y5875000D02*
D03*
Y4625000D02*
D03*
Y3375000D02*
D03*
Y2125000D02*
D03*
Y875000D02*
D03*
D38*
X4150000Y5125000D02*
D03*
X650000Y1375000D02*
D03*
Y5125000D02*
D03*
Y3875000D02*
D03*
Y2625000D02*
D03*
X3600000Y4375000D02*
D03*
Y5625000D02*
D03*
Y1875000D02*
D03*
Y3125000D02*
D03*
X4150000Y3875000D02*
D03*
Y2625000D02*
D03*
Y1375000D02*
D03*
X7100000Y5625000D02*
D03*
Y4375000D02*
D03*
Y3125000D02*
D03*
Y1875000D02*
D03*
Y625000D02*
D03*
D39*
X3812500Y7117500D02*
D03*
X1407500Y7757500D02*
D03*
X2496820Y9357500D02*
D03*
X7875000Y2225000D02*
D03*
X721360Y6037580D02*
D03*
X5957500Y6905000D02*
D03*
X5232500Y7507500D02*
D03*
D40*
X210000Y7735000D02*
D03*
Y8600000D02*
D03*
D41*
X627000Y7735000D02*
D03*
Y8600000D02*
D03*
D42*
X578000Y8456500D02*
D03*
Y7878500D02*
D03*
D43*
X8255000Y9080500D02*
D03*
X889000D02*
D03*
X8509000Y508000D02*
D03*
X508000D02*
D03*
D44*
X7559000Y1808000D02*
D03*
D45*
Y1300000D02*
D03*
X8575000D02*
D03*
Y1808000D02*
D03*
D46*
X2159000Y9080500D02*
D03*
X3683000D02*
D03*
X2921000D02*
D03*
X2667000D02*
D03*
X2413000D02*
D03*
X3429000D02*
D03*
X1905000D02*
D03*
X1651000D02*
D03*
X3175000D02*
D03*
X1397000D02*
D03*
X6223000D02*
D03*
X6477000Y8826500D02*
D03*
X7493000Y9080500D02*
D03*
Y8826500D02*
D03*
X7239000Y9080500D02*
D03*
Y8826500D02*
D03*
X6985000Y9080500D02*
D03*
Y8826500D02*
D03*
X6731000Y9080500D02*
D03*
Y8826500D02*
D03*
X6477000Y9080500D02*
D03*
X7747000D02*
D03*
Y8826500D02*
D03*
X6223000D02*
D03*
X3175000D02*
D03*
X4445000D02*
D03*
X3683000D02*
D03*
X3937000D02*
D03*
X4191000D02*
D03*
X3429000D02*
D03*
X5969000D02*
D03*
X5715000D02*
D03*
X5461000D02*
D03*
X4699000D02*
D03*
X4953000D02*
D03*
X5207000D02*
D03*
X2159000D02*
D03*
X2921000D02*
D03*
X2667000D02*
D03*
X2413000D02*
D03*
X1905000D02*
D03*
X1651000D02*
D03*
X5207000Y9080500D02*
D03*
X5969000D02*
D03*
X5715000D02*
D03*
X5461000D02*
D03*
X4953000D02*
D03*
X4699000D02*
D03*
X4445000D02*
D03*
X4191000D02*
D03*
X3937000D02*
D03*
X2159000Y8572500D02*
D03*
X3683000D02*
D03*
X2921000D02*
D03*
X2667000D02*
D03*
X2413000D02*
D03*
X3429000D02*
D03*
X1905000D02*
D03*
X1651000D02*
D03*
X3175000D02*
D03*
X1397000D02*
D03*
X6223000D02*
D03*
X6477000Y8318500D02*
D03*
X7493000Y8572500D02*
D03*
Y8318500D02*
D03*
X7239000Y8572500D02*
D03*
Y8318500D02*
D03*
X6985000Y8572500D02*
D03*
Y8318500D02*
D03*
X6731000Y8572500D02*
D03*
Y8318500D02*
D03*
X6477000Y8572500D02*
D03*
X7747000D02*
D03*
Y8318500D02*
D03*
X6223000D02*
D03*
X3175000D02*
D03*
X4445000D02*
D03*
X3683000D02*
D03*
X3937000D02*
D03*
X4191000D02*
D03*
X3429000D02*
D03*
X5969000D02*
D03*
X5715000D02*
D03*
X5461000D02*
D03*
X4699000D02*
D03*
X4953000D02*
D03*
X5207000D02*
D03*
X2159000D02*
D03*
X2921000D02*
D03*
X2667000D02*
D03*
X2413000D02*
D03*
X1905000D02*
D03*
X1651000D02*
D03*
X5207000Y8572500D02*
D03*
X5969000D02*
D03*
X5715000D02*
D03*
X5461000D02*
D03*
X4953000D02*
D03*
X4699000D02*
D03*
X4445000D02*
D03*
X4191000D02*
D03*
X3937000D02*
D03*
D47*
X1397000Y8826500D02*
D03*
Y8318500D02*
D03*
D48*
X8760006Y2860003D02*
D03*
Y2460003D02*
D03*
Y2060002D02*
D03*
Y1660002D02*
D03*
X8660006Y1460002D02*
D03*
X8760006Y1260002D02*
D03*
X8660006Y1060002D02*
D03*
X8460006Y8660006D02*
D03*
Y8260006D02*
D03*
Y7860006D02*
D03*
Y7460005D02*
D03*
Y7060005D02*
D03*
Y6660005D02*
D03*
Y6260005D02*
D03*
Y5860005D02*
D03*
Y5460004D02*
D03*
Y5060004D02*
D03*
Y4660004D02*
D03*
Y4260004D02*
D03*
Y3860003D02*
D03*
Y3460003D02*
D03*
X8560006Y2460003D02*
D03*
X8460006Y1460002D02*
D03*
Y1060002D02*
D03*
X8260006Y8660006D02*
D03*
X8360006Y8460006D02*
D03*
X8260006Y8260006D02*
D03*
X8360006Y8060006D02*
D03*
X8260006Y7860006D02*
D03*
X8360006Y7660006D02*
D03*
X8260006Y7460005D02*
D03*
X8360006Y7260005D02*
D03*
X8260006Y7060005D02*
D03*
X8360006Y6860005D02*
D03*
X8260006Y6660005D02*
D03*
X8360006Y6460005D02*
D03*
X8260006Y6260005D02*
D03*
X8360006Y6060005D02*
D03*
X8260006Y5860005D02*
D03*
X8360006Y5660004D02*
D03*
X8260006Y5460004D02*
D03*
X8360006Y5260004D02*
D03*
X8260006Y5060004D02*
D03*
X8360006Y4860004D02*
D03*
X8260006Y4660004D02*
D03*
X8360006Y4460004D02*
D03*
X8260006Y4260004D02*
D03*
X8360006Y4060004D02*
D03*
X8260006Y3860003D02*
D03*
X8360006Y3660003D02*
D03*
X8260006Y3460003D02*
D03*
X8360006Y3260003D02*
D03*
Y2860003D02*
D03*
X8260006Y2660003D02*
D03*
X8360006Y2460003D02*
D03*
X8260006Y2260003D02*
D03*
X8360006Y2060002D02*
D03*
X8260006Y1860002D02*
D03*
X8360006Y1660002D02*
D03*
X8260006Y1460002D02*
D03*
X8360006Y1260002D02*
D03*
X8260006Y1060002D02*
D03*
X8060006Y8660006D02*
D03*
X8160006Y8460006D02*
D03*
X8060006Y8260006D02*
D03*
X8160006Y8060006D02*
D03*
X8060006Y7860006D02*
D03*
X8160006Y7660006D02*
D03*
X8060006Y7460005D02*
D03*
X8160006Y7260005D02*
D03*
X8060006Y7060005D02*
D03*
X8160006Y6860005D02*
D03*
X8060006Y6660005D02*
D03*
X8160006Y6460005D02*
D03*
X8060006Y6260005D02*
D03*
X8160006Y6060005D02*
D03*
X8060006Y5860005D02*
D03*
X8160006Y5660004D02*
D03*
X8060006Y5460004D02*
D03*
X8160006Y5260004D02*
D03*
X8060006Y5060004D02*
D03*
X8160006Y4860004D02*
D03*
X8060006Y4660004D02*
D03*
X8160006Y4460004D02*
D03*
X8060006Y4260004D02*
D03*
X8160006Y4060004D02*
D03*
X8060006Y3860003D02*
D03*
X8160006Y3660003D02*
D03*
X8060006Y3460003D02*
D03*
X8160006Y3260003D02*
D03*
Y2860003D02*
D03*
X8060006Y2660003D02*
D03*
X8160006Y2460003D02*
D03*
X8060006Y2260003D02*
D03*
X8160006Y2060002D02*
D03*
X8060006Y1860002D02*
D03*
X8160006Y1660002D02*
D03*
X8060006Y1460002D02*
D03*
X8160006Y1260002D02*
D03*
X8060006Y1060002D02*
D03*
X8160006Y860002D02*
D03*
X8060006Y660002D02*
D03*
Y260002D02*
D03*
X7960006Y8460006D02*
D03*
Y8060006D02*
D03*
X7860006Y7860006D02*
D03*
X7960006Y7660006D02*
D03*
X7860006Y7460005D02*
D03*
X7960006Y7260005D02*
D03*
X7860006Y7060005D02*
D03*
X7960006Y6860005D02*
D03*
X7860006Y6660005D02*
D03*
X7960006Y6460005D02*
D03*
X7860006Y6260005D02*
D03*
X7960006Y6060005D02*
D03*
X7860006Y5860005D02*
D03*
X7960006Y5660004D02*
D03*
X7860006Y5460004D02*
D03*
X7960006Y5260004D02*
D03*
X7860006Y5060004D02*
D03*
X7960006Y4860004D02*
D03*
X7860006Y4660004D02*
D03*
X7960006Y4460004D02*
D03*
X7860006Y4260004D02*
D03*
X7960006Y4060004D02*
D03*
X7860006Y3860003D02*
D03*
X7960006Y3660003D02*
D03*
X7860006Y3460003D02*
D03*
X7960006Y3260003D02*
D03*
Y2860003D02*
D03*
X7860006Y2660003D02*
D03*
X7960006Y2460003D02*
D03*
Y2060002D02*
D03*
X7860006Y1860002D02*
D03*
X7960006Y1660002D02*
D03*
X7860006Y1460002D02*
D03*
X7960006Y1260002D02*
D03*
X7860006Y1060002D02*
D03*
X7960006Y860002D02*
D03*
X7860006Y660002D02*
D03*
X7960006Y460002D02*
D03*
X7860006Y260002D02*
D03*
X7760006Y9260006D02*
D03*
Y8060006D02*
D03*
Y7660006D02*
D03*
Y7260005D02*
D03*
Y6860005D02*
D03*
Y6460005D02*
D03*
Y6060005D02*
D03*
Y5660004D02*
D03*
Y5260004D02*
D03*
Y4860004D02*
D03*
Y4460004D02*
D03*
Y4060004D02*
D03*
Y3660003D02*
D03*
Y3260003D02*
D03*
Y2860003D02*
D03*
X7660006Y2660003D02*
D03*
X7760006Y2460003D02*
D03*
Y2060002D02*
D03*
Y1660002D02*
D03*
X7660006Y1460002D02*
D03*
X7760006Y1260002D02*
D03*
X7660006Y1060002D02*
D03*
X7760006Y860002D02*
D03*
X7660006Y660002D02*
D03*
X7760006Y460002D02*
D03*
X7660006Y260002D02*
D03*
X7560005Y9260006D02*
D03*
X7460005Y7860006D02*
D03*
Y7460005D02*
D03*
Y7060005D02*
D03*
Y6260005D02*
D03*
Y5860005D02*
D03*
Y5460004D02*
D03*
Y5060004D02*
D03*
Y4660004D02*
D03*
Y3860003D02*
D03*
Y3460003D02*
D03*
Y2660003D02*
D03*
Y2260003D02*
D03*
Y1460002D02*
D03*
Y1060002D02*
D03*
X7560005Y860002D02*
D03*
X7460005Y660002D02*
D03*
X7560005Y460002D02*
D03*
X7460005Y260002D02*
D03*
X7360005Y9260006D02*
D03*
Y8460006D02*
D03*
Y8060006D02*
D03*
X7260005Y7860006D02*
D03*
X7360005Y7660006D02*
D03*
X7260005Y7460005D02*
D03*
X7360005Y7260005D02*
D03*
X7260005Y7060005D02*
D03*
X7360005Y6860005D02*
D03*
Y6460005D02*
D03*
X7260005Y6260005D02*
D03*
X7360005Y6060005D02*
D03*
Y5260004D02*
D03*
X7260005Y5060004D02*
D03*
X7360005Y4860004D02*
D03*
X7260005Y4660004D02*
D03*
X7360005Y4460004D02*
D03*
Y4060004D02*
D03*
X7260005Y3860003D02*
D03*
X7360005Y3660003D02*
D03*
X7260005Y3460003D02*
D03*
X7360005Y3260003D02*
D03*
Y2860003D02*
D03*
X7260005Y2660003D02*
D03*
X7360005Y2460003D02*
D03*
X7260005Y2260003D02*
D03*
X7360005Y2060002D02*
D03*
Y1660002D02*
D03*
X7260005Y1460002D02*
D03*
X7360005Y1260002D02*
D03*
X7260005Y1060002D02*
D03*
X7360005Y860002D02*
D03*
X7260005Y660002D02*
D03*
X7360005Y460002D02*
D03*
X7260005Y260002D02*
D03*
X7160005Y9260006D02*
D03*
Y8060006D02*
D03*
X7060005Y7860006D02*
D03*
X7160005Y7660006D02*
D03*
X7060005Y7460005D02*
D03*
X7160005Y7260005D02*
D03*
X7060005Y7060005D02*
D03*
X7160005Y6860005D02*
D03*
X7060005Y5460004D02*
D03*
X7160005Y5260004D02*
D03*
Y4060004D02*
D03*
Y2860003D02*
D03*
Y1660002D02*
D03*
X7060005Y1460002D02*
D03*
X7160005Y1260002D02*
D03*
X7060005Y1060002D02*
D03*
X7160005Y460002D02*
D03*
X7060005Y260002D02*
D03*
X6960005Y9260006D02*
D03*
Y8060006D02*
D03*
X6860005Y7860006D02*
D03*
X6960005Y7660006D02*
D03*
X6860005Y7460005D02*
D03*
X6960005Y7260005D02*
D03*
X6860005Y7060005D02*
D03*
X6960005Y6860005D02*
D03*
Y6460005D02*
D03*
X6860005Y6260005D02*
D03*
X6960005Y6060005D02*
D03*
X6860005Y5460004D02*
D03*
Y5060004D02*
D03*
X6960005Y4860004D02*
D03*
X6860005Y4260004D02*
D03*
Y3860003D02*
D03*
X6960005Y3660003D02*
D03*
X6860005Y3460003D02*
D03*
Y2660003D02*
D03*
X6960005Y2460003D02*
D03*
X6860005Y2260003D02*
D03*
X6960005Y1660002D02*
D03*
X6860005Y1460002D02*
D03*
X6960005Y1260002D02*
D03*
X6860005Y1060002D02*
D03*
Y660002D02*
D03*
X6960005Y460002D02*
D03*
X6860005Y260002D02*
D03*
X6760005Y9260006D02*
D03*
Y8060006D02*
D03*
X6660005Y7860006D02*
D03*
X6760005Y7660006D02*
D03*
X6660005Y7460005D02*
D03*
X6760005Y7260005D02*
D03*
X6660005Y7060005D02*
D03*
X6760005Y6860005D02*
D03*
Y6460005D02*
D03*
X6660005Y6260005D02*
D03*
X6760005Y6060005D02*
D03*
Y5660004D02*
D03*
X6660005Y5460004D02*
D03*
X6760005Y5260004D02*
D03*
X6660005Y5060004D02*
D03*
X6760005Y4860004D02*
D03*
Y4460004D02*
D03*
X6660005Y4260004D02*
D03*
X6760005Y4060004D02*
D03*
X6660005Y3860003D02*
D03*
X6760005Y3660003D02*
D03*
X6660005Y3460003D02*
D03*
X6760005Y3260003D02*
D03*
Y2860003D02*
D03*
X6660005Y2660003D02*
D03*
X6760005Y2460003D02*
D03*
X6660005Y2260003D02*
D03*
X6760005Y1660002D02*
D03*
X6660005Y1460002D02*
D03*
X6760005Y1260002D02*
D03*
X6660005Y1060002D02*
D03*
X6760005Y860002D02*
D03*
X6660005Y660002D02*
D03*
X6760005Y460002D02*
D03*
X6660005Y260002D02*
D03*
X6560005Y9260006D02*
D03*
Y8060006D02*
D03*
X6460005Y7860006D02*
D03*
X6560005Y7660006D02*
D03*
X6460005Y7460005D02*
D03*
X6560005Y7260005D02*
D03*
X6460005Y7060005D02*
D03*
X6560005Y6860005D02*
D03*
Y6460005D02*
D03*
X6460005Y6260005D02*
D03*
X6560005Y6060005D02*
D03*
Y5660004D02*
D03*
X6460005Y5460004D02*
D03*
X6560005Y5260004D02*
D03*
X6460005Y5060004D02*
D03*
X6560005Y4860004D02*
D03*
Y4460004D02*
D03*
X6460005Y4260004D02*
D03*
X6560005Y4060004D02*
D03*
X6460005Y3860003D02*
D03*
X6560005Y3660003D02*
D03*
X6460005Y3460003D02*
D03*
X6560005Y3260003D02*
D03*
Y2860003D02*
D03*
X6460005Y2660003D02*
D03*
X6560005Y2460003D02*
D03*
X6460005Y2260003D02*
D03*
X6560005Y1660002D02*
D03*
X6460005Y1460002D02*
D03*
X6560005Y1260002D02*
D03*
X6460005Y1060002D02*
D03*
X6560005Y860002D02*
D03*
X6460005Y660002D02*
D03*
X6560005Y460002D02*
D03*
X6460005Y260002D02*
D03*
X6360005Y9260006D02*
D03*
Y8460006D02*
D03*
X6260005Y7860006D02*
D03*
X6360005Y7660006D02*
D03*
X6260005Y7460005D02*
D03*
X6360005Y7260005D02*
D03*
X6260005Y7060005D02*
D03*
X6360005Y6860005D02*
D03*
Y6460005D02*
D03*
X6260005Y6260005D02*
D03*
X6360005Y6060005D02*
D03*
Y5660004D02*
D03*
X6260005Y5460004D02*
D03*
X6360005Y5260004D02*
D03*
X6260005Y5060004D02*
D03*
X6360005Y4860004D02*
D03*
Y4460004D02*
D03*
X6260005Y4260004D02*
D03*
X6360005Y4060004D02*
D03*
X6260005Y3860003D02*
D03*
X6360005Y3660003D02*
D03*
X6260005Y3460003D02*
D03*
X6360005Y3260003D02*
D03*
Y2860003D02*
D03*
X6260005Y2660003D02*
D03*
X6360005Y2460003D02*
D03*
X6260005Y2260003D02*
D03*
X6360005Y1660002D02*
D03*
X6260005Y1460002D02*
D03*
X6360005Y1260002D02*
D03*
X6260005Y1060002D02*
D03*
X6360005Y860002D02*
D03*
Y460002D02*
D03*
X6160005Y9260006D02*
D03*
Y8060006D02*
D03*
Y7660006D02*
D03*
X6060005Y7460005D02*
D03*
X6160005Y7260005D02*
D03*
Y6860005D02*
D03*
Y6460005D02*
D03*
X6060005Y6260005D02*
D03*
X6160005Y6060005D02*
D03*
Y5660004D02*
D03*
X6060005Y5460004D02*
D03*
X6160005Y5260004D02*
D03*
X6060005Y5060004D02*
D03*
X6160005Y4860004D02*
D03*
Y4460004D02*
D03*
X6060005Y4260004D02*
D03*
X6160005Y4060004D02*
D03*
X6060005Y3860003D02*
D03*
X6160005Y3660003D02*
D03*
X6060005Y3460003D02*
D03*
X6160005Y3260003D02*
D03*
Y2860003D02*
D03*
X6060005Y2660003D02*
D03*
X6160005Y2460003D02*
D03*
X6060005Y2260003D02*
D03*
X6160005Y1660002D02*
D03*
X6060005Y1460002D02*
D03*
X6160005Y1260002D02*
D03*
X6060005Y1060002D02*
D03*
X6160005Y860002D02*
D03*
X5960005Y9260006D02*
D03*
Y8060006D02*
D03*
X5860005Y7860006D02*
D03*
Y7460005D02*
D03*
X5960005Y7260005D02*
D03*
Y6460005D02*
D03*
X5860005Y6260005D02*
D03*
X5960005Y6060005D02*
D03*
Y5660004D02*
D03*
X5860005Y5460004D02*
D03*
X5960005Y5260004D02*
D03*
Y2860003D02*
D03*
Y2460003D02*
D03*
X5860005Y1860002D02*
D03*
X5960005Y1660002D02*
D03*
X5860005Y1460002D02*
D03*
X5960005Y1260002D02*
D03*
X5860005Y1060002D02*
D03*
X5960005Y860002D02*
D03*
X5760004Y8060006D02*
D03*
X5660004Y7860006D02*
D03*
X5760004Y7660006D02*
D03*
Y7260005D02*
D03*
X5660004Y7060005D02*
D03*
X5760004Y6460005D02*
D03*
Y6060005D02*
D03*
Y5660004D02*
D03*
Y4860004D02*
D03*
Y4460004D02*
D03*
X5660004Y4260004D02*
D03*
X5760004Y4060004D02*
D03*
X5660004Y3860003D02*
D03*
X5760004Y3660003D02*
D03*
X5660004Y3460003D02*
D03*
X5760004Y3260003D02*
D03*
X5660004Y3060003D02*
D03*
X5760004Y2860003D02*
D03*
X5660004Y2660003D02*
D03*
X5760004Y2460003D02*
D03*
X5660004Y2260003D02*
D03*
Y1860002D02*
D03*
X5760004Y1660002D02*
D03*
X5660004Y1460002D02*
D03*
X5760004Y1260002D02*
D03*
X5660004Y1060002D02*
D03*
X5760004Y860002D02*
D03*
X5560004Y8060006D02*
D03*
X5460004Y7860006D02*
D03*
X5560004Y7660006D02*
D03*
Y4860004D02*
D03*
Y4460004D02*
D03*
X5460004Y4260004D02*
D03*
X5560004Y4060004D02*
D03*
X5460004Y3860003D02*
D03*
X5560004Y3660003D02*
D03*
X5460004Y3460003D02*
D03*
X5560004Y3260003D02*
D03*
X5460004Y3060003D02*
D03*
X5560004Y2860003D02*
D03*
X5460004Y2660003D02*
D03*
X5560004Y2460003D02*
D03*
X5460004Y2260003D02*
D03*
Y1860002D02*
D03*
X5560004Y1660002D02*
D03*
X5460004Y1460002D02*
D03*
X5560004Y1260002D02*
D03*
X5460004Y1060002D02*
D03*
X5560004Y860002D02*
D03*
X5360004Y8060006D02*
D03*
X5260004Y7860006D02*
D03*
X5360004Y4460004D02*
D03*
X5260004Y4260004D02*
D03*
X5360004Y4060004D02*
D03*
X5260004Y3860003D02*
D03*
X5360004Y3660003D02*
D03*
X5260004Y3460003D02*
D03*
X5360004Y3260003D02*
D03*
X5260004Y3060003D02*
D03*
X5360004Y2860003D02*
D03*
X5260004Y2660003D02*
D03*
X5360004Y2460003D02*
D03*
X5260004Y2260003D02*
D03*
Y1860002D02*
D03*
X5360004Y1660002D02*
D03*
X5260004Y1460002D02*
D03*
X5360004Y1260002D02*
D03*
X5260004Y1060002D02*
D03*
X5360004Y860002D02*
D03*
X5160004Y8060006D02*
D03*
Y2460003D02*
D03*
X5060004Y2260003D02*
D03*
Y1860002D02*
D03*
X5160004Y1660002D02*
D03*
X5060004Y1460002D02*
D03*
X5160004Y1260002D02*
D03*
X5060004Y1060002D02*
D03*
X5160004Y860002D02*
D03*
X4960004Y8060006D02*
D03*
X4860004Y7860006D02*
D03*
Y4660004D02*
D03*
X4960004Y4060004D02*
D03*
X4860004Y3860003D02*
D03*
X4960004Y3660003D02*
D03*
X4860004Y3460003D02*
D03*
X4960004Y2860003D02*
D03*
Y2460003D02*
D03*
X4860004Y2260003D02*
D03*
X4960004Y2060002D02*
D03*
Y1660002D02*
D03*
X4860004Y1460002D02*
D03*
X4960004Y1260002D02*
D03*
X4860004Y1060002D02*
D03*
X4960004Y860002D02*
D03*
X4760004Y8060006D02*
D03*
Y5260004D02*
D03*
X4660004Y4660004D02*
D03*
X4760004Y4460004D02*
D03*
X4660004Y4260004D02*
D03*
X4760004Y4060004D02*
D03*
X4660004Y3860003D02*
D03*
X4760004Y3660003D02*
D03*
X4660004Y3460003D02*
D03*
X4760004Y3260003D02*
D03*
X4660004Y3060003D02*
D03*
X4760004Y2860003D02*
D03*
Y2460003D02*
D03*
X4660004Y2260003D02*
D03*
X4760004Y2060002D02*
D03*
X4660004Y1860002D02*
D03*
Y1460002D02*
D03*
X4760004Y1260002D02*
D03*
X4660004Y1060002D02*
D03*
X4760004Y860002D02*
D03*
X4560004Y8460006D02*
D03*
Y5660004D02*
D03*
Y5260004D02*
D03*
X4460004Y4660004D02*
D03*
X4560004Y4460004D02*
D03*
X4460004Y4260004D02*
D03*
X4560004Y3660003D02*
D03*
X4460004Y3460003D02*
D03*
X4560004Y3260003D02*
D03*
X4460004Y3060003D02*
D03*
X4560004Y2460003D02*
D03*
X4460004Y2260003D02*
D03*
X4560004Y2060002D02*
D03*
X4460004Y1860002D02*
D03*
X4560004Y1660002D02*
D03*
Y1260002D02*
D03*
X4460004Y1060002D02*
D03*
X4560004Y860002D02*
D03*
X4360004Y8060006D02*
D03*
X4260004Y7860006D02*
D03*
X4360004Y5260004D02*
D03*
Y4460004D02*
D03*
X4260004Y4260004D02*
D03*
X4360004Y4060004D02*
D03*
Y3660003D02*
D03*
X4260004Y3460003D02*
D03*
X4360004Y3260003D02*
D03*
X4260004Y3060003D02*
D03*
X4360004Y2860003D02*
D03*
Y2460003D02*
D03*
Y2060002D02*
D03*
X4260004Y1860002D02*
D03*
X4360004Y1660002D02*
D03*
Y860002D02*
D03*
X4160004Y8060006D02*
D03*
X4060004Y7860006D02*
D03*
Y4660004D02*
D03*
X4160004Y4460004D02*
D03*
X4060004Y4260004D02*
D03*
X4160004Y4060004D02*
D03*
Y3260003D02*
D03*
X4060004Y3060003D02*
D03*
X4160004Y2860003D02*
D03*
Y2060002D02*
D03*
X4060004Y1860002D02*
D03*
X4160004Y1660002D02*
D03*
Y860002D02*
D03*
X3960004Y8060006D02*
D03*
X3860003Y7860006D02*
D03*
X3960004Y4860004D02*
D03*
Y3660003D02*
D03*
Y860002D02*
D03*
X3760003Y8060006D02*
D03*
X3660003Y7860006D02*
D03*
Y5460004D02*
D03*
X3760003Y5260004D02*
D03*
X3660003Y5060004D02*
D03*
Y3860003D02*
D03*
Y2660003D02*
D03*
X3760003Y1660002D02*
D03*
X3560003Y8460006D02*
D03*
Y8060006D02*
D03*
X3460003Y7860006D02*
D03*
X3560003Y7660006D02*
D03*
Y6460005D02*
D03*
X3460003Y6260005D02*
D03*
Y5460004D02*
D03*
X3560003Y5260004D02*
D03*
X3460003Y5060004D02*
D03*
X3560003Y4860004D02*
D03*
X3460003Y4260004D02*
D03*
X3560003Y4060004D02*
D03*
X3460003Y3460003D02*
D03*
X3560003Y2860003D02*
D03*
X3460003Y2660003D02*
D03*
X3560003Y2460003D02*
D03*
X3460003Y2260003D02*
D03*
X3560003Y1660002D02*
D03*
X3360003Y9260006D02*
D03*
Y8060006D02*
D03*
X3260003Y7860006D02*
D03*
X3360003Y7660006D02*
D03*
X3260003Y7460005D02*
D03*
X3360003Y6460005D02*
D03*
X3260003Y6260005D02*
D03*
Y5860005D02*
D03*
Y5460004D02*
D03*
Y5060004D02*
D03*
Y4260004D02*
D03*
Y3860003D02*
D03*
X3360003Y3660003D02*
D03*
X3260003Y3460003D02*
D03*
X3360003Y3260003D02*
D03*
X3260003Y3060003D02*
D03*
X3360003Y2860003D02*
D03*
X3260003Y2660003D02*
D03*
X3360003Y2460003D02*
D03*
X3260003Y2260003D02*
D03*
Y1860002D02*
D03*
X3360003Y1660002D02*
D03*
X3160003Y8060006D02*
D03*
X3060003Y7860006D02*
D03*
X3160003Y7660006D02*
D03*
X3060003Y7460005D02*
D03*
Y7060005D02*
D03*
X3160003Y6460005D02*
D03*
X3060003Y6260005D02*
D03*
X3160003Y6060005D02*
D03*
X3060003Y5860005D02*
D03*
Y5460004D02*
D03*
X3160003Y5260004D02*
D03*
X3060003Y5060004D02*
D03*
X3160003Y4860004D02*
D03*
Y4460004D02*
D03*
X3060003Y4260004D02*
D03*
X3160003Y4060004D02*
D03*
X3060003Y3860003D02*
D03*
X3160003Y3660003D02*
D03*
X3060003Y3460003D02*
D03*
X3160003Y3260003D02*
D03*
X3060003Y3060003D02*
D03*
X3160003Y2860003D02*
D03*
X3060003Y2660003D02*
D03*
X3160003Y2460003D02*
D03*
X3060003Y2260003D02*
D03*
Y1860002D02*
D03*
X3160003Y1660002D02*
D03*
X2960003Y8060006D02*
D03*
Y7660006D02*
D03*
X2860003Y7060005D02*
D03*
X2960003Y6460005D02*
D03*
X2860003Y6260005D02*
D03*
X2960003Y6060005D02*
D03*
X2860003Y5860005D02*
D03*
Y5460004D02*
D03*
X2960003Y5260004D02*
D03*
X2860003Y5060004D02*
D03*
X2960003Y4860004D02*
D03*
Y4460004D02*
D03*
X2860003Y4260004D02*
D03*
X2960003Y4060004D02*
D03*
X2860003Y3860003D02*
D03*
X2960003Y3660003D02*
D03*
X2860003Y3460003D02*
D03*
X2960003Y3260003D02*
D03*
X2860003Y3060003D02*
D03*
X2960003Y2860003D02*
D03*
X2860003Y2660003D02*
D03*
X2960003Y2460003D02*
D03*
X2860003Y2260003D02*
D03*
Y1860002D02*
D03*
X2960003Y1660002D02*
D03*
X2660003Y7060005D02*
D03*
X2760003Y6460005D02*
D03*
X2660003Y6260005D02*
D03*
X2760003Y6060005D02*
D03*
X2660003Y5860005D02*
D03*
Y5460004D02*
D03*
X2760003Y5260004D02*
D03*
X2660003Y5060004D02*
D03*
X2760003Y4860004D02*
D03*
Y4460004D02*
D03*
X2660003Y4260004D02*
D03*
X2760003Y4060004D02*
D03*
X2660003Y3860003D02*
D03*
X2760003Y3660003D02*
D03*
X2660003Y3460003D02*
D03*
X2760003Y3260003D02*
D03*
X2660003Y3060003D02*
D03*
X2760003Y2860003D02*
D03*
X2660003Y2660003D02*
D03*
X2760003Y2460003D02*
D03*
X2660003Y2260003D02*
D03*
Y1860002D02*
D03*
X2760003Y1660002D02*
D03*
X2560003Y8460006D02*
D03*
Y8060006D02*
D03*
X2460003Y7460005D02*
D03*
Y7060005D02*
D03*
Y2260003D02*
D03*
Y1860002D02*
D03*
X2560003Y1660002D02*
D03*
X2360003Y8060006D02*
D03*
Y7660006D02*
D03*
X2260003Y7460005D02*
D03*
Y7060005D02*
D03*
Y6660005D02*
D03*
Y6260005D02*
D03*
Y5860005D02*
D03*
Y5460004D02*
D03*
X2360003Y4860004D02*
D03*
Y4460004D02*
D03*
X2260003Y4260004D02*
D03*
X2360003Y4060004D02*
D03*
Y3660003D02*
D03*
X2260003Y3460003D02*
D03*
X2360003Y3260003D02*
D03*
X2260003Y3060003D02*
D03*
X2360003Y2860003D02*
D03*
Y2460003D02*
D03*
X2260003Y2260003D02*
D03*
Y1860002D02*
D03*
X2360003Y1660002D02*
D03*
X2160003Y9260006D02*
D03*
Y8060006D02*
D03*
Y7660006D02*
D03*
X2060002Y7460005D02*
D03*
Y6660005D02*
D03*
X2160003Y6460005D02*
D03*
X2060002Y6260005D02*
D03*
X2160003Y6060005D02*
D03*
X2060002Y5860005D02*
D03*
Y5460004D02*
D03*
X2160003Y5260004D02*
D03*
Y4860004D02*
D03*
Y4460004D02*
D03*
X2060002Y4260004D02*
D03*
X2160003Y4060004D02*
D03*
Y3660003D02*
D03*
X2060002Y3460003D02*
D03*
X2160003Y3260003D02*
D03*
X2060002Y3060003D02*
D03*
X2160003Y2860003D02*
D03*
Y2460003D02*
D03*
X2060002Y2260003D02*
D03*
Y1860002D02*
D03*
X2160003Y1660002D02*
D03*
X1960002Y9260006D02*
D03*
Y8060006D02*
D03*
Y7660006D02*
D03*
X1860002Y7460005D02*
D03*
X1960002Y6860005D02*
D03*
Y6460005D02*
D03*
X1860002Y6260005D02*
D03*
X1960002Y6060005D02*
D03*
X1860002Y5860005D02*
D03*
Y5460004D02*
D03*
X1960002Y5260004D02*
D03*
Y4860004D02*
D03*
Y4460004D02*
D03*
X1860002Y4260004D02*
D03*
X1960002Y4060004D02*
D03*
Y3660003D02*
D03*
X1860002Y3460003D02*
D03*
X1960002Y3260003D02*
D03*
X1860002Y3060003D02*
D03*
X1960002Y2860003D02*
D03*
Y2460003D02*
D03*
X1860002Y2260003D02*
D03*
Y1860002D02*
D03*
X1960002Y1660002D02*
D03*
X1760002Y9260006D02*
D03*
Y8460006D02*
D03*
Y8060006D02*
D03*
Y7660006D02*
D03*
X1660002Y7460005D02*
D03*
X1760002Y6460005D02*
D03*
X1660002Y6260005D02*
D03*
X1760002Y6060005D02*
D03*
X1660002Y5860005D02*
D03*
Y5460004D02*
D03*
X1760002Y5260004D02*
D03*
Y4860004D02*
D03*
Y4460004D02*
D03*
X1660002Y4260004D02*
D03*
X1760002Y4060004D02*
D03*
Y3660003D02*
D03*
X1660002Y3460003D02*
D03*
X1760002Y3260003D02*
D03*
X1660002Y3060003D02*
D03*
X1760002Y2860003D02*
D03*
Y2460003D02*
D03*
X1660002Y2260003D02*
D03*
Y1860002D02*
D03*
X1760002Y1660002D02*
D03*
X1660002Y1460002D02*
D03*
X1760002Y1260002D02*
D03*
X1660002Y1060002D02*
D03*
X1760002Y860002D02*
D03*
X1660002Y660002D02*
D03*
X1760002Y460002D02*
D03*
X1660002Y260002D02*
D03*
X1560002Y9260006D02*
D03*
Y8060006D02*
D03*
X1460002Y6260005D02*
D03*
X1560002Y6060005D02*
D03*
X1460002Y5860005D02*
D03*
Y5460004D02*
D03*
X1560002Y5260004D02*
D03*
Y4860004D02*
D03*
X1460002Y4660004D02*
D03*
Y4260004D02*
D03*
X1560002Y4060004D02*
D03*
Y3660003D02*
D03*
X1460002Y3460003D02*
D03*
Y3060003D02*
D03*
X1560002Y2860003D02*
D03*
Y2460003D02*
D03*
X1460002Y2260003D02*
D03*
X1560002Y1660002D02*
D03*
X1460002Y1460002D02*
D03*
X1560002Y1260002D02*
D03*
X1460002Y1060002D02*
D03*
X1560002Y860002D02*
D03*
X1460002Y660002D02*
D03*
X1560002Y460002D02*
D03*
X1460002Y260002D02*
D03*
X1360002Y9260006D02*
D03*
X1260002Y8660006D02*
D03*
X1360002Y8060006D02*
D03*
X1260002Y7460005D02*
D03*
X1360002Y6060005D02*
D03*
X1260002Y5860005D02*
D03*
X1360002Y5260004D02*
D03*
Y4860004D02*
D03*
X1260002Y4660004D02*
D03*
X1360002Y4460004D02*
D03*
Y4060004D02*
D03*
Y3660003D02*
D03*
X1260002Y3460003D02*
D03*
X1360002Y3260003D02*
D03*
Y2860003D02*
D03*
Y2460003D02*
D03*
X1260002Y2260003D02*
D03*
X1360002Y2060002D02*
D03*
X1260002Y1860002D02*
D03*
X1360002Y1660002D02*
D03*
X1260002Y1460002D02*
D03*
X1360002Y1260002D02*
D03*
X1260002Y1060002D02*
D03*
X1360002Y860002D02*
D03*
X1260002Y660002D02*
D03*
X1360002Y460002D02*
D03*
X1260002Y260002D02*
D03*
X1060002Y8660006D02*
D03*
X1160002Y8460006D02*
D03*
Y8060006D02*
D03*
X1060002Y7060005D02*
D03*
Y6260005D02*
D03*
X1160002Y6060005D02*
D03*
X1060002Y5860005D02*
D03*
X1160002Y5660004D02*
D03*
X1060002Y5460004D02*
D03*
X1160002Y5260004D02*
D03*
Y4860004D02*
D03*
X1060002Y4660004D02*
D03*
X1160002Y4460004D02*
D03*
X1060002Y4260004D02*
D03*
X1160002Y3660003D02*
D03*
X1060002Y3460003D02*
D03*
X1160002Y3260003D02*
D03*
X1060002Y3060003D02*
D03*
X1160002Y2460003D02*
D03*
X1060002Y2260003D02*
D03*
X1160002Y2060002D02*
D03*
X1060002Y1860002D02*
D03*
X1160002Y1260002D02*
D03*
X1060002Y1060002D02*
D03*
X1160002Y860002D02*
D03*
X1060002Y660002D02*
D03*
X1160002Y460002D02*
D03*
X1060002Y260002D02*
D03*
X860002Y8660006D02*
D03*
Y7460005D02*
D03*
Y7060005D02*
D03*
Y6660005D02*
D03*
X960002Y6460005D02*
D03*
X860002Y6260005D02*
D03*
X960002Y6060005D02*
D03*
X860002Y5860005D02*
D03*
X960002Y5660004D02*
D03*
X860002Y5460004D02*
D03*
X960002Y4860004D02*
D03*
X860002Y4660004D02*
D03*
X960002Y4460004D02*
D03*
X860002Y4260004D02*
D03*
X960002Y4060004D02*
D03*
Y3660003D02*
D03*
X860002Y3460003D02*
D03*
X960002Y3260003D02*
D03*
X860002Y3060003D02*
D03*
X960002Y2860003D02*
D03*
Y2460003D02*
D03*
X860002Y2260003D02*
D03*
X960002Y2060002D02*
D03*
X860002Y1860002D02*
D03*
X960002Y1660002D02*
D03*
X860002Y1460002D02*
D03*
X960002Y1260002D02*
D03*
X860002Y1060002D02*
D03*
X960002Y860002D02*
D03*
Y460002D02*
D03*
X860002Y260002D02*
D03*
X660002Y6660005D02*
D03*
X760002Y6460005D02*
D03*
X660002Y6260005D02*
D03*
Y5860005D02*
D03*
X760002Y5660004D02*
D03*
X660002Y5460004D02*
D03*
X760002Y5260004D02*
D03*
X660002Y4660004D02*
D03*
X760002Y4460004D02*
D03*
X660002Y4260004D02*
D03*
X760002Y4060004D02*
D03*
X660002Y3460003D02*
D03*
X760002Y3260003D02*
D03*
X660002Y3060003D02*
D03*
X760002Y2860003D02*
D03*
Y2060002D02*
D03*
X660002Y1860002D02*
D03*
X760002Y1660002D02*
D03*
Y860002D02*
D03*
X460002Y9060006D02*
D03*
Y7060005D02*
D03*
X560002Y6860005D02*
D03*
X460002Y6660005D02*
D03*
X560002Y6460005D02*
D03*
X460002Y6260005D02*
D03*
X560002Y6060005D02*
D03*
X460002Y5860005D02*
D03*
X560002Y5660004D02*
D03*
X460002Y5460004D02*
D03*
X560002Y5260004D02*
D03*
X460002Y4660004D02*
D03*
X560002Y4460004D02*
D03*
X460002Y4260004D02*
D03*
X560002Y4060004D02*
D03*
X460002Y3460003D02*
D03*
X560002Y3260003D02*
D03*
X460002Y3060003D02*
D03*
X560002Y2860003D02*
D03*
X460002Y2260003D02*
D03*
X560002Y2060002D02*
D03*
X460002Y1860002D02*
D03*
X560002Y1660002D02*
D03*
X460002Y1060002D02*
D03*
X260002Y9060006D02*
D03*
Y8260006D02*
D03*
Y7860006D02*
D03*
X360002Y1660002D02*
D03*
X260002Y1460002D02*
D03*
Y1060002D02*
D03*
X5605000Y5122500D02*
D03*
X5405000D02*
D03*
X4480000Y5572500D02*
D03*
X5020000Y5327500D02*
D03*
X5677500Y6607500D02*
D03*
Y6807500D02*
D03*
X5298452Y5501548D02*
D03*
X5300000Y5600000D02*
D03*
X4260000Y6300000D02*
D03*
X5284755Y6064755D02*
D03*
X5300000Y5800000D02*
D03*
Y5700000D02*
D03*
X5500000Y6950000D02*
D03*
X5350000Y7050400D02*
D03*
X5195011Y7200000D02*
D03*
X5050000D02*
D03*
X5350000D02*
D03*
X5500000Y6600000D02*
D03*
X5150000Y5800000D02*
D03*
X4200000Y6100000D02*
D03*
X4300000Y6000000D02*
D03*
X4400000Y5900000D02*
D03*
X4550000D02*
D03*
X4050000Y6550000D02*
D03*
Y6650000D02*
D03*
Y6750000D02*
D03*
Y6850000D02*
D03*
X4827500Y6526000D02*
D03*
X4977500Y6376000D02*
D03*
X4827500D02*
D03*
X5127500D02*
D03*
Y6676000D02*
D03*
X4827500D02*
D03*
X5127500Y6526000D02*
D03*
X4977500Y6676000D02*
D03*
X4977499Y6526001D02*
D03*
X1195557Y6916220D02*
D03*
X5108697Y6099098D02*
D03*
X4507500Y7162500D02*
D03*
X4532500Y6682500D02*
D03*
X4475000Y6765000D02*
D03*
X1553340Y6847059D02*
D03*
X4727500Y6977500D02*
D03*
D49*
X4575000Y7507500D02*
D03*
X3490000Y7200000D02*
D03*
X3820000Y6030000D02*
D03*
X3870400Y2540000D02*
D03*
X3890000Y1790000D02*
D03*
Y3040000D02*
D03*
X3850400Y5040000D02*
D03*
X7390000Y1790000D02*
D03*
Y3040000D02*
D03*
X7380000Y4290000D02*
D03*
X7390000Y5540000D02*
D03*
X470000Y4920000D02*
D03*
Y3670000D02*
D03*
Y2420000D02*
D03*
X360000Y1290000D02*
D03*
X3860000D02*
D03*
Y3790000D02*
D03*
X3890000Y4290000D02*
D03*
Y5540000D02*
D03*
X3980000Y7580000D02*
D03*
X4900000Y7162500D02*
D03*
X4248330Y6396231D02*
D03*
X5189600Y5889600D02*
D03*
X5100000Y6000000D02*
D03*
X1633220Y7239000D02*
D03*
X1503680D02*
D03*
X519836Y8167562D02*
D03*
X526918Y8067336D02*
D03*
X958340Y6771580D02*
D03*
Y6872060D02*
D03*
X660400Y7442200D02*
D03*
X560986Y7442214D02*
D03*
X1015000Y7585000D02*
D03*
X827500Y7805000D02*
D03*
X1195840Y6592060D02*
D03*
X1018340Y6659560D02*
D03*
X4812900Y7162500D02*
D03*
X5204400Y7745600D02*
D03*
X4642100Y7162500D02*
D03*
X1568340Y6392060D02*
D03*
X1288340Y6289560D02*
D03*
X2460000Y7750000D02*
D03*
X8570000Y3040000D02*
D03*
X3229360Y9357360D02*
D03*
X410000Y8940000D02*
D03*
X827500Y8530000D02*
D03*
X4575000Y7963900D02*
D03*
%TF.MD5,72a94688074177edc16c9d7f7758b93a*%
M02*
