%TF.GenerationSoftware,Altium Limited,Altium Designer,24.0.1 (36)*%
G04 Layer_Physical_Order=1*
G04 Layer_Color=255*
%FSLAX45Y45*%
%MOMM*%
%TF.SameCoordinates,BC388B4F-315D-4572-B472-8F8CFEE0C7CC*%
%TF.FilePolarity,Positive*%
%TF.FileFunction,Copper,L1,Top,Signal*%
%TF.Part,Single*%
G01*
G75*
%TA.AperFunction,SMDPad,CuDef*%
%ADD10R,0.40000X1.19000*%
%ADD11R,1.21000X0.59000*%
%ADD12R,0.91440X1.21920*%
%ADD13R,1.19000X0.40000*%
%ADD14R,1.00000X0.95000*%
%ADD15R,0.95000X1.00000*%
%ADD16R,3.35000X3.35000*%
%ADD17R,0.30000X0.95000*%
%ADD18R,0.95000X0.30000*%
%ADD19R,4.50000X4.50000*%
%ADD20R,0.25000X0.68000*%
%ADD21R,0.68000X0.25000*%
G04:AMPARAMS|DCode=22|XSize=0.25mm|YSize=0.68mm|CornerRadius=0.00625mm|HoleSize=0mm|Usage=FLASHONLY|Rotation=90.000|XOffset=0mm|YOffset=0mm|HoleType=Round|Shape=RoundedRectangle|*
%AMROUNDEDRECTD22*
21,1,0.25000,0.66750,0,0,90.0*
21,1,0.23750,0.68000,0,0,90.0*
1,1,0.01250,0.33375,0.11875*
1,1,0.01250,0.33375,-0.11875*
1,1,0.01250,-0.33375,-0.11875*
1,1,0.01250,-0.33375,0.11875*
%
%ADD22ROUNDEDRECTD22*%
%TA.AperFunction,ConnectorPad*%
%ADD23R,1.14000X0.60000*%
%ADD24R,1.14000X0.30000*%
%TA.AperFunction,SMDPad,CuDef*%
%ADD25R,0.60000X0.65000*%
%ADD26R,0.65000X0.60000*%
%ADD27R,1.40000X1.00000*%
%ADD28R,2.70000X1.35000*%
%ADD29R,0.60000X1.20000*%
%TA.AperFunction,Conductor*%
%ADD30C,0.20000*%
%ADD31C,0.50000*%
%ADD32C,0.30000*%
%ADD33C,0.25400*%
%ADD34C,0.28600*%
%TA.AperFunction,ComponentPad*%
%ADD35C,1.30000*%
%ADD36R,1.30000X1.30000*%
%ADD37R,1.50800X1.50800*%
%ADD38C,1.50800*%
%ADD39C,0.60000*%
%ADD40O,2.00000X0.90000*%
%ADD41O,1.70000X0.90000*%
%ADD42R,1.50000X1.50000*%
%ADD43R,1.50000X1.50000*%
%TA.AperFunction,ViaPad*%
%ADD44C,6.35000*%
%TA.AperFunction,ComponentPad*%
%ADD45C,1.37000*%
%ADD46R,1.37000X1.37000*%
%TA.AperFunction,ViaPad*%
%ADD47C,0.60000*%
%ADD48C,0.70000*%
G36*
X8600124Y9535064D02*
X8612605Y9529895D01*
X8623837Y9522389D01*
X8633389Y9512837D01*
X8640895Y9501605D01*
X8646064Y9489124D01*
X8648700Y9475874D01*
Y9469120D01*
Y3421380D01*
X8649519Y3404699D01*
X8656028Y3371979D01*
X8668794Y3341158D01*
X8687329Y3313419D01*
X8710919Y3289829D01*
X8738658Y3271294D01*
X8769479Y3258528D01*
X8802199Y3252019D01*
X8818880Y3251200D01*
X8904374D01*
X8917624Y3248564D01*
X8930105Y3243395D01*
X8941337Y3235889D01*
X8950889Y3226337D01*
X8958395Y3215105D01*
X8963564Y3202624D01*
X8966200Y3189374D01*
Y3182620D01*
Y119380D01*
Y112625D01*
X8963564Y99376D01*
X8958395Y86895D01*
X8950889Y75663D01*
X8941337Y66110D01*
X8930105Y58605D01*
X8917624Y53435D01*
X8904374Y50800D01*
X6208625D01*
X6195376Y53435D01*
X6182895Y58605D01*
X6171663Y66110D01*
X6162110Y75663D01*
X6154605Y86895D01*
X6149435Y99376D01*
X6146800Y112625D01*
Y515620D01*
X6145980Y532300D01*
X6139472Y565020D01*
X6126705Y595842D01*
X6108171Y623581D01*
X6084581Y647171D01*
X6056842Y665705D01*
X6026020Y678472D01*
X5993300Y684980D01*
X5976620Y685800D01*
X3795625D01*
X3782376Y688435D01*
X3769895Y693605D01*
X3758663Y701110D01*
X3749110Y710663D01*
X3741605Y721895D01*
X3736435Y734376D01*
X3733800Y747625D01*
Y1277620D01*
X3732980Y1294300D01*
X3726472Y1327020D01*
X3713705Y1357842D01*
X3695171Y1385581D01*
X3671581Y1409171D01*
X3643842Y1427705D01*
X3613020Y1440472D01*
X3580300Y1446980D01*
X3563620Y1447800D01*
X2151380D01*
X2134699Y1446980D01*
X2101979Y1440472D01*
X2071158Y1427705D01*
X2043419Y1409171D01*
X2019829Y1385581D01*
X2001294Y1357842D01*
X1988528Y1327020D01*
X1982019Y1294300D01*
X1981200Y1277620D01*
Y119380D01*
Y112625D01*
X1978564Y99376D01*
X1973395Y86895D01*
X1965889Y75663D01*
X1956337Y66110D01*
X1945105Y58605D01*
X1932624Y53435D01*
X1919374Y50800D01*
X1912620D01*
X1912385Y51035D01*
X112593D01*
X99343Y53671D01*
X86863Y58841D01*
X75631Y66346D01*
X66078Y75898D01*
X58573Y87131D01*
X53403Y99611D01*
X50768Y112861D01*
Y119615D01*
Y1912594D01*
X50773Y1912606D01*
X50782Y1912615D01*
X50793Y1912620D01*
X50800D01*
Y1919374D01*
X53435Y1932624D01*
X58605Y1945105D01*
X66110Y1956337D01*
X75663Y1965889D01*
X86895Y1973395D01*
X99376Y1978564D01*
X112625Y1981200D01*
X134620D01*
X151300Y1982019D01*
X184020Y1988528D01*
X214842Y2001294D01*
X242581Y2019829D01*
X266171Y2043419D01*
X284705Y2071158D01*
X297472Y2101979D01*
X303980Y2134699D01*
X304800Y2151380D01*
Y7437120D01*
X303980Y7453800D01*
X297472Y7486520D01*
X284705Y7517342D01*
X266171Y7545081D01*
X242581Y7568671D01*
X214842Y7587205D01*
X184020Y7599972D01*
X151300Y7606480D01*
X134620Y7607300D01*
X112625D01*
X99376Y7609935D01*
X86895Y7615105D01*
X75663Y7622610D01*
X66110Y7632163D01*
X58605Y7643395D01*
X53435Y7655876D01*
X52593Y7660109D01*
X50899Y7672200D01*
X50899Y7672210D01*
Y9469021D01*
X50800Y9469120D01*
Y9475874D01*
X53435Y9489124D01*
X58605Y9501605D01*
X66110Y9512837D01*
X75663Y9522389D01*
X86895Y9529895D01*
X99376Y9535064D01*
X112625Y9537700D01*
X3494174D01*
X3507424Y9535064D01*
X3519905Y9529895D01*
X3531137Y9522389D01*
X3540689Y9512837D01*
X3548195Y9501605D01*
X3553364Y9489124D01*
X3556000Y9475874D01*
Y9415780D01*
X3556819Y9399099D01*
X3563328Y9366379D01*
X3576094Y9335558D01*
X3594629Y9307819D01*
X3618219Y9284229D01*
X3645958Y9265694D01*
X3676779Y9252928D01*
X3709499Y9246419D01*
X3726180Y9245600D01*
X5519420D01*
X5536100Y9246419D01*
X5568820Y9252928D01*
X5599642Y9265694D01*
X5627381Y9284229D01*
X5650971Y9307819D01*
X5669505Y9335558D01*
X5682272Y9366379D01*
X5688780Y9399099D01*
X5689600Y9415780D01*
Y9475874D01*
X5692235Y9489124D01*
X5697405Y9501605D01*
X5704910Y9512837D01*
X5714463Y9522389D01*
X5725695Y9529895D01*
X5738176Y9535064D01*
X5751425Y9537700D01*
X8586874D01*
X8600124Y9535064D01*
D02*
G37*
%LPC*%
G36*
X2960540Y9432760D02*
X2814740D01*
Y9281960D01*
X2960540D01*
Y9321267D01*
X2991460D01*
Y9301960D01*
X3107260D01*
Y9412760D01*
X2991460D01*
Y9393453D01*
X2960540D01*
Y9432760D01*
D02*
G37*
G36*
X2597220Y9457900D02*
X2396420D01*
Y9408887D01*
X2347596D01*
X2327931Y9404976D01*
X2311260Y9393836D01*
X2250164Y9332740D01*
X2239024Y9316069D01*
X2235113Y9296404D01*
Y9155142D01*
X2222413Y9149882D01*
X2216656Y9155639D01*
X2195244Y9168001D01*
X2171362Y9174400D01*
X2146638D01*
X2122756Y9168001D01*
X2101344Y9155639D01*
X2083861Y9138156D01*
X2071499Y9116744D01*
X2065100Y9092862D01*
Y9068138D01*
X2071499Y9044256D01*
X2083861Y9022844D01*
X2101344Y9005361D01*
X2122756Y8992999D01*
X2146638Y8986600D01*
X2171362D01*
X2195244Y8992999D01*
X2216656Y9005361D01*
X2225023Y9013728D01*
X2238803Y9009548D01*
X2239024Y9008437D01*
X2250164Y8991766D01*
X2324766Y8917164D01*
X2341437Y8906024D01*
X2361102Y8902113D01*
X2591857D01*
X2597118Y8889413D01*
X2591861Y8884156D01*
X2579499Y8862744D01*
X2573100Y8838862D01*
Y8814138D01*
X2579499Y8790256D01*
X2591861Y8768844D01*
X2609344Y8751361D01*
X2630756Y8738999D01*
X2654638Y8732600D01*
X2679362D01*
X2703244Y8738999D01*
X2724656Y8751361D01*
X2742139Y8768844D01*
X2754501Y8790256D01*
X2760900Y8814138D01*
Y8838862D01*
X2754501Y8862744D01*
X2742139Y8884156D01*
X2736882Y8889413D01*
X2742143Y8902113D01*
X2772715D01*
X2828974Y8845854D01*
X2827100Y8838862D01*
Y8814138D01*
X2828974Y8807146D01*
X2758164Y8736336D01*
X2747024Y8719665D01*
X2743113Y8700000D01*
Y8647142D01*
X2730413Y8641882D01*
X2724656Y8647639D01*
X2703244Y8660001D01*
X2679362Y8666400D01*
X2654638D01*
X2630756Y8660001D01*
X2609344Y8647639D01*
X2591861Y8630156D01*
X2579499Y8608744D01*
X2573100Y8584862D01*
Y8560138D01*
X2579499Y8536256D01*
X2591861Y8514844D01*
X2609344Y8497361D01*
X2630756Y8484999D01*
X2654638Y8478600D01*
X2679362D01*
X2703244Y8484999D01*
X2724656Y8497361D01*
X2730413Y8503118D01*
X2743113Y8497858D01*
Y8393142D01*
X2730413Y8387882D01*
X2724656Y8393639D01*
X2703244Y8406001D01*
X2679362Y8412400D01*
X2654638D01*
X2630756Y8406001D01*
X2609344Y8393639D01*
X2591861Y8376156D01*
X2579499Y8354744D01*
X2573100Y8330862D01*
Y8306138D01*
X2579499Y8282256D01*
X2591861Y8260844D01*
X2609344Y8243361D01*
X2630756Y8230999D01*
X2654638Y8224600D01*
X2679362D01*
X2703244Y8230999D01*
X2724656Y8243361D01*
X2730413Y8249118D01*
X2743113Y8243858D01*
Y7937520D01*
X2730413Y7932259D01*
X2706336Y7956336D01*
X2689665Y7967476D01*
X2670000Y7971387D01*
X928075D01*
X916387Y7983075D01*
Y8023906D01*
X993284D01*
X1007097Y8026654D01*
X1018806Y8034478D01*
X1030522Y8046194D01*
X1038346Y8057903D01*
X1041093Y8071716D01*
Y8077100D01*
X1080400D01*
Y8222900D01*
X929600D01*
Y8096093D01*
X916387D01*
Y8373211D01*
X912476Y8392876D01*
X901336Y8409547D01*
X872047Y8438836D01*
X855376Y8449976D01*
X835711Y8453887D01*
X767400D01*
Y8462900D01*
X633400D01*
Y8467520D01*
X624966Y8487881D01*
X609382Y8503466D01*
X589020Y8511900D01*
X566980D01*
X546619Y8503466D01*
X531034Y8487881D01*
X522600Y8467520D01*
Y8445480D01*
X531034Y8425119D01*
X546619Y8409534D01*
X566980Y8401100D01*
X589020D01*
X592040Y8402351D01*
X602600Y8395295D01*
Y8328593D01*
X542451D01*
X496093Y8374951D01*
Y8679600D01*
X515400D01*
Y8795400D01*
X304600D01*
Y8679600D01*
X323907D01*
Y8057500D01*
X326654Y8043687D01*
X334478Y8031978D01*
X399478Y7966978D01*
X411187Y7959154D01*
X425000Y7956407D01*
X602600D01*
Y7939705D01*
X592040Y7932649D01*
X589020Y7933900D01*
X566980D01*
X546619Y7925466D01*
X531034Y7909882D01*
X522600Y7889520D01*
Y7867480D01*
X531034Y7847119D01*
X546619Y7831534D01*
X566980Y7823100D01*
X589020D01*
X609382Y7831534D01*
X624966Y7847119D01*
X633400Y7867480D01*
Y7872100D01*
X767400D01*
Y7881113D01*
X835711D01*
X855376Y7885024D01*
X863598Y7890519D01*
X870453Y7883664D01*
X887124Y7872524D01*
X906790Y7868613D01*
X1061215D01*
X1093861Y7835966D01*
Y7421001D01*
X1097773Y7401336D01*
X1099848Y7398229D01*
Y7336101D01*
X1190648D01*
Y7398229D01*
X1192724Y7401336D01*
X1196636Y7421001D01*
Y7857251D01*
X1196329Y7858795D01*
X1204385Y7868613D01*
X1323613D01*
Y7677900D01*
X1274600D01*
Y7477100D01*
X1475400D01*
Y7677900D01*
X1426387D01*
Y7868613D01*
X2644600D01*
Y7731387D01*
X2639289D01*
X2619624Y7727476D01*
X2602953Y7716336D01*
X2568664Y7682047D01*
X2557524Y7665376D01*
X2554546Y7650400D01*
X2549600D01*
Y7607441D01*
X2515400D01*
Y7625400D01*
X2404600D01*
Y7509600D01*
X2515400D01*
Y7525058D01*
X2549600D01*
Y7479600D01*
X2553613D01*
Y7430355D01*
X2534617Y7411360D01*
X2465050D01*
Y7238640D01*
X2607290D01*
Y7338687D01*
X2641336Y7372734D01*
X2652476Y7389405D01*
X2656387Y7409070D01*
Y7479600D01*
X2660400D01*
Y7628438D01*
X2660575Y7628613D01*
X2739600D01*
Y7479600D01*
X2743613D01*
Y7409070D01*
X2747524Y7389405D01*
X2758664Y7372734D01*
X2792710Y7338687D01*
Y7238640D01*
X2934950D01*
Y7273613D01*
X3287500D01*
X3307165Y7277524D01*
X3323836Y7288664D01*
X3444885Y7409713D01*
X3754600D01*
Y7385700D01*
X3945400D01*
Y7403613D01*
X4013600D01*
Y7400100D01*
X4185400D01*
Y7408113D01*
X4200710D01*
X4220376Y7412024D01*
X4237047Y7423164D01*
X4252867Y7438984D01*
X4264600Y7434123D01*
Y7400100D01*
X4436400D01*
Y7509900D01*
X4281387D01*
Y7590100D01*
X4436400D01*
Y7593613D01*
X4479600D01*
Y7569600D01*
X4523613D01*
Y7541273D01*
X4514600Y7519514D01*
Y7495486D01*
X4523795Y7473286D01*
X4540786Y7456295D01*
X4562986Y7447100D01*
X4587014D01*
X4609214Y7456295D01*
X4626205Y7473286D01*
X4635400Y7495486D01*
Y7519514D01*
X4626387Y7541273D01*
Y7569600D01*
X4670400D01*
Y7609506D01*
X4894000D01*
Y7577700D01*
X5044800D01*
Y7723500D01*
X4894000D01*
Y7681693D01*
X4670400D01*
Y7720400D01*
X4479600D01*
Y7696387D01*
X4436400D01*
Y7699900D01*
X4264600D01*
Y7665876D01*
X4252867Y7661016D01*
X4237047Y7676836D01*
X4220376Y7687975D01*
X4200710Y7691887D01*
X4185400D01*
Y7699900D01*
X4013600D01*
Y7590100D01*
X4099035D01*
X4104000Y7589113D01*
X4178613D01*
Y7510887D01*
X4104000D01*
X4099035Y7509900D01*
X4013600D01*
Y7506387D01*
X3945400D01*
Y7536500D01*
X3754600D01*
Y7512487D01*
X3423600D01*
X3403935Y7508576D01*
X3387264Y7497436D01*
X3266215Y7376387D01*
X2934950D01*
Y7411360D01*
X2865382D01*
X2846387Y7430355D01*
Y7479600D01*
X2850400D01*
Y7650400D01*
X2824876D01*
X2820016Y7662133D01*
X2830836Y7672953D01*
X2841976Y7689624D01*
X2845887Y7709289D01*
Y8244224D01*
X2857621Y8249085D01*
X2863344Y8243361D01*
X2884756Y8230999D01*
X2908638Y8224600D01*
X2933362D01*
X2957244Y8230999D01*
X2978656Y8243361D01*
X2996139Y8260844D01*
X3008501Y8282256D01*
X3014900Y8306138D01*
Y8330862D01*
X3008501Y8354744D01*
X2996139Y8376156D01*
X2978656Y8393639D01*
X2957244Y8406001D01*
X2933362Y8412400D01*
X2908638D01*
X2884756Y8406001D01*
X2863344Y8393639D01*
X2857621Y8387915D01*
X2845887Y8392776D01*
Y8498224D01*
X2857621Y8503085D01*
X2863344Y8497361D01*
X2884756Y8484999D01*
X2908638Y8478600D01*
X2933362D01*
X2957244Y8484999D01*
X2978656Y8497361D01*
X2996139Y8514844D01*
X3008501Y8536256D01*
X3014900Y8560138D01*
Y8584862D01*
X3008501Y8608744D01*
X2996139Y8630156D01*
X2978656Y8647639D01*
X2957244Y8660001D01*
X2933362Y8666400D01*
X2908638D01*
X2884756Y8660001D01*
X2863344Y8647639D01*
X2857621Y8641915D01*
X2845887Y8646776D01*
Y8678715D01*
X2901646Y8734474D01*
X2908638Y8732600D01*
X2933362D01*
X2957244Y8738999D01*
X2978656Y8751361D01*
X2996139Y8768844D01*
X3008501Y8790256D01*
X3014900Y8814138D01*
Y8838862D01*
X3008501Y8862744D01*
X2996139Y8884156D01*
X2978656Y8901639D01*
X2957244Y8914001D01*
X2933362Y8920400D01*
X2908638D01*
X2901646Y8918526D01*
X2830336Y8989836D01*
X2813665Y9000976D01*
X2794000Y9004887D01*
X2742143D01*
X2736882Y9017587D01*
X2742139Y9022844D01*
X2754501Y9044256D01*
X2760900Y9068138D01*
Y9092862D01*
X2754501Y9116744D01*
X2742139Y9138156D01*
X2724656Y9155639D01*
X2703244Y9168001D01*
X2679362Y9174400D01*
X2654638D01*
X2630756Y9168001D01*
X2609344Y9155639D01*
X2591861Y9138156D01*
X2579499Y9116744D01*
X2573100Y9092862D01*
Y9068138D01*
X2579499Y9044256D01*
X2591861Y9022844D01*
X2597118Y9017587D01*
X2591857Y9004887D01*
X2488143D01*
X2482882Y9017587D01*
X2488139Y9022844D01*
X2500501Y9044256D01*
X2506900Y9068138D01*
Y9092862D01*
X2500501Y9116744D01*
X2488139Y9138156D01*
X2470656Y9155639D01*
X2449244Y9168001D01*
X2425362Y9174400D01*
X2400638D01*
X2376756Y9168001D01*
X2355344Y9155639D01*
X2349621Y9149915D01*
X2337887Y9154776D01*
Y9275119D01*
X2368881Y9306113D01*
X2396420D01*
Y9257100D01*
X2597220D01*
Y9321267D01*
X2634740D01*
Y9281960D01*
X2780540D01*
Y9432760D01*
X2634740D01*
Y9393453D01*
X2597220D01*
Y9457900D01*
D02*
G37*
G36*
X7759362Y9174400D02*
X7734638D01*
X7710756Y9168001D01*
X7689344Y9155639D01*
X7671861Y9138156D01*
X7659499Y9116744D01*
X7653100Y9092862D01*
Y9068138D01*
X7659499Y9044256D01*
X7671861Y9022844D01*
X7689344Y9005361D01*
X7710756Y8992999D01*
X7734638Y8986600D01*
X7759362D01*
X7783244Y8992999D01*
X7804656Y9005361D01*
X7822139Y9022844D01*
X7834501Y9044256D01*
X7840900Y9068138D01*
Y9092862D01*
X7834501Y9116744D01*
X7822139Y9138156D01*
X7804656Y9155639D01*
X7783244Y9168001D01*
X7759362Y9174400D01*
D02*
G37*
G36*
X7505362D02*
X7480638D01*
X7456756Y9168001D01*
X7435344Y9155639D01*
X7417861Y9138156D01*
X7405499Y9116744D01*
X7399100Y9092862D01*
Y9068138D01*
X7405499Y9044256D01*
X7417861Y9022844D01*
X7435344Y9005361D01*
X7456756Y8992999D01*
X7480638Y8986600D01*
X7505362D01*
X7529244Y8992999D01*
X7550656Y9005361D01*
X7568139Y9022844D01*
X7580501Y9044256D01*
X7586900Y9068138D01*
Y9092862D01*
X7580501Y9116744D01*
X7568139Y9138156D01*
X7550656Y9155639D01*
X7529244Y9168001D01*
X7505362Y9174400D01*
D02*
G37*
G36*
X7251362D02*
X7226638D01*
X7202756Y9168001D01*
X7181344Y9155639D01*
X7163861Y9138156D01*
X7151499Y9116744D01*
X7145100Y9092862D01*
Y9068138D01*
X7151499Y9044256D01*
X7163861Y9022844D01*
X7181344Y9005361D01*
X7202756Y8992999D01*
X7226638Y8986600D01*
X7251362D01*
X7275244Y8992999D01*
X7296656Y9005361D01*
X7314139Y9022844D01*
X7326501Y9044256D01*
X7332900Y9068138D01*
Y9092862D01*
X7326501Y9116744D01*
X7314139Y9138156D01*
X7296656Y9155639D01*
X7275244Y9168001D01*
X7251362Y9174400D01*
D02*
G37*
G36*
X6997362D02*
X6972638D01*
X6948756Y9168001D01*
X6927344Y9155639D01*
X6909861Y9138156D01*
X6897499Y9116744D01*
X6891100Y9092862D01*
Y9068138D01*
X6897499Y9044256D01*
X6909861Y9022844D01*
X6927344Y9005361D01*
X6948756Y8992999D01*
X6972638Y8986600D01*
X6997362D01*
X7021244Y8992999D01*
X7042656Y9005361D01*
X7060139Y9022844D01*
X7072501Y9044256D01*
X7078900Y9068138D01*
Y9092862D01*
X7072501Y9116744D01*
X7060139Y9138156D01*
X7042656Y9155639D01*
X7021244Y9168001D01*
X6997362Y9174400D01*
D02*
G37*
G36*
X6743362D02*
X6718638D01*
X6694756Y9168001D01*
X6673344Y9155639D01*
X6655861Y9138156D01*
X6643499Y9116744D01*
X6637100Y9092862D01*
Y9068138D01*
X6643499Y9044256D01*
X6655861Y9022844D01*
X6673344Y9005361D01*
X6694756Y8992999D01*
X6718638Y8986600D01*
X6743362D01*
X6767244Y8992999D01*
X6788656Y9005361D01*
X6806139Y9022844D01*
X6818501Y9044256D01*
X6824900Y9068138D01*
Y9092862D01*
X6818501Y9116744D01*
X6806139Y9138156D01*
X6788656Y9155639D01*
X6767244Y9168001D01*
X6743362Y9174400D01*
D02*
G37*
G36*
X6489362D02*
X6464638D01*
X6440756Y9168001D01*
X6419344Y9155639D01*
X6401861Y9138156D01*
X6389499Y9116744D01*
X6383100Y9092862D01*
Y9068138D01*
X6389499Y9044256D01*
X6401861Y9022844D01*
X6419344Y9005361D01*
X6440756Y8992999D01*
X6464638Y8986600D01*
X6489362D01*
X6513244Y8992999D01*
X6534656Y9005361D01*
X6552139Y9022844D01*
X6564501Y9044256D01*
X6570900Y9068138D01*
Y9092862D01*
X6564501Y9116744D01*
X6552139Y9138156D01*
X6534656Y9155639D01*
X6513244Y9168001D01*
X6489362Y9174400D01*
D02*
G37*
G36*
X6235362D02*
X6210638D01*
X6186756Y9168001D01*
X6165344Y9155639D01*
X6147861Y9138156D01*
X6135499Y9116744D01*
X6129100Y9092862D01*
Y9068138D01*
X6135499Y9044256D01*
X6147861Y9022844D01*
X6165344Y9005361D01*
X6186756Y8992999D01*
X6210638Y8986600D01*
X6235362D01*
X6259244Y8992999D01*
X6280656Y9005361D01*
X6298139Y9022844D01*
X6310501Y9044256D01*
X6316900Y9068138D01*
Y9092862D01*
X6310501Y9116744D01*
X6298139Y9138156D01*
X6280656Y9155639D01*
X6259244Y9168001D01*
X6235362Y9174400D01*
D02*
G37*
G36*
X5981362D02*
X5956638D01*
X5932756Y9168001D01*
X5911344Y9155639D01*
X5893861Y9138156D01*
X5881499Y9116744D01*
X5875100Y9092862D01*
Y9068138D01*
X5881499Y9044256D01*
X5893861Y9022844D01*
X5911344Y9005361D01*
X5932756Y8992999D01*
X5956638Y8986600D01*
X5981362D01*
X6005244Y8992999D01*
X6026656Y9005361D01*
X6044139Y9022844D01*
X6056501Y9044256D01*
X6062900Y9068138D01*
Y9092862D01*
X6056501Y9116744D01*
X6044139Y9138156D01*
X6026656Y9155639D01*
X6005244Y9168001D01*
X5981362Y9174400D01*
D02*
G37*
G36*
X5727362D02*
X5702638D01*
X5678756Y9168001D01*
X5657344Y9155639D01*
X5639861Y9138156D01*
X5627499Y9116744D01*
X5621100Y9092862D01*
Y9068138D01*
X5627499Y9044256D01*
X5639861Y9022844D01*
X5657344Y9005361D01*
X5678756Y8992999D01*
X5702638Y8986600D01*
X5727362D01*
X5751244Y8992999D01*
X5772656Y9005361D01*
X5790139Y9022844D01*
X5802501Y9044256D01*
X5808900Y9068138D01*
Y9092862D01*
X5802501Y9116744D01*
X5790139Y9138156D01*
X5772656Y9155639D01*
X5751244Y9168001D01*
X5727362Y9174400D01*
D02*
G37*
G36*
X5473362D02*
X5448638D01*
X5424756Y9168001D01*
X5403344Y9155639D01*
X5385861Y9138156D01*
X5373499Y9116744D01*
X5367100Y9092862D01*
Y9068138D01*
X5373499Y9044256D01*
X5385861Y9022844D01*
X5403344Y9005361D01*
X5424756Y8992999D01*
X5448638Y8986600D01*
X5473362D01*
X5497244Y8992999D01*
X5518656Y9005361D01*
X5536139Y9022844D01*
X5548501Y9044256D01*
X5554900Y9068138D01*
Y9092862D01*
X5548501Y9116744D01*
X5536139Y9138156D01*
X5518656Y9155639D01*
X5497244Y9168001D01*
X5473362Y9174400D01*
D02*
G37*
G36*
X4711362D02*
X4686638D01*
X4662756Y9168001D01*
X4641344Y9155639D01*
X4623861Y9138156D01*
X4611499Y9116744D01*
X4605100Y9092862D01*
Y9068138D01*
X4611499Y9044256D01*
X4623861Y9022844D01*
X4641344Y9005361D01*
X4662756Y8992999D01*
X4686638Y8986600D01*
X4711362D01*
X4735244Y8992999D01*
X4756656Y9005361D01*
X4774139Y9022844D01*
X4786501Y9044256D01*
X4792900Y9068138D01*
Y9092862D01*
X4786501Y9116744D01*
X4774139Y9138156D01*
X4756656Y9155639D01*
X4735244Y9168001D01*
X4711362Y9174400D01*
D02*
G37*
G36*
X4457362D02*
X4432638D01*
X4408756Y9168001D01*
X4387344Y9155639D01*
X4369861Y9138156D01*
X4357499Y9116744D01*
X4351100Y9092862D01*
Y9068138D01*
X4357499Y9044256D01*
X4369861Y9022844D01*
X4387344Y9005361D01*
X4408756Y8992999D01*
X4432638Y8986600D01*
X4457362D01*
X4481244Y8992999D01*
X4502656Y9005361D01*
X4520139Y9022844D01*
X4532501Y9044256D01*
X4538900Y9068138D01*
Y9092862D01*
X4532501Y9116744D01*
X4520139Y9138156D01*
X4502656Y9155639D01*
X4481244Y9168001D01*
X4457362Y9174400D01*
D02*
G37*
G36*
X4203362D02*
X4178638D01*
X4154756Y9168001D01*
X4133344Y9155639D01*
X4115861Y9138156D01*
X4103499Y9116744D01*
X4097100Y9092862D01*
Y9068138D01*
X4103499Y9044256D01*
X4115861Y9022844D01*
X4133344Y9005361D01*
X4154756Y8992999D01*
X4178638Y8986600D01*
X4203362D01*
X4227244Y8992999D01*
X4248656Y9005361D01*
X4266139Y9022844D01*
X4278501Y9044256D01*
X4284900Y9068138D01*
Y9092862D01*
X4278501Y9116744D01*
X4266139Y9138156D01*
X4248656Y9155639D01*
X4227244Y9168001D01*
X4203362Y9174400D01*
D02*
G37*
G36*
X3695362D02*
X3670638D01*
X3646756Y9168001D01*
X3625344Y9155639D01*
X3607861Y9138156D01*
X3595499Y9116744D01*
X3589100Y9092862D01*
Y9068138D01*
X3595499Y9044256D01*
X3607861Y9022844D01*
X3625344Y9005361D01*
X3646756Y8992999D01*
X3670638Y8986600D01*
X3695362D01*
X3719244Y8992999D01*
X3740656Y9005361D01*
X3758139Y9022844D01*
X3770501Y9044256D01*
X3776900Y9068138D01*
Y9092862D01*
X3770501Y9116744D01*
X3758139Y9138156D01*
X3740656Y9155639D01*
X3719244Y9168001D01*
X3695362Y9174400D01*
D02*
G37*
G36*
X3441362D02*
X3416638D01*
X3392756Y9168001D01*
X3371344Y9155639D01*
X3353861Y9138156D01*
X3341499Y9116744D01*
X3335100Y9092862D01*
Y9068138D01*
X3341499Y9044256D01*
X3353861Y9022844D01*
X3371344Y9005361D01*
X3392756Y8992999D01*
X3416638Y8986600D01*
X3441362D01*
X3465244Y8992999D01*
X3486656Y9005361D01*
X3504139Y9022844D01*
X3516501Y9044256D01*
X3522900Y9068138D01*
Y9092862D01*
X3516501Y9116744D01*
X3504139Y9138156D01*
X3486656Y9155639D01*
X3465244Y9168001D01*
X3441362Y9174400D01*
D02*
G37*
G36*
X3187362D02*
X3162638D01*
X3138756Y9168001D01*
X3117344Y9155639D01*
X3099861Y9138156D01*
X3087499Y9116744D01*
X3081100Y9092862D01*
Y9068138D01*
X3087499Y9044256D01*
X3099861Y9022844D01*
X3117344Y9005361D01*
X3138756Y8992999D01*
X3162638Y8986600D01*
X3187362D01*
X3211244Y8992999D01*
X3232656Y9005361D01*
X3250139Y9022844D01*
X3262501Y9044256D01*
X3268900Y9068138D01*
Y9092862D01*
X3262501Y9116744D01*
X3250139Y9138156D01*
X3232656Y9155639D01*
X3211244Y9168001D01*
X3187362Y9174400D01*
D02*
G37*
G36*
X1917362D02*
X1892638D01*
X1868756Y9168001D01*
X1847344Y9155639D01*
X1829861Y9138156D01*
X1817499Y9116744D01*
X1811100Y9092862D01*
Y9068138D01*
X1817499Y9044256D01*
X1829861Y9022844D01*
X1847344Y9005361D01*
X1868756Y8992999D01*
X1892638Y8986600D01*
X1917362D01*
X1941244Y8992999D01*
X1962656Y9005361D01*
X1980139Y9022844D01*
X1992501Y9044256D01*
X1998900Y9068138D01*
Y9092862D01*
X1992501Y9116744D01*
X1980139Y9138156D01*
X1962656Y9155639D01*
X1941244Y9168001D01*
X1917362Y9174400D01*
D02*
G37*
G36*
X1663362D02*
X1638638D01*
X1614756Y9168001D01*
X1593344Y9155639D01*
X1575861Y9138156D01*
X1563499Y9116744D01*
X1557100Y9092862D01*
Y9068138D01*
X1563499Y9044256D01*
X1575861Y9022844D01*
X1593344Y9005361D01*
X1614756Y8992999D01*
X1638638Y8986600D01*
X1663362D01*
X1687244Y8992999D01*
X1708656Y9005361D01*
X1726139Y9022844D01*
X1738501Y9044256D01*
X1744900Y9068138D01*
Y9092862D01*
X1738501Y9116744D01*
X1726139Y9138156D01*
X1708656Y9155639D01*
X1687244Y9168001D01*
X1663362Y9174400D01*
D02*
G37*
G36*
X1409362D02*
X1384638D01*
X1360756Y9168001D01*
X1339344Y9155639D01*
X1321861Y9138156D01*
X1309499Y9116744D01*
X1303100Y9092862D01*
Y9068138D01*
X1309499Y9044256D01*
X1321861Y9022844D01*
X1339344Y9005361D01*
X1360756Y8992999D01*
X1384638Y8986600D01*
X1409362D01*
X1433244Y8992999D01*
X1454656Y9005361D01*
X1472139Y9022844D01*
X1484501Y9044256D01*
X1490900Y9068138D01*
Y9092862D01*
X1484501Y9116744D01*
X1472139Y9138156D01*
X1454656Y9155639D01*
X1433244Y9168001D01*
X1409362Y9174400D01*
D02*
G37*
G36*
X8281987Y9423400D02*
X8228013D01*
X8174704Y9414957D01*
X8123372Y9398278D01*
X8075281Y9373774D01*
X8031616Y9342049D01*
X7993451Y9303884D01*
X7961726Y9260219D01*
X7937222Y9212128D01*
X7920543Y9160796D01*
X7912100Y9107487D01*
Y9053513D01*
X7920543Y9000204D01*
X7937222Y8948872D01*
X7961726Y8900781D01*
X7993451Y8857116D01*
X8031616Y8818951D01*
X8075281Y8787226D01*
X8123372Y8762722D01*
X8174704Y8746043D01*
X8228013Y8737600D01*
X8281987D01*
X8335296Y8746043D01*
X8386628Y8762722D01*
X8434719Y8787226D01*
X8478384Y8818951D01*
X8516549Y8857116D01*
X8548274Y8900781D01*
X8572778Y8948872D01*
X8589457Y9000204D01*
X8597900Y9053513D01*
Y9107487D01*
X8589457Y9160796D01*
X8572778Y9212128D01*
X8548274Y9260219D01*
X8516549Y9303884D01*
X8478384Y9342049D01*
X8434719Y9373774D01*
X8386628Y9398278D01*
X8335296Y9414957D01*
X8281987Y9423400D01*
D02*
G37*
G36*
X915987D02*
X862013D01*
X808704Y9414957D01*
X757372Y9398278D01*
X709281Y9373774D01*
X665616Y9342049D01*
X627451Y9303884D01*
X595726Y9260219D01*
X571222Y9212128D01*
X554543Y9160796D01*
X546100Y9107487D01*
Y9053513D01*
X554543Y9000204D01*
X571222Y8948872D01*
X595726Y8900781D01*
X627451Y8857116D01*
X665616Y8818951D01*
X709281Y8787226D01*
X757372Y8762722D01*
X808704Y8746043D01*
X862013Y8737600D01*
X915987D01*
X969296Y8746043D01*
X1020628Y8762722D01*
X1068719Y8787226D01*
X1112384Y8818951D01*
X1150549Y8857116D01*
X1182274Y8900781D01*
X1206778Y8948872D01*
X1223457Y9000204D01*
X1231900Y9053513D01*
Y9107487D01*
X1223457Y9160796D01*
X1206778Y9212128D01*
X1182274Y9260219D01*
X1150549Y9303884D01*
X1112384Y9342049D01*
X1068719Y9373774D01*
X1020628Y9398278D01*
X969296Y9414957D01*
X915987Y9423400D01*
D02*
G37*
G36*
X7759362Y8920400D02*
X7734638D01*
X7710756Y8914001D01*
X7689344Y8901639D01*
X7671861Y8884156D01*
X7659499Y8862744D01*
X7653100Y8838862D01*
Y8814138D01*
X7659499Y8790256D01*
X7671861Y8768844D01*
X7689344Y8751361D01*
X7710756Y8738999D01*
X7734638Y8732600D01*
X7759362D01*
X7783244Y8738999D01*
X7804656Y8751361D01*
X7822139Y8768844D01*
X7834501Y8790256D01*
X7840900Y8814138D01*
Y8838862D01*
X7834501Y8862744D01*
X7822139Y8884156D01*
X7804656Y8901639D01*
X7783244Y8914001D01*
X7759362Y8920400D01*
D02*
G37*
G36*
X7505362D02*
X7480638D01*
X7456756Y8914001D01*
X7435344Y8901639D01*
X7417861Y8884156D01*
X7405499Y8862744D01*
X7399100Y8838862D01*
Y8814138D01*
X7405499Y8790256D01*
X7417861Y8768844D01*
X7435344Y8751361D01*
X7456756Y8738999D01*
X7480638Y8732600D01*
X7505362D01*
X7529244Y8738999D01*
X7550656Y8751361D01*
X7568139Y8768844D01*
X7580501Y8790256D01*
X7586900Y8814138D01*
Y8838862D01*
X7580501Y8862744D01*
X7568139Y8884156D01*
X7550656Y8901639D01*
X7529244Y8914001D01*
X7505362Y8920400D01*
D02*
G37*
G36*
X6997362D02*
X6972638D01*
X6948756Y8914001D01*
X6927344Y8901639D01*
X6909861Y8884156D01*
X6897499Y8862744D01*
X6891100Y8838862D01*
Y8814138D01*
X6897499Y8790256D01*
X6909861Y8768844D01*
X6927344Y8751361D01*
X6948756Y8738999D01*
X6972638Y8732600D01*
X6997362D01*
X7021244Y8738999D01*
X7042656Y8751361D01*
X7060139Y8768844D01*
X7072501Y8790256D01*
X7078900Y8814138D01*
Y8838862D01*
X7072501Y8862744D01*
X7060139Y8884156D01*
X7042656Y8901639D01*
X7021244Y8914001D01*
X6997362Y8920400D01*
D02*
G37*
G36*
X6743362D02*
X6718638D01*
X6694756Y8914001D01*
X6673344Y8901639D01*
X6655861Y8884156D01*
X6643499Y8862744D01*
X6637100Y8838862D01*
Y8814138D01*
X6643499Y8790256D01*
X6655861Y8768844D01*
X6673344Y8751361D01*
X6694756Y8738999D01*
X6718638Y8732600D01*
X6743362D01*
X6767244Y8738999D01*
X6788656Y8751361D01*
X6806139Y8768844D01*
X6818501Y8790256D01*
X6824900Y8814138D01*
Y8838862D01*
X6818501Y8862744D01*
X6806139Y8884156D01*
X6788656Y8901639D01*
X6767244Y8914001D01*
X6743362Y8920400D01*
D02*
G37*
G36*
X6489362D02*
X6464638D01*
X6440756Y8914001D01*
X6419344Y8901639D01*
X6401861Y8884156D01*
X6389499Y8862744D01*
X6383100Y8838862D01*
Y8814138D01*
X6389499Y8790256D01*
X6401861Y8768844D01*
X6419344Y8751361D01*
X6440756Y8738999D01*
X6464638Y8732600D01*
X6489362D01*
X6513244Y8738999D01*
X6534656Y8751361D01*
X6552139Y8768844D01*
X6564501Y8790256D01*
X6570900Y8814138D01*
Y8838862D01*
X6564501Y8862744D01*
X6552139Y8884156D01*
X6534656Y8901639D01*
X6513244Y8914001D01*
X6489362Y8920400D01*
D02*
G37*
G36*
X6235362D02*
X6210638D01*
X6186756Y8914001D01*
X6165344Y8901639D01*
X6147861Y8884156D01*
X6135499Y8862744D01*
X6129100Y8838862D01*
Y8814138D01*
X6135499Y8790256D01*
X6147861Y8768844D01*
X6165344Y8751361D01*
X6186756Y8738999D01*
X6210638Y8732600D01*
X6235362D01*
X6259244Y8738999D01*
X6280656Y8751361D01*
X6298139Y8768844D01*
X6310501Y8790256D01*
X6316900Y8814138D01*
Y8838862D01*
X6310501Y8862744D01*
X6298139Y8884156D01*
X6280656Y8901639D01*
X6259244Y8914001D01*
X6235362Y8920400D01*
D02*
G37*
G36*
X5981362D02*
X5956638D01*
X5932756Y8914001D01*
X5911344Y8901639D01*
X5893861Y8884156D01*
X5881499Y8862744D01*
X5875100Y8838862D01*
Y8814138D01*
X5881499Y8790256D01*
X5893861Y8768844D01*
X5911344Y8751361D01*
X5932756Y8738999D01*
X5956638Y8732600D01*
X5981362D01*
X6005244Y8738999D01*
X6026656Y8751361D01*
X6044139Y8768844D01*
X6056501Y8790256D01*
X6062900Y8814138D01*
Y8838862D01*
X6056501Y8862744D01*
X6044139Y8884156D01*
X6026656Y8901639D01*
X6005244Y8914001D01*
X5981362Y8920400D01*
D02*
G37*
G36*
X5727362D02*
X5702638D01*
X5678756Y8914001D01*
X5657344Y8901639D01*
X5639861Y8884156D01*
X5627499Y8862744D01*
X5621100Y8838862D01*
Y8814138D01*
X5627499Y8790256D01*
X5639861Y8768844D01*
X5657344Y8751361D01*
X5678756Y8738999D01*
X5702638Y8732600D01*
X5727362D01*
X5751244Y8738999D01*
X5772656Y8751361D01*
X5790139Y8768844D01*
X5802501Y8790256D01*
X5808900Y8814138D01*
Y8838862D01*
X5802501Y8862744D01*
X5790139Y8884156D01*
X5772656Y8901639D01*
X5751244Y8914001D01*
X5727362Y8920400D01*
D02*
G37*
G36*
X5473362D02*
X5448638D01*
X5424756Y8914001D01*
X5403344Y8901639D01*
X5385861Y8884156D01*
X5373499Y8862744D01*
X5367100Y8838862D01*
Y8814138D01*
X5373499Y8790256D01*
X5385861Y8768844D01*
X5403344Y8751361D01*
X5424756Y8738999D01*
X5448638Y8732600D01*
X5473362D01*
X5497244Y8738999D01*
X5518656Y8751361D01*
X5536139Y8768844D01*
X5548501Y8790256D01*
X5554900Y8814138D01*
Y8838862D01*
X5548501Y8862744D01*
X5536139Y8884156D01*
X5518656Y8901639D01*
X5497244Y8914001D01*
X5473362Y8920400D01*
D02*
G37*
G36*
X5219362D02*
X5194638D01*
X5170756Y8914001D01*
X5149344Y8901639D01*
X5131861Y8884156D01*
X5119499Y8862744D01*
X5113100Y8838862D01*
Y8814138D01*
X5119499Y8790256D01*
X5131861Y8768844D01*
X5149344Y8751361D01*
X5170756Y8738999D01*
X5194638Y8732600D01*
X5219362D01*
X5243244Y8738999D01*
X5264656Y8751361D01*
X5282139Y8768844D01*
X5294501Y8790256D01*
X5300900Y8814138D01*
Y8838862D01*
X5294501Y8862744D01*
X5282139Y8884156D01*
X5264656Y8901639D01*
X5243244Y8914001D01*
X5219362Y8920400D01*
D02*
G37*
G36*
X4711362D02*
X4686638D01*
X4662756Y8914001D01*
X4641344Y8901639D01*
X4623861Y8884156D01*
X4611499Y8862744D01*
X4605100Y8838862D01*
Y8814138D01*
X4611499Y8790256D01*
X4623861Y8768844D01*
X4641344Y8751361D01*
X4662756Y8738999D01*
X4686638Y8732600D01*
X4711362D01*
X4735244Y8738999D01*
X4756656Y8751361D01*
X4774139Y8768844D01*
X4786501Y8790256D01*
X4792900Y8814138D01*
Y8838862D01*
X4786501Y8862744D01*
X4774139Y8884156D01*
X4756656Y8901639D01*
X4735244Y8914001D01*
X4711362Y8920400D01*
D02*
G37*
G36*
X4457362D02*
X4432638D01*
X4408756Y8914001D01*
X4387344Y8901639D01*
X4369861Y8884156D01*
X4357499Y8862744D01*
X4351100Y8838862D01*
Y8814138D01*
X4357499Y8790256D01*
X4369861Y8768844D01*
X4387344Y8751361D01*
X4408756Y8738999D01*
X4432638Y8732600D01*
X4457362D01*
X4481244Y8738999D01*
X4502656Y8751361D01*
X4520139Y8768844D01*
X4532501Y8790256D01*
X4538900Y8814138D01*
Y8838862D01*
X4532501Y8862744D01*
X4520139Y8884156D01*
X4502656Y8901639D01*
X4481244Y8914001D01*
X4457362Y8920400D01*
D02*
G37*
G36*
X4203362D02*
X4178638D01*
X4154756Y8914001D01*
X4133344Y8901639D01*
X4115861Y8884156D01*
X4103499Y8862744D01*
X4097100Y8838862D01*
Y8814138D01*
X4103499Y8790256D01*
X4115861Y8768844D01*
X4133344Y8751361D01*
X4154756Y8738999D01*
X4178638Y8732600D01*
X4203362D01*
X4227244Y8738999D01*
X4248656Y8751361D01*
X4266139Y8768844D01*
X4278501Y8790256D01*
X4284900Y8814138D01*
Y8838862D01*
X4278501Y8862744D01*
X4266139Y8884156D01*
X4248656Y8901639D01*
X4227244Y8914001D01*
X4203362Y8920400D01*
D02*
G37*
G36*
X3695362D02*
X3670638D01*
X3646756Y8914001D01*
X3625344Y8901639D01*
X3607861Y8884156D01*
X3595499Y8862744D01*
X3589100Y8838862D01*
Y8814138D01*
X3595499Y8790256D01*
X3607861Y8768844D01*
X3625344Y8751361D01*
X3646756Y8738999D01*
X3670638Y8732600D01*
X3695362D01*
X3719244Y8738999D01*
X3740656Y8751361D01*
X3758139Y8768844D01*
X3770501Y8790256D01*
X3776900Y8814138D01*
Y8838862D01*
X3770501Y8862744D01*
X3758139Y8884156D01*
X3740656Y8901639D01*
X3719244Y8914001D01*
X3695362Y8920400D01*
D02*
G37*
G36*
X3187362D02*
X3162638D01*
X3138756Y8914001D01*
X3117344Y8901639D01*
X3099861Y8884156D01*
X3087499Y8862744D01*
X3081100Y8838862D01*
Y8814138D01*
X3087499Y8790256D01*
X3099861Y8768844D01*
X3117344Y8751361D01*
X3138756Y8738999D01*
X3162638Y8732600D01*
X3187362D01*
X3211244Y8738999D01*
X3232656Y8751361D01*
X3250139Y8768844D01*
X3262501Y8790256D01*
X3268900Y8814138D01*
Y8838862D01*
X3262501Y8862744D01*
X3250139Y8884156D01*
X3232656Y8901639D01*
X3211244Y8914001D01*
X3187362Y8920400D01*
D02*
G37*
G36*
X2171362D02*
X2146638D01*
X2122756Y8914001D01*
X2101344Y8901639D01*
X2083861Y8884156D01*
X2071499Y8862744D01*
X2065100Y8838862D01*
Y8814138D01*
X2071499Y8790256D01*
X2083861Y8768844D01*
X2101344Y8751361D01*
X2122756Y8738999D01*
X2146638Y8732600D01*
X2171362D01*
X2195244Y8738999D01*
X2216656Y8751361D01*
X2234139Y8768844D01*
X2246501Y8790256D01*
X2252900Y8814138D01*
Y8838862D01*
X2246501Y8862744D01*
X2234139Y8884156D01*
X2216656Y8901639D01*
X2195244Y8914001D01*
X2171362Y8920400D01*
D02*
G37*
G36*
X1917362D02*
X1892638D01*
X1868756Y8914001D01*
X1847344Y8901639D01*
X1829861Y8884156D01*
X1817499Y8862744D01*
X1811100Y8838862D01*
Y8814138D01*
X1817499Y8790256D01*
X1829861Y8768844D01*
X1847344Y8751361D01*
X1868756Y8738999D01*
X1892638Y8732600D01*
X1917362D01*
X1941244Y8738999D01*
X1962656Y8751361D01*
X1980139Y8768844D01*
X1992501Y8790256D01*
X1998900Y8814138D01*
Y8838862D01*
X1992501Y8862744D01*
X1980139Y8884156D01*
X1962656Y8901639D01*
X1941244Y8914001D01*
X1917362Y8920400D01*
D02*
G37*
G36*
X1663362D02*
X1638638D01*
X1614756Y8914001D01*
X1593344Y8901639D01*
X1575861Y8884156D01*
X1563499Y8862744D01*
X1557100Y8838862D01*
Y8814138D01*
X1563499Y8790256D01*
X1575861Y8768844D01*
X1593344Y8751361D01*
X1614756Y8738999D01*
X1638638Y8732600D01*
X1663362D01*
X1687244Y8738999D01*
X1708656Y8751361D01*
X1726139Y8768844D01*
X1738501Y8790256D01*
X1744900Y8814138D01*
Y8838862D01*
X1738501Y8862744D01*
X1726139Y8884156D01*
X1708656Y8901639D01*
X1687244Y8914001D01*
X1663362Y8920400D01*
D02*
G37*
G36*
X1490900D02*
X1303100D01*
Y8732600D01*
X1490900D01*
Y8920400D01*
D02*
G37*
G36*
X7759362Y8666400D02*
X7734638D01*
X7710756Y8660001D01*
X7689344Y8647639D01*
X7671861Y8630156D01*
X7659499Y8608744D01*
X7653100Y8584862D01*
Y8560138D01*
X7659499Y8536256D01*
X7671861Y8514844D01*
X7689344Y8497361D01*
X7710756Y8484999D01*
X7734638Y8478600D01*
X7759362D01*
X7783244Y8484999D01*
X7804656Y8497361D01*
X7822139Y8514844D01*
X7834501Y8536256D01*
X7840900Y8560138D01*
Y8584862D01*
X7834501Y8608744D01*
X7822139Y8630156D01*
X7804656Y8647639D01*
X7783244Y8660001D01*
X7759362Y8666400D01*
D02*
G37*
G36*
X7505362D02*
X7480638D01*
X7456756Y8660001D01*
X7435344Y8647639D01*
X7417861Y8630156D01*
X7405499Y8608744D01*
X7399100Y8584862D01*
Y8560138D01*
X7405499Y8536256D01*
X7417861Y8514844D01*
X7435344Y8497361D01*
X7456756Y8484999D01*
X7480638Y8478600D01*
X7505362D01*
X7529244Y8484999D01*
X7550656Y8497361D01*
X7568139Y8514844D01*
X7580501Y8536256D01*
X7586900Y8560138D01*
Y8584862D01*
X7580501Y8608744D01*
X7568139Y8630156D01*
X7550656Y8647639D01*
X7529244Y8660001D01*
X7505362Y8666400D01*
D02*
G37*
G36*
X7251362D02*
X7226638D01*
X7202756Y8660001D01*
X7181344Y8647639D01*
X7163861Y8630156D01*
X7151499Y8608744D01*
X7145100Y8584862D01*
Y8560138D01*
X7151499Y8536256D01*
X7163861Y8514844D01*
X7181344Y8497361D01*
X7202756Y8484999D01*
X7226638Y8478600D01*
X7251362D01*
X7275244Y8484999D01*
X7296656Y8497361D01*
X7314139Y8514844D01*
X7326501Y8536256D01*
X7332900Y8560138D01*
Y8584862D01*
X7326501Y8608744D01*
X7314139Y8630156D01*
X7296656Y8647639D01*
X7275244Y8660001D01*
X7251362Y8666400D01*
D02*
G37*
G36*
X6997362D02*
X6972638D01*
X6948756Y8660001D01*
X6927344Y8647639D01*
X6909861Y8630156D01*
X6897499Y8608744D01*
X6891100Y8584862D01*
Y8560138D01*
X6897499Y8536256D01*
X6909861Y8514844D01*
X6927344Y8497361D01*
X6948756Y8484999D01*
X6972638Y8478600D01*
X6997362D01*
X7021244Y8484999D01*
X7042656Y8497361D01*
X7060139Y8514844D01*
X7072501Y8536256D01*
X7078900Y8560138D01*
Y8584862D01*
X7072501Y8608744D01*
X7060139Y8630156D01*
X7042656Y8647639D01*
X7021244Y8660001D01*
X6997362Y8666400D01*
D02*
G37*
G36*
X6743362D02*
X6718638D01*
X6694756Y8660001D01*
X6673344Y8647639D01*
X6655861Y8630156D01*
X6643499Y8608744D01*
X6637100Y8584862D01*
Y8560138D01*
X6643499Y8536256D01*
X6655861Y8514844D01*
X6673344Y8497361D01*
X6694756Y8484999D01*
X6718638Y8478600D01*
X6743362D01*
X6767244Y8484999D01*
X6788656Y8497361D01*
X6806139Y8514844D01*
X6818501Y8536256D01*
X6824900Y8560138D01*
Y8584862D01*
X6818501Y8608744D01*
X6806139Y8630156D01*
X6788656Y8647639D01*
X6767244Y8660001D01*
X6743362Y8666400D01*
D02*
G37*
G36*
X6235362D02*
X6210638D01*
X6186756Y8660001D01*
X6165344Y8647639D01*
X6147861Y8630156D01*
X6135499Y8608744D01*
X6129100Y8584862D01*
Y8560138D01*
X6135499Y8536256D01*
X6147861Y8514844D01*
X6165344Y8497361D01*
X6186756Y8484999D01*
X6210638Y8478600D01*
X6235362D01*
X6259244Y8484999D01*
X6280656Y8497361D01*
X6298139Y8514844D01*
X6310501Y8536256D01*
X6316900Y8560138D01*
Y8584862D01*
X6310501Y8608744D01*
X6298139Y8630156D01*
X6280656Y8647639D01*
X6259244Y8660001D01*
X6235362Y8666400D01*
D02*
G37*
G36*
X5981362D02*
X5956638D01*
X5932756Y8660001D01*
X5911344Y8647639D01*
X5893861Y8630156D01*
X5881499Y8608744D01*
X5875100Y8584862D01*
Y8560138D01*
X5881499Y8536256D01*
X5893861Y8514844D01*
X5911344Y8497361D01*
X5932756Y8484999D01*
X5956638Y8478600D01*
X5981362D01*
X6005244Y8484999D01*
X6026656Y8497361D01*
X6044139Y8514844D01*
X6056501Y8536256D01*
X6062900Y8560138D01*
Y8584862D01*
X6056501Y8608744D01*
X6044139Y8630156D01*
X6026656Y8647639D01*
X6005244Y8660001D01*
X5981362Y8666400D01*
D02*
G37*
G36*
X5727362D02*
X5702638D01*
X5678756Y8660001D01*
X5657344Y8647639D01*
X5639861Y8630156D01*
X5627499Y8608744D01*
X5621100Y8584862D01*
Y8560138D01*
X5627499Y8536256D01*
X5639861Y8514844D01*
X5657344Y8497361D01*
X5678756Y8484999D01*
X5702638Y8478600D01*
X5727362D01*
X5751244Y8484999D01*
X5772656Y8497361D01*
X5790139Y8514844D01*
X5802501Y8536256D01*
X5808900Y8560138D01*
Y8584862D01*
X5802501Y8608744D01*
X5790139Y8630156D01*
X5772656Y8647639D01*
X5751244Y8660001D01*
X5727362Y8666400D01*
D02*
G37*
G36*
X5473362D02*
X5448638D01*
X5424756Y8660001D01*
X5403344Y8647639D01*
X5385861Y8630156D01*
X5373499Y8608744D01*
X5367100Y8584862D01*
Y8560138D01*
X5373499Y8536256D01*
X5385861Y8514844D01*
X5403344Y8497361D01*
X5424756Y8484999D01*
X5448638Y8478600D01*
X5473362D01*
X5497244Y8484999D01*
X5518656Y8497361D01*
X5536139Y8514844D01*
X5548501Y8536256D01*
X5554900Y8560138D01*
Y8584862D01*
X5548501Y8608744D01*
X5536139Y8630156D01*
X5518656Y8647639D01*
X5497244Y8660001D01*
X5473362Y8666400D01*
D02*
G37*
G36*
X5219362D02*
X5194638D01*
X5170756Y8660001D01*
X5149344Y8647639D01*
X5131861Y8630156D01*
X5119499Y8608744D01*
X5113100Y8584862D01*
Y8560138D01*
X5119499Y8536256D01*
X5131861Y8514844D01*
X5149344Y8497361D01*
X5170756Y8484999D01*
X5194638Y8478600D01*
X5219362D01*
X5243244Y8484999D01*
X5264656Y8497361D01*
X5282139Y8514844D01*
X5294501Y8536256D01*
X5300900Y8560138D01*
Y8584862D01*
X5294501Y8608744D01*
X5282139Y8630156D01*
X5264656Y8647639D01*
X5243244Y8660001D01*
X5219362Y8666400D01*
D02*
G37*
G36*
X4965362D02*
X4940638D01*
X4916756Y8660001D01*
X4895344Y8647639D01*
X4877861Y8630156D01*
X4865499Y8608744D01*
X4859100Y8584862D01*
Y8560138D01*
X4865499Y8536256D01*
X4877861Y8514844D01*
X4895344Y8497361D01*
X4916756Y8484999D01*
X4940638Y8478600D01*
X4965362D01*
X4989244Y8484999D01*
X5010656Y8497361D01*
X5028139Y8514844D01*
X5040501Y8536256D01*
X5046900Y8560138D01*
Y8584862D01*
X5040501Y8608744D01*
X5028139Y8630156D01*
X5010656Y8647639D01*
X4989244Y8660001D01*
X4965362Y8666400D01*
D02*
G37*
G36*
X4711362D02*
X4686638D01*
X4662756Y8660001D01*
X4641344Y8647639D01*
X4623861Y8630156D01*
X4611499Y8608744D01*
X4605100Y8584862D01*
Y8560138D01*
X4611499Y8536256D01*
X4623861Y8514844D01*
X4641344Y8497361D01*
X4662756Y8484999D01*
X4686638Y8478600D01*
X4711362D01*
X4735244Y8484999D01*
X4756656Y8497361D01*
X4774139Y8514844D01*
X4786501Y8536256D01*
X4792900Y8560138D01*
Y8584862D01*
X4786501Y8608744D01*
X4774139Y8630156D01*
X4756656Y8647639D01*
X4735244Y8660001D01*
X4711362Y8666400D01*
D02*
G37*
G36*
X4457362D02*
X4432638D01*
X4408756Y8660001D01*
X4387344Y8647639D01*
X4369861Y8630156D01*
X4357499Y8608744D01*
X4351100Y8584862D01*
Y8560138D01*
X4357499Y8536256D01*
X4369861Y8514844D01*
X4387344Y8497361D01*
X4408756Y8484999D01*
X4432638Y8478600D01*
X4457362D01*
X4481244Y8484999D01*
X4502656Y8497361D01*
X4520139Y8514844D01*
X4532501Y8536256D01*
X4538900Y8560138D01*
Y8584862D01*
X4532501Y8608744D01*
X4520139Y8630156D01*
X4502656Y8647639D01*
X4481244Y8660001D01*
X4457362Y8666400D01*
D02*
G37*
G36*
X4203362D02*
X4178638D01*
X4154756Y8660001D01*
X4133344Y8647639D01*
X4115861Y8630156D01*
X4103499Y8608744D01*
X4097100Y8584862D01*
Y8560138D01*
X4103499Y8536256D01*
X4115861Y8514844D01*
X4133344Y8497361D01*
X4154756Y8484999D01*
X4178638Y8478600D01*
X4203362D01*
X4227244Y8484999D01*
X4248656Y8497361D01*
X4266139Y8514844D01*
X4278501Y8536256D01*
X4284900Y8560138D01*
Y8584862D01*
X4278501Y8608744D01*
X4266139Y8630156D01*
X4248656Y8647639D01*
X4227244Y8660001D01*
X4203362Y8666400D01*
D02*
G37*
G36*
X3949362D02*
X3924638D01*
X3900756Y8660001D01*
X3879344Y8647639D01*
X3861861Y8630156D01*
X3849499Y8608744D01*
X3843100Y8584862D01*
Y8560138D01*
X3849499Y8536256D01*
X3861861Y8514844D01*
X3879344Y8497361D01*
X3900756Y8484999D01*
X3924638Y8478600D01*
X3949362D01*
X3973244Y8484999D01*
X3994656Y8497361D01*
X4012139Y8514844D01*
X4024501Y8536256D01*
X4030900Y8560138D01*
Y8584862D01*
X4024501Y8608744D01*
X4012139Y8630156D01*
X3994656Y8647639D01*
X3973244Y8660001D01*
X3949362Y8666400D01*
D02*
G37*
G36*
X3695362D02*
X3670638D01*
X3646756Y8660001D01*
X3625344Y8647639D01*
X3607861Y8630156D01*
X3595499Y8608744D01*
X3589100Y8584862D01*
Y8560138D01*
X3595499Y8536256D01*
X3607861Y8514844D01*
X3625344Y8497361D01*
X3646756Y8484999D01*
X3670638Y8478600D01*
X3695362D01*
X3719244Y8484999D01*
X3740656Y8497361D01*
X3758139Y8514844D01*
X3770501Y8536256D01*
X3776900Y8560138D01*
Y8584862D01*
X3770501Y8608744D01*
X3758139Y8630156D01*
X3740656Y8647639D01*
X3719244Y8660001D01*
X3695362Y8666400D01*
D02*
G37*
G36*
X3441362D02*
X3416638D01*
X3392756Y8660001D01*
X3371344Y8647639D01*
X3353861Y8630156D01*
X3341499Y8608744D01*
X3335100Y8584862D01*
Y8560138D01*
X3341499Y8536256D01*
X3353861Y8514844D01*
X3371344Y8497361D01*
X3392756Y8484999D01*
X3416638Y8478600D01*
X3441362D01*
X3465244Y8484999D01*
X3486656Y8497361D01*
X3504139Y8514844D01*
X3516501Y8536256D01*
X3522900Y8560138D01*
Y8584862D01*
X3516501Y8608744D01*
X3504139Y8630156D01*
X3486656Y8647639D01*
X3465244Y8660001D01*
X3441362Y8666400D01*
D02*
G37*
G36*
X3187362D02*
X3162638D01*
X3138756Y8660001D01*
X3117344Y8647639D01*
X3099861Y8630156D01*
X3087499Y8608744D01*
X3081100Y8584862D01*
Y8560138D01*
X3087499Y8536256D01*
X3099861Y8514844D01*
X3117344Y8497361D01*
X3138756Y8484999D01*
X3162638Y8478600D01*
X3187362D01*
X3211244Y8484999D01*
X3232656Y8497361D01*
X3250139Y8514844D01*
X3262501Y8536256D01*
X3268900Y8560138D01*
Y8584862D01*
X3262501Y8608744D01*
X3250139Y8630156D01*
X3232656Y8647639D01*
X3211244Y8660001D01*
X3187362Y8666400D01*
D02*
G37*
G36*
X2425362D02*
X2400638D01*
X2376756Y8660001D01*
X2355344Y8647639D01*
X2337861Y8630156D01*
X2325499Y8608744D01*
X2319100Y8584862D01*
Y8560138D01*
X2325499Y8536256D01*
X2337861Y8514844D01*
X2355344Y8497361D01*
X2376756Y8484999D01*
X2400638Y8478600D01*
X2425362D01*
X2449244Y8484999D01*
X2470656Y8497361D01*
X2488139Y8514844D01*
X2500501Y8536256D01*
X2506900Y8560138D01*
Y8584862D01*
X2500501Y8608744D01*
X2488139Y8630156D01*
X2470656Y8647639D01*
X2449244Y8660001D01*
X2425362Y8666400D01*
D02*
G37*
G36*
X2171362D02*
X2146638D01*
X2122756Y8660001D01*
X2101344Y8647639D01*
X2083861Y8630156D01*
X2071499Y8608744D01*
X2065100Y8584862D01*
Y8560138D01*
X2071499Y8536256D01*
X2083861Y8514844D01*
X2101344Y8497361D01*
X2122756Y8484999D01*
X2146638Y8478600D01*
X2171362D01*
X2195244Y8484999D01*
X2216656Y8497361D01*
X2234139Y8514844D01*
X2246501Y8536256D01*
X2252900Y8560138D01*
Y8584862D01*
X2246501Y8608744D01*
X2234139Y8630156D01*
X2216656Y8647639D01*
X2195244Y8660001D01*
X2171362Y8666400D01*
D02*
G37*
G36*
X1917362D02*
X1892638D01*
X1868756Y8660001D01*
X1847344Y8647639D01*
X1829861Y8630156D01*
X1817499Y8608744D01*
X1811100Y8584862D01*
Y8560138D01*
X1817499Y8536256D01*
X1829861Y8514844D01*
X1847344Y8497361D01*
X1868756Y8484999D01*
X1892638Y8478600D01*
X1917362D01*
X1941244Y8484999D01*
X1962656Y8497361D01*
X1980139Y8514844D01*
X1992501Y8536256D01*
X1998900Y8560138D01*
Y8584862D01*
X1992501Y8608744D01*
X1980139Y8630156D01*
X1962656Y8647639D01*
X1941244Y8660001D01*
X1917362Y8666400D01*
D02*
G37*
G36*
X1663362D02*
X1638638D01*
X1614756Y8660001D01*
X1593344Y8647639D01*
X1575861Y8630156D01*
X1563499Y8608744D01*
X1557100Y8584862D01*
Y8560138D01*
X1563499Y8536256D01*
X1575861Y8514844D01*
X1593344Y8497361D01*
X1614756Y8484999D01*
X1638638Y8478600D01*
X1663362D01*
X1687244Y8484999D01*
X1708656Y8497361D01*
X1726139Y8514844D01*
X1738501Y8536256D01*
X1744900Y8560138D01*
Y8584862D01*
X1738501Y8608744D01*
X1726139Y8630156D01*
X1708656Y8647639D01*
X1687244Y8660001D01*
X1663362Y8666400D01*
D02*
G37*
G36*
X1409362D02*
X1384638D01*
X1360756Y8660001D01*
X1339344Y8647639D01*
X1321861Y8630156D01*
X1309499Y8608744D01*
X1303100Y8584862D01*
Y8560138D01*
X1309499Y8536256D01*
X1321861Y8514844D01*
X1339344Y8497361D01*
X1360756Y8484999D01*
X1384638Y8478600D01*
X1409362D01*
X1433244Y8484999D01*
X1454656Y8497361D01*
X1472139Y8514844D01*
X1484501Y8536256D01*
X1490900Y8560138D01*
Y8584862D01*
X1484501Y8608744D01*
X1472139Y8630156D01*
X1454656Y8647639D01*
X1433244Y8660001D01*
X1409362Y8666400D01*
D02*
G37*
G36*
X6489362D02*
X6464638D01*
X6440756Y8660001D01*
X6419344Y8647639D01*
X6401861Y8630156D01*
X6389499Y8608744D01*
X6383100Y8584862D01*
Y8560138D01*
X6389499Y8536256D01*
X6401861Y8514844D01*
X6419344Y8497361D01*
X6440756Y8484999D01*
X6464638Y8478600D01*
X6464171Y8466093D01*
X6430815D01*
X6417003Y8463346D01*
X6405294Y8455522D01*
X6317607Y8367836D01*
X6301736Y8369925D01*
X6298139Y8376156D01*
X6280656Y8393639D01*
X6259244Y8406001D01*
X6235362Y8412400D01*
X6210638D01*
X6186756Y8406001D01*
X6165344Y8393639D01*
X6147861Y8376156D01*
X6135499Y8354744D01*
X6129100Y8330862D01*
Y8306138D01*
X6135499Y8282256D01*
X6147861Y8260844D01*
X6165344Y8243361D01*
X6186756Y8230999D01*
X6210638Y8224600D01*
X6235362D01*
X6259244Y8230999D01*
X6280656Y8243361D01*
X6285707Y8248412D01*
X6298407Y8243151D01*
Y8148519D01*
X5485981Y7336093D01*
X5041388D01*
X5027575Y7333346D01*
X5015866Y7325522D01*
X4959078Y7268734D01*
X4951254Y7257024D01*
X4948507Y7243212D01*
Y7065745D01*
X4951022Y7053100D01*
X4950720Y7051119D01*
X4943686Y7040400D01*
X4747100D01*
Y7033398D01*
X4705400D01*
Y7040400D01*
X4594600D01*
Y7018946D01*
X4593574Y7017411D01*
X4591602Y7007500D01*
Y6998397D01*
X4435000D01*
X4425089Y6996426D01*
X4416688Y6990812D01*
X4411074Y6982410D01*
X4409102Y6972500D01*
Y6663609D01*
X4397369Y6658749D01*
X4180596Y6875522D01*
X4168887Y6883346D01*
X4155074Y6886093D01*
X4092254D01*
X4081381Y6896966D01*
X4061020Y6905400D01*
X4038980D01*
X4018619Y6896966D01*
X4003034Y6881381D01*
X3994600Y6861020D01*
Y6838980D01*
X4003034Y6818619D01*
X4013356Y6808297D01*
X4017209Y6800000D01*
X4013356Y6791703D01*
X4003034Y6781381D01*
X3994600Y6761020D01*
Y6738980D01*
X4003034Y6718619D01*
X4013356Y6708297D01*
X4017209Y6700000D01*
X4013356Y6691703D01*
X4003034Y6681381D01*
X3994600Y6661020D01*
Y6638980D01*
X4003034Y6618618D01*
X4013356Y6608297D01*
X4017209Y6600000D01*
X4013356Y6591703D01*
X4003034Y6581382D01*
X3994600Y6561020D01*
Y6538980D01*
X4003034Y6518619D01*
X4018619Y6503034D01*
X4038980Y6494600D01*
X4061020D01*
X4081381Y6503034D01*
X4092254Y6513907D01*
X4257989D01*
X4337418Y6434478D01*
X4349128Y6426654D01*
X4362940Y6423906D01*
X4377100D01*
Y6355400D01*
X4292100D01*
X4292100Y6355401D01*
Y6355400D01*
X4279400Y6351929D01*
X4271020Y6355400D01*
X4248980D01*
X4228619Y6346966D01*
X4213034Y6331382D01*
X4204600Y6311020D01*
Y6288980D01*
X4211926Y6271294D01*
X4206466Y6258593D01*
X4012451D01*
X3966093Y6304951D01*
Y6400000D01*
Y6657498D01*
X3966094Y6657500D01*
X3963346Y6671312D01*
X3955522Y6683022D01*
X3841922Y6796622D01*
X3830212Y6804446D01*
X3816400Y6807193D01*
X3665300D01*
Y6907614D01*
X3665994Y6911100D01*
Y6979950D01*
X3700020Y7013977D01*
X3712101Y7017100D01*
Y7017100D01*
X3712101Y7017100D01*
X3912900D01*
Y7217900D01*
X3712100D01*
Y7153593D01*
X3667900D01*
Y7175400D01*
X3557100D01*
Y7059600D01*
X3626962D01*
X3631823Y7047867D01*
X3604378Y7020422D01*
X3596554Y7008713D01*
X3593807Y6994900D01*
Y6946500D01*
X3542970D01*
X3537900Y6957100D01*
Y7067900D01*
X3337100D01*
Y7048593D01*
X3174560D01*
X3160748Y7045846D01*
X3149038Y7038022D01*
X3070509Y6959493D01*
X2210151D01*
X1818762Y7350882D01*
X1807052Y7358706D01*
X1793240Y7361453D01*
X1454919D01*
X1441107Y7358706D01*
X1429397Y7350882D01*
X1377818Y7299303D01*
X1369994Y7287593D01*
X1367247Y7273781D01*
Y7159960D01*
X1362940D01*
Y7037459D01*
X1240440D01*
Y6956659D01*
Y6906660D01*
X1386240D01*
Y7014159D01*
X1720440D01*
Y6906660D01*
Y6806660D01*
Y6679960D01*
X1386240D01*
Y6806660D01*
Y6887460D01*
X1313732D01*
X1313340Y6887538D01*
X1312948Y6887460D01*
X1240440D01*
Y6886998D01*
X1095971D01*
X1094764Y6886758D01*
X1017628D01*
X1009545Y6906274D01*
X992554Y6923265D01*
X970354Y6932460D01*
X946326D01*
X924126Y6923265D01*
X907135Y6906274D01*
X897940Y6884074D01*
Y6860046D01*
X907135Y6837846D01*
X923162Y6821820D01*
X907135Y6805793D01*
X897940Y6783594D01*
Y6759565D01*
X907135Y6737366D01*
X924126Y6720375D01*
X946326Y6711180D01*
X970354D01*
X992554Y6720375D01*
X1009545Y6737366D01*
X1017628Y6756882D01*
X1115994D01*
X1117201Y6757122D01*
X1127171D01*
X1137940Y6752459D01*
Y6641660D01*
X1142061D01*
X1147321Y6628960D01*
X1144635Y6626274D01*
X1135440Y6604074D01*
Y6580046D01*
X1144635Y6557846D01*
X1161626Y6540855D01*
X1162302Y6540575D01*
Y6526906D01*
X1165438Y6511143D01*
X1174367Y6497780D01*
X1211713Y6460433D01*
X1225077Y6451504D01*
X1230440Y6450437D01*
Y6434160D01*
X1315440D01*
Y6326660D01*
X1431240D01*
Y6434160D01*
X1508428D01*
X1515141Y6421460D01*
X1507940Y6404074D01*
Y6380046D01*
X1517135Y6357846D01*
X1534126Y6340855D01*
X1556326Y6331660D01*
X1580354D01*
X1602554Y6340855D01*
X1619544Y6357846D01*
X1628740Y6380046D01*
Y6404074D01*
X1621538Y6421460D01*
X1626240Y6434160D01*
X1626240D01*
Y6534160D01*
X1743740D01*
Y6656660D01*
X1866240D01*
Y6756660D01*
Y6856660D01*
Y6956659D01*
Y7037459D01*
X1743740D01*
Y7129966D01*
X1876630D01*
X2148718Y6857878D01*
X2160428Y6850054D01*
X2174240Y6847307D01*
X3074223D01*
X3164552Y6756978D01*
X3176261Y6749154D01*
X3177100Y6748987D01*
Y6702100D01*
X3287900D01*
Y6735006D01*
X3303500D01*
Y6725700D01*
X3473300D01*
Y6796756D01*
X3483804Y6802861D01*
X3495500Y6797428D01*
Y6725700D01*
X3665300D01*
Y6735006D01*
X3801450D01*
X3893907Y6642549D01*
Y6490400D01*
X3712100D01*
Y6289600D01*
X3762186D01*
X3764600Y6277900D01*
X3764600D01*
Y6162100D01*
X3875400D01*
Y6277900D01*
X3875400D01*
X3877814Y6289600D01*
X3893986D01*
X3896654Y6276188D01*
X3904478Y6264478D01*
X3971978Y6196978D01*
X3983688Y6189154D01*
X3997500Y6186406D01*
X4396554D01*
X4401814Y6173706D01*
X4364201Y6136093D01*
X4242254D01*
X4231381Y6146966D01*
X4211020Y6155400D01*
X4188980D01*
X4168619Y6146966D01*
X4153034Y6131381D01*
X4144600Y6111020D01*
Y6088980D01*
X4153034Y6068619D01*
X4168619Y6053034D01*
X4188980Y6044600D01*
X4211020D01*
X4231381Y6053034D01*
X4242254Y6063907D01*
X4276330D01*
X4278857Y6051207D01*
X4268619Y6046966D01*
X4253034Y6031381D01*
X4244600Y6011020D01*
Y5988980D01*
X4253034Y5968618D01*
X4268619Y5953034D01*
X4288980Y5944600D01*
X4311020D01*
X4331381Y5953034D01*
X4342254Y5963907D01*
X4376330D01*
X4378857Y5951207D01*
X4368619Y5946966D01*
X4353034Y5931381D01*
X4344600Y5911020D01*
Y5888980D01*
X4353034Y5868618D01*
X4368619Y5853034D01*
X4388980Y5844600D01*
X4411020D01*
X4431382Y5853034D01*
X4446966Y5868618D01*
X4455400Y5888980D01*
Y5904356D01*
X4654673Y6103629D01*
X4666406Y6098769D01*
Y6071228D01*
X4550578Y5955400D01*
X4538980D01*
X4518619Y5946966D01*
X4503034Y5931381D01*
X4494600Y5911020D01*
Y5888980D01*
X4503034Y5868618D01*
X4518619Y5853034D01*
X4538980Y5844600D01*
X4561020D01*
X4581381Y5853034D01*
X4596966Y5868618D01*
X4605400Y5888980D01*
Y5908134D01*
X4704673Y6007407D01*
X4716406Y6002547D01*
Y5747500D01*
X4719154Y5733688D01*
X4726978Y5721978D01*
X4971961Y5476996D01*
X4973012Y5476293D01*
X4969159Y5463593D01*
X4050820D01*
X4037007Y5460846D01*
X4025298Y5453022D01*
X3949478Y5377202D01*
X3941654Y5365492D01*
X3938907Y5351680D01*
Y5182900D01*
X3919600D01*
Y5067100D01*
X4030400D01*
Y5088907D01*
X4055315D01*
X4056069Y5086093D01*
X4069340Y5063108D01*
X4088107Y5044340D01*
X4111093Y5031070D01*
X4136729Y5024200D01*
X4163270D01*
X4188907Y5031070D01*
X4211892Y5044340D01*
X4230660Y5063108D01*
X4243930Y5086093D01*
X4250800Y5111730D01*
Y5138271D01*
X4243930Y5163907D01*
X4230660Y5186893D01*
X4211892Y5205660D01*
X4188907Y5218931D01*
X4163270Y5225800D01*
X4136729D01*
X4111093Y5218931D01*
X4088107Y5205660D01*
X4069340Y5186893D01*
X4056069Y5163907D01*
X4055315Y5161094D01*
X4030400D01*
Y5182900D01*
X4011093D01*
Y5336729D01*
X4065770Y5391407D01*
X4996330D01*
X4998857Y5378707D01*
X4988619Y5374466D01*
X4973034Y5358881D01*
X4964600Y5338520D01*
Y5316480D01*
X4973034Y5296118D01*
X4988619Y5280534D01*
X5008980Y5272100D01*
X5031020D01*
X5051382Y5280534D01*
X5057156Y5286308D01*
X5332319D01*
X5363809Y5254819D01*
Y5159656D01*
X5358034Y5153881D01*
X5349600Y5133520D01*
Y5111480D01*
X5358034Y5091119D01*
X5363809Y5085344D01*
Y5074562D01*
X5342938Y5053691D01*
X4287500D01*
X4271736Y5050556D01*
X4258373Y5041627D01*
X4192546Y4975800D01*
X4049200D01*
Y4832454D01*
X3882937Y4666191D01*
X3700800D01*
Y4725800D01*
X3499200D01*
Y4666061D01*
X1649869D01*
X1634106Y4662925D01*
X1620743Y4653996D01*
X692547Y3725800D01*
X549200D01*
Y3524200D01*
X750800D01*
Y3667547D01*
X1666931Y4583678D01*
X3499200D01*
Y4524200D01*
X3700800D01*
Y4583808D01*
X3899999D01*
X3915763Y4586944D01*
X3929126Y4595873D01*
X4107453Y4774200D01*
X4231563D01*
X4236423Y4762467D01*
X3949478Y4475522D01*
X3941654Y4463813D01*
X3938907Y4450000D01*
Y3932900D01*
X3919600D01*
Y3817100D01*
X4030400D01*
Y3838907D01*
X4055315D01*
X4056069Y3836093D01*
X4069340Y3813108D01*
X4088107Y3794340D01*
X4111093Y3781070D01*
X4136729Y3774200D01*
X4163270D01*
X4188907Y3781070D01*
X4211892Y3794340D01*
X4230660Y3813108D01*
X4243930Y3836093D01*
X4250800Y3861730D01*
Y3888271D01*
X4243930Y3913908D01*
X4230660Y3936893D01*
X4211892Y3955660D01*
X4188907Y3968931D01*
X4163270Y3975800D01*
X4136729D01*
X4111093Y3968931D01*
X4088107Y3955660D01*
X4069340Y3936893D01*
X4056069Y3913908D01*
X4055315Y3911094D01*
X4030400D01*
Y3932900D01*
X4011094D01*
Y4435050D01*
X4334950Y4758907D01*
X5352500D01*
X5366312Y4761654D01*
X5378022Y4769478D01*
X5525522Y4916978D01*
X5533346Y4928688D01*
X5536094Y4942500D01*
X5536093Y4942501D01*
Y6557746D01*
X5546966Y6568619D01*
X5555400Y6588980D01*
Y6611020D01*
X5546966Y6631381D01*
X5531381Y6646966D01*
X5518729Y6652207D01*
X5521255Y6664907D01*
X5639966D01*
X5641186Y6662837D01*
X5643860Y6652207D01*
X5630534Y6638881D01*
X5622100Y6618520D01*
Y6610353D01*
X5570873Y6559127D01*
X5561944Y6545763D01*
X5558809Y6530000D01*
Y5154656D01*
X5558034Y5153881D01*
X5549600Y5133520D01*
Y5111480D01*
X5558034Y5091119D01*
X5573619Y5075534D01*
X5593980Y5067100D01*
X5616020D01*
X5636381Y5075534D01*
X5651966Y5091119D01*
X5660400Y5111480D01*
Y5133520D01*
X5651966Y5153881D01*
X5641191Y5164656D01*
Y6512938D01*
X5680353Y6552100D01*
X5688520D01*
X5708881Y6560534D01*
X5714656Y6566308D01*
X7007938D01*
X7058809Y6515438D01*
Y5975800D01*
X6999200D01*
Y5832453D01*
X6913373Y5746626D01*
X6904444Y5733263D01*
X6901309Y5717500D01*
Y5321800D01*
X6904444Y5306036D01*
X6913373Y5292673D01*
X7058809Y5147238D01*
Y4725800D01*
X6999200D01*
Y4666038D01*
X5149846D01*
X5134083Y4662902D01*
X5120719Y4653973D01*
X4192547Y3725800D01*
X4049200D01*
Y3582454D01*
X3882937Y3416191D01*
X3700800D01*
Y3475800D01*
X3499200D01*
Y3416191D01*
X1649999D01*
X1634236Y3413056D01*
X1620873Y3404127D01*
X692546Y2475800D01*
X549200D01*
Y2274200D01*
X750800D01*
Y2417547D01*
X1667061Y3333808D01*
X3499200D01*
Y3274200D01*
X3700800D01*
Y3333808D01*
X3899999D01*
X3915763Y3336944D01*
X3929126Y3345873D01*
X4107453Y3524200D01*
X4250800D01*
Y3667547D01*
X5166908Y4583655D01*
X6984214D01*
X6989474Y4570955D01*
X6918373Y4499854D01*
X6909444Y4486490D01*
X6906309Y4470727D01*
Y4025521D01*
X6909444Y4009758D01*
X6918373Y3996394D01*
X7058809Y3855959D01*
Y3475800D01*
X6999200D01*
Y3416191D01*
X5149999D01*
X5134236Y3413056D01*
X5120873Y3404127D01*
X4192546Y2475800D01*
X4049200D01*
Y2332454D01*
X3882937Y2166191D01*
X3700800D01*
Y2225800D01*
X3499200D01*
Y2166191D01*
X1649999D01*
X1634236Y2163056D01*
X1620873Y2154127D01*
X692546Y1225800D01*
X549200D01*
Y1024200D01*
X750800D01*
Y1167547D01*
X1667061Y2083808D01*
X3499200D01*
Y2024200D01*
X3700800D01*
Y2083808D01*
X3899999D01*
X3915763Y2086944D01*
X3929126Y2095873D01*
X4107453Y2274200D01*
X4250800D01*
Y2417547D01*
X5167061Y3333808D01*
X6982595D01*
X6987855Y3321108D01*
X6974860Y3308113D01*
X6966765Y3302704D01*
X6913373Y3249313D01*
X6904444Y3235949D01*
X6901309Y3220186D01*
Y2780521D01*
X6904444Y2764758D01*
X6913373Y2751395D01*
X7058809Y2605959D01*
Y2225800D01*
X6999200D01*
Y2166191D01*
X5149999D01*
X5134236Y2163056D01*
X5120873Y2154127D01*
X4192546Y1225800D01*
X4049200D01*
Y1024200D01*
X4250800D01*
Y1167547D01*
X5167061Y2083808D01*
X6999200D01*
Y2024200D01*
X7200800D01*
Y2225800D01*
X7141191D01*
Y2623021D01*
X7138056Y2638784D01*
X7129127Y2652148D01*
X6983691Y2797583D01*
Y3203124D01*
X7019610Y3239042D01*
X7027704Y3244450D01*
X7057453Y3274200D01*
X7200800D01*
Y3475800D01*
X7141191D01*
Y3873021D01*
X7138056Y3888784D01*
X7129127Y3902148D01*
X6988691Y4042583D01*
Y4351879D01*
X7001391Y4353551D01*
X7006070Y4336092D01*
X7019340Y4313107D01*
X7038108Y4294340D01*
X7061093Y4281069D01*
X7086730Y4274200D01*
X7113271D01*
X7138907Y4281069D01*
X7161892Y4294340D01*
X7180660Y4313107D01*
X7193930Y4336092D01*
X7194684Y4338906D01*
X7219600D01*
Y4317100D01*
X7330400D01*
Y4432900D01*
X7219600D01*
Y4411093D01*
X7194684D01*
X7193930Y4413907D01*
X7180660Y4436892D01*
X7161892Y4455660D01*
X7138907Y4468930D01*
X7113271Y4475800D01*
X7086730D01*
X7061093Y4468930D01*
X7038108Y4455660D01*
X7019340Y4436892D01*
X7006070Y4413907D01*
X7001391Y4396448D01*
X6988691Y4398120D01*
Y4453665D01*
X7059226Y4524200D01*
X7200800D01*
Y4725800D01*
X7141191D01*
Y5164300D01*
X7138056Y5180063D01*
X7129127Y5193426D01*
X6983691Y5338862D01*
Y5700438D01*
X7057453Y5774200D01*
X7200800D01*
Y5975800D01*
X7141191D01*
Y6532500D01*
X7138056Y6548264D01*
X7129127Y6561627D01*
X7054127Y6636627D01*
X7040764Y6645556D01*
X7025000Y6648691D01*
X5723147D01*
X5720299Y6652207D01*
X5726355Y6664907D01*
X7491549D01*
X7523907Y6632550D01*
Y2280400D01*
X7504600D01*
Y2164600D01*
Y2079600D01*
X7523407D01*
Y1898400D01*
X7468600D01*
Y1717600D01*
X7649400D01*
Y1898400D01*
X7595593D01*
Y2079600D01*
X7615400D01*
Y2186407D01*
X7774600D01*
Y2124600D01*
X7975400D01*
Y2325400D01*
X7774600D01*
Y2258593D01*
X7615400D01*
Y2280400D01*
X7596094D01*
Y6647500D01*
X7593346Y6661312D01*
X7585522Y6673022D01*
X7532022Y6726522D01*
X7520312Y6734346D01*
X7506500Y6737094D01*
X5496356D01*
X5491496Y6748827D01*
X5508977Y6766309D01*
X5640344D01*
X5646119Y6760534D01*
X5666480Y6752100D01*
X5688520D01*
X5708881Y6760534D01*
X5724466Y6776119D01*
X5732900Y6796480D01*
Y6818520D01*
X5724466Y6838881D01*
X5708881Y6854466D01*
X5688520Y6862900D01*
X5666480D01*
X5646119Y6854466D01*
X5640344Y6848691D01*
X5491915D01*
X5476152Y6845556D01*
X5462789Y6836627D01*
X5420854Y6794692D01*
X5373399D01*
Y6838900D01*
X5290399D01*
Y6856936D01*
X5291545Y6862700D01*
Y6889108D01*
X5299969Y6897532D01*
X5308033Y6909600D01*
X5330400D01*
Y6978547D01*
X5331147Y6982300D01*
Y6984498D01*
X5338980Y6995000D01*
X5361020D01*
X5381381Y7003434D01*
X5396966Y7019018D01*
X5405400Y7039380D01*
Y7061420D01*
X5396966Y7081781D01*
X5397731Y7089549D01*
X5398822Y7090278D01*
X6403022Y8094478D01*
X6410846Y8106188D01*
X6413594Y8120000D01*
X6413593Y8120001D01*
Y8204050D01*
X6440621Y8231077D01*
X6440756Y8230999D01*
X6464638Y8224600D01*
X6489362D01*
X6513244Y8230999D01*
X6534656Y8243361D01*
X6552139Y8260844D01*
X6564501Y8282256D01*
X6570900Y8306138D01*
Y8330862D01*
X6564501Y8354744D01*
X6552139Y8376156D01*
X6547088Y8381207D01*
X6552349Y8393907D01*
X6604550D01*
X6643577Y8354879D01*
X6643499Y8354744D01*
X6637100Y8330862D01*
Y8306138D01*
X6643499Y8282256D01*
X6655861Y8260844D01*
X6673344Y8243361D01*
X6694756Y8230999D01*
X6718638Y8224600D01*
X6743362D01*
X6767244Y8230999D01*
X6788656Y8243361D01*
X6806139Y8260844D01*
X6818501Y8282256D01*
X6824900Y8306138D01*
Y8330862D01*
X6818501Y8354744D01*
X6806139Y8376156D01*
X6788656Y8393639D01*
X6767244Y8406001D01*
X6743362Y8412400D01*
X6718638D01*
X6694756Y8406001D01*
X6694621Y8405923D01*
X6645022Y8455522D01*
X6633312Y8463346D01*
X6619500Y8466093D01*
X6489829D01*
X6489362Y8478600D01*
X6513244Y8484999D01*
X6534656Y8497361D01*
X6552139Y8514844D01*
X6564501Y8536256D01*
X6570900Y8560138D01*
Y8584862D01*
X6564501Y8608744D01*
X6552139Y8630156D01*
X6534656Y8647639D01*
X6513244Y8660001D01*
X6489362Y8666400D01*
D02*
G37*
G36*
X1060400Y8512900D02*
X944600D01*
Y8402900D01*
X929600D01*
Y8257100D01*
X1080400D01*
Y8402900D01*
X1060400D01*
Y8512900D01*
D02*
G37*
G36*
X7759362Y8412400D02*
X7734638D01*
X7710756Y8406001D01*
X7689344Y8393639D01*
X7671861Y8376156D01*
X7659499Y8354744D01*
X7653100Y8330862D01*
Y8306138D01*
X7659499Y8282256D01*
X7671861Y8260844D01*
X7689344Y8243361D01*
X7710756Y8230999D01*
X7734638Y8224600D01*
X7759362D01*
X7783244Y8230999D01*
X7804656Y8243361D01*
X7822139Y8260844D01*
X7834501Y8282256D01*
X7840900Y8306138D01*
Y8330862D01*
X7834501Y8354744D01*
X7822139Y8376156D01*
X7804656Y8393639D01*
X7783244Y8406001D01*
X7759362Y8412400D01*
D02*
G37*
G36*
X7505362D02*
X7480638D01*
X7456756Y8406001D01*
X7435344Y8393639D01*
X7417861Y8376156D01*
X7405499Y8354744D01*
X7399100Y8330862D01*
Y8306138D01*
X7405499Y8282256D01*
X7417861Y8260844D01*
X7435344Y8243361D01*
X7456756Y8230999D01*
X7480638Y8224600D01*
X7505362D01*
X7529244Y8230999D01*
X7550656Y8243361D01*
X7568139Y8260844D01*
X7580501Y8282256D01*
X7586900Y8306138D01*
Y8330862D01*
X7580501Y8354744D01*
X7568139Y8376156D01*
X7550656Y8393639D01*
X7529244Y8406001D01*
X7505362Y8412400D01*
D02*
G37*
G36*
X7251362D02*
X7226638D01*
X7202756Y8406001D01*
X7181344Y8393639D01*
X7163861Y8376156D01*
X7151499Y8354744D01*
X7145100Y8330862D01*
Y8306138D01*
X7151499Y8282256D01*
X7163861Y8260844D01*
X7181344Y8243361D01*
X7202756Y8230999D01*
X7226638Y8224600D01*
X7251362D01*
X7275244Y8230999D01*
X7296656Y8243361D01*
X7314139Y8260844D01*
X7326501Y8282256D01*
X7332900Y8306138D01*
Y8330862D01*
X7326501Y8354744D01*
X7314139Y8376156D01*
X7296656Y8393639D01*
X7275244Y8406001D01*
X7251362Y8412400D01*
D02*
G37*
G36*
X6997362D02*
X6972638D01*
X6948756Y8406001D01*
X6927344Y8393639D01*
X6909861Y8376156D01*
X6897499Y8354744D01*
X6891100Y8330862D01*
Y8306138D01*
X6897499Y8282256D01*
X6909861Y8260844D01*
X6927344Y8243361D01*
X6948756Y8230999D01*
X6972638Y8224600D01*
X6997362D01*
X7021244Y8230999D01*
X7042656Y8243361D01*
X7060139Y8260844D01*
X7072501Y8282256D01*
X7078900Y8306138D01*
Y8330862D01*
X7072501Y8354744D01*
X7060139Y8376156D01*
X7042656Y8393639D01*
X7021244Y8406001D01*
X6997362Y8412400D01*
D02*
G37*
G36*
X5981362D02*
X5956638D01*
X5932756Y8406001D01*
X5911344Y8393639D01*
X5893861Y8376156D01*
X5881499Y8354744D01*
X5875100Y8330862D01*
Y8306138D01*
X5881499Y8282256D01*
X5893861Y8260844D01*
X5911344Y8243361D01*
X5932756Y8230999D01*
X5956638Y8224600D01*
X5981362D01*
X6005244Y8230999D01*
X6026656Y8243361D01*
X6044139Y8260844D01*
X6056501Y8282256D01*
X6062900Y8306138D01*
Y8330862D01*
X6056501Y8354744D01*
X6044139Y8376156D01*
X6026656Y8393639D01*
X6005244Y8406001D01*
X5981362Y8412400D01*
D02*
G37*
G36*
X5727362D02*
X5702638D01*
X5678756Y8406001D01*
X5657344Y8393639D01*
X5639861Y8376156D01*
X5627499Y8354744D01*
X5621100Y8330862D01*
Y8306138D01*
X5627499Y8282256D01*
X5639861Y8260844D01*
X5657344Y8243361D01*
X5678756Y8230999D01*
X5702638Y8224600D01*
X5727362D01*
X5751244Y8230999D01*
X5772656Y8243361D01*
X5790139Y8260844D01*
X5802501Y8282256D01*
X5808900Y8306138D01*
Y8330862D01*
X5802501Y8354744D01*
X5790139Y8376156D01*
X5772656Y8393639D01*
X5751244Y8406001D01*
X5727362Y8412400D01*
D02*
G37*
G36*
X5473362D02*
X5448638D01*
X5424756Y8406001D01*
X5403344Y8393639D01*
X5385861Y8376156D01*
X5373499Y8354744D01*
X5367100Y8330862D01*
Y8306138D01*
X5373499Y8282256D01*
X5385861Y8260844D01*
X5403344Y8243361D01*
X5424756Y8230999D01*
X5448638Y8224600D01*
X5473362D01*
X5497244Y8230999D01*
X5518656Y8243361D01*
X5536139Y8260844D01*
X5548501Y8282256D01*
X5554900Y8306138D01*
Y8330862D01*
X5548501Y8354744D01*
X5536139Y8376156D01*
X5518656Y8393639D01*
X5497244Y8406001D01*
X5473362Y8412400D01*
D02*
G37*
G36*
X5219362D02*
X5194638D01*
X5170756Y8406001D01*
X5149344Y8393639D01*
X5131861Y8376156D01*
X5119499Y8354744D01*
X5113100Y8330862D01*
Y8306138D01*
X5119499Y8282256D01*
X5131861Y8260844D01*
X5149344Y8243361D01*
X5170756Y8230999D01*
X5194638Y8224600D01*
X5219362D01*
X5243244Y8230999D01*
X5264656Y8243361D01*
X5282139Y8260844D01*
X5294501Y8282256D01*
X5300900Y8306138D01*
Y8330862D01*
X5294501Y8354744D01*
X5282139Y8376156D01*
X5264656Y8393639D01*
X5243244Y8406001D01*
X5219362Y8412400D01*
D02*
G37*
G36*
X4965362D02*
X4940638D01*
X4916756Y8406001D01*
X4895344Y8393639D01*
X4877861Y8376156D01*
X4865499Y8354744D01*
X4859100Y8330862D01*
Y8306138D01*
X4865499Y8282256D01*
X4877861Y8260844D01*
X4895344Y8243361D01*
X4916756Y8230999D01*
X4940638Y8224600D01*
X4965362D01*
X4989244Y8230999D01*
X5010656Y8243361D01*
X5028139Y8260844D01*
X5040501Y8282256D01*
X5046900Y8306138D01*
Y8330862D01*
X5040501Y8354744D01*
X5028139Y8376156D01*
X5010656Y8393639D01*
X4989244Y8406001D01*
X4965362Y8412400D01*
D02*
G37*
G36*
X4711362D02*
X4686638D01*
X4662756Y8406001D01*
X4641344Y8393639D01*
X4623861Y8376156D01*
X4611499Y8354744D01*
X4605100Y8330862D01*
Y8306138D01*
X4611499Y8282256D01*
X4623861Y8260844D01*
X4641344Y8243361D01*
X4662756Y8230999D01*
X4686638Y8224600D01*
X4711362D01*
X4735244Y8230999D01*
X4756656Y8243361D01*
X4774139Y8260844D01*
X4786501Y8282256D01*
X4792900Y8306138D01*
Y8330862D01*
X4786501Y8354744D01*
X4774139Y8376156D01*
X4756656Y8393639D01*
X4735244Y8406001D01*
X4711362Y8412400D01*
D02*
G37*
G36*
X4457362D02*
X4432638D01*
X4408756Y8406001D01*
X4387344Y8393639D01*
X4369861Y8376156D01*
X4357499Y8354744D01*
X4351100Y8330862D01*
Y8306138D01*
X4357499Y8282256D01*
X4369861Y8260844D01*
X4387344Y8243361D01*
X4408756Y8230999D01*
X4432638Y8224600D01*
X4457362D01*
X4481244Y8230999D01*
X4502656Y8243361D01*
X4520139Y8260844D01*
X4532501Y8282256D01*
X4538900Y8306138D01*
Y8330862D01*
X4532501Y8354744D01*
X4520139Y8376156D01*
X4502656Y8393639D01*
X4481244Y8406001D01*
X4457362Y8412400D01*
D02*
G37*
G36*
X4203362D02*
X4178638D01*
X4154756Y8406001D01*
X4133344Y8393639D01*
X4115861Y8376156D01*
X4103499Y8354744D01*
X4097100Y8330862D01*
Y8306138D01*
X4103499Y8282256D01*
X4115861Y8260844D01*
X4133344Y8243361D01*
X4154756Y8230999D01*
X4178638Y8224600D01*
X4203362D01*
X4227244Y8230999D01*
X4248656Y8243361D01*
X4266139Y8260844D01*
X4278501Y8282256D01*
X4284900Y8306138D01*
Y8330862D01*
X4278501Y8354744D01*
X4266139Y8376156D01*
X4248656Y8393639D01*
X4227244Y8406001D01*
X4203362Y8412400D01*
D02*
G37*
G36*
X3949362D02*
X3924638D01*
X3900756Y8406001D01*
X3879344Y8393639D01*
X3861861Y8376156D01*
X3849499Y8354744D01*
X3843100Y8330862D01*
Y8306138D01*
X3849499Y8282256D01*
X3861861Y8260844D01*
X3879344Y8243361D01*
X3900756Y8230999D01*
X3924638Y8224600D01*
X3949362D01*
X3973244Y8230999D01*
X3994656Y8243361D01*
X4012139Y8260844D01*
X4024501Y8282256D01*
X4030900Y8306138D01*
Y8330862D01*
X4024501Y8354744D01*
X4012139Y8376156D01*
X3994656Y8393639D01*
X3973244Y8406001D01*
X3949362Y8412400D01*
D02*
G37*
G36*
X3695362D02*
X3670638D01*
X3646756Y8406001D01*
X3625344Y8393639D01*
X3607861Y8376156D01*
X3595499Y8354744D01*
X3589100Y8330862D01*
Y8306138D01*
X3595499Y8282256D01*
X3607861Y8260844D01*
X3625344Y8243361D01*
X3646756Y8230999D01*
X3670638Y8224600D01*
X3695362D01*
X3719244Y8230999D01*
X3740656Y8243361D01*
X3758139Y8260844D01*
X3770501Y8282256D01*
X3776900Y8306138D01*
Y8330862D01*
X3770501Y8354744D01*
X3758139Y8376156D01*
X3740656Y8393639D01*
X3719244Y8406001D01*
X3695362Y8412400D01*
D02*
G37*
G36*
X3441362D02*
X3416638D01*
X3392756Y8406001D01*
X3371344Y8393639D01*
X3353861Y8376156D01*
X3341499Y8354744D01*
X3335100Y8330862D01*
Y8306138D01*
X3341499Y8282256D01*
X3353861Y8260844D01*
X3371344Y8243361D01*
X3392756Y8230999D01*
X3416638Y8224600D01*
X3441362D01*
X3465244Y8230999D01*
X3486656Y8243361D01*
X3504139Y8260844D01*
X3516501Y8282256D01*
X3522900Y8306138D01*
Y8330862D01*
X3516501Y8354744D01*
X3504139Y8376156D01*
X3486656Y8393639D01*
X3465244Y8406001D01*
X3441362Y8412400D01*
D02*
G37*
G36*
X3187362D02*
X3162638D01*
X3138756Y8406001D01*
X3117344Y8393639D01*
X3099861Y8376156D01*
X3087499Y8354744D01*
X3081100Y8330862D01*
Y8306138D01*
X3087499Y8282256D01*
X3099861Y8260844D01*
X3117344Y8243361D01*
X3138756Y8230999D01*
X3162638Y8224600D01*
X3187362D01*
X3211244Y8230999D01*
X3232656Y8243361D01*
X3250139Y8260844D01*
X3262501Y8282256D01*
X3268900Y8306138D01*
Y8330862D01*
X3262501Y8354744D01*
X3250139Y8376156D01*
X3232656Y8393639D01*
X3211244Y8406001D01*
X3187362Y8412400D01*
D02*
G37*
G36*
X2425362D02*
X2400638D01*
X2376756Y8406001D01*
X2355344Y8393639D01*
X2337861Y8376156D01*
X2325499Y8354744D01*
X2319100Y8330862D01*
Y8306138D01*
X2325499Y8282256D01*
X2337861Y8260844D01*
X2355344Y8243361D01*
X2376756Y8230999D01*
X2400638Y8224600D01*
X2425362D01*
X2449244Y8230999D01*
X2470656Y8243361D01*
X2488139Y8260844D01*
X2500501Y8282256D01*
X2506900Y8306138D01*
Y8330862D01*
X2500501Y8354744D01*
X2488139Y8376156D01*
X2470656Y8393639D01*
X2449244Y8406001D01*
X2425362Y8412400D01*
D02*
G37*
G36*
X2171362D02*
X2146638D01*
X2122756Y8406001D01*
X2101344Y8393639D01*
X2083861Y8376156D01*
X2071499Y8354744D01*
X2065100Y8330862D01*
Y8306138D01*
X2071499Y8282256D01*
X2083861Y8260844D01*
X2101344Y8243361D01*
X2122756Y8230999D01*
X2146638Y8224600D01*
X2171362D01*
X2195244Y8230999D01*
X2216656Y8243361D01*
X2234139Y8260844D01*
X2246501Y8282256D01*
X2252900Y8306138D01*
Y8330862D01*
X2246501Y8354744D01*
X2234139Y8376156D01*
X2216656Y8393639D01*
X2195244Y8406001D01*
X2171362Y8412400D01*
D02*
G37*
G36*
X1917362D02*
X1892638D01*
X1868756Y8406001D01*
X1847344Y8393639D01*
X1829861Y8376156D01*
X1817499Y8354744D01*
X1811100Y8330862D01*
Y8306138D01*
X1817499Y8282256D01*
X1829861Y8260844D01*
X1847344Y8243361D01*
X1868756Y8230999D01*
X1892638Y8224600D01*
X1917362D01*
X1941244Y8230999D01*
X1962656Y8243361D01*
X1980139Y8260844D01*
X1992501Y8282256D01*
X1998900Y8306138D01*
Y8330862D01*
X1992501Y8354744D01*
X1980139Y8376156D01*
X1962656Y8393639D01*
X1941244Y8406001D01*
X1917362Y8412400D01*
D02*
G37*
G36*
X1663362D02*
X1638638D01*
X1614756Y8406001D01*
X1593344Y8393639D01*
X1575861Y8376156D01*
X1563499Y8354744D01*
X1557100Y8330862D01*
Y8306138D01*
X1563499Y8282256D01*
X1575861Y8260844D01*
X1593344Y8243361D01*
X1614756Y8230999D01*
X1638638Y8224600D01*
X1663362D01*
X1687244Y8230999D01*
X1708656Y8243361D01*
X1726139Y8260844D01*
X1738501Y8282256D01*
X1744900Y8306138D01*
Y8330862D01*
X1738501Y8354744D01*
X1726139Y8376156D01*
X1708656Y8393639D01*
X1687244Y8406001D01*
X1663362Y8412400D01*
D02*
G37*
G36*
X1490900D02*
X1303100D01*
Y8224600D01*
X1490900D01*
Y8412400D01*
D02*
G37*
G36*
X5044800Y7903500D02*
X4894000D01*
Y7757700D01*
X5044800D01*
Y7764250D01*
X5054000Y7772700D01*
X5164800D01*
Y7888500D01*
X5054000D01*
X5044800Y7896950D01*
Y7903500D01*
D02*
G37*
G36*
X5325400Y7630400D02*
X5124600D01*
Y7429600D01*
X5325400D01*
Y7630400D01*
D02*
G37*
G36*
X1060648Y7505901D02*
X969848D01*
Y7419211D01*
X969070Y7415301D01*
Y7389939D01*
X711518D01*
X706257Y7402639D01*
X711605Y7407986D01*
X720800Y7430186D01*
Y7454214D01*
X711605Y7476414D01*
X694614Y7493405D01*
X672414Y7502600D01*
X648386D01*
X626186Y7493405D01*
X610700Y7477918D01*
X595200Y7493418D01*
X573000Y7502614D01*
X548972D01*
X526772Y7493418D01*
X509782Y7476428D01*
X500586Y7454228D01*
Y7430200D01*
X509782Y7408000D01*
X526772Y7391009D01*
X545748Y7383149D01*
Y7347236D01*
X548829Y7331746D01*
X557604Y7318614D01*
X604300Y7271918D01*
X617432Y7263144D01*
X632922Y7260062D01*
X969070D01*
Y7234700D01*
X969848Y7230790D01*
Y7144101D01*
X1190648D01*
Y7313901D01*
X1036679D01*
X1025579Y7325001D01*
X1036679Y7336101D01*
X1060648D01*
Y7505901D01*
D02*
G37*
G36*
X7122900Y7087900D02*
X6922100D01*
Y6887100D01*
X7122900D01*
Y7087900D01*
D02*
G37*
G36*
X7113271Y5725800D02*
X7086730D01*
X7061093Y5718930D01*
X7038108Y5705660D01*
X7019340Y5686892D01*
X7006070Y5663907D01*
X6999200Y5638270D01*
Y5611729D01*
X7006070Y5586092D01*
X7019340Y5563107D01*
X7038108Y5544340D01*
X7061093Y5531069D01*
X7086730Y5524200D01*
X7113271D01*
X7138907Y5531069D01*
X7161892Y5544340D01*
X7180660Y5563107D01*
X7193930Y5586092D01*
X7194684Y5588906D01*
X7219600D01*
Y5567100D01*
X7330400D01*
Y5682900D01*
X7219600D01*
Y5661093D01*
X7194684D01*
X7193930Y5663907D01*
X7180660Y5686892D01*
X7161892Y5705660D01*
X7138907Y5718930D01*
X7113271Y5725800D01*
D02*
G37*
G36*
X3613271D02*
X3586730D01*
X3561093Y5718930D01*
X3538108Y5705660D01*
X3519340Y5686892D01*
X3506070Y5663907D01*
X3499200Y5638270D01*
Y5611729D01*
X3506070Y5586092D01*
X3519340Y5563107D01*
X3538108Y5544340D01*
X3561093Y5531069D01*
X3586730Y5524200D01*
X3613271D01*
X3638907Y5531069D01*
X3661893Y5544340D01*
X3680660Y5563107D01*
X3693931Y5586092D01*
X3694685Y5588906D01*
X3719600D01*
Y5567100D01*
X3830400D01*
Y5682900D01*
X3719600D01*
Y5661093D01*
X3694685D01*
X3693931Y5663907D01*
X3680660Y5686892D01*
X3661893Y5705660D01*
X3638907Y5718930D01*
X3613271Y5725800D01*
D02*
G37*
G36*
X3700800Y5975800D02*
X3499200D01*
Y5832453D01*
X3432939Y5766191D01*
X1500000D01*
X1484237Y5763056D01*
X1470873Y5754127D01*
X692546Y4975800D01*
X549200D01*
Y4774200D01*
X750800D01*
Y4917547D01*
X1517062Y5683809D01*
X3450000D01*
X3465764Y5686944D01*
X3479127Y5695873D01*
X3557454Y5774200D01*
X3700800D01*
Y5833808D01*
X4160438D01*
X4424600Y5569646D01*
Y5561480D01*
X4433034Y5541118D01*
X4448618Y5525534D01*
X4468980Y5517100D01*
X4491020D01*
X4511381Y5525534D01*
X4526966Y5541118D01*
X4535400Y5561480D01*
Y5583520D01*
X4526966Y5603881D01*
X4511381Y5619466D01*
X4491020Y5627900D01*
X4482853D01*
X4206627Y5904126D01*
X4193263Y5913055D01*
X4177500Y5916191D01*
X3700800D01*
Y5975800D01*
D02*
G37*
G36*
X663270Y5225800D02*
X636729D01*
X611093Y5218931D01*
X588108Y5205660D01*
X569340Y5186893D01*
X556069Y5163907D01*
X555316Y5161094D01*
X530400D01*
Y5182900D01*
X419600D01*
Y5067100D01*
X530400D01*
Y5088907D01*
X555316D01*
X556069Y5086093D01*
X569340Y5063108D01*
X588108Y5044340D01*
X611093Y5031070D01*
X636729Y5024200D01*
X663270D01*
X688907Y5031070D01*
X711892Y5044340D01*
X730660Y5063108D01*
X743930Y5086093D01*
X750800Y5111730D01*
Y5138271D01*
X743930Y5163907D01*
X730660Y5186893D01*
X711892Y5205660D01*
X688907Y5218931D01*
X663270Y5225800D01*
D02*
G37*
G36*
X3613271Y4475800D02*
X3586730D01*
X3561093Y4468930D01*
X3538108Y4455660D01*
X3519340Y4436892D01*
X3506070Y4413907D01*
X3499200Y4388270D01*
Y4361729D01*
X3506070Y4336092D01*
X3519340Y4313107D01*
X3538108Y4294340D01*
X3561093Y4281069D01*
X3586730Y4274200D01*
X3613271D01*
X3638907Y4281069D01*
X3661893Y4294340D01*
X3680660Y4313107D01*
X3693931Y4336092D01*
X3694685Y4338906D01*
X3719600D01*
Y4317100D01*
X3830400D01*
Y4432900D01*
X3719600D01*
Y4411093D01*
X3694685D01*
X3693931Y4413907D01*
X3680660Y4436892D01*
X3661893Y4455660D01*
X3638907Y4468930D01*
X3613271Y4475800D01*
D02*
G37*
G36*
X663270Y3975800D02*
X636729D01*
X611093Y3968931D01*
X588108Y3955660D01*
X569340Y3936893D01*
X556069Y3913908D01*
X555316Y3911094D01*
X530400D01*
Y3932900D01*
X419600D01*
Y3817100D01*
X530400D01*
Y3838907D01*
X555316D01*
X556069Y3836093D01*
X569340Y3813108D01*
X588108Y3794340D01*
X611093Y3781070D01*
X636729Y3774200D01*
X663270D01*
X688907Y3781070D01*
X711892Y3794340D01*
X730660Y3813108D01*
X743930Y3836093D01*
X750800Y3861730D01*
Y3888271D01*
X743930Y3913908D01*
X730660Y3936893D01*
X711892Y3955660D01*
X688907Y3968931D01*
X663270Y3975800D01*
D02*
G37*
G36*
X7113271Y3225800D02*
X7086730D01*
X7061093Y3218930D01*
X7038108Y3205660D01*
X7019340Y3186892D01*
X7006070Y3163907D01*
X6999200Y3138270D01*
Y3111729D01*
X7006070Y3086093D01*
X7019340Y3063107D01*
X7038108Y3044340D01*
X7061093Y3031069D01*
X7086730Y3024200D01*
X7113271D01*
X7138907Y3031069D01*
X7161892Y3044340D01*
X7180660Y3063107D01*
X7193930Y3086093D01*
X7194684Y3088906D01*
X7219600D01*
Y3067100D01*
X7330400D01*
Y3182900D01*
X7219600D01*
Y3161093D01*
X7194684D01*
X7193930Y3163907D01*
X7180660Y3186892D01*
X7161892Y3205660D01*
X7138907Y3218930D01*
X7113271Y3225800D01*
D02*
G37*
G36*
X3613271D02*
X3586730D01*
X3561093Y3218930D01*
X3538108Y3205660D01*
X3519340Y3186892D01*
X3506070Y3163907D01*
X3499200Y3138270D01*
Y3111729D01*
X3506070Y3086093D01*
X3519340Y3063107D01*
X3538108Y3044340D01*
X3561093Y3031069D01*
X3586730Y3024200D01*
X3613271D01*
X3638907Y3031069D01*
X3661893Y3044340D01*
X3680660Y3063107D01*
X3693931Y3086093D01*
X3694685Y3088906D01*
X3719600D01*
Y3067100D01*
X3830400D01*
Y3182900D01*
X3719600D01*
Y3161093D01*
X3694685D01*
X3693931Y3163907D01*
X3680660Y3186892D01*
X3661893Y3205660D01*
X3638907Y3218930D01*
X3613271Y3225800D01*
D02*
G37*
G36*
X4163270Y2725800D02*
X4136729D01*
X4111093Y2718931D01*
X4088107Y2705660D01*
X4069340Y2686893D01*
X4056069Y2663908D01*
X4055315Y2661094D01*
X4030400D01*
Y2682900D01*
X3919600D01*
Y2567100D01*
X4030400D01*
Y2588907D01*
X4055315D01*
X4056069Y2586093D01*
X4069340Y2563108D01*
X4088107Y2544340D01*
X4111093Y2531070D01*
X4136729Y2524200D01*
X4163270D01*
X4188907Y2531070D01*
X4211892Y2544340D01*
X4230660Y2563108D01*
X4243930Y2586093D01*
X4250800Y2611730D01*
Y2638271D01*
X4243930Y2663908D01*
X4230660Y2686893D01*
X4211892Y2705660D01*
X4188907Y2718931D01*
X4163270Y2725800D01*
D02*
G37*
G36*
X663270D02*
X636729D01*
X611093Y2718931D01*
X588108Y2705660D01*
X569340Y2686893D01*
X556069Y2663908D01*
X555316Y2661094D01*
X530400D01*
Y2682900D01*
X419600D01*
Y2567100D01*
X530400D01*
Y2588907D01*
X555316D01*
X556069Y2586093D01*
X569340Y2563108D01*
X588108Y2544340D01*
X611093Y2531070D01*
X636729Y2524200D01*
X663270D01*
X688907Y2531070D01*
X711892Y2544340D01*
X730660Y2563108D01*
X743930Y2586093D01*
X750800Y2611730D01*
Y2638271D01*
X743930Y2663908D01*
X730660Y2686893D01*
X711892Y2705660D01*
X688907Y2718931D01*
X663270Y2725800D01*
D02*
G37*
G36*
X8582014Y3100400D02*
X8557986D01*
X8535786Y3091205D01*
X8518795Y3074214D01*
X8509600Y3052014D01*
Y3027986D01*
X8518613Y3006227D01*
Y2820400D01*
X8414600D01*
Y2634600D01*
X8735400D01*
Y2820400D01*
X8621387D01*
Y3006227D01*
X8630400Y3027986D01*
Y3052014D01*
X8621204Y3074214D01*
X8604214Y3091205D01*
X8582014Y3100400D01*
D02*
G37*
G36*
X7113271Y1975800D02*
X7086730D01*
X7061093Y1968930D01*
X7038108Y1955660D01*
X7019340Y1936892D01*
X7006070Y1913907D01*
X6999200Y1888270D01*
Y1861729D01*
X7006070Y1836093D01*
X7019340Y1813107D01*
X7038108Y1794340D01*
X7061093Y1781069D01*
X7086730Y1774200D01*
X7113271D01*
X7138907Y1781069D01*
X7161892Y1794340D01*
X7180660Y1813107D01*
X7193930Y1836093D01*
X7194684Y1838906D01*
X7219600D01*
Y1817100D01*
X7330400D01*
Y1932900D01*
X7219600D01*
Y1911093D01*
X7194684D01*
X7193930Y1913907D01*
X7180660Y1936892D01*
X7161892Y1955660D01*
X7138907Y1968930D01*
X7113271Y1975800D01*
D02*
G37*
G36*
X3613271D02*
X3586730D01*
X3561093Y1968930D01*
X3538108Y1955660D01*
X3519340Y1936892D01*
X3506070Y1913907D01*
X3499200Y1888270D01*
Y1861729D01*
X3506070Y1836093D01*
X3519340Y1813107D01*
X3538108Y1794340D01*
X3561093Y1781069D01*
X3586730Y1774200D01*
X3613271D01*
X3638907Y1781069D01*
X3661893Y1794340D01*
X3680660Y1813107D01*
X3693931Y1836093D01*
X3694685Y1838906D01*
X3719600D01*
Y1817100D01*
X3830400D01*
Y1932900D01*
X3719600D01*
Y1911093D01*
X3694685D01*
X3693931Y1913907D01*
X3680660Y1936892D01*
X3661893Y1955660D01*
X3638907Y1968930D01*
X3613271Y1975800D01*
D02*
G37*
G36*
X8735400Y2365400D02*
X8414600D01*
Y2179600D01*
X8523613D01*
Y1882716D01*
X8519493Y1880338D01*
X8502662Y1863507D01*
X8490761Y1842893D01*
X8484600Y1819901D01*
Y1796099D01*
X8490761Y1773107D01*
X8502662Y1752493D01*
X8519493Y1735662D01*
X8540107Y1723761D01*
X8563099Y1717600D01*
X8586902D01*
X8609893Y1723761D01*
X8630507Y1735662D01*
X8647338Y1752493D01*
X8659239Y1773107D01*
X8665400Y1796099D01*
Y1819901D01*
X8659239Y1842893D01*
X8647338Y1863507D01*
X8630507Y1880338D01*
X8626387Y1882716D01*
Y2179600D01*
X8735400D01*
Y2365400D01*
D02*
G37*
G36*
X4163270Y1475800D02*
X4136729D01*
X4111093Y1468931D01*
X4088107Y1455660D01*
X4069340Y1436893D01*
X4056069Y1413908D01*
X4055315Y1411094D01*
X4030400D01*
Y1432900D01*
X3919600D01*
Y1317100D01*
X4030400D01*
Y1338907D01*
X4055315D01*
X4056069Y1336093D01*
X4069340Y1313108D01*
X4088107Y1294340D01*
X4111093Y1281070D01*
X4136729Y1274200D01*
X4163270D01*
X4188907Y1281070D01*
X4211892Y1294340D01*
X4230660Y1313108D01*
X4243930Y1336093D01*
X4250800Y1361730D01*
Y1388271D01*
X4243930Y1413908D01*
X4230660Y1436893D01*
X4211892Y1455660D01*
X4188907Y1468931D01*
X4163270Y1475800D01*
D02*
G37*
G36*
X663270D02*
X636729D01*
X611093Y1468931D01*
X588108Y1455660D01*
X569340Y1436893D01*
X556069Y1413908D01*
X555316Y1411094D01*
X530400D01*
Y1432900D01*
X419600D01*
Y1317100D01*
X530400D01*
Y1338907D01*
X555316D01*
X556069Y1336093D01*
X569340Y1313108D01*
X588108Y1294340D01*
X611093Y1281070D01*
X636729Y1274200D01*
X663270D01*
X688907Y1281070D01*
X711892Y1294340D01*
X730660Y1313108D01*
X743930Y1336093D01*
X750800Y1361730D01*
Y1388271D01*
X743930Y1413908D01*
X730660Y1436893D01*
X711892Y1455660D01*
X688907Y1468931D01*
X663270Y1475800D01*
D02*
G37*
G36*
X8586902Y1390400D02*
X8563099D01*
X8540107Y1384239D01*
X8519493Y1372338D01*
X8502662Y1355507D01*
X8490761Y1334893D01*
X8484600Y1311901D01*
Y1288099D01*
X8490761Y1265107D01*
X8502662Y1244493D01*
X8519493Y1227662D01*
X8523613Y1225284D01*
Y1071285D01*
X8476214Y1023887D01*
X7197500D01*
X7177835Y1019975D01*
X7161164Y1008836D01*
X7128127Y975800D01*
X6999200D01*
Y774200D01*
X7200800D01*
Y903127D01*
X7218785Y921112D01*
X8497500D01*
X8517165Y925024D01*
X8533836Y936163D01*
X8611336Y1013664D01*
X8622476Y1030335D01*
X8626387Y1050000D01*
Y1225284D01*
X8630507Y1227662D01*
X8647338Y1244493D01*
X8659239Y1265107D01*
X8665400Y1288099D01*
Y1311901D01*
X8659239Y1334893D01*
X8647338Y1355507D01*
X8630507Y1372338D01*
X8609893Y1384239D01*
X8586902Y1390400D01*
D02*
G37*
G36*
X8535987Y850900D02*
X8482013D01*
X8428704Y842457D01*
X8377372Y825778D01*
X8329281Y801274D01*
X8285616Y769549D01*
X8247451Y731384D01*
X8215726Y687719D01*
X8191222Y639628D01*
X8174543Y588296D01*
X8166100Y534987D01*
Y481013D01*
X8174543Y427704D01*
X8191222Y376372D01*
X8215726Y328281D01*
X8247451Y284616D01*
X8285616Y246451D01*
X8329281Y214726D01*
X8377372Y190222D01*
X8428704Y173543D01*
X8482013Y165100D01*
X8535987D01*
X8589296Y173543D01*
X8640628Y190222D01*
X8688719Y214726D01*
X8732384Y246451D01*
X8770549Y284616D01*
X8802274Y328281D01*
X8826778Y376372D01*
X8843457Y427704D01*
X8851900Y481013D01*
Y534987D01*
X8843457Y588296D01*
X8826778Y639628D01*
X8802274Y687719D01*
X8770549Y731384D01*
X8732384Y769549D01*
X8688719Y801274D01*
X8640628Y825778D01*
X8589296Y842457D01*
X8535987Y850900D01*
D02*
G37*
G36*
X534987D02*
X481013D01*
X427704Y842457D01*
X376372Y825778D01*
X328281Y801274D01*
X284616Y769549D01*
X246451Y731384D01*
X214726Y687719D01*
X190222Y639628D01*
X173543Y588296D01*
X165100Y534987D01*
Y481013D01*
X173543Y427704D01*
X190222Y376372D01*
X214726Y328281D01*
X246451Y284616D01*
X284616Y246451D01*
X328281Y214726D01*
X376372Y190222D01*
X427704Y173543D01*
X481013Y165100D01*
X534987D01*
X588296Y173543D01*
X639628Y190222D01*
X687719Y214726D01*
X731384Y246451D01*
X769549Y284616D01*
X801274Y328281D01*
X825778Y376372D01*
X842457Y427704D01*
X850900Y481013D01*
Y534987D01*
X842457Y588296D01*
X825778Y639628D01*
X801274Y687719D01*
X769549Y731384D01*
X731384Y769549D01*
X687719Y801274D01*
X639628Y825778D01*
X588296Y842457D01*
X534987Y850900D01*
D02*
G37*
%LPD*%
G36*
X423907Y8360000D02*
X426654Y8346188D01*
X434478Y8334478D01*
X501978Y8266978D01*
X513688Y8259154D01*
X527500Y8256407D01*
X553864D01*
X560652Y8243707D01*
X556303Y8237198D01*
X555271Y8232007D01*
X540781Y8224262D01*
X531850Y8227961D01*
X507822D01*
X485622Y8218766D01*
X468632Y8201775D01*
X459436Y8179576D01*
Y8155547D01*
X468632Y8133348D01*
X479091Y8122888D01*
X480105Y8105942D01*
X475714Y8101550D01*
X466518Y8079351D01*
Y8055322D01*
X472329Y8041294D01*
X463843Y8028594D01*
X439950D01*
X396093Y8072450D01*
Y8679600D01*
X423907D01*
Y8360000D01*
D02*
G37*
G36*
X4680000Y7007500D02*
X4932500D01*
Y6947500D01*
X4680000D01*
Y6921900D01*
X4664600D01*
Y6803100D01*
X4677500D01*
Y6788900D01*
X4581600D01*
Y6713100D01*
X4677500D01*
Y6640000D01*
X4435000D01*
Y6972500D01*
X4617500D01*
Y7007500D01*
X4620000D01*
Y7009600D01*
X4680000D01*
Y7007500D01*
D02*
G37*
G36*
X5254599Y6763100D02*
Y6713100D01*
Y6663100D01*
Y6613101D01*
Y6565438D01*
X5254089Y6562875D01*
Y6539126D01*
X5254599Y6536563D01*
Y6463101D01*
Y6413101D01*
Y6363101D01*
Y6313101D01*
Y6263101D01*
Y6248901D01*
X4700400D01*
Y6263101D01*
Y6313101D01*
Y6363101D01*
Y6413101D01*
Y6463101D01*
Y6513101D01*
Y6563101D01*
Y6613101D01*
Y6628553D01*
X4701426Y6630089D01*
X4703398Y6640000D01*
Y6713100D01*
X4701426Y6723011D01*
X4700400Y6724547D01*
Y6763100D01*
Y6777453D01*
X4701426Y6778989D01*
X4703398Y6788900D01*
Y6803100D01*
X5254599D01*
Y6763100D01*
D02*
G37*
G36*
X5363907Y6080049D02*
Y5823670D01*
X5351207Y5821144D01*
X5346966Y5831382D01*
X5331382Y5846966D01*
X5311020Y5855400D01*
X5288980D01*
X5268619Y5846966D01*
X5253034Y5831382D01*
X5244600Y5811020D01*
Y5795644D01*
X5185778Y5736822D01*
X5177657Y5737745D01*
X5175829Y5750734D01*
X5181382Y5753034D01*
X5196966Y5768619D01*
X5205400Y5788980D01*
Y5811020D01*
X5196966Y5831382D01*
X5181382Y5846966D01*
X5161020Y5855400D01*
X5138980D01*
X5118619Y5846966D01*
X5107746Y5836093D01*
X4978594D01*
Y6009600D01*
X5016047D01*
X5019800Y6008853D01*
X5029954D01*
X5039600Y5999207D01*
Y5987986D01*
X5048795Y5965786D01*
X5065786Y5948795D01*
X5087986Y5939600D01*
X5112014D01*
X5121800Y5943653D01*
X5144600D01*
Y5924600D01*
X5255400D01*
Y6003204D01*
X5267055Y6012122D01*
X5273735Y6009355D01*
X5295775D01*
X5316137Y6017789D01*
X5331721Y6033374D01*
X5340155Y6053735D01*
Y6075775D01*
X5333038Y6092957D01*
X5343805Y6100151D01*
X5363907Y6080049D01*
D02*
G37*
G36*
X5481271Y6652207D02*
X5468618Y6646966D01*
X5453034Y6631381D01*
X5444600Y6611020D01*
Y6588980D01*
X5453034Y6568619D01*
X5463907Y6557746D01*
Y5166686D01*
X5451207Y5159703D01*
X5450517Y5160141D01*
X5446192Y5165257D01*
Y5271880D01*
X5443056Y5287644D01*
X5434127Y5301007D01*
X5378507Y5356627D01*
X5365144Y5365556D01*
X5349381Y5368691D01*
X5057156D01*
X5051382Y5374466D01*
X5041144Y5378707D01*
X5043670Y5391407D01*
X5332500D01*
X5346312Y5394154D01*
X5358022Y5401978D01*
X5425522Y5469478D01*
X5433346Y5481187D01*
X5436094Y5495000D01*
Y6095000D01*
X5433346Y6108812D01*
X5425522Y6120522D01*
X5355021Y6191023D01*
X5343311Y6198847D01*
X5335497Y6200401D01*
X5336748Y6213101D01*
X5373399D01*
Y6313101D01*
Y6413101D01*
Y6536563D01*
X5373908Y6539126D01*
Y6562875D01*
X5373399Y6565438D01*
Y6664907D01*
X5478745D01*
X5481271Y6652207D01*
D02*
G37*
G36*
X5463907Y5078314D02*
Y4957451D01*
X5337549Y4831093D01*
X4320000D01*
X4306188Y4828346D01*
X4294478Y4820522D01*
X4262533Y4788577D01*
X4250800Y4793437D01*
Y4917546D01*
X4304562Y4971309D01*
X5360000D01*
X5375763Y4974444D01*
X5389127Y4983373D01*
X5434127Y5028373D01*
X5443056Y5041737D01*
X5446192Y5057500D01*
Y5079743D01*
X5450517Y5084859D01*
X5451207Y5085297D01*
X5463907Y5078314D01*
D02*
G37*
D10*
X1145248Y7229001D02*
D03*
X1080248D02*
D03*
X1015248D02*
D03*
Y7421001D02*
D03*
X1080248D02*
D03*
X1145248D02*
D03*
D11*
X4350500Y7645000D02*
D03*
Y7455000D02*
D03*
X4099500D02*
D03*
Y7550000D02*
D03*
Y7645000D02*
D03*
D12*
X2536170Y7325000D02*
D03*
X2863830D02*
D03*
D13*
X3388400Y6901100D02*
D03*
Y6836100D02*
D03*
Y6771100D02*
D03*
X3580400D02*
D03*
Y6836100D02*
D03*
Y6901100D02*
D03*
D14*
X4969400Y7650600D02*
D03*
Y7830600D02*
D03*
X1005000Y8150000D02*
D03*
Y8330000D02*
D03*
D15*
X2707640Y9357360D02*
D03*
X2887640D02*
D03*
D16*
X1553340Y6847059D02*
D03*
D17*
X1403340Y7087059D02*
D03*
X1453340D02*
D03*
X1503340D02*
D03*
X1553340D02*
D03*
X1603340D02*
D03*
X1653340D02*
D03*
X1703340D02*
D03*
Y6607060D02*
D03*
X1653340D02*
D03*
X1603340D02*
D03*
X1553340D02*
D03*
X1503340D02*
D03*
X1453340D02*
D03*
X1403340D02*
D03*
D18*
X1793340Y6997059D02*
D03*
Y6947060D02*
D03*
Y6897060D02*
D03*
Y6847060D02*
D03*
Y6797060D02*
D03*
Y6747060D02*
D03*
Y6697060D02*
D03*
X1313340D02*
D03*
Y6747060D02*
D03*
Y6797060D02*
D03*
Y6847060D02*
D03*
Y6897060D02*
D03*
Y6947060D02*
D03*
Y6997059D02*
D03*
D19*
X4977499Y6526001D02*
D03*
D20*
X5252499Y6189501D02*
D03*
X5052499D02*
D03*
X4902499D02*
D03*
X5102499D02*
D03*
X5152499D02*
D03*
X5202499D02*
D03*
X4702500D02*
D03*
X4752500D02*
D03*
X4802500D02*
D03*
X4852500D02*
D03*
X5002499D02*
D03*
X4952499D02*
D03*
Y6862500D02*
D03*
X4852500D02*
D03*
X4802500D02*
D03*
X4752500D02*
D03*
X5052499D02*
D03*
X4902499D02*
D03*
X5102499D02*
D03*
X5152499D02*
D03*
X5202499D02*
D03*
X4702500D02*
D03*
X5002499D02*
D03*
X5252499D02*
D03*
D21*
X5313999Y6251001D02*
D03*
Y6801000D02*
D03*
Y6751000D02*
D03*
Y6401001D02*
D03*
Y6451001D02*
D03*
Y6501001D02*
D03*
Y6601001D02*
D03*
Y6651000D02*
D03*
Y6701000D02*
D03*
Y6351001D02*
D03*
Y6301001D02*
D03*
X4641000Y6651000D02*
D03*
Y6601001D02*
D03*
Y6501001D02*
D03*
Y6551001D02*
D03*
Y6701000D02*
D03*
Y6751000D02*
D03*
Y6251001D02*
D03*
Y6301001D02*
D03*
Y6351001D02*
D03*
Y6401001D02*
D03*
Y6451001D02*
D03*
Y6801000D02*
D03*
D22*
X5313999Y6551001D02*
D03*
D23*
X685000Y8487500D02*
D03*
Y8407500D02*
D03*
Y7927500D02*
D03*
Y7847500D02*
D03*
D24*
Y8192500D02*
D03*
Y8242500D02*
D03*
Y8292500D02*
D03*
Y8342500D02*
D03*
Y8142500D02*
D03*
Y8092500D02*
D03*
Y8042500D02*
D03*
Y7992500D02*
D03*
D25*
X5200000Y6067500D02*
D03*
Y5982500D02*
D03*
X5109400Y7745600D02*
D03*
Y7830600D02*
D03*
X3612500Y7202500D02*
D03*
Y7117500D02*
D03*
X3820000Y6135000D02*
D03*
Y6220000D02*
D03*
X3232500Y6845000D02*
D03*
Y6760000D02*
D03*
X360000Y8822500D02*
D03*
Y8737500D02*
D03*
X460000Y8822500D02*
D03*
Y8737500D02*
D03*
X4650000Y6982500D02*
D03*
Y7067500D02*
D03*
X5002500Y6067500D02*
D03*
Y5982500D02*
D03*
X4900000Y7067500D02*
D03*
Y6982500D02*
D03*
X4802500Y7067500D02*
D03*
Y6982500D02*
D03*
X7560000Y2222500D02*
D03*
Y2137500D02*
D03*
X2460000Y7567500D02*
D03*
Y7652500D02*
D03*
X3775000Y1790000D02*
D03*
Y1875000D02*
D03*
Y3040000D02*
D03*
Y3125000D02*
D03*
Y4290000D02*
D03*
Y4375000D02*
D03*
Y5540000D02*
D03*
Y5625000D02*
D03*
X475000Y1290000D02*
D03*
Y1375000D02*
D03*
Y2540000D02*
D03*
Y2625000D02*
D03*
Y3790000D02*
D03*
Y3875000D02*
D03*
Y5040000D02*
D03*
Y5125000D02*
D03*
X7275000Y1790000D02*
D03*
Y1875000D02*
D03*
Y3040000D02*
D03*
Y3125000D02*
D03*
Y4290000D02*
D03*
Y4375000D02*
D03*
Y5540000D02*
D03*
Y5625000D02*
D03*
X3975000Y1290000D02*
D03*
Y1375000D02*
D03*
Y2540000D02*
D03*
Y2625000D02*
D03*
Y3790000D02*
D03*
Y3875000D02*
D03*
Y5040000D02*
D03*
Y5125000D02*
D03*
D26*
X3480000Y7012500D02*
D03*
X3395000D02*
D03*
X1288340Y6489560D02*
D03*
X1373340D02*
D03*
X1568340D02*
D03*
X1483340D02*
D03*
X1373340Y6382060D02*
D03*
X1288340D02*
D03*
X1195840Y6697060D02*
D03*
X1110840D02*
D03*
X3134360Y9357360D02*
D03*
X3049360D02*
D03*
X5272500Y6965000D02*
D03*
X5357500D02*
D03*
X4350000Y6300000D02*
D03*
X4435000D02*
D03*
X4350000Y6400000D02*
D03*
X4435000D02*
D03*
X1002500Y8457500D02*
D03*
X917500D02*
D03*
D27*
X4575000Y7645000D02*
D03*
Y7822800D02*
D03*
X4512500Y6906100D02*
D03*
Y7083900D02*
D03*
X3850000Y7461100D02*
D03*
Y7638900D02*
D03*
D28*
X8575000Y2727500D02*
D03*
Y2272500D02*
D03*
D29*
X2700000Y7785000D02*
D03*
X2795000Y7565000D02*
D03*
X2605000D02*
D03*
D30*
X5200000Y6067500D02*
X5202745Y6064755D01*
X5284755D01*
X5240148Y5650000D02*
X5290148Y5700000D01*
X5200000D02*
X5300000Y5800000D01*
X5290148Y5700000D02*
X5300000D01*
X4969705D02*
X5200000D01*
X3085460Y6923400D02*
X3174560Y7012500D01*
X3395000D01*
Y6907700D02*
Y7012500D01*
X3388400Y6901100D02*
X3395000Y6907700D01*
X3480000Y6858298D02*
Y7012500D01*
Y6858298D02*
X3502198Y6836100D01*
X5500000Y4942500D02*
Y6600000D01*
X5352500Y4795000D02*
X5500000Y4942500D01*
X4050820Y5427500D02*
X5332500D01*
X4997483Y5502518D02*
X5297482D01*
X4752500Y5747500D02*
X4997483Y5502518D01*
X5332500Y5427500D02*
X5400000Y5495000D01*
X5313999Y6701000D02*
X7506500D01*
X4320000Y4795000D02*
X5352500D01*
X3975000Y4450000D02*
X4320000Y4795000D01*
X3975000Y3875000D02*
Y4450000D01*
X7506500Y6701000D02*
X7560000Y6647500D01*
Y2222500D02*
Y6647500D01*
X4956568Y5600000D02*
X5300000D01*
X5400000Y5495000D02*
Y6095000D01*
X3975000Y5351680D02*
X4050820Y5427500D01*
X7872500Y2222500D02*
X7875000Y2225000D01*
X7560000Y2222500D02*
X7872500D01*
X3820000Y6220000D02*
Y6382500D01*
X3812500Y6390000D02*
X3820000Y6382500D01*
X3930000Y6400000D02*
Y6657500D01*
Y6290000D02*
Y6400000D01*
X3812500Y6390000D02*
X3920000D01*
X3930000Y6400000D01*
X3997500Y6222500D02*
X4410000D01*
X3930000Y6290000D02*
X3997500Y6222500D01*
X4435000Y6401001D02*
X4641000D01*
X4410000Y6222500D02*
X4435000Y6247500D01*
Y6300000D01*
Y6400000D02*
Y6401001D01*
Y6300000D02*
Y6400000D01*
X3816400Y6771100D02*
X3930000Y6657500D01*
X3580400Y6771100D02*
X3816400D01*
X4260000Y6300000D02*
X4350000D01*
X4050000Y6550000D02*
X4272940D01*
X4362940Y6460000D01*
X4479926D01*
X4050000Y6750000D02*
X4194860D01*
X4155074Y6850000D02*
X4404074Y6601001D01*
X4050000Y6850000D02*
X4155074D01*
X4404074Y6601001D02*
X4641000D01*
X4050000Y6650000D02*
X4233900D01*
X4194860Y6750000D02*
X4393859Y6551001D01*
X4641000D01*
X4233900Y6650000D02*
X4382899Y6501001D01*
X4641000D01*
X5254999Y6165501D02*
X5329499D01*
X5400000Y6095000D01*
X4963137Y5650000D02*
X5240148D01*
X5252499Y6168001D02*
X5254999Y6165501D01*
X5252499Y6168001D02*
Y6189501D01*
X5289882Y7115229D02*
X5322339D01*
X5322911Y7115800D02*
X5373300D01*
X6377500Y8120000D01*
X5322339Y7115229D02*
X5322911Y7115800D01*
X5152499Y6862501D02*
Y7049791D01*
X5257937Y7155229D02*
X5305228D01*
X5350000Y7200000D01*
X5152499Y7049791D02*
X5257937Y7155229D01*
X5202499Y7027845D02*
X5289882Y7115229D01*
X5202499Y6862500D02*
Y7027845D01*
X5102499Y7107488D02*
X5195011Y7200000D01*
X4984600Y7243212D02*
X5041388Y7300000D01*
X4984600Y7065745D02*
Y7243212D01*
X5002499Y6862500D02*
Y7047845D01*
X4984600Y7065745D02*
X5002499Y7047845D01*
X5050000Y7200000D02*
X5051249Y7198751D01*
Y6863750D02*
Y7198751D01*
Y6863750D02*
X5052499Y6862500D01*
X5041388Y7300000D02*
X5500932D01*
X6334500Y8133568D01*
X5102499Y6862500D02*
Y7107488D01*
X4942500Y5811716D02*
Y6112426D01*
Y5811716D02*
X4954216Y5800000D01*
X5150000D01*
X4902499Y5767206D02*
X4969705Y5700000D01*
X4852500Y5760637D02*
X4963137Y5650000D01*
X4902499Y5767206D02*
Y6189501D01*
X4802500Y5754069D02*
Y6189501D01*
Y5754069D02*
X4956568Y5600000D01*
X4752500Y5747500D02*
Y6189501D01*
X4852500Y5760637D02*
Y6189501D01*
X4641000Y6141000D02*
Y6251001D01*
X4400000Y5900000D02*
X4641000Y6141000D01*
X4379152Y6100000D02*
X4510000Y6230848D01*
X4200000Y6100000D02*
X4379152D01*
X4395194Y6000000D02*
X4555023Y6159829D01*
X4300000Y6000000D02*
X4395194D01*
X4550000Y5900000D02*
Y5903778D01*
X4702500Y6056277D01*
X3975000Y3875000D02*
X4150000D01*
X3975000Y5125000D02*
Y5351680D01*
X3975000Y5125000D02*
X4010660D01*
X4019000D02*
X4150000D01*
X2496960Y9357360D02*
X2707640D01*
X2496820Y9357500D02*
X2496960Y9357360D01*
X2887640D02*
X3049360D01*
X6377500Y8120000D02*
Y8219000D01*
X3212500Y6782500D02*
X3232500Y6762500D01*
X3190074Y6782500D02*
X3212500D01*
X3089174Y6883400D02*
X3190074Y6782500D01*
X3232500Y6760000D02*
Y6762500D01*
X2195200Y6923400D02*
X3085460D01*
X2174240Y6883400D02*
X3089174D01*
X1891580Y7166060D02*
X2174240Y6883400D01*
X1793240Y7325360D02*
X2195200Y6923400D01*
X1627414Y7166060D02*
X1891580D01*
X1454919Y7325360D02*
X1793240D01*
X1403340Y7087059D02*
Y7273781D01*
X1454919Y7325360D01*
X1626052Y7236460D02*
X1633220D01*
X1553340Y7163748D02*
X1626052Y7236460D01*
X1608340Y7146986D02*
X1627414Y7166060D01*
X1503340Y7087059D02*
Y7238660D01*
X1503680Y7239000D01*
X1608340Y7092059D02*
Y7146986D01*
X3232500Y6771100D02*
X3388400D01*
X1553340Y7087059D02*
Y7163748D01*
X475000Y1375000D02*
X650000D01*
X475000Y1375000D02*
X475000Y1375000D01*
Y2625000D02*
X650000D01*
X475000Y2625000D02*
X475000Y2625000D01*
Y3875000D02*
X650000D01*
X475000Y3875000D02*
X475000Y3875000D01*
Y5125000D02*
X650000D01*
X475000Y5125000D02*
X475000Y5125000D01*
X3600000Y5625000D02*
X3775000D01*
X3775000Y5625000D01*
X3975000Y5125000D02*
X3975000Y5125000D01*
X3775000Y4375000D02*
X3775000Y4375000D01*
X3600000Y4375000D02*
X3775000D01*
X3975000Y3875000D02*
X3975000Y3875000D01*
X3600000Y3125000D02*
X3775000D01*
X3775000Y3125000D01*
X3975000Y2625000D02*
X3975000Y2625000D01*
X4150000D01*
X3775000Y1875000D02*
X3775000Y1875000D01*
X3600000Y1875000D02*
X3775000D01*
X3975000Y1375000D02*
X3975000Y1375000D01*
X4150000D01*
X7100000Y1875000D02*
X7275000D01*
X7275000Y1875000D01*
X7275000Y3125000D02*
X7275000Y3125000D01*
X7100000Y3125000D02*
X7275000D01*
Y4375000D02*
X7275000Y4375000D01*
X7100000Y4375000D02*
X7275000D01*
Y5625000D02*
X7275000Y5625000D01*
X7100000Y5625000D02*
X7275000D01*
X5202499Y6069999D02*
Y6189501D01*
X5200000Y6067500D02*
X5202499Y6069999D01*
X5053512Y6141588D02*
X5069599Y6125501D01*
X5071470D02*
X5097873Y6099098D01*
X5069599Y6125501D02*
X5071470D01*
X5097873Y6099098D02*
X5108697D01*
X6334500Y8133568D02*
Y8333684D01*
X6377500Y8219000D02*
X6477000Y8318500D01*
X6619500Y8430000D02*
X6731000Y8318500D01*
X6430815Y8430000D02*
X6619500D01*
X6334500Y8333684D02*
X6430815Y8430000D01*
X4479926Y6460000D02*
X4488925Y6451001D01*
X4575000Y7645000D02*
X4575600Y7645600D01*
X5109400Y7830600D02*
X5109400Y7830600D01*
X4964400Y7645600D02*
X4969400Y7650600D01*
X4575600Y7645600D02*
X4964400D01*
X4969400Y7830600D02*
X5109400D01*
X5053512Y6141588D02*
Y6188488D01*
X5052499Y6189501D02*
X5053512Y6188488D01*
X993284Y8060000D02*
X1005000Y8071716D01*
Y8150000D01*
X865000Y8060000D02*
X993284D01*
X1002500Y8457500D02*
X1005000Y8455000D01*
Y8330000D02*
Y8455000D01*
X3700000Y7065000D02*
X3760000D01*
X3629900Y6994900D02*
X3700000Y7065000D01*
X3760000D02*
X3812500Y7117500D01*
X3619900Y6901100D02*
X3629900Y6911100D01*
Y6994900D01*
X3580400Y6901100D02*
X3619900D01*
X3612500Y7117500D02*
X3812500D01*
X3502198Y6836100D02*
X3580400D01*
X3241400Y6836100D02*
X3388400D01*
X3232500Y6845000D02*
X3241400Y6836100D01*
X1603340Y7087059D02*
X1608340Y7092059D01*
X7559500Y1808500D02*
Y2137000D01*
X527500Y8292500D02*
X685000D01*
X460000Y8360000D02*
Y8737500D01*
Y8360000D02*
X527500Y8292500D01*
X425000Y7992500D02*
X685000D01*
X360000Y8057500D02*
X425000Y7992500D01*
X360000Y8057500D02*
Y8737500D01*
X5152499Y6862500D02*
X5152499Y6862501D01*
X4555023Y6159829D02*
Y6284309D01*
X4510000Y6230848D02*
Y6339285D01*
X4942500Y6112426D02*
X4952499Y6122425D01*
X4702500Y6056277D02*
Y6189501D01*
X4510000Y6339285D02*
X4521716Y6351001D01*
X4555023Y6284309D02*
X4571716Y6301001D01*
X4641000D01*
X4521716Y6351001D02*
X4641000D01*
X4952499Y6122425D02*
Y6189501D01*
X4488925Y6451001D02*
X4641000D01*
D31*
X1082500Y7920000D02*
X1375000D01*
Y7577500D02*
Y7920000D01*
X1665000D01*
X4575000Y7507500D02*
Y7645000D01*
X3843900Y7461100D02*
X3850000Y7455000D01*
X4099500D01*
X2361102Y8953500D02*
X2794000D01*
X2921000Y8826500D01*
X2347596Y9357500D02*
X2496820D01*
X2286500Y9028102D02*
X2361102Y8953500D01*
X2286500Y9296404D02*
X2347596Y9357500D01*
X2286500Y9028102D02*
Y9296404D01*
X906790Y7920000D02*
X1082500D01*
X1145248Y7421001D02*
Y7857251D01*
X1082500Y7920000D02*
X1145248Y7857251D01*
X865000Y7961790D02*
X906790Y7920000D01*
X835711Y7932500D02*
X865000Y7961790D01*
Y8060000D01*
X685000Y7927500D02*
X690000Y7932500D01*
X835711D01*
X7100000Y875000D02*
X7197500Y972500D01*
X8497500D01*
X3423600Y7461100D02*
X3843900D01*
X3287500Y7325000D02*
X3423600Y7461100D01*
X2863830Y7325000D02*
X3287500D01*
X1665000Y7920000D02*
X2670000D01*
X865000Y8060000D02*
Y8373211D01*
X2605000Y7565000D02*
X2605000Y7565000D01*
X2605000Y7409070D02*
Y7565000D01*
X2536170Y7340240D02*
X2605000Y7409070D01*
X2536170Y7325000D02*
Y7340240D01*
X2605000Y7645711D02*
X2639289Y7680000D01*
X2605000Y7565000D02*
Y7645711D01*
X2794500Y7709289D02*
Y8700000D01*
X2639289Y7680000D02*
X2765211D01*
X2794500Y7709289D01*
X2460000Y7567500D02*
X2461250Y7566250D01*
X2700000Y7785000D02*
Y7890000D01*
X2670000Y7920000D02*
X2700000Y7890000D01*
X2794500Y8700000D02*
X2921000Y8826500D01*
X8570000Y2732501D02*
X8575000Y2727500D01*
X8570000Y2732501D02*
Y3040000D01*
X7559500Y2137000D02*
X7560000Y2137500D01*
X7559000Y1808000D02*
X7559500Y1808500D01*
X8497500Y972500D02*
X8575000Y1050000D01*
Y1300000D01*
Y1808000D02*
Y2272500D01*
X690000Y8402500D02*
X835711D01*
X865000Y8373211D01*
X685000Y8407500D02*
X690000Y8402500D01*
X2795000Y7409070D02*
Y7565000D01*
Y7409070D02*
X2863830Y7340240D01*
Y7325000D02*
Y7340240D01*
X4104000Y7640500D02*
X4200710D01*
X4230000Y7611210D01*
Y7488789D02*
Y7611210D01*
X4099500Y7645000D02*
X4104000Y7640500D01*
Y7459500D02*
X4200710D01*
X4230000Y7488789D01*
X4099500Y7455000D02*
X4104000Y7459500D01*
X4350500Y7645000D02*
X4575000D01*
D32*
X6942500Y5717500D02*
X7100000Y5875000D01*
X6942500Y5321800D02*
X7100000Y5164300D01*
X6942500Y5321800D02*
Y5717500D01*
X6947500Y4025521D02*
Y4470727D01*
X7034600Y4557827D01*
X6947500Y4025521D02*
X7100000Y3873021D01*
X7034600Y4557827D02*
Y4559599D01*
X7099847Y4624846D01*
X6995891Y3273577D02*
X6998577D01*
X6942500Y3220186D02*
X6995891Y3273577D01*
X6942500Y2780521D02*
Y3220186D01*
X6998577Y3273577D02*
X7100000Y3375000D01*
X6942500Y2780521D02*
X7100000Y2623021D01*
X5020000Y5327500D02*
X5349381D01*
X5405000Y5057500D02*
Y5122500D01*
Y5271880D01*
X5349381Y5327500D02*
X5405000Y5271880D01*
X4287500Y5012500D02*
X5360000D01*
X5405000Y5057500D01*
X4150000Y4875000D02*
X4287500Y5012500D01*
X5600000Y5127500D02*
X5605000Y5122500D01*
X5600000Y5127500D02*
Y6530000D01*
X4177500Y5875000D02*
X4480000Y5572500D01*
X3600000Y5875000D02*
X4177500D01*
X7100000Y2125000D02*
Y2623021D01*
X7099847Y4624846D02*
X7100000Y4625000D01*
Y3375000D02*
Y3873021D01*
Y4625000D02*
Y5164300D01*
Y5875000D02*
Y6532500D01*
X7025000Y6607500D02*
X7100000Y6532500D01*
X5677500Y6607500D02*
X7025000D01*
X5437915Y6753500D02*
X5491915Y6807500D01*
X5316499Y6753500D02*
X5437915D01*
X3600000Y4625000D02*
X3899999D01*
X4150000Y4875000D01*
X5600000Y6530000D02*
X5677500Y6607500D01*
X5491915Y6807500D02*
X5677500D01*
X5313999Y6751000D02*
X5316499Y6753500D01*
X4210400Y3685401D02*
X4210400D01*
X5149846Y4624846D02*
X7099847D01*
X4150000Y3625001D02*
X4210400Y3685401D01*
X4210400D02*
X5149846Y4624846D01*
X3899999Y3375000D02*
X4150000Y3625000D01*
Y2375000D02*
X5149999Y3375000D01*
X7100000D01*
X5149999Y2125000D02*
X7100000D01*
X4150000Y1125000D02*
X5149999Y2125000D01*
X3600000D02*
X3899999D01*
X4150000Y2375000D01*
X3600000Y3375000D02*
X3899999D01*
X650000Y1125000D02*
X1649999Y2125000D01*
X3600000D01*
X650000Y2375000D02*
X1649999Y3375000D01*
X3600000D01*
X650000Y3625000D02*
Y3625001D01*
X710400Y3685401D02*
X710400D01*
X1649869Y4624869D02*
X3599870D01*
X650000Y3625001D02*
X710400Y3685401D01*
X710400D02*
X1649869Y4624869D01*
X3450000Y5725000D02*
X3600000Y5875000D01*
X650000Y4875000D02*
X1500000Y5725000D01*
X3450000D01*
X1198341Y6697060D02*
X1213340Y6712060D01*
X1198340Y6697060D02*
X1198341Y6697060D01*
X1195840Y6592060D02*
Y6697060D01*
X1198341Y6697060D02*
X1313340D01*
X1195840Y6697060D02*
X1198340D01*
X1195840Y6592060D02*
X1195840Y6592060D01*
X1203493Y6526906D02*
X1240840Y6489560D01*
X1288340D01*
X1288340Y6489560D01*
X1203493Y6526906D02*
Y6584406D01*
X1195840Y6592060D02*
X1203493Y6584406D01*
X1230914Y6747060D02*
X1313340D01*
X1213340Y6712060D02*
Y6729486D01*
X1230914Y6747060D01*
X1568340Y6392060D02*
Y6489560D01*
X1568340Y6392060D02*
X1568340Y6392060D01*
X1655000Y7910000D02*
X1665000Y7920000D01*
X2461250Y7566250D02*
X2580000D01*
X1373340Y6489560D02*
X1375840D01*
X1373340Y6382060D02*
Y6489560D01*
X1375840D02*
X1403340Y6517060D01*
X1480840Y6489560D02*
X1483340D01*
X1453340Y6517059D02*
Y6607060D01*
Y6517059D02*
X1480840Y6489560D01*
X1403340Y6517060D02*
Y6607060D01*
D33*
X5343380Y7043780D02*
X5350000Y7050400D01*
X5327535Y7043780D02*
X5343380D01*
X5292300Y7008545D02*
X5327535Y7043780D01*
X5292300Y6982300D02*
Y7008545D01*
X5272500Y6965000D02*
X5275000D01*
X5292300Y6982300D01*
X5019800Y6047700D02*
X5046045D01*
X5093744Y6000000D01*
X5100000D01*
X5252699Y6862700D02*
Y6905199D01*
X5272500Y6925000D01*
X5252499Y6862500D02*
X5252699Y6862700D01*
X5272500Y6925000D02*
Y6965000D01*
X5100000Y5982500D02*
X5200000D01*
X5100000D02*
Y6000000D01*
X5002500Y6067500D02*
Y6189501D01*
Y6065000D02*
Y6067500D01*
X4802500Y6982500D02*
X4802500D01*
X4785000D02*
X4802500D01*
X4917300Y6940445D02*
X4952299Y6905445D01*
Y6862700D02*
Y6905445D01*
X4900000Y6980446D02*
X4917300Y6963146D01*
X4952299Y6862700D02*
X4952499Y6862500D01*
X4917300Y6940445D02*
Y6963146D01*
X5002500Y6065000D02*
X5019800Y6047700D01*
X4802500Y6862500D02*
Y6982500D01*
X5002499Y6189501D02*
X5002500D01*
D34*
X684620Y8093200D02*
X756208D01*
X684460Y8093040D02*
X684620Y8093200D01*
X1116234Y6797600D02*
X1312801D01*
X1115994Y6797360D02*
X1116234Y6797600D01*
X1312801D02*
X1313340Y6797060D01*
X995323Y6797360D02*
X1115994D01*
X969543Y6771580D02*
X995323Y6797360D01*
X958340Y6771580D02*
X969543D01*
X992795Y7300540D02*
X1009548Y7283787D01*
X632922Y7300540D02*
X992795D01*
X1009548Y7234700D02*
Y7283787D01*
Y7234700D02*
X1015248Y7229001D01*
X684300Y8241800D02*
X685000Y8242500D01*
X613793Y8241800D02*
X684300D01*
Y8143200D02*
X685000Y8142500D01*
X613793Y8143200D02*
X684300D01*
X593700Y8221707D02*
X613793Y8241800D01*
X593700Y8163293D02*
Y8221707D01*
Y8163293D02*
X613793Y8143200D01*
X536754Y8141960D02*
X684460D01*
X586226Y7347236D02*
X632922Y7300540D01*
X586226Y7347236D02*
Y7405771D01*
X560986Y7431011D02*
Y7442214D01*
Y7431011D02*
X586226Y7405771D01*
X1312801Y6846520D02*
X1313340Y6847060D01*
X1095731Y6846280D02*
X1095971Y6846520D01*
X1312801D01*
X995323Y6846280D02*
X1095731D01*
X969543Y6872060D02*
X995323Y6846280D01*
X958340Y6872060D02*
X969543D01*
X776300Y8113293D02*
Y8171708D01*
X756208Y8093200D02*
X776300Y8113293D01*
X1009548Y7415301D02*
X1015248Y7421001D01*
X1009548Y7366215D02*
Y7415301D01*
X992795Y7349461D02*
X1009548Y7366215D01*
X685700Y8191800D02*
X756208D01*
X776300Y8171708D01*
X685000Y8192500D02*
X685700Y8191800D01*
X536754Y8093040D02*
X684460D01*
X660400Y7430997D02*
Y7442200D01*
X653185Y7349461D02*
X992795D01*
X635146Y7405743D02*
X660400Y7430997D01*
X635146Y7367500D02*
X653185Y7349461D01*
X635146Y7367500D02*
Y7405743D01*
D35*
X8575000Y1808000D02*
D03*
Y1300000D02*
D03*
X7559000D02*
D03*
D36*
Y1808000D02*
D03*
D37*
X7100000Y2125000D02*
D03*
Y3375000D02*
D03*
Y4625000D02*
D03*
Y5875000D02*
D03*
X4150000Y1125000D02*
D03*
Y2375000D02*
D03*
Y3625000D02*
D03*
Y4875000D02*
D03*
X3600000Y2125000D02*
D03*
Y3375000D02*
D03*
Y4625000D02*
D03*
Y5875000D02*
D03*
X650000Y1125000D02*
D03*
Y2375000D02*
D03*
Y3625000D02*
D03*
Y4875000D02*
D03*
X7100000Y875000D02*
D03*
D38*
Y1875000D02*
D03*
Y3125000D02*
D03*
Y4375000D02*
D03*
Y5625000D02*
D03*
X4150000Y1375000D02*
D03*
Y2625000D02*
D03*
Y3875000D02*
D03*
Y5125000D02*
D03*
X3600000Y1875000D02*
D03*
Y3125000D02*
D03*
Y4375000D02*
D03*
Y5625000D02*
D03*
X650000Y1375000D02*
D03*
Y2625000D02*
D03*
Y3875000D02*
D03*
Y5125000D02*
D03*
X7100000Y625000D02*
D03*
D39*
X578000Y7878500D02*
D03*
Y8456500D02*
D03*
D40*
X627000Y8600000D02*
D03*
Y7735000D02*
D03*
D41*
X210000Y8600000D02*
D03*
Y7735000D02*
D03*
D42*
X3812500Y6390000D02*
D03*
D43*
Y7117500D02*
D03*
X1375000Y7577500D02*
D03*
X2496820Y9357500D02*
D03*
X7875000Y2225000D02*
D03*
X1985000Y6117500D02*
D03*
X7022500Y6987500D02*
D03*
X5225000Y7530000D02*
D03*
D44*
X8255000Y9080500D02*
D03*
X889000D02*
D03*
X8509000Y508000D02*
D03*
X508000D02*
D03*
D45*
X2159000Y9080500D02*
D03*
X3683000D02*
D03*
X2921000D02*
D03*
X2667000D02*
D03*
X2413000D02*
D03*
X3429000D02*
D03*
X1905000D02*
D03*
X1651000D02*
D03*
X3175000D02*
D03*
X1397000D02*
D03*
X6223000D02*
D03*
X6477000Y8826500D02*
D03*
X7493000Y9080500D02*
D03*
Y8826500D02*
D03*
X7239000Y9080500D02*
D03*
Y8826500D02*
D03*
X6985000Y9080500D02*
D03*
Y8826500D02*
D03*
X6731000Y9080500D02*
D03*
Y8826500D02*
D03*
X6477000Y9080500D02*
D03*
X7747000D02*
D03*
Y8826500D02*
D03*
X6223000D02*
D03*
X3175000D02*
D03*
X4445000D02*
D03*
X3683000D02*
D03*
X3937000D02*
D03*
X4191000D02*
D03*
X3429000D02*
D03*
X5969000D02*
D03*
X5715000D02*
D03*
X5461000D02*
D03*
X4699000D02*
D03*
X4953000D02*
D03*
X5207000D02*
D03*
X2159000D02*
D03*
X2921000D02*
D03*
X2667000D02*
D03*
X2413000D02*
D03*
X1905000D02*
D03*
X1651000D02*
D03*
X5207000Y9080500D02*
D03*
X5969000D02*
D03*
X5715000D02*
D03*
X5461000D02*
D03*
X4953000D02*
D03*
X4699000D02*
D03*
X4445000D02*
D03*
X4191000D02*
D03*
X3937000D02*
D03*
X2159000Y8572500D02*
D03*
X3683000D02*
D03*
X2921000D02*
D03*
X2667000D02*
D03*
X2413000D02*
D03*
X3429000D02*
D03*
X1905000D02*
D03*
X1651000D02*
D03*
X3175000D02*
D03*
X1397000D02*
D03*
X6223000D02*
D03*
X6477000Y8318500D02*
D03*
X7493000Y8572500D02*
D03*
Y8318500D02*
D03*
X7239000Y8572500D02*
D03*
Y8318500D02*
D03*
X6985000Y8572500D02*
D03*
Y8318500D02*
D03*
X6731000Y8572500D02*
D03*
Y8318500D02*
D03*
X6477000Y8572500D02*
D03*
X7747000D02*
D03*
Y8318500D02*
D03*
X6223000D02*
D03*
X3175000D02*
D03*
X4445000D02*
D03*
X3683000D02*
D03*
X3937000D02*
D03*
X4191000D02*
D03*
X3429000D02*
D03*
X5969000D02*
D03*
X5715000D02*
D03*
X5461000D02*
D03*
X4699000D02*
D03*
X4953000D02*
D03*
X5207000D02*
D03*
X2159000D02*
D03*
X2921000D02*
D03*
X2667000D02*
D03*
X2413000D02*
D03*
X1905000D02*
D03*
X1651000D02*
D03*
X5207000Y8572500D02*
D03*
X5969000D02*
D03*
X5715000D02*
D03*
X5461000D02*
D03*
X4953000D02*
D03*
X4699000D02*
D03*
X4445000D02*
D03*
X4191000D02*
D03*
X3937000D02*
D03*
D46*
X1397000Y8826500D02*
D03*
Y8318500D02*
D03*
D47*
X5015000Y5867500D02*
D03*
X5285400Y5972500D02*
D03*
X5284755Y6064755D02*
D03*
X5300000Y5700000D02*
D03*
Y5800000D02*
D03*
X5191760Y5892800D02*
D03*
X8860006Y3060003D02*
D03*
Y2660003D02*
D03*
Y2260003D02*
D03*
Y1860002D02*
D03*
Y1460002D02*
D03*
Y1060002D02*
D03*
Y260002D02*
D03*
X8760006Y2460003D02*
D03*
Y2060002D02*
D03*
Y1660002D02*
D03*
X8660006Y1460002D02*
D03*
X8760006Y1260002D02*
D03*
Y860002D02*
D03*
X8460006Y8660006D02*
D03*
X8560006Y8460006D02*
D03*
X8460006Y8260006D02*
D03*
X8560006Y8060006D02*
D03*
X8460006Y7860006D02*
D03*
X8560006Y7660006D02*
D03*
X8460006Y7460005D02*
D03*
X8560006Y7260005D02*
D03*
X8460006Y7060005D02*
D03*
X8560006Y6860005D02*
D03*
X8460006Y6660005D02*
D03*
X8560006Y6460005D02*
D03*
X8460006Y6260005D02*
D03*
X8560006Y6060005D02*
D03*
X8460006Y5860005D02*
D03*
X8560006Y5660004D02*
D03*
X8460006Y5460004D02*
D03*
X8560006Y5260004D02*
D03*
X8460006Y5060004D02*
D03*
X8560006Y4860004D02*
D03*
X8460006Y4660004D02*
D03*
X8560006Y4460004D02*
D03*
X8460006Y4260004D02*
D03*
X8560006Y4060004D02*
D03*
X8460006Y3860003D02*
D03*
X8560006Y3660003D02*
D03*
X8460006Y3460003D02*
D03*
X8560006Y3260003D02*
D03*
Y2460003D02*
D03*
X8460006Y1460002D02*
D03*
X8260006Y8660006D02*
D03*
X8360006Y8460006D02*
D03*
X8260006Y8260006D02*
D03*
X8360006Y8060006D02*
D03*
X8260006Y7860006D02*
D03*
X8360006Y7660006D02*
D03*
X8260006Y7460005D02*
D03*
X8360006Y7260005D02*
D03*
X8260006Y7060005D02*
D03*
X8360006Y6860005D02*
D03*
X8260006Y6660005D02*
D03*
X8360006Y6460005D02*
D03*
X8260006Y6260005D02*
D03*
X8360006Y6060005D02*
D03*
X8260006Y5860005D02*
D03*
X8360006Y5660004D02*
D03*
X8260006Y5460004D02*
D03*
X8360006Y5260004D02*
D03*
X8260006Y5060004D02*
D03*
X8360006Y4860004D02*
D03*
X8260006Y4660004D02*
D03*
X8360006Y4460004D02*
D03*
X8260006Y4260004D02*
D03*
X8360006Y4060004D02*
D03*
X8260006Y3860003D02*
D03*
X8360006Y3660003D02*
D03*
X8260006Y3460003D02*
D03*
X8360006Y3260003D02*
D03*
Y2860003D02*
D03*
X8260006Y2660003D02*
D03*
X8360006Y2460003D02*
D03*
X8260006Y2260003D02*
D03*
X8360006Y2060002D02*
D03*
X8260006Y1860002D02*
D03*
X8360006Y1660002D02*
D03*
X8260006Y1460002D02*
D03*
X8360006Y1260002D02*
D03*
X8060006Y8660006D02*
D03*
X8160006Y8460006D02*
D03*
X8060006Y8260006D02*
D03*
X8160006Y8060006D02*
D03*
X8060006Y7860006D02*
D03*
X8160006Y7660006D02*
D03*
X8060006Y7460005D02*
D03*
X8160006Y7260005D02*
D03*
X8060006Y7060005D02*
D03*
X8160006Y6860005D02*
D03*
X8060006Y6660005D02*
D03*
X8160006Y6460005D02*
D03*
X8060006Y6260005D02*
D03*
X8160006Y6060005D02*
D03*
X8060006Y5860005D02*
D03*
X8160006Y5660004D02*
D03*
X8060006Y5460004D02*
D03*
X8160006Y5260004D02*
D03*
X8060006Y5060004D02*
D03*
X8160006Y4860004D02*
D03*
X8060006Y4660004D02*
D03*
X8160006Y4460004D02*
D03*
X8060006Y4260004D02*
D03*
X8160006Y4060004D02*
D03*
X8060006Y3860003D02*
D03*
X8160006Y3660003D02*
D03*
X8060006Y3460003D02*
D03*
X8160006Y3260003D02*
D03*
Y2860003D02*
D03*
X8060006Y2660003D02*
D03*
X8160006Y2460003D02*
D03*
X8060006Y2260003D02*
D03*
X8160006Y2060002D02*
D03*
X8060006Y1860002D02*
D03*
X8160006Y1660002D02*
D03*
X8060006Y1460002D02*
D03*
X8160006Y1260002D02*
D03*
Y860002D02*
D03*
X8060006Y660002D02*
D03*
Y260002D02*
D03*
X7960006Y8460006D02*
D03*
Y8060006D02*
D03*
X7860006Y7860006D02*
D03*
X7960006Y7660006D02*
D03*
X7860006Y7460005D02*
D03*
X7960006Y7260005D02*
D03*
X7860006Y7060005D02*
D03*
X7960006Y6860005D02*
D03*
X7860006Y6660005D02*
D03*
X7960006Y6460005D02*
D03*
X7860006Y6260005D02*
D03*
X7960006Y6060005D02*
D03*
X7860006Y5860005D02*
D03*
X7960006Y5660004D02*
D03*
X7860006Y5460004D02*
D03*
X7960006Y5260004D02*
D03*
X7860006Y5060004D02*
D03*
X7960006Y4860004D02*
D03*
X7860006Y4660004D02*
D03*
X7960006Y4460004D02*
D03*
X7860006Y4260004D02*
D03*
X7960006Y4060004D02*
D03*
X7860006Y3860003D02*
D03*
X7960006Y3660003D02*
D03*
X7860006Y3460003D02*
D03*
X7960006Y3260003D02*
D03*
Y2860003D02*
D03*
X7860006Y2660003D02*
D03*
X7960006Y2460003D02*
D03*
Y2060002D02*
D03*
X7860006Y1860002D02*
D03*
X7960006Y1660002D02*
D03*
X7860006Y1460002D02*
D03*
X7960006Y1260002D02*
D03*
Y860002D02*
D03*
X7860006Y660002D02*
D03*
X7960006Y460002D02*
D03*
X7860006Y260002D02*
D03*
X7760006Y9260006D02*
D03*
Y8060006D02*
D03*
Y7660006D02*
D03*
Y7260005D02*
D03*
Y6860005D02*
D03*
Y6460005D02*
D03*
Y6060005D02*
D03*
Y5660004D02*
D03*
Y5260004D02*
D03*
Y4860004D02*
D03*
Y4460004D02*
D03*
Y4060004D02*
D03*
Y3660003D02*
D03*
Y3260003D02*
D03*
Y2860003D02*
D03*
X7660006Y2660003D02*
D03*
X7760006Y2460003D02*
D03*
Y2060002D02*
D03*
Y1660002D02*
D03*
X7660006Y1460002D02*
D03*
X7760006Y1260002D02*
D03*
Y860002D02*
D03*
X7660006Y660002D02*
D03*
X7760006Y460002D02*
D03*
X7660006Y260002D02*
D03*
X7560005Y9260006D02*
D03*
X7460005Y7860006D02*
D03*
Y7460005D02*
D03*
Y7060005D02*
D03*
Y6260005D02*
D03*
Y5860005D02*
D03*
Y5460004D02*
D03*
Y5060004D02*
D03*
Y4660004D02*
D03*
Y4260004D02*
D03*
Y3860003D02*
D03*
Y3460003D02*
D03*
Y3060003D02*
D03*
Y2660003D02*
D03*
Y1460002D02*
D03*
X7560005Y860002D02*
D03*
X7460005Y660002D02*
D03*
X7560005Y460002D02*
D03*
X7460005Y260002D02*
D03*
X7360005Y9260006D02*
D03*
Y8460006D02*
D03*
Y8060006D02*
D03*
X7260005Y7860006D02*
D03*
X7360005Y7660006D02*
D03*
X7260005Y7460005D02*
D03*
X7360005Y7260005D02*
D03*
X7260005Y7060005D02*
D03*
X7360005Y6860005D02*
D03*
Y6460005D02*
D03*
X7260005Y6260005D02*
D03*
X7360005Y6060005D02*
D03*
Y5260004D02*
D03*
X7260005Y5060004D02*
D03*
X7360005Y4860004D02*
D03*
Y4060004D02*
D03*
X7260005Y3860003D02*
D03*
X7360005Y3660003D02*
D03*
Y3260003D02*
D03*
Y2860003D02*
D03*
X7260005Y2660003D02*
D03*
X7360005Y2460003D02*
D03*
X7260005Y2260003D02*
D03*
X7360005Y2060002D02*
D03*
Y1660002D02*
D03*
X7260005Y1460002D02*
D03*
X7360005Y1260002D02*
D03*
Y860002D02*
D03*
X7260005Y660002D02*
D03*
X7360005Y460002D02*
D03*
X7260005Y260002D02*
D03*
X7160005Y9260006D02*
D03*
Y8060006D02*
D03*
X7060005Y7860006D02*
D03*
X7160005Y7660006D02*
D03*
X7060005Y7460005D02*
D03*
X7160005Y7260005D02*
D03*
X7060005Y5460004D02*
D03*
X7160005Y5260004D02*
D03*
Y4060004D02*
D03*
Y2860003D02*
D03*
Y1660002D02*
D03*
X7060005Y1460002D02*
D03*
X7160005Y1260002D02*
D03*
X7060005Y1060002D02*
D03*
X7160005Y460002D02*
D03*
X7060005Y260002D02*
D03*
X6960005Y9260006D02*
D03*
Y8060006D02*
D03*
X6860005Y7860006D02*
D03*
X6960005Y7660006D02*
D03*
X6860005Y7460005D02*
D03*
X6960005Y7260005D02*
D03*
X6860005Y7060005D02*
D03*
X6960005Y6460005D02*
D03*
X6860005Y6260005D02*
D03*
X6960005Y6060005D02*
D03*
X6860005Y5060004D02*
D03*
X6960005Y4860004D02*
D03*
X6860005Y3860003D02*
D03*
X6960005Y3660003D02*
D03*
X6860005Y2660003D02*
D03*
X6960005Y2460003D02*
D03*
X6860005Y2260003D02*
D03*
X6960005Y1660002D02*
D03*
X6860005Y1460002D02*
D03*
X6960005Y1260002D02*
D03*
X6860005Y1060002D02*
D03*
Y660002D02*
D03*
X6960005Y460002D02*
D03*
X6860005Y260002D02*
D03*
X6760005Y9260006D02*
D03*
Y8060006D02*
D03*
X6660005Y7860006D02*
D03*
X6760005Y7660006D02*
D03*
X6660005Y7460005D02*
D03*
X6760005Y7260005D02*
D03*
X6660005Y7060005D02*
D03*
X6760005Y6460005D02*
D03*
X6660005Y6260005D02*
D03*
X6760005Y6060005D02*
D03*
Y5660004D02*
D03*
X6660005Y5460004D02*
D03*
X6760005Y5260004D02*
D03*
X6660005Y5060004D02*
D03*
X6760005Y4860004D02*
D03*
X6660005Y4260004D02*
D03*
X6760005Y4060004D02*
D03*
X6660005Y3860003D02*
D03*
X6760005Y3660003D02*
D03*
Y3260003D02*
D03*
Y2860003D02*
D03*
X6660005Y2660003D02*
D03*
X6760005Y2460003D02*
D03*
X6660005Y2260003D02*
D03*
X6760005Y1660002D02*
D03*
X6660005Y1460002D02*
D03*
X6760005Y1260002D02*
D03*
X6660005Y1060002D02*
D03*
X6760005Y860002D02*
D03*
X6660005Y660002D02*
D03*
X6760005Y460002D02*
D03*
X6660005Y260002D02*
D03*
X6560005Y9260006D02*
D03*
Y8060006D02*
D03*
X6460005Y7860006D02*
D03*
X6560005Y7660006D02*
D03*
X6460005Y7460005D02*
D03*
X6560005Y7260005D02*
D03*
X6460005Y7060005D02*
D03*
X6560005Y6460005D02*
D03*
X6460005Y6260005D02*
D03*
X6560005Y6060005D02*
D03*
Y5660004D02*
D03*
X6460005Y5460004D02*
D03*
X6560005Y5260004D02*
D03*
X6460005Y5060004D02*
D03*
X6560005Y4860004D02*
D03*
X6460005Y4260004D02*
D03*
X6560005Y4060004D02*
D03*
X6460005Y3860003D02*
D03*
X6560005Y3660003D02*
D03*
Y3260003D02*
D03*
Y2860003D02*
D03*
X6460005Y2660003D02*
D03*
X6560005Y2460003D02*
D03*
X6460005Y2260003D02*
D03*
X6560005Y1660002D02*
D03*
X6460005Y1460002D02*
D03*
X6560005Y1260002D02*
D03*
X6460005Y1060002D02*
D03*
X6560005Y860002D02*
D03*
X6460005Y660002D02*
D03*
X6560005Y460002D02*
D03*
X6460005Y260002D02*
D03*
X6360005Y9260006D02*
D03*
X6260005Y7860006D02*
D03*
X6360005Y7660006D02*
D03*
X6260005Y7460005D02*
D03*
X6360005Y7260005D02*
D03*
X6260005Y7060005D02*
D03*
X6360005Y6460005D02*
D03*
X6260005Y6260005D02*
D03*
X6360005Y6060005D02*
D03*
Y5660004D02*
D03*
X6260005Y5460004D02*
D03*
X6360005Y5260004D02*
D03*
X6260005Y5060004D02*
D03*
X6360005Y4860004D02*
D03*
X6260005Y4260004D02*
D03*
X6360005Y4060004D02*
D03*
X6260005Y3860003D02*
D03*
X6360005Y3660003D02*
D03*
Y3260003D02*
D03*
Y2860003D02*
D03*
X6260005Y2660003D02*
D03*
X6360005Y2460003D02*
D03*
X6260005Y2260003D02*
D03*
X6360005Y1660002D02*
D03*
X6260005Y1460002D02*
D03*
X6360005Y1260002D02*
D03*
X6260005Y1060002D02*
D03*
X6360005Y860002D02*
D03*
X6260005Y660002D02*
D03*
X6360005Y460002D02*
D03*
X6260005Y260002D02*
D03*
X6160005Y9260006D02*
D03*
Y7660006D02*
D03*
X6060005Y7460005D02*
D03*
X6160005Y7260005D02*
D03*
X6060005Y7060005D02*
D03*
X6160005Y6460005D02*
D03*
X6060005Y6260005D02*
D03*
X6160005Y6060005D02*
D03*
Y5660004D02*
D03*
X6060005Y5460004D02*
D03*
X6160005Y5260004D02*
D03*
X6060005Y5060004D02*
D03*
X6160005Y4860004D02*
D03*
X6060005Y4260004D02*
D03*
X6160005Y4060004D02*
D03*
X6060005Y3860003D02*
D03*
X6160005Y3660003D02*
D03*
Y3260003D02*
D03*
Y2860003D02*
D03*
X6060005Y2660003D02*
D03*
X6160005Y2460003D02*
D03*
X6060005Y2260003D02*
D03*
X6160005Y1660002D02*
D03*
X6060005Y1460002D02*
D03*
X6160005Y1260002D02*
D03*
X6060005Y1060002D02*
D03*
X6160005Y860002D02*
D03*
X5960005Y9260006D02*
D03*
Y8060006D02*
D03*
X5860005Y7860006D02*
D03*
Y7460005D02*
D03*
X5960005Y7260005D02*
D03*
X5860005Y7060005D02*
D03*
X5960005Y6460005D02*
D03*
X5860005Y6260005D02*
D03*
X5960005Y6060005D02*
D03*
Y5660004D02*
D03*
X5860005Y5460004D02*
D03*
X5960005Y1660002D02*
D03*
X5860005Y1460002D02*
D03*
X5960005Y1260002D02*
D03*
X5860005Y1060002D02*
D03*
X5960005Y860002D02*
D03*
X5760004Y9260006D02*
D03*
Y8060006D02*
D03*
X5660004Y7860006D02*
D03*
X5760004Y7260005D02*
D03*
Y6460005D02*
D03*
Y6060005D02*
D03*
Y5660004D02*
D03*
Y4860004D02*
D03*
Y4460004D02*
D03*
X5660004Y4260004D02*
D03*
X5760004Y4060004D02*
D03*
X5660004Y3860003D02*
D03*
X5760004Y3660003D02*
D03*
Y3260003D02*
D03*
X5660004Y3060003D02*
D03*
X5760004Y2860003D02*
D03*
X5660004Y2660003D02*
D03*
X5760004Y2460003D02*
D03*
X5660004Y2260003D02*
D03*
Y1860002D02*
D03*
X5760004Y1660002D02*
D03*
X5660004Y1460002D02*
D03*
X5760004Y1260002D02*
D03*
X5660004Y1060002D02*
D03*
X5760004Y860002D02*
D03*
X5560004Y8060006D02*
D03*
X5460004Y7860006D02*
D03*
X5560004Y7660006D02*
D03*
Y4860004D02*
D03*
Y4460004D02*
D03*
X5460004Y4260004D02*
D03*
X5560004Y4060004D02*
D03*
X5460004Y3860003D02*
D03*
X5560004Y3660003D02*
D03*
Y3260003D02*
D03*
X5460004Y3060003D02*
D03*
X5560004Y2860003D02*
D03*
X5460004Y2660003D02*
D03*
X5560004Y2460003D02*
D03*
X5460004Y2260003D02*
D03*
Y1860002D02*
D03*
X5560004Y1660002D02*
D03*
X5460004Y1460002D02*
D03*
X5560004Y1260002D02*
D03*
X5460004Y1060002D02*
D03*
X5560004Y860002D02*
D03*
X5360004Y8060006D02*
D03*
X5260004Y7860006D02*
D03*
X5360004Y4460004D02*
D03*
X5260004Y4260004D02*
D03*
X5360004Y4060004D02*
D03*
X5260004Y3860003D02*
D03*
X5360004Y3660003D02*
D03*
Y3260003D02*
D03*
X5260004Y3060003D02*
D03*
X5360004Y2860003D02*
D03*
X5260004Y2660003D02*
D03*
X5360004Y2460003D02*
D03*
X5260004Y2260003D02*
D03*
Y1860002D02*
D03*
X5360004Y1660002D02*
D03*
X5260004Y1460002D02*
D03*
X5360004Y1260002D02*
D03*
X5260004Y1060002D02*
D03*
X5360004Y860002D02*
D03*
X5160004Y8060006D02*
D03*
Y2460003D02*
D03*
X5060004Y2260003D02*
D03*
Y1860002D02*
D03*
X5160004Y1660002D02*
D03*
X5060004Y1460002D02*
D03*
X5160004Y1260002D02*
D03*
X5060004Y1060002D02*
D03*
X5160004Y860002D02*
D03*
X4960004Y8060006D02*
D03*
X4860004Y4660004D02*
D03*
X4960004Y4060004D02*
D03*
X4860004Y3860003D02*
D03*
X4960004Y3660003D02*
D03*
X4860004Y3460003D02*
D03*
X4960004Y2860003D02*
D03*
Y2460003D02*
D03*
X4860004Y2260003D02*
D03*
X4960004Y1660002D02*
D03*
X4860004Y1460002D02*
D03*
X4960004Y1260002D02*
D03*
X4860004Y1060002D02*
D03*
X4960004Y860002D02*
D03*
X4760004Y8060006D02*
D03*
X4660004Y4660004D02*
D03*
X4760004Y4460004D02*
D03*
Y4060004D02*
D03*
X4660004Y3860003D02*
D03*
X4760004Y3660003D02*
D03*
X4660004Y3460003D02*
D03*
X4760004Y3260003D02*
D03*
X4660004Y3060003D02*
D03*
X4760004Y2460003D02*
D03*
X4660004Y2260003D02*
D03*
X4760004Y2060002D02*
D03*
X4660004Y1860002D02*
D03*
Y1460002D02*
D03*
X4760004Y1260002D02*
D03*
X4660004Y1060002D02*
D03*
X4760004Y860002D02*
D03*
X4560004Y8460006D02*
D03*
Y8060006D02*
D03*
Y5660004D02*
D03*
Y5260004D02*
D03*
X4460004Y4660004D02*
D03*
X4560004Y4460004D02*
D03*
X4460004Y4260004D02*
D03*
X4560004Y3660003D02*
D03*
X4460004Y3460003D02*
D03*
X4560004Y3260003D02*
D03*
X4460004Y3060003D02*
D03*
X4560004Y2460003D02*
D03*
X4460004Y2260003D02*
D03*
X4560004Y2060002D02*
D03*
X4460004Y1860002D02*
D03*
X4560004Y1260002D02*
D03*
X4460004Y1060002D02*
D03*
X4560004Y860002D02*
D03*
X4360004Y8060006D02*
D03*
X4260004Y7860006D02*
D03*
X4360004Y5260004D02*
D03*
Y4460004D02*
D03*
X4260004Y4260004D02*
D03*
X4360004Y4060004D02*
D03*
Y3660003D02*
D03*
X4260004Y3460003D02*
D03*
X4360004Y3260003D02*
D03*
X4260004Y3060003D02*
D03*
X4360004Y2860003D02*
D03*
Y2060002D02*
D03*
X4260004Y1860002D02*
D03*
X4360004Y1660002D02*
D03*
Y860002D02*
D03*
X4160004Y8060006D02*
D03*
X4060004Y7860006D02*
D03*
X4160004Y4460004D02*
D03*
Y4060004D02*
D03*
Y3260003D02*
D03*
Y2860003D02*
D03*
Y2060002D02*
D03*
Y1660002D02*
D03*
Y860002D02*
D03*
X3960004Y8060006D02*
D03*
X3860003Y7860006D02*
D03*
Y5460004D02*
D03*
X3960004Y4860004D02*
D03*
Y3660003D02*
D03*
X3860003Y1460002D02*
D03*
Y1060002D02*
D03*
X3960004Y860002D02*
D03*
X3760003Y8060006D02*
D03*
X3660003Y7860006D02*
D03*
Y5460004D02*
D03*
Y3860003D02*
D03*
Y2660003D02*
D03*
X3760003Y1660002D02*
D03*
X3560003Y8460006D02*
D03*
Y8060006D02*
D03*
X3460003Y7860006D02*
D03*
X3560003Y7660006D02*
D03*
X3460003Y6260005D02*
D03*
X3560003Y5260004D02*
D03*
Y4860004D02*
D03*
Y4060004D02*
D03*
Y2860003D02*
D03*
X3460003Y2660003D02*
D03*
X3560003Y2460003D02*
D03*
Y1660002D02*
D03*
X3360003Y9260006D02*
D03*
Y8060006D02*
D03*
X3260003Y7860006D02*
D03*
X3360003Y7660006D02*
D03*
X3260003Y7460005D02*
D03*
Y6260005D02*
D03*
X3360003Y3660003D02*
D03*
Y3260003D02*
D03*
X3260003Y3060003D02*
D03*
X3360003Y2860003D02*
D03*
X3260003Y2660003D02*
D03*
X3360003Y2460003D02*
D03*
X3260003Y2260003D02*
D03*
Y1860002D02*
D03*
X3360003Y1660002D02*
D03*
X3160003Y8060006D02*
D03*
X3060003Y7860006D02*
D03*
X3160003Y7660006D02*
D03*
X3060003Y7460005D02*
D03*
Y7060005D02*
D03*
Y6260005D02*
D03*
X3160003Y6060005D02*
D03*
X3060003Y5860005D02*
D03*
Y5460004D02*
D03*
X3160003Y5260004D02*
D03*
X3060003Y5060004D02*
D03*
X3160003Y4860004D02*
D03*
Y4460004D02*
D03*
X3060003Y4260004D02*
D03*
X3160003Y4060004D02*
D03*
X3060003Y3860003D02*
D03*
X3160003Y3660003D02*
D03*
Y3260003D02*
D03*
X3060003Y3060003D02*
D03*
X3160003Y2860003D02*
D03*
X3060003Y2660003D02*
D03*
X3160003Y2460003D02*
D03*
X3060003Y2260003D02*
D03*
Y1860002D02*
D03*
X3160003Y1660002D02*
D03*
X2960003Y8060006D02*
D03*
Y7660006D02*
D03*
X2860003Y7060005D02*
D03*
Y6260005D02*
D03*
X2960003Y6060005D02*
D03*
X2860003Y5860005D02*
D03*
Y5460004D02*
D03*
X2960003Y5260004D02*
D03*
X2860003Y5060004D02*
D03*
X2960003Y4860004D02*
D03*
Y4460004D02*
D03*
X2860003Y4260004D02*
D03*
X2960003Y4060004D02*
D03*
X2860003Y3860003D02*
D03*
X2960003Y3660003D02*
D03*
Y3260003D02*
D03*
X2860003Y3060003D02*
D03*
X2960003Y2860003D02*
D03*
X2860003Y2660003D02*
D03*
X2960003Y2460003D02*
D03*
X2860003Y2260003D02*
D03*
Y1860002D02*
D03*
X2960003Y1660002D02*
D03*
X2660003Y7060005D02*
D03*
Y6260005D02*
D03*
X2760003Y6060005D02*
D03*
X2660003Y5860005D02*
D03*
Y5460004D02*
D03*
X2760003Y5260004D02*
D03*
X2660003Y5060004D02*
D03*
X2760003Y4860004D02*
D03*
Y4460004D02*
D03*
X2660003Y4260004D02*
D03*
X2760003Y4060004D02*
D03*
X2660003Y3860003D02*
D03*
X2760003Y3660003D02*
D03*
Y3260003D02*
D03*
X2660003Y3060003D02*
D03*
X2760003Y2860003D02*
D03*
X2660003Y2660003D02*
D03*
X2760003Y2460003D02*
D03*
X2660003Y2260003D02*
D03*
Y1860002D02*
D03*
X2760003Y1660002D02*
D03*
X2560003Y8460006D02*
D03*
Y8060006D02*
D03*
X2460003Y7060005D02*
D03*
X2560003Y1660002D02*
D03*
X2360003Y8060006D02*
D03*
X2260003Y7460005D02*
D03*
Y7060005D02*
D03*
Y6660005D02*
D03*
Y6260005D02*
D03*
Y5860005D02*
D03*
Y5460004D02*
D03*
Y4260004D02*
D03*
X2360003Y3660003D02*
D03*
Y3260003D02*
D03*
X2260003Y3060003D02*
D03*
X2360003Y2860003D02*
D03*
Y2460003D02*
D03*
X2260003Y2260003D02*
D03*
Y1860002D02*
D03*
X2360003Y1660002D02*
D03*
X2160003Y9260006D02*
D03*
Y8060006D02*
D03*
Y7660006D02*
D03*
X2060002Y7460005D02*
D03*
Y6660005D02*
D03*
X2160003Y6460005D02*
D03*
Y6060005D02*
D03*
X2060002Y5860005D02*
D03*
Y5460004D02*
D03*
X2160003Y5260004D02*
D03*
Y4860004D02*
D03*
Y4460004D02*
D03*
X2060002Y4260004D02*
D03*
X2160003Y4060004D02*
D03*
Y3660003D02*
D03*
Y3260003D02*
D03*
X2060002Y3060003D02*
D03*
X2160003Y2860003D02*
D03*
Y2460003D02*
D03*
X2060002Y2260003D02*
D03*
Y1860002D02*
D03*
X2160003Y1660002D02*
D03*
X1960002Y9260006D02*
D03*
Y8060006D02*
D03*
Y7660006D02*
D03*
X1860002Y7460005D02*
D03*
X1960002Y6860005D02*
D03*
Y6460005D02*
D03*
X1860002Y6260005D02*
D03*
Y5860005D02*
D03*
Y5460004D02*
D03*
X1960002Y5260004D02*
D03*
Y4860004D02*
D03*
Y4460004D02*
D03*
X1860002Y4260004D02*
D03*
X1960002Y4060004D02*
D03*
Y3660003D02*
D03*
Y3260003D02*
D03*
X1860002Y3060003D02*
D03*
X1960002Y2860003D02*
D03*
Y2460003D02*
D03*
X1860002Y2260003D02*
D03*
Y1860002D02*
D03*
X1960002Y1660002D02*
D03*
X1860002Y1460002D02*
D03*
Y1060002D02*
D03*
Y660002D02*
D03*
Y260002D02*
D03*
X1760002Y9260006D02*
D03*
Y8460006D02*
D03*
Y8060006D02*
D03*
Y7660006D02*
D03*
X1660002Y7460005D02*
D03*
X1760002Y6460005D02*
D03*
X1660002Y6260005D02*
D03*
X1760002Y6060005D02*
D03*
X1660002Y5860005D02*
D03*
Y5460004D02*
D03*
X1760002Y5260004D02*
D03*
Y4860004D02*
D03*
Y4460004D02*
D03*
X1660002Y4260004D02*
D03*
X1760002Y4060004D02*
D03*
Y3660003D02*
D03*
Y3260003D02*
D03*
X1660002Y3060003D02*
D03*
X1760002Y2860003D02*
D03*
Y2460003D02*
D03*
X1660002Y2260003D02*
D03*
Y1860002D02*
D03*
X1760002Y1660002D02*
D03*
X1660002Y1460002D02*
D03*
X1760002Y1260002D02*
D03*
X1660002Y1060002D02*
D03*
X1760002Y860002D02*
D03*
X1660002Y660002D02*
D03*
X1760002Y460002D02*
D03*
X1660002Y260002D02*
D03*
X1560002Y9260006D02*
D03*
Y8060006D02*
D03*
Y7660006D02*
D03*
X1460002Y6260005D02*
D03*
X1560002Y6060005D02*
D03*
X1460002Y5860005D02*
D03*
Y5460004D02*
D03*
X1560002Y5260004D02*
D03*
Y4860004D02*
D03*
X1460002Y4660004D02*
D03*
Y4260004D02*
D03*
X1560002Y4060004D02*
D03*
Y3660003D02*
D03*
X1460002Y3460003D02*
D03*
X1560002Y2860003D02*
D03*
Y2460003D02*
D03*
X1460002Y2260003D02*
D03*
X1560002Y1660002D02*
D03*
X1460002Y1460002D02*
D03*
X1560002Y1260002D02*
D03*
X1460002Y1060002D02*
D03*
X1560002Y860002D02*
D03*
X1460002Y660002D02*
D03*
X1560002Y460002D02*
D03*
X1460002Y260002D02*
D03*
X1360002Y9260006D02*
D03*
X1260002Y8660006D02*
D03*
X1360002Y8060006D02*
D03*
X1260002Y6260005D02*
D03*
X1360002Y6060005D02*
D03*
X1260002Y5860005D02*
D03*
X1360002Y5260004D02*
D03*
Y4860004D02*
D03*
X1260002Y4660004D02*
D03*
X1360002Y4060004D02*
D03*
Y3660003D02*
D03*
X1260002Y3460003D02*
D03*
X1360002Y3260003D02*
D03*
Y2860003D02*
D03*
Y2460003D02*
D03*
X1260002Y2260003D02*
D03*
X1360002Y2060002D02*
D03*
Y1660002D02*
D03*
X1260002Y1460002D02*
D03*
X1360002Y1260002D02*
D03*
X1260002Y1060002D02*
D03*
X1360002Y860002D02*
D03*
X1260002Y660002D02*
D03*
X1360002Y460002D02*
D03*
X1260002Y260002D02*
D03*
X1060002Y8660006D02*
D03*
X1160002Y8460006D02*
D03*
Y8060006D02*
D03*
X1060002Y7060005D02*
D03*
Y6260005D02*
D03*
X1160002Y6060005D02*
D03*
X1060002Y5860005D02*
D03*
X1160002Y5660004D02*
D03*
X1060002Y5460004D02*
D03*
X1160002Y4860004D02*
D03*
X1060002Y4660004D02*
D03*
X1160002Y4460004D02*
D03*
X1060002Y4260004D02*
D03*
X1160002Y3660003D02*
D03*
X1060002Y3460003D02*
D03*
X1160002Y3260003D02*
D03*
X1060002Y3060003D02*
D03*
X1160002Y2460003D02*
D03*
X1060002Y2260003D02*
D03*
X1160002Y2060002D02*
D03*
X1060002Y1860002D02*
D03*
X1160002Y1260002D02*
D03*
X1060002Y1060002D02*
D03*
X1160002Y860002D02*
D03*
X1060002Y660002D02*
D03*
X1160002Y460002D02*
D03*
X1060002Y260002D02*
D03*
X860002Y8660006D02*
D03*
X960002Y7660006D02*
D03*
X860002Y7460005D02*
D03*
Y7060005D02*
D03*
Y6660005D02*
D03*
X960002Y6460005D02*
D03*
X860002Y6260005D02*
D03*
X960002Y6060005D02*
D03*
X860002Y5860005D02*
D03*
X960002Y5660004D02*
D03*
X860002Y5460004D02*
D03*
X960002Y4860004D02*
D03*
X860002Y4660004D02*
D03*
X960002Y4460004D02*
D03*
X860002Y4260004D02*
D03*
X960002Y3660003D02*
D03*
X860002Y3460003D02*
D03*
X960002Y3260003D02*
D03*
X860002Y3060003D02*
D03*
X960002Y2860003D02*
D03*
Y2460003D02*
D03*
X860002Y2260003D02*
D03*
X960002Y2060002D02*
D03*
X860002Y1860002D02*
D03*
X960002Y1660002D02*
D03*
Y1260002D02*
D03*
X860002Y1060002D02*
D03*
X960002Y860002D02*
D03*
Y460002D02*
D03*
X860002Y260002D02*
D03*
X660002Y6660005D02*
D03*
X760002Y6460005D02*
D03*
X660002Y6260005D02*
D03*
X760002Y6060005D02*
D03*
X660002Y5860005D02*
D03*
X760002Y5660004D02*
D03*
X660002Y5460004D02*
D03*
X760002Y5260004D02*
D03*
X660002Y4660004D02*
D03*
X760002Y4460004D02*
D03*
X660002Y4260004D02*
D03*
X760002Y4060004D02*
D03*
X660002Y3460003D02*
D03*
X760002Y3260003D02*
D03*
X660002Y3060003D02*
D03*
X760002Y2860003D02*
D03*
Y2060002D02*
D03*
X660002Y1860002D02*
D03*
X760002Y1660002D02*
D03*
Y860002D02*
D03*
X460002Y9060006D02*
D03*
Y7060005D02*
D03*
X560002Y6860005D02*
D03*
X460002Y6660005D02*
D03*
X560002Y6460005D02*
D03*
X460002Y6260005D02*
D03*
X560002Y6060005D02*
D03*
X460002Y5860005D02*
D03*
X560002Y5660004D02*
D03*
X460002Y5460004D02*
D03*
X560002Y5260004D02*
D03*
X460002Y4660004D02*
D03*
X560002Y4460004D02*
D03*
X460002Y4260004D02*
D03*
X560002Y4060004D02*
D03*
X460002Y3460003D02*
D03*
X560002Y3260003D02*
D03*
X460002Y3060003D02*
D03*
X560002Y2860003D02*
D03*
X460002Y2260003D02*
D03*
X560002Y2060002D02*
D03*
X460002Y1860002D02*
D03*
Y1060002D02*
D03*
X360002Y9260006D02*
D03*
X260002Y9060006D02*
D03*
Y8260006D02*
D03*
Y7860006D02*
D03*
X360002Y2060002D02*
D03*
X260002Y1860002D02*
D03*
X360002Y1660002D02*
D03*
X260002Y1460002D02*
D03*
X360002Y1260002D02*
D03*
X260002Y1060002D02*
D03*
X4827500Y6526000D02*
D03*
X4977500Y6376000D02*
D03*
X4827500D02*
D03*
X5127500D02*
D03*
Y6676000D02*
D03*
X4827500D02*
D03*
X5127500Y6526000D02*
D03*
X4977500Y6676000D02*
D03*
X4977499Y6526001D02*
D03*
X1553340Y6847059D02*
D03*
X4532500Y6682500D02*
D03*
X5605000Y5122500D02*
D03*
X5405000D02*
D03*
X4480000Y5572500D02*
D03*
X5020000Y5327500D02*
D03*
X5677500Y6607500D02*
D03*
Y6807500D02*
D03*
X5298452Y5501548D02*
D03*
X5300000Y5600000D02*
D03*
X4260000Y6300000D02*
D03*
X5350000Y7050400D02*
D03*
X5195011Y7200000D02*
D03*
X5050000D02*
D03*
X5350000D02*
D03*
X5500000Y6600000D02*
D03*
X5150000Y5800000D02*
D03*
X4200000Y6100000D02*
D03*
X4300000Y6000000D02*
D03*
X4400000Y5900000D02*
D03*
X4550000D02*
D03*
X4050000Y6550000D02*
D03*
Y6650000D02*
D03*
Y6750000D02*
D03*
Y6850000D02*
D03*
X5108697Y6099098D02*
D03*
X4500000Y6782500D02*
D03*
X4727500Y6977500D02*
D03*
D48*
X4575000Y7507500D02*
D03*
X5100000Y6000000D02*
D03*
X1633220Y7239000D02*
D03*
X1503680D02*
D03*
X519836Y8167562D02*
D03*
X526918Y8067336D02*
D03*
X958340Y6771580D02*
D03*
Y6872060D02*
D03*
X660400Y7442200D02*
D03*
X560986Y7442214D02*
D03*
X1195840Y6592060D02*
D03*
X1568340Y6392060D02*
D03*
X8570000Y3040000D02*
D03*
%TF.MD5,e41bf1d27cd36bffa72475f2ed692de1*%
M02*
