%TF.GenerationSoftware,Altium Limited,Altium Designer,24.0.1 (36)*%
G04 Layer_Color=65535*
%FSLAX45Y45*%
%MOMM*%
%TF.SameCoordinates,BC388B4F-315D-4572-B472-8F8CFEE0C7CC*%
%TF.FilePolarity,Positive*%
%TF.FileFunction,Legend,Top*%
%TF.Part,Single*%
G01*
G75*
%TA.AperFunction,NonConductor*%
%ADD49C,0.20000*%
%ADD50C,0.25000*%
%ADD51C,0.10000*%
%ADD52C,0.10160*%
%ADD53C,0.30000*%
%ADD54C,0.60000*%
%ADD55C,0.25400*%
D49*
X1145348Y7517501D02*
G03*
X1145348Y7517501I-100J0D01*
G01*
X3996500Y7643980D02*
G03*
X3996500Y7643980I-100J0D01*
G01*
X3291460Y6899600D02*
G03*
X3291460Y6899600I-100J0D01*
G01*
X1239380Y6996920D02*
G03*
X1239380Y6996920I-1000J0D01*
G01*
X1189500Y8826500D02*
G03*
X1189500Y8826500I-10000J0D01*
G01*
Y8318500D02*
G03*
X1189500Y8318500I-10000J0D01*
G01*
X7617000Y2061752D02*
X8517000D01*
X7617000Y1045752D02*
X8517000D01*
X6400000Y2375000D02*
X7100000D01*
Y2250000D02*
Y2375000D01*
Y1624080D02*
Y1750000D01*
X6400000Y1624080D02*
Y2375000D01*
Y1624080D02*
X7100000D01*
X6400000Y3625000D02*
X7100000D01*
Y3500000D02*
Y3625000D01*
Y2874080D02*
Y3000000D01*
X6400000Y2874080D02*
Y3625000D01*
Y2874080D02*
X7100000D01*
X6400000Y4875000D02*
X7100000D01*
Y4750000D02*
Y4875000D01*
Y4124080D02*
Y4250000D01*
X6400000Y4124080D02*
Y4875000D01*
Y4124080D02*
X7100000D01*
X6400000Y6125000D02*
X7100000D01*
Y6000000D02*
Y6125000D01*
Y5374080D02*
Y5500000D01*
X6400000Y5374080D02*
Y6125000D01*
Y5374080D02*
X7100000D01*
X4150000Y875000D02*
X4850000D01*
X4150000D02*
Y1000000D01*
Y1500000D02*
Y1625920D01*
X4850000Y875000D02*
Y1625920D01*
X4150000D02*
X4850000D01*
X4150000Y2125000D02*
X4850000D01*
X4150000D02*
Y2250000D01*
Y2750000D02*
Y2875920D01*
X4850000Y2125000D02*
Y2875920D01*
X4150000D02*
X4850000D01*
X4150000Y3375000D02*
X4850000D01*
X4150000D02*
Y3500000D01*
Y4000000D02*
Y4125920D01*
X4850000Y3375000D02*
Y4125920D01*
X4150000D02*
X4850000D01*
X4150000Y4625000D02*
X4850000D01*
X4150000D02*
Y4750000D01*
Y5250000D02*
Y5375920D01*
X4850000Y4625000D02*
Y5375920D01*
X4150000D02*
X4850000D01*
X2900000Y2375000D02*
X3600000D01*
Y2250000D02*
Y2375000D01*
Y1624080D02*
Y1750000D01*
X2900000Y1624080D02*
Y2375000D01*
Y1624080D02*
X3600000D01*
X2900000Y3625000D02*
X3600000D01*
Y3500000D02*
Y3625000D01*
Y2874080D02*
Y3000000D01*
X2900000Y2874080D02*
Y3625000D01*
Y2874080D02*
X3600000D01*
X2900000Y4875000D02*
X3600000D01*
Y4750000D02*
Y4875000D01*
Y4124080D02*
Y4250000D01*
X2900000Y4124080D02*
Y4875000D01*
Y4124080D02*
X3600000D01*
X2900000Y6125000D02*
X3600000D01*
Y6000000D02*
Y6125000D01*
Y5374080D02*
Y5500000D01*
X2900000Y5374080D02*
Y6125000D01*
Y5374080D02*
X3600000D01*
X650000Y875000D02*
X1350000D01*
X650000D02*
Y1000000D01*
Y1500000D02*
Y1625920D01*
X1350000Y875000D02*
Y1625920D01*
X650000D02*
X1350000D01*
X650000Y2125000D02*
X1350000D01*
X650000D02*
Y2250000D01*
Y2750000D02*
Y2875920D01*
X1350000Y2125000D02*
Y2875920D01*
X650000D02*
X1350000D01*
X650000Y3375000D02*
X1350000D01*
X650000D02*
Y3500000D01*
Y4000000D02*
Y4125920D01*
X1350000Y3375000D02*
Y4125920D01*
X650000D02*
X1350000D01*
X650000Y4625000D02*
X1350000D01*
X650000D02*
Y4750000D01*
Y5250000D02*
Y5375920D01*
X1350000Y4625000D02*
Y5375920D01*
X650000D02*
X1350000D01*
X6400000Y1125000D02*
X7100000D01*
Y1000000D02*
Y1125000D01*
Y374080D02*
Y500000D01*
X6400000Y374080D02*
Y1125000D01*
Y374080D02*
X7100000D01*
X327000Y7720500D02*
X495000D01*
X327000Y8614500D02*
X495000D01*
X1244500Y8706000D02*
Y9201000D01*
Y8706000D02*
X7899500D01*
X1244500Y9201000D02*
X7899500D01*
Y8706000D02*
Y9201000D01*
X1244500Y8198000D02*
Y8693000D01*
Y8198000D02*
X7899500D01*
X1244500Y8693000D02*
X7899500D01*
Y8198000D02*
Y8693000D01*
D50*
X7431800Y1808000D02*
G03*
X7431800Y1808000I-12500J0D01*
G01*
X4578499Y6801001D02*
G03*
X4578499Y6801001I-1000J0D01*
G01*
D51*
X1200248Y7265001D02*
Y7385001D01*
X960248Y7265001D02*
Y7385001D01*
X4145000Y7720000D02*
X4305000D01*
X4145000Y7380000D02*
X4305000D01*
X2807500Y7215000D02*
X2920000D01*
X2807500Y7435000D02*
X2920000D01*
X3424400Y6716100D02*
X3544400D01*
X3424400Y6956100D02*
X3544400D01*
X5049400Y7773100D02*
Y7888100D01*
X4889400Y7773100D02*
Y7888100D01*
X2830140Y9277360D02*
X2945140D01*
X2830140Y9437360D02*
X2945140D01*
X1085000Y8272500D02*
Y8387500D01*
X925000Y8272500D02*
Y8387500D01*
X2860000Y7610000D02*
Y7740000D01*
X2540000Y7610000D02*
Y7740000D01*
D52*
X1284100Y7065500D02*
Y7116300D01*
X1334900D01*
X1284100Y6577820D02*
X1334900D01*
X1284100D02*
Y6628620D01*
X1822580Y6577820D02*
Y6628620D01*
X1771780Y6577820D02*
X1822580D01*
X1771780Y7116300D02*
X1822580D01*
Y7065500D02*
Y7116300D01*
X5340719Y6838420D02*
Y6889220D01*
X5289919D02*
X5340719D01*
X5289919Y6162780D02*
X5340719D01*
Y6213580D01*
X4614279Y6162780D02*
Y6213580D01*
Y6162780D02*
X4665079D01*
X4614279Y6889220D02*
X4665079D01*
X4614279Y6838420D02*
Y6889220D01*
D53*
X8145882Y2884139D02*
X8124223Y2862479D01*
Y2819159D01*
X8145882Y2797500D01*
X8232521D01*
X8254181Y2819159D01*
Y2862479D01*
X8232521Y2884139D01*
X8167542Y2949118D02*
Y2992437D01*
X8189202Y3014097D01*
X8254181D01*
Y2949118D01*
X8232521Y2927458D01*
X8210861Y2949118D01*
Y3014097D01*
X8254181Y3057416D02*
Y3100735D01*
Y3079076D01*
X8124223D01*
Y3057416D01*
X8254181Y3295672D02*
X8124223D01*
Y3360651D01*
X8145882Y3382311D01*
X8189202D01*
X8210861Y3360651D01*
Y3295672D01*
X8254181Y3447290D02*
Y3490609D01*
X8232521Y3512269D01*
X8189202D01*
X8167542Y3490609D01*
Y3447290D01*
X8189202Y3425630D01*
X8232521D01*
X8254181Y3447290D01*
Y3555589D02*
Y3598908D01*
Y3577248D01*
X8124223D01*
Y3555589D01*
X8167542Y3663887D02*
X8232521D01*
X8254181Y3685546D01*
Y3750525D01*
X8275840D01*
X8297500Y3728866D01*
Y3707206D01*
X8254181Y3750525D02*
X8167542D01*
X8254181Y3923803D02*
X8124223D01*
Y3988782D01*
X8145882Y4010442D01*
X8189202D01*
X8210861Y3988782D01*
Y3923803D01*
X8254181Y4075421D02*
Y4118740D01*
X8232521Y4140400D01*
X8189202D01*
X8167542Y4118740D01*
Y4075421D01*
X8189202Y4053761D01*
X8232521D01*
X8254181Y4075421D01*
Y4183719D02*
X8167542D01*
Y4205379D01*
X8189202Y4227039D01*
X8254181D01*
X8189202D01*
X8167542Y4248698D01*
X8189202Y4270358D01*
X8254181D01*
Y4335337D02*
Y4378656D01*
X8232521Y4400316D01*
X8189202D01*
X8167542Y4378656D01*
Y4335337D01*
X8189202Y4313677D01*
X8232521D01*
X8254181Y4335337D01*
Y4443635D02*
X8167542D01*
Y4508614D01*
X8189202Y4530274D01*
X8254181D01*
X8167542Y4595253D02*
Y4638572D01*
X8189202Y4660232D01*
X8254181D01*
Y4595253D01*
X8232521Y4573593D01*
X8210861Y4595253D01*
Y4660232D01*
X8297500Y7435126D02*
Y7348487D01*
X8210861Y7435126D01*
X8189202D01*
X8167542Y7413466D01*
Y7370147D01*
X8189202Y7348487D01*
Y7478445D02*
X8167542Y7500105D01*
Y7543424D01*
X8189202Y7565084D01*
X8275840D01*
X8297500Y7543424D01*
Y7500105D01*
X8275840Y7478445D01*
X8189202D01*
X8297500Y7695042D02*
Y7608403D01*
X8210861Y7695042D01*
X8189202D01*
X8167542Y7673382D01*
Y7630063D01*
X8189202Y7608403D01*
Y7738361D02*
X8167542Y7760021D01*
Y7803341D01*
X8189202Y7825000D01*
X8210861D01*
X8232521Y7803341D01*
Y7781681D01*
Y7803341D01*
X8254181Y7825000D01*
X8275840D01*
X8297500Y7803341D01*
Y7760021D01*
X8275840Y7738361D01*
D54*
X7780081Y3012435D02*
X7730097Y2962451D01*
Y2862484D01*
X7780081Y2812500D01*
X7980016D01*
X8030000Y2862484D01*
Y2962451D01*
X7980016Y3012435D01*
X7830065Y3112403D02*
X7980016D01*
X8030000Y3162387D01*
Y3312338D01*
X7830065D01*
X7730097Y3412306D02*
X8030000D01*
Y3562257D01*
X7980016Y3612241D01*
X7930033D01*
X7880049D01*
X7830065Y3562257D01*
Y3412306D01*
X8030000Y3862160D02*
Y3762192D01*
X7980016Y3712208D01*
X7880049D01*
X7830065Y3762192D01*
Y3862160D01*
X7880049Y3912144D01*
X7930033D01*
Y3712208D01*
X7780081Y4212047D02*
X7730097Y4162063D01*
Y4062095D01*
X7780081Y4012111D01*
X7830065D01*
X7880049Y4062095D01*
Y4162063D01*
X7930033Y4212047D01*
X7980016D01*
X8030000Y4162063D01*
Y4062095D01*
X7980016Y4012111D01*
X7730097Y4312014D02*
Y4511950D01*
Y4411982D01*
X8030000D01*
X7730097Y4811852D02*
Y4611917D01*
X8030000D01*
Y4811852D01*
X7880049Y4611917D02*
Y4711885D01*
X8030000Y4911820D02*
X7730097D01*
Y5061771D01*
X7780081Y5111755D01*
X7880049D01*
X7930033Y5061771D01*
Y4911820D01*
X8030000Y5511626D02*
X7730097D01*
Y5661577D01*
X7780081Y5711561D01*
X7880049D01*
X7930033Y5661577D01*
Y5511626D01*
Y5611593D02*
X8030000Y5711561D01*
Y5961480D02*
Y5861513D01*
X7980016Y5811529D01*
X7880049D01*
X7830065Y5861513D01*
Y5961480D01*
X7880049Y6011464D01*
X7930033D01*
Y5811529D01*
X8030000Y6111432D02*
Y6261383D01*
X7980016Y6311367D01*
X7930033Y6261383D01*
Y6161415D01*
X7880049Y6111432D01*
X7830065Y6161415D01*
Y6311367D01*
X8030000Y6561286D02*
Y6461318D01*
X7980016Y6411334D01*
X7880049D01*
X7830065Y6461318D01*
Y6561286D01*
X7880049Y6611270D01*
X7930033D01*
Y6411334D01*
X7830065Y6761221D02*
Y6861189D01*
X7880049Y6911173D01*
X8030000D01*
Y6761221D01*
X7980016Y6711237D01*
X7930033Y6761221D01*
Y6911173D01*
X7830065Y7011140D02*
X8030000D01*
X7930033D01*
X7880049Y7061124D01*
X7830065Y7111108D01*
Y7161092D01*
Y7510978D02*
Y7361027D01*
X7880049Y7311043D01*
X7980016D01*
X8030000Y7361027D01*
Y7510978D01*
X7730097Y7610946D02*
X8030000D01*
X7880049D01*
X7830065Y7660930D01*
Y7760897D01*
X7880049Y7810881D01*
X8030000D01*
D55*
X6479507Y2588219D02*
X6454115Y2613611D01*
X6403332D01*
X6377940Y2588219D01*
Y2562827D01*
X6403332Y2537435D01*
X6454115D01*
X6479507Y2512043D01*
Y2486652D01*
X6454115Y2461260D01*
X6403332D01*
X6377940Y2486652D01*
X6631858Y2613611D02*
X6530291D01*
Y2461260D01*
X6631858D01*
X6530291Y2537435D02*
X6581074D01*
X6682641Y2461260D02*
Y2613611D01*
X6784209Y2461260D01*
Y2613611D01*
X6936559Y2588219D02*
X6911168Y2613611D01*
X6860384D01*
X6834992Y2588219D01*
Y2562827D01*
X6860384Y2537435D01*
X6911168D01*
X6936559Y2512043D01*
Y2486652D01*
X6911168Y2461260D01*
X6860384D01*
X6834992Y2486652D01*
X6987343Y2461260D02*
X7038126D01*
X7012735D01*
Y2613611D01*
X6987343Y2588219D01*
X7215869Y2613611D02*
X7114302D01*
Y2537435D01*
X7165085Y2562827D01*
X7190477D01*
X7215869Y2537435D01*
Y2486652D01*
X7190477Y2461260D01*
X7139694D01*
X7114302Y2486652D01*
X6479507Y3837899D02*
X6454115Y3863291D01*
X6403332D01*
X6377940Y3837899D01*
Y3812507D01*
X6403332Y3787115D01*
X6454115D01*
X6479507Y3761723D01*
Y3736332D01*
X6454115Y3710940D01*
X6403332D01*
X6377940Y3736332D01*
X6631858Y3863291D02*
X6530291D01*
Y3710940D01*
X6631858D01*
X6530291Y3787115D02*
X6581074D01*
X6682641Y3710940D02*
Y3863291D01*
X6784209Y3710940D01*
Y3863291D01*
X6936559Y3837899D02*
X6911168Y3863291D01*
X6860384D01*
X6834992Y3837899D01*
Y3812507D01*
X6860384Y3787115D01*
X6911168D01*
X6936559Y3761723D01*
Y3736332D01*
X6911168Y3710940D01*
X6860384D01*
X6834992Y3736332D01*
X6987343Y3710940D02*
X7038126D01*
X7012735D01*
Y3863291D01*
X6987343Y3837899D01*
X7190477Y3710940D02*
Y3863291D01*
X7114302Y3787115D01*
X7215869D01*
X6479507Y5087579D02*
X6454115Y5112971D01*
X6403332D01*
X6377940Y5087579D01*
Y5062187D01*
X6403332Y5036795D01*
X6454115D01*
X6479507Y5011403D01*
Y4986012D01*
X6454115Y4960620D01*
X6403332D01*
X6377940Y4986012D01*
X6631858Y5112971D02*
X6530291D01*
Y4960620D01*
X6631858D01*
X6530291Y5036795D02*
X6581074D01*
X6682641Y4960620D02*
Y5112971D01*
X6784209Y4960620D01*
Y5112971D01*
X6936559Y5087579D02*
X6911168Y5112971D01*
X6860384D01*
X6834992Y5087579D01*
Y5062187D01*
X6860384Y5036795D01*
X6911168D01*
X6936559Y5011403D01*
Y4986012D01*
X6911168Y4960620D01*
X6860384D01*
X6834992Y4986012D01*
X6987343Y4960620D02*
X7038126D01*
X7012735D01*
Y5112971D01*
X6987343Y5087579D01*
X7114302D02*
X7139694Y5112971D01*
X7190477D01*
X7215869Y5087579D01*
Y5062187D01*
X7190477Y5036795D01*
X7165085D01*
X7190477D01*
X7215869Y5011403D01*
Y4986012D01*
X7190477Y4960620D01*
X7139694D01*
X7114302Y4986012D01*
X6479507Y6337259D02*
X6454115Y6362651D01*
X6403332D01*
X6377940Y6337259D01*
Y6311867D01*
X6403332Y6286475D01*
X6454115D01*
X6479507Y6261083D01*
Y6235692D01*
X6454115Y6210300D01*
X6403332D01*
X6377940Y6235692D01*
X6631858Y6362651D02*
X6530291D01*
Y6210300D01*
X6631858D01*
X6530291Y6286475D02*
X6581074D01*
X6682641Y6210300D02*
Y6362651D01*
X6784209Y6210300D01*
Y6362651D01*
X6936559Y6337259D02*
X6911168Y6362651D01*
X6860384D01*
X6834992Y6337259D01*
Y6311867D01*
X6860384Y6286475D01*
X6911168D01*
X6936559Y6261083D01*
Y6235692D01*
X6911168Y6210300D01*
X6860384D01*
X6834992Y6235692D01*
X6987343Y6210300D02*
X7038126D01*
X7012735D01*
Y6362651D01*
X6987343Y6337259D01*
X7215869Y6210300D02*
X7114302D01*
X7215869Y6311867D01*
Y6337259D01*
X7190477Y6362651D01*
X7139694D01*
X7114302Y6337259D01*
X4160487Y1838919D02*
X4135095Y1864311D01*
X4084312D01*
X4058920Y1838919D01*
Y1813527D01*
X4084312Y1788135D01*
X4135095D01*
X4160487Y1762743D01*
Y1737352D01*
X4135095Y1711960D01*
X4084312D01*
X4058920Y1737352D01*
X4312838Y1864311D02*
X4211271D01*
Y1711960D01*
X4312838D01*
X4211271Y1788135D02*
X4262054D01*
X4363621Y1711960D02*
Y1864311D01*
X4465189Y1711960D01*
Y1864311D01*
X4617539Y1838919D02*
X4592148Y1864311D01*
X4541364D01*
X4515972Y1838919D01*
Y1813527D01*
X4541364Y1788135D01*
X4592148D01*
X4617539Y1762743D01*
Y1737352D01*
X4592148Y1711960D01*
X4541364D01*
X4515972Y1737352D01*
X4668323Y1711960D02*
X4719106D01*
X4693715D01*
Y1864311D01*
X4668323Y1838919D01*
X4795282Y1711960D02*
X4846065D01*
X4820674D01*
Y1864311D01*
X4795282Y1838919D01*
X4135087Y3088599D02*
X4109695Y3113991D01*
X4058912D01*
X4033520Y3088599D01*
Y3063207D01*
X4058912Y3037815D01*
X4109695D01*
X4135087Y3012423D01*
Y2987032D01*
X4109695Y2961640D01*
X4058912D01*
X4033520Y2987032D01*
X4287438Y3113991D02*
X4185871D01*
Y2961640D01*
X4287438D01*
X4185871Y3037815D02*
X4236654D01*
X4338221Y2961640D02*
Y3113991D01*
X4439789Y2961640D01*
Y3113991D01*
X4592139Y3088599D02*
X4566748Y3113991D01*
X4515964D01*
X4490572Y3088599D01*
Y3063207D01*
X4515964Y3037815D01*
X4566748D01*
X4592139Y3012423D01*
Y2987032D01*
X4566748Y2961640D01*
X4515964D01*
X4490572Y2987032D01*
X4642923Y2961640D02*
X4693706D01*
X4668315D01*
Y3113991D01*
X4642923Y3088599D01*
X4769882D02*
X4795274Y3113991D01*
X4846057D01*
X4871449Y3088599D01*
Y2987032D01*
X4846057Y2961640D01*
X4795274D01*
X4769882Y2987032D01*
Y3088599D01*
X4198587Y4338279D02*
X4173195Y4363671D01*
X4122412D01*
X4097020Y4338279D01*
Y4312887D01*
X4122412Y4287495D01*
X4173195D01*
X4198587Y4262103D01*
Y4236712D01*
X4173195Y4211320D01*
X4122412D01*
X4097020Y4236712D01*
X4350938Y4363671D02*
X4249371D01*
Y4211320D01*
X4350938D01*
X4249371Y4287495D02*
X4300154D01*
X4401721Y4211320D02*
Y4363671D01*
X4503289Y4211320D01*
Y4363671D01*
X4655639Y4338279D02*
X4630248Y4363671D01*
X4579464D01*
X4554072Y4338279D01*
Y4312887D01*
X4579464Y4287495D01*
X4630248D01*
X4655639Y4262103D01*
Y4236712D01*
X4630248Y4211320D01*
X4579464D01*
X4554072Y4236712D01*
X4706423D02*
X4731815Y4211320D01*
X4782598D01*
X4807990Y4236712D01*
Y4338279D01*
X4782598Y4363671D01*
X4731815D01*
X4706423Y4338279D01*
Y4312887D01*
X4731815Y4287495D01*
X4807990D01*
X4198587Y5587959D02*
X4173195Y5613351D01*
X4122412D01*
X4097020Y5587959D01*
Y5562567D01*
X4122412Y5537175D01*
X4173195D01*
X4198587Y5511783D01*
Y5486392D01*
X4173195Y5461000D01*
X4122412D01*
X4097020Y5486392D01*
X4350938Y5613351D02*
X4249371D01*
Y5461000D01*
X4350938D01*
X4249371Y5537175D02*
X4300154D01*
X4401721Y5461000D02*
Y5613351D01*
X4503289Y5461000D01*
Y5613351D01*
X4655639Y5587959D02*
X4630248Y5613351D01*
X4579464D01*
X4554072Y5587959D01*
Y5562567D01*
X4579464Y5537175D01*
X4630248D01*
X4655639Y5511783D01*
Y5486392D01*
X4630248Y5461000D01*
X4579464D01*
X4554072Y5486392D01*
X4706423Y5587959D02*
X4731815Y5613351D01*
X4782598D01*
X4807990Y5587959D01*
Y5562567D01*
X4782598Y5537175D01*
X4807990Y5511783D01*
Y5486392D01*
X4782598Y5461000D01*
X4731815D01*
X4706423Y5486392D01*
Y5511783D01*
X4731815Y5537175D01*
X4706423Y5562567D01*
Y5587959D01*
X4731815Y5537175D02*
X4782598D01*
X3042887Y2588219D02*
X3017495Y2613611D01*
X2966712D01*
X2941320Y2588219D01*
Y2562827D01*
X2966712Y2537435D01*
X3017495D01*
X3042887Y2512043D01*
Y2486652D01*
X3017495Y2461260D01*
X2966712D01*
X2941320Y2486652D01*
X3195238Y2613611D02*
X3093671D01*
Y2461260D01*
X3195238D01*
X3093671Y2537435D02*
X3144454D01*
X3246021Y2461260D02*
Y2613611D01*
X3347589Y2461260D01*
Y2613611D01*
X3499939Y2588219D02*
X3474548Y2613611D01*
X3423764D01*
X3398372Y2588219D01*
Y2562827D01*
X3423764Y2537435D01*
X3474548D01*
X3499939Y2512043D01*
Y2486652D01*
X3474548Y2461260D01*
X3423764D01*
X3398372Y2486652D01*
X3550723Y2613611D02*
X3652290D01*
Y2588219D01*
X3550723Y2486652D01*
Y2461260D01*
X3042887Y3837899D02*
X3017495Y3863291D01*
X2966712D01*
X2941320Y3837899D01*
Y3812507D01*
X2966712Y3787115D01*
X3017495D01*
X3042887Y3761723D01*
Y3736332D01*
X3017495Y3710940D01*
X2966712D01*
X2941320Y3736332D01*
X3195238Y3863291D02*
X3093671D01*
Y3710940D01*
X3195238D01*
X3093671Y3787115D02*
X3144454D01*
X3246021Y3710940D02*
Y3863291D01*
X3347589Y3710940D01*
Y3863291D01*
X3499939Y3837899D02*
X3474548Y3863291D01*
X3423764D01*
X3398372Y3837899D01*
Y3812507D01*
X3423764Y3787115D01*
X3474548D01*
X3499939Y3761723D01*
Y3736332D01*
X3474548Y3710940D01*
X3423764D01*
X3398372Y3736332D01*
X3652290Y3863291D02*
X3601506Y3837899D01*
X3550723Y3787115D01*
Y3736332D01*
X3576115Y3710940D01*
X3626898D01*
X3652290Y3736332D01*
Y3761723D01*
X3626898Y3787115D01*
X3550723D01*
X3042887Y5087579D02*
X3017495Y5112971D01*
X2966712D01*
X2941320Y5087579D01*
Y5062187D01*
X2966712Y5036795D01*
X3017495D01*
X3042887Y5011403D01*
Y4986012D01*
X3017495Y4960620D01*
X2966712D01*
X2941320Y4986012D01*
X3195238Y5112971D02*
X3093671D01*
Y4960620D01*
X3195238D01*
X3093671Y5036795D02*
X3144454D01*
X3246021Y4960620D02*
Y5112971D01*
X3347589Y4960620D01*
Y5112971D01*
X3499939Y5087579D02*
X3474548Y5112971D01*
X3423764D01*
X3398372Y5087579D01*
Y5062187D01*
X3423764Y5036795D01*
X3474548D01*
X3499939Y5011403D01*
Y4986012D01*
X3474548Y4960620D01*
X3423764D01*
X3398372Y4986012D01*
X3652290Y5112971D02*
X3550723D01*
Y5036795D01*
X3601506Y5062187D01*
X3626898D01*
X3652290Y5036795D01*
Y4986012D01*
X3626898Y4960620D01*
X3576115D01*
X3550723Y4986012D01*
X3042887Y6337259D02*
X3017495Y6362651D01*
X2966712D01*
X2941320Y6337259D01*
Y6311867D01*
X2966712Y6286475D01*
X3017495D01*
X3042887Y6261083D01*
Y6235692D01*
X3017495Y6210300D01*
X2966712D01*
X2941320Y6235692D01*
X3195238Y6362651D02*
X3093671D01*
Y6210300D01*
X3195238D01*
X3093671Y6286475D02*
X3144454D01*
X3246021Y6210300D02*
Y6362651D01*
X3347589Y6210300D01*
Y6362651D01*
X3499939Y6337259D02*
X3474548Y6362651D01*
X3423764D01*
X3398372Y6337259D01*
Y6311867D01*
X3423764Y6286475D01*
X3474548D01*
X3499939Y6261083D01*
Y6235692D01*
X3474548Y6210300D01*
X3423764D01*
X3398372Y6235692D01*
X3626898Y6210300D02*
Y6362651D01*
X3550723Y6286475D01*
X3652290D01*
X698467Y1838919D02*
X673075Y1864311D01*
X622292D01*
X596900Y1838919D01*
Y1813527D01*
X622292Y1788135D01*
X673075D01*
X698467Y1762743D01*
Y1737352D01*
X673075Y1711960D01*
X622292D01*
X596900Y1737352D01*
X850818Y1864311D02*
X749251D01*
Y1711960D01*
X850818D01*
X749251Y1788135D02*
X800034D01*
X901601Y1711960D02*
Y1864311D01*
X1003169Y1711960D01*
Y1864311D01*
X1155519Y1838919D02*
X1130128Y1864311D01*
X1079344D01*
X1053952Y1838919D01*
Y1813527D01*
X1079344Y1788135D01*
X1130128D01*
X1155519Y1762743D01*
Y1737352D01*
X1130128Y1711960D01*
X1079344D01*
X1053952Y1737352D01*
X1206303Y1838919D02*
X1231695Y1864311D01*
X1282478D01*
X1307870Y1838919D01*
Y1813527D01*
X1282478Y1788135D01*
X1257086D01*
X1282478D01*
X1307870Y1762743D01*
Y1737352D01*
X1282478Y1711960D01*
X1231695D01*
X1206303Y1737352D01*
X698467Y3088599D02*
X673075Y3113991D01*
X622292D01*
X596900Y3088599D01*
Y3063207D01*
X622292Y3037815D01*
X673075D01*
X698467Y3012423D01*
Y2987032D01*
X673075Y2961640D01*
X622292D01*
X596900Y2987032D01*
X850818Y3113991D02*
X749251D01*
Y2961640D01*
X850818D01*
X749251Y3037815D02*
X800034D01*
X901601Y2961640D02*
Y3113991D01*
X1003169Y2961640D01*
Y3113991D01*
X1155519Y3088599D02*
X1130128Y3113991D01*
X1079344D01*
X1053952Y3088599D01*
Y3063207D01*
X1079344Y3037815D01*
X1130128D01*
X1155519Y3012423D01*
Y2987032D01*
X1130128Y2961640D01*
X1079344D01*
X1053952Y2987032D01*
X1307870Y2961640D02*
X1206303D01*
X1307870Y3063207D01*
Y3088599D01*
X1282478Y3113991D01*
X1231695D01*
X1206303Y3088599D01*
X723867Y4338279D02*
X698475Y4363671D01*
X647692D01*
X622300Y4338279D01*
Y4312887D01*
X647692Y4287495D01*
X698475D01*
X723867Y4262103D01*
Y4236712D01*
X698475Y4211320D01*
X647692D01*
X622300Y4236712D01*
X876218Y4363671D02*
X774651D01*
Y4211320D01*
X876218D01*
X774651Y4287495D02*
X825434D01*
X927001Y4211320D02*
Y4363671D01*
X1028569Y4211320D01*
Y4363671D01*
X1180919Y4338279D02*
X1155528Y4363671D01*
X1104744D01*
X1079352Y4338279D01*
Y4312887D01*
X1104744Y4287495D01*
X1155528D01*
X1180919Y4262103D01*
Y4236712D01*
X1155528Y4211320D01*
X1104744D01*
X1079352Y4236712D01*
X1231703Y4211320D02*
X1282486D01*
X1257095D01*
Y4363671D01*
X1231703Y4338279D01*
X698467Y5587959D02*
X673075Y5613351D01*
X622292D01*
X596900Y5587959D01*
Y5562567D01*
X622292Y5537175D01*
X673075D01*
X698467Y5511783D01*
Y5486392D01*
X673075Y5461000D01*
X622292D01*
X596900Y5486392D01*
X850818Y5613351D02*
X749251D01*
Y5461000D01*
X850818D01*
X749251Y5537175D02*
X800034D01*
X901601Y5461000D02*
Y5613351D01*
X1003169Y5461000D01*
Y5613351D01*
X1155519Y5587959D02*
X1130128Y5613351D01*
X1079344D01*
X1053952Y5587959D01*
Y5562567D01*
X1079344Y5537175D01*
X1130128D01*
X1155519Y5511783D01*
Y5486392D01*
X1130128Y5461000D01*
X1079344D01*
X1053952Y5486392D01*
X1206303Y5587959D02*
X1231695Y5613351D01*
X1282478D01*
X1307870Y5587959D01*
Y5486392D01*
X1282478Y5461000D01*
X1231695D01*
X1206303Y5486392D01*
Y5587959D01*
X6365240Y1363931D02*
Y1211580D01*
Y1287755D01*
X6466807D01*
Y1363931D01*
Y1211580D01*
X6619158Y1363931D02*
X6517591D01*
Y1211580D01*
X6619158D01*
X6517591Y1287755D02*
X6568374D01*
X6669941Y1211580D02*
Y1313147D01*
X6720725Y1363931D01*
X6771509Y1313147D01*
Y1211580D01*
Y1287755D01*
X6669941D01*
X6822292Y1363931D02*
X6923859D01*
X6873076D01*
Y1211580D01*
X7076210Y1363931D02*
X6974643D01*
Y1211580D01*
X7076210D01*
X6974643Y1287755D02*
X7025426D01*
X7126994Y1211580D02*
Y1363931D01*
X7203169D01*
X7228561Y1338539D01*
Y1287755D01*
X7203169Y1262363D01*
X7126994D01*
X7177777D02*
X7228561Y1211580D01*
%TF.MD5,078cd1a35243b4f48084236a85c7cd73*%
M02*
