%TF.GenerationSoftware,Altium Limited,Altium Designer,24.0.1 (36)*%
G04 Layer_Color=8388736*
%FSLAX45Y45*%
%MOMM*%
%TF.SameCoordinates,35AB2F61-03EE-4C9E-862A-60B4A91D9B88*%
%TF.FilePolarity,Negative*%
%TF.FileFunction,Soldermask,Top*%
%TF.Part,Single*%
G01*
G75*
%TA.AperFunction,ComponentPad*%
%ADD44R,1.30000X1.30000*%
%ADD45C,1.30000*%
%TA.AperFunction,SMDPad,CuDef*%
%ADD56R,4.60000X4.60000*%
%ADD57R,0.35000X0.78000*%
%ADD58R,0.78000X0.35000*%
G04:AMPARAMS|DCode=59|XSize=0.35mm|YSize=0.78mm|CornerRadius=0.05625mm|HoleSize=0mm|Usage=FLASHONLY|Rotation=90.000|XOffset=0mm|YOffset=0mm|HoleType=Round|Shape=RoundedRectangle|*
%AMROUNDEDRECTD59*
21,1,0.35000,0.66750,0,0,90.0*
21,1,0.23750,0.78000,0,0,90.0*
1,1,0.11250,0.33375,0.11875*
1,1,0.11250,0.33375,-0.11875*
1,1,0.11250,-0.33375,-0.11875*
1,1,0.11250,-0.33375,0.11875*
%
%ADD59ROUNDEDRECTD59*%
%ADD60R,0.50000X1.29000*%
%ADD61R,0.70000X0.75000*%
%ADD62R,1.10000X1.05000*%
%ADD63R,0.75000X0.70000*%
%ADD64R,1.29000X0.50000*%
%ADD65R,1.05000X0.40000*%
%ADD66R,0.40000X1.05000*%
%ADD67R,3.45000X3.45000*%
%ADD68R,1.50000X1.10000*%
%ADD69R,1.05000X1.10000*%
%ADD70R,1.31000X0.69000*%
%TA.AperFunction,ConnectorPad*%
%ADD71R,1.24000X0.70000*%
%ADD72R,1.24000X0.40000*%
%TA.AperFunction,SMDPad,CuDef*%
%ADD73R,2.80000X1.45000*%
%ADD74R,0.70000X1.30000*%
%ADD75R,1.01440X1.31920*%
%TA.AperFunction,WasherPad*%
%ADD76C,1.59600*%
%TA.AperFunction,ComponentPad*%
%ADD77R,1.60000X1.60000*%
%ADD78R,1.60800X1.60800*%
%ADD79C,1.60800*%
%ADD80R,1.60000X1.60000*%
%ADD81O,1.80000X1.00000*%
%ADD82O,2.10000X1.00000*%
%ADD83C,0.70000*%
%TA.AperFunction,ViaPad*%
%ADD84C,6.45000*%
%TA.AperFunction,ComponentPad*%
%ADD85C,1.47000*%
%ADD86R,1.47000X1.47000*%
%TA.AperFunction,ViaPad*%
%ADD87C,0.80000*%
%ADD88C,0.70000*%
%ADD89C,0.80000*%
D44*
X7559000Y1808000D02*
D03*
D45*
Y1300000D02*
D03*
X8575000D02*
D03*
Y1808000D02*
D03*
D56*
X4977499Y6526001D02*
D03*
D57*
X5252499Y6189501D02*
D03*
X5052499D02*
D03*
X4902499D02*
D03*
X5102499D02*
D03*
X5152499D02*
D03*
X5202499D02*
D03*
X4702500D02*
D03*
X4752500D02*
D03*
X4802500D02*
D03*
X4852500D02*
D03*
X5002499D02*
D03*
X4952499D02*
D03*
Y6862500D02*
D03*
X4852500D02*
D03*
X4802500D02*
D03*
X4752500D02*
D03*
X5052499D02*
D03*
X4902499D02*
D03*
X5102499D02*
D03*
X5152499D02*
D03*
X5202499D02*
D03*
X4702500D02*
D03*
X5002499D02*
D03*
X5252499D02*
D03*
D58*
X5313999Y6251001D02*
D03*
Y6801000D02*
D03*
Y6751000D02*
D03*
Y6401001D02*
D03*
Y6451001D02*
D03*
Y6501001D02*
D03*
Y6601001D02*
D03*
Y6651000D02*
D03*
Y6701000D02*
D03*
Y6351001D02*
D03*
Y6301001D02*
D03*
X4641000Y6651000D02*
D03*
Y6601001D02*
D03*
Y6501001D02*
D03*
Y6551001D02*
D03*
Y6701000D02*
D03*
Y6751000D02*
D03*
Y6251001D02*
D03*
Y6301001D02*
D03*
Y6351001D02*
D03*
Y6401001D02*
D03*
Y6451001D02*
D03*
Y6801000D02*
D03*
D59*
X5313999Y6551001D02*
D03*
D60*
X1145248Y7421001D02*
D03*
X1080248D02*
D03*
X1015248D02*
D03*
Y7229001D02*
D03*
X1080248D02*
D03*
X1145248D02*
D03*
D61*
X5200000Y6067500D02*
D03*
Y5982500D02*
D03*
X5109400Y7745600D02*
D03*
Y7830600D02*
D03*
X3612500Y7202500D02*
D03*
Y7117500D02*
D03*
X3820000Y6135000D02*
D03*
Y6220000D02*
D03*
X3232500Y6845000D02*
D03*
Y6760000D02*
D03*
X360000Y8822500D02*
D03*
Y8737500D02*
D03*
X460000Y8822500D02*
D03*
Y8737500D02*
D03*
X4650000Y6982500D02*
D03*
Y7067500D02*
D03*
X5002500Y6067500D02*
D03*
Y5982500D02*
D03*
X4900000Y7067500D02*
D03*
Y6982500D02*
D03*
X4802500Y7067500D02*
D03*
Y6982500D02*
D03*
X7560000Y2222500D02*
D03*
Y2137500D02*
D03*
X2460000Y7567500D02*
D03*
Y7652500D02*
D03*
X3775000Y1790000D02*
D03*
Y1875000D02*
D03*
Y3040000D02*
D03*
Y3125000D02*
D03*
Y4290000D02*
D03*
Y4375000D02*
D03*
Y5540000D02*
D03*
Y5625000D02*
D03*
X475000Y1290000D02*
D03*
Y1375000D02*
D03*
Y2540000D02*
D03*
Y2625000D02*
D03*
Y3790000D02*
D03*
Y3875000D02*
D03*
Y5040000D02*
D03*
Y5125000D02*
D03*
X7275000Y1790000D02*
D03*
Y1875000D02*
D03*
Y3040000D02*
D03*
Y3125000D02*
D03*
Y4290000D02*
D03*
Y4375000D02*
D03*
Y5540000D02*
D03*
Y5625000D02*
D03*
X3975000Y1290000D02*
D03*
Y1375000D02*
D03*
Y2540000D02*
D03*
Y2625000D02*
D03*
Y3790000D02*
D03*
Y3875000D02*
D03*
Y5040000D02*
D03*
Y5125000D02*
D03*
D62*
X4969400Y7830600D02*
D03*
Y7650600D02*
D03*
X1005000Y8150000D02*
D03*
Y8330000D02*
D03*
D63*
X3480000Y6995000D02*
D03*
X3395000D02*
D03*
X1288340Y6489560D02*
D03*
X1373340D02*
D03*
X1568340D02*
D03*
X1483340D02*
D03*
X1373340Y6382060D02*
D03*
X1288340D02*
D03*
X1195840Y6697060D02*
D03*
X1110840D02*
D03*
X3134360Y9357360D02*
D03*
X3049360D02*
D03*
X5272500Y6965000D02*
D03*
X5357500D02*
D03*
X4350000Y6300000D02*
D03*
X4435000D02*
D03*
X4350000Y6400000D02*
D03*
X4435000D02*
D03*
X1002500Y8457500D02*
D03*
X917500D02*
D03*
D64*
X3580400Y6901100D02*
D03*
Y6836100D02*
D03*
Y6771100D02*
D03*
X3388400D02*
D03*
Y6836100D02*
D03*
Y6901100D02*
D03*
D65*
X1313340Y6997059D02*
D03*
Y6947060D02*
D03*
Y6897060D02*
D03*
Y6847060D02*
D03*
Y6797060D02*
D03*
Y6747060D02*
D03*
Y6697060D02*
D03*
X1793340D02*
D03*
Y6747060D02*
D03*
Y6797060D02*
D03*
Y6847060D02*
D03*
Y6897060D02*
D03*
Y6947060D02*
D03*
Y6997059D02*
D03*
D66*
X1403340Y6607060D02*
D03*
X1453340D02*
D03*
X1503340D02*
D03*
X1553340D02*
D03*
X1603340D02*
D03*
X1653340D02*
D03*
X1703340D02*
D03*
Y7087059D02*
D03*
X1653340D02*
D03*
X1603340D02*
D03*
X1553340D02*
D03*
X1503340D02*
D03*
X1453340D02*
D03*
X1403340D02*
D03*
D67*
X1553340Y6847059D02*
D03*
D68*
X4575000Y7645000D02*
D03*
Y7822800D02*
D03*
X4507500Y6872200D02*
D03*
Y7050000D02*
D03*
X3850000Y7461100D02*
D03*
Y7638900D02*
D03*
D69*
X2887640Y9357360D02*
D03*
X2707640D02*
D03*
D70*
X4350500Y7645000D02*
D03*
Y7455000D02*
D03*
X4099500D02*
D03*
Y7550000D02*
D03*
Y7645000D02*
D03*
D71*
X685000Y7847500D02*
D03*
Y7927500D02*
D03*
Y8407500D02*
D03*
Y8487500D02*
D03*
D72*
Y7992500D02*
D03*
Y8042500D02*
D03*
Y8092500D02*
D03*
Y8142500D02*
D03*
Y8342500D02*
D03*
Y8292500D02*
D03*
Y8242500D02*
D03*
Y8192500D02*
D03*
D73*
X8575000Y2727500D02*
D03*
Y2272500D02*
D03*
D74*
X2700000Y7785000D02*
D03*
X2795000Y7565000D02*
D03*
X2605000D02*
D03*
D75*
X2863830Y7325000D02*
D03*
X2536170D02*
D03*
D76*
X8777500Y935000D02*
D03*
X277500Y9317500D02*
D03*
D77*
X3812500Y6390000D02*
D03*
D78*
X4150000Y4875000D02*
D03*
X650000Y1125000D02*
D03*
Y4875000D02*
D03*
Y3625000D02*
D03*
Y2375000D02*
D03*
X3600000Y4625000D02*
D03*
Y5875000D02*
D03*
Y2125000D02*
D03*
Y3375000D02*
D03*
X4150000Y3625000D02*
D03*
Y2375000D02*
D03*
Y1125000D02*
D03*
X7100000Y5875000D02*
D03*
Y4625000D02*
D03*
Y3375000D02*
D03*
Y2125000D02*
D03*
Y875000D02*
D03*
D79*
X4150000Y5125000D02*
D03*
X650000Y1375000D02*
D03*
Y5125000D02*
D03*
Y3875000D02*
D03*
Y2625000D02*
D03*
X3600000Y4375000D02*
D03*
Y5625000D02*
D03*
Y1875000D02*
D03*
Y3125000D02*
D03*
X4150000Y3875000D02*
D03*
Y2625000D02*
D03*
Y1375000D02*
D03*
X7100000Y5625000D02*
D03*
Y4375000D02*
D03*
Y3125000D02*
D03*
Y1875000D02*
D03*
Y625000D02*
D03*
D80*
X3812500Y7117500D02*
D03*
X1407500Y7757500D02*
D03*
X2496820Y9357500D02*
D03*
X7875000Y2225000D02*
D03*
X721360Y6037580D02*
D03*
X5957500Y6905000D02*
D03*
X5232500Y7507500D02*
D03*
D81*
X210000Y7735000D02*
D03*
Y8600000D02*
D03*
D82*
X627000Y7735000D02*
D03*
Y8600000D02*
D03*
D83*
X578000Y8456500D02*
D03*
Y7878500D02*
D03*
D84*
X8255000Y9080500D02*
D03*
X889000D02*
D03*
X8509000Y508000D02*
D03*
X508000D02*
D03*
D85*
X2159000Y9080500D02*
D03*
X3683000D02*
D03*
X2921000D02*
D03*
X2667000D02*
D03*
X2413000D02*
D03*
X3429000D02*
D03*
X1905000D02*
D03*
X1651000D02*
D03*
X3175000D02*
D03*
X1397000D02*
D03*
X6223000D02*
D03*
X6477000Y8826500D02*
D03*
X7493000Y9080500D02*
D03*
Y8826500D02*
D03*
X7239000Y9080500D02*
D03*
Y8826500D02*
D03*
X6985000Y9080500D02*
D03*
Y8826500D02*
D03*
X6731000Y9080500D02*
D03*
Y8826500D02*
D03*
X6477000Y9080500D02*
D03*
X7747000D02*
D03*
Y8826500D02*
D03*
X6223000D02*
D03*
X3175000D02*
D03*
X4445000D02*
D03*
X3683000D02*
D03*
X3937000D02*
D03*
X4191000D02*
D03*
X3429000D02*
D03*
X5969000D02*
D03*
X5715000D02*
D03*
X5461000D02*
D03*
X4699000D02*
D03*
X4953000D02*
D03*
X5207000D02*
D03*
X2159000D02*
D03*
X2921000D02*
D03*
X2667000D02*
D03*
X2413000D02*
D03*
X1905000D02*
D03*
X1651000D02*
D03*
X5207000Y9080500D02*
D03*
X5969000D02*
D03*
X5715000D02*
D03*
X5461000D02*
D03*
X4953000D02*
D03*
X4699000D02*
D03*
X4445000D02*
D03*
X4191000D02*
D03*
X3937000D02*
D03*
X2159000Y8572500D02*
D03*
X3683000D02*
D03*
X2921000D02*
D03*
X2667000D02*
D03*
X2413000D02*
D03*
X3429000D02*
D03*
X1905000D02*
D03*
X1651000D02*
D03*
X3175000D02*
D03*
X1397000D02*
D03*
X6223000D02*
D03*
X6477000Y8318500D02*
D03*
X7493000Y8572500D02*
D03*
Y8318500D02*
D03*
X7239000Y8572500D02*
D03*
Y8318500D02*
D03*
X6985000Y8572500D02*
D03*
Y8318500D02*
D03*
X6731000Y8572500D02*
D03*
Y8318500D02*
D03*
X6477000Y8572500D02*
D03*
X7747000D02*
D03*
Y8318500D02*
D03*
X6223000D02*
D03*
X3175000D02*
D03*
X4445000D02*
D03*
X3683000D02*
D03*
X3937000D02*
D03*
X4191000D02*
D03*
X3429000D02*
D03*
X5969000D02*
D03*
X5715000D02*
D03*
X5461000D02*
D03*
X4699000D02*
D03*
X4953000D02*
D03*
X5207000D02*
D03*
X2159000D02*
D03*
X2921000D02*
D03*
X2667000D02*
D03*
X2413000D02*
D03*
X1905000D02*
D03*
X1651000D02*
D03*
X5207000Y8572500D02*
D03*
X5969000D02*
D03*
X5715000D02*
D03*
X5461000D02*
D03*
X4953000D02*
D03*
X4699000D02*
D03*
X4445000D02*
D03*
X4191000D02*
D03*
X3937000D02*
D03*
D86*
X1397000Y8826500D02*
D03*
Y8318500D02*
D03*
D87*
X8760006Y2860003D02*
D03*
Y2460003D02*
D03*
Y2060002D02*
D03*
Y1660002D02*
D03*
X8660006Y1460002D02*
D03*
X8760006Y1260002D02*
D03*
X8660006Y1060002D02*
D03*
X8460006Y8660006D02*
D03*
Y8260006D02*
D03*
Y7860006D02*
D03*
Y7460005D02*
D03*
Y7060005D02*
D03*
Y6660005D02*
D03*
Y6260005D02*
D03*
Y5860005D02*
D03*
Y5460004D02*
D03*
Y5060004D02*
D03*
Y4660004D02*
D03*
Y4260004D02*
D03*
Y3860003D02*
D03*
Y3460003D02*
D03*
X8560006Y2460003D02*
D03*
X8460006Y1460002D02*
D03*
Y1060002D02*
D03*
X8260006Y8660006D02*
D03*
X8360006Y8460006D02*
D03*
X8260006Y8260006D02*
D03*
X8360006Y8060006D02*
D03*
X8260006Y7860006D02*
D03*
X8360006Y7660006D02*
D03*
X8260006Y7460005D02*
D03*
X8360006Y7260005D02*
D03*
X8260006Y7060005D02*
D03*
X8360006Y6860005D02*
D03*
X8260006Y6660005D02*
D03*
X8360006Y6460005D02*
D03*
X8260006Y6260005D02*
D03*
X8360006Y6060005D02*
D03*
X8260006Y5860005D02*
D03*
X8360006Y5660004D02*
D03*
X8260006Y5460004D02*
D03*
X8360006Y5260004D02*
D03*
X8260006Y5060004D02*
D03*
X8360006Y4860004D02*
D03*
X8260006Y4660004D02*
D03*
X8360006Y4460004D02*
D03*
X8260006Y4260004D02*
D03*
X8360006Y4060004D02*
D03*
X8260006Y3860003D02*
D03*
X8360006Y3660003D02*
D03*
X8260006Y3460003D02*
D03*
X8360006Y3260003D02*
D03*
Y2860003D02*
D03*
X8260006Y2660003D02*
D03*
X8360006Y2460003D02*
D03*
X8260006Y2260003D02*
D03*
X8360006Y2060002D02*
D03*
X8260006Y1860002D02*
D03*
X8360006Y1660002D02*
D03*
X8260006Y1460002D02*
D03*
X8360006Y1260002D02*
D03*
X8260006Y1060002D02*
D03*
X8060006Y8660006D02*
D03*
X8160006Y8460006D02*
D03*
X8060006Y8260006D02*
D03*
X8160006Y8060006D02*
D03*
X8060006Y7860006D02*
D03*
X8160006Y7660006D02*
D03*
X8060006Y7460005D02*
D03*
X8160006Y7260005D02*
D03*
X8060006Y7060005D02*
D03*
X8160006Y6860005D02*
D03*
X8060006Y6660005D02*
D03*
X8160006Y6460005D02*
D03*
X8060006Y6260005D02*
D03*
X8160006Y6060005D02*
D03*
X8060006Y5860005D02*
D03*
X8160006Y5660004D02*
D03*
X8060006Y5460004D02*
D03*
X8160006Y5260004D02*
D03*
X8060006Y5060004D02*
D03*
X8160006Y4860004D02*
D03*
X8060006Y4660004D02*
D03*
X8160006Y4460004D02*
D03*
X8060006Y4260004D02*
D03*
X8160006Y4060004D02*
D03*
X8060006Y3860003D02*
D03*
X8160006Y3660003D02*
D03*
X8060006Y3460003D02*
D03*
X8160006Y3260003D02*
D03*
Y2860003D02*
D03*
X8060006Y2660003D02*
D03*
X8160006Y2460003D02*
D03*
X8060006Y2260003D02*
D03*
X8160006Y2060002D02*
D03*
X8060006Y1860002D02*
D03*
X8160006Y1660002D02*
D03*
X8060006Y1460002D02*
D03*
X8160006Y1260002D02*
D03*
X8060006Y1060002D02*
D03*
X8160006Y860002D02*
D03*
X8060006Y660002D02*
D03*
Y260002D02*
D03*
X7960006Y8460006D02*
D03*
Y8060006D02*
D03*
X7860006Y7860006D02*
D03*
X7960006Y7660006D02*
D03*
X7860006Y7460005D02*
D03*
X7960006Y7260005D02*
D03*
X7860006Y7060005D02*
D03*
X7960006Y6860005D02*
D03*
X7860006Y6660005D02*
D03*
X7960006Y6460005D02*
D03*
X7860006Y6260005D02*
D03*
X7960006Y6060005D02*
D03*
X7860006Y5860005D02*
D03*
X7960006Y5660004D02*
D03*
X7860006Y5460004D02*
D03*
X7960006Y5260004D02*
D03*
X7860006Y5060004D02*
D03*
X7960006Y4860004D02*
D03*
X7860006Y4660004D02*
D03*
X7960006Y4460004D02*
D03*
X7860006Y4260004D02*
D03*
X7960006Y4060004D02*
D03*
X7860006Y3860003D02*
D03*
X7960006Y3660003D02*
D03*
X7860006Y3460003D02*
D03*
X7960006Y3260003D02*
D03*
Y2860003D02*
D03*
X7860006Y2660003D02*
D03*
X7960006Y2460003D02*
D03*
Y2060002D02*
D03*
X7860006Y1860002D02*
D03*
X7960006Y1660002D02*
D03*
X7860006Y1460002D02*
D03*
X7960006Y1260002D02*
D03*
X7860006Y1060002D02*
D03*
X7960006Y860002D02*
D03*
X7860006Y660002D02*
D03*
X7960006Y460002D02*
D03*
X7860006Y260002D02*
D03*
X7760006Y9260006D02*
D03*
Y8060006D02*
D03*
Y7660006D02*
D03*
Y7260005D02*
D03*
Y6860005D02*
D03*
Y6460005D02*
D03*
Y6060005D02*
D03*
Y5660004D02*
D03*
Y5260004D02*
D03*
Y4860004D02*
D03*
Y4460004D02*
D03*
Y4060004D02*
D03*
Y3660003D02*
D03*
Y3260003D02*
D03*
Y2860003D02*
D03*
X7660006Y2660003D02*
D03*
X7760006Y2460003D02*
D03*
Y2060002D02*
D03*
Y1660002D02*
D03*
X7660006Y1460002D02*
D03*
X7760006Y1260002D02*
D03*
X7660006Y1060002D02*
D03*
X7760006Y860002D02*
D03*
X7660006Y660002D02*
D03*
X7760006Y460002D02*
D03*
X7660006Y260002D02*
D03*
X7560005Y9260006D02*
D03*
X7460005Y7860006D02*
D03*
Y7460005D02*
D03*
Y7060005D02*
D03*
Y6260005D02*
D03*
Y5860005D02*
D03*
Y5460004D02*
D03*
Y5060004D02*
D03*
Y4660004D02*
D03*
Y3860003D02*
D03*
Y3460003D02*
D03*
Y2660003D02*
D03*
Y2260003D02*
D03*
Y1460002D02*
D03*
Y1060002D02*
D03*
X7560005Y860002D02*
D03*
X7460005Y660002D02*
D03*
X7560005Y460002D02*
D03*
X7460005Y260002D02*
D03*
X7360005Y9260006D02*
D03*
Y8460006D02*
D03*
Y8060006D02*
D03*
X7260005Y7860006D02*
D03*
X7360005Y7660006D02*
D03*
X7260005Y7460005D02*
D03*
X7360005Y7260005D02*
D03*
X7260005Y7060005D02*
D03*
X7360005Y6860005D02*
D03*
Y6460005D02*
D03*
X7260005Y6260005D02*
D03*
X7360005Y6060005D02*
D03*
Y5260004D02*
D03*
X7260005Y5060004D02*
D03*
X7360005Y4860004D02*
D03*
X7260005Y4660004D02*
D03*
X7360005Y4460004D02*
D03*
Y4060004D02*
D03*
X7260005Y3860003D02*
D03*
X7360005Y3660003D02*
D03*
X7260005Y3460003D02*
D03*
X7360005Y3260003D02*
D03*
Y2860003D02*
D03*
X7260005Y2660003D02*
D03*
X7360005Y2460003D02*
D03*
X7260005Y2260003D02*
D03*
X7360005Y2060002D02*
D03*
Y1660002D02*
D03*
X7260005Y1460002D02*
D03*
X7360005Y1260002D02*
D03*
X7260005Y1060002D02*
D03*
X7360005Y860002D02*
D03*
X7260005Y660002D02*
D03*
X7360005Y460002D02*
D03*
X7260005Y260002D02*
D03*
X7160005Y9260006D02*
D03*
Y8060006D02*
D03*
X7060005Y7860006D02*
D03*
X7160005Y7660006D02*
D03*
X7060005Y7460005D02*
D03*
X7160005Y7260005D02*
D03*
X7060005Y7060005D02*
D03*
X7160005Y6860005D02*
D03*
X7060005Y5460004D02*
D03*
X7160005Y5260004D02*
D03*
Y4060004D02*
D03*
Y2860003D02*
D03*
Y1660002D02*
D03*
X7060005Y1460002D02*
D03*
X7160005Y1260002D02*
D03*
X7060005Y1060002D02*
D03*
X7160005Y460002D02*
D03*
X7060005Y260002D02*
D03*
X6960005Y9260006D02*
D03*
Y8060006D02*
D03*
X6860005Y7860006D02*
D03*
X6960005Y7660006D02*
D03*
X6860005Y7460005D02*
D03*
X6960005Y7260005D02*
D03*
X6860005Y7060005D02*
D03*
X6960005Y6860005D02*
D03*
Y6460005D02*
D03*
X6860005Y6260005D02*
D03*
X6960005Y6060005D02*
D03*
X6860005Y5460004D02*
D03*
Y5060004D02*
D03*
X6960005Y4860004D02*
D03*
X6860005Y4260004D02*
D03*
Y3860003D02*
D03*
X6960005Y3660003D02*
D03*
X6860005Y3460003D02*
D03*
Y2660003D02*
D03*
X6960005Y2460003D02*
D03*
X6860005Y2260003D02*
D03*
X6960005Y1660002D02*
D03*
X6860005Y1460002D02*
D03*
X6960005Y1260002D02*
D03*
X6860005Y1060002D02*
D03*
Y660002D02*
D03*
X6960005Y460002D02*
D03*
X6860005Y260002D02*
D03*
X6760005Y9260006D02*
D03*
Y8060006D02*
D03*
X6660005Y7860006D02*
D03*
X6760005Y7660006D02*
D03*
X6660005Y7460005D02*
D03*
X6760005Y7260005D02*
D03*
X6660005Y7060005D02*
D03*
X6760005Y6860005D02*
D03*
Y6460005D02*
D03*
X6660005Y6260005D02*
D03*
X6760005Y6060005D02*
D03*
Y5660004D02*
D03*
X6660005Y5460004D02*
D03*
X6760005Y5260004D02*
D03*
X6660005Y5060004D02*
D03*
X6760005Y4860004D02*
D03*
Y4460004D02*
D03*
X6660005Y4260004D02*
D03*
X6760005Y4060004D02*
D03*
X6660005Y3860003D02*
D03*
X6760005Y3660003D02*
D03*
X6660005Y3460003D02*
D03*
X6760005Y3260003D02*
D03*
Y2860003D02*
D03*
X6660005Y2660003D02*
D03*
X6760005Y2460003D02*
D03*
X6660005Y2260003D02*
D03*
X6760005Y1660002D02*
D03*
X6660005Y1460002D02*
D03*
X6760005Y1260002D02*
D03*
X6660005Y1060002D02*
D03*
X6760005Y860002D02*
D03*
X6660005Y660002D02*
D03*
X6760005Y460002D02*
D03*
X6660005Y260002D02*
D03*
X6560005Y9260006D02*
D03*
Y8060006D02*
D03*
X6460005Y7860006D02*
D03*
X6560005Y7660006D02*
D03*
X6460005Y7460005D02*
D03*
X6560005Y7260005D02*
D03*
X6460005Y7060005D02*
D03*
X6560005Y6860005D02*
D03*
Y6460005D02*
D03*
X6460005Y6260005D02*
D03*
X6560005Y6060005D02*
D03*
Y5660004D02*
D03*
X6460005Y5460004D02*
D03*
X6560005Y5260004D02*
D03*
X6460005Y5060004D02*
D03*
X6560005Y4860004D02*
D03*
Y4460004D02*
D03*
X6460005Y4260004D02*
D03*
X6560005Y4060004D02*
D03*
X6460005Y3860003D02*
D03*
X6560005Y3660003D02*
D03*
X6460005Y3460003D02*
D03*
X6560005Y3260003D02*
D03*
Y2860003D02*
D03*
X6460005Y2660003D02*
D03*
X6560005Y2460003D02*
D03*
X6460005Y2260003D02*
D03*
X6560005Y1660002D02*
D03*
X6460005Y1460002D02*
D03*
X6560005Y1260002D02*
D03*
X6460005Y1060002D02*
D03*
X6560005Y860002D02*
D03*
X6460005Y660002D02*
D03*
X6560005Y460002D02*
D03*
X6460005Y260002D02*
D03*
X6360005Y9260006D02*
D03*
Y8460006D02*
D03*
X6260005Y7860006D02*
D03*
X6360005Y7660006D02*
D03*
X6260005Y7460005D02*
D03*
X6360005Y7260005D02*
D03*
X6260005Y7060005D02*
D03*
X6360005Y6860005D02*
D03*
Y6460005D02*
D03*
X6260005Y6260005D02*
D03*
X6360005Y6060005D02*
D03*
Y5660004D02*
D03*
X6260005Y5460004D02*
D03*
X6360005Y5260004D02*
D03*
X6260005Y5060004D02*
D03*
X6360005Y4860004D02*
D03*
Y4460004D02*
D03*
X6260005Y4260004D02*
D03*
X6360005Y4060004D02*
D03*
X6260005Y3860003D02*
D03*
X6360005Y3660003D02*
D03*
X6260005Y3460003D02*
D03*
X6360005Y3260003D02*
D03*
Y2860003D02*
D03*
X6260005Y2660003D02*
D03*
X6360005Y2460003D02*
D03*
X6260005Y2260003D02*
D03*
X6360005Y1660002D02*
D03*
X6260005Y1460002D02*
D03*
X6360005Y1260002D02*
D03*
X6260005Y1060002D02*
D03*
X6360005Y860002D02*
D03*
Y460002D02*
D03*
X6160005Y9260006D02*
D03*
Y8060006D02*
D03*
Y7660006D02*
D03*
X6060005Y7460005D02*
D03*
X6160005Y7260005D02*
D03*
Y6860005D02*
D03*
Y6460005D02*
D03*
X6060005Y6260005D02*
D03*
X6160005Y6060005D02*
D03*
Y5660004D02*
D03*
X6060005Y5460004D02*
D03*
X6160005Y5260004D02*
D03*
X6060005Y5060004D02*
D03*
X6160005Y4860004D02*
D03*
Y4460004D02*
D03*
X6060005Y4260004D02*
D03*
X6160005Y4060004D02*
D03*
X6060005Y3860003D02*
D03*
X6160005Y3660003D02*
D03*
X6060005Y3460003D02*
D03*
X6160005Y3260003D02*
D03*
Y2860003D02*
D03*
X6060005Y2660003D02*
D03*
X6160005Y2460003D02*
D03*
X6060005Y2260003D02*
D03*
X6160005Y1660002D02*
D03*
X6060005Y1460002D02*
D03*
X6160005Y1260002D02*
D03*
X6060005Y1060002D02*
D03*
X6160005Y860002D02*
D03*
X5960005Y9260006D02*
D03*
Y8060006D02*
D03*
X5860005Y7860006D02*
D03*
Y7460005D02*
D03*
X5960005Y7260005D02*
D03*
Y6460005D02*
D03*
X5860005Y6260005D02*
D03*
X5960005Y6060005D02*
D03*
Y5660004D02*
D03*
X5860005Y5460004D02*
D03*
X5960005Y5260004D02*
D03*
Y2860003D02*
D03*
Y2460003D02*
D03*
X5860005Y1860002D02*
D03*
X5960005Y1660002D02*
D03*
X5860005Y1460002D02*
D03*
X5960005Y1260002D02*
D03*
X5860005Y1060002D02*
D03*
X5960005Y860002D02*
D03*
X5760004Y8060006D02*
D03*
X5660004Y7860006D02*
D03*
X5760004Y7660006D02*
D03*
Y7260005D02*
D03*
X5660004Y7060005D02*
D03*
X5760004Y6460005D02*
D03*
Y6060005D02*
D03*
Y5660004D02*
D03*
Y4860004D02*
D03*
Y4460004D02*
D03*
X5660004Y4260004D02*
D03*
X5760004Y4060004D02*
D03*
X5660004Y3860003D02*
D03*
X5760004Y3660003D02*
D03*
X5660004Y3460003D02*
D03*
X5760004Y3260003D02*
D03*
X5660004Y3060003D02*
D03*
X5760004Y2860003D02*
D03*
X5660004Y2660003D02*
D03*
X5760004Y2460003D02*
D03*
X5660004Y2260003D02*
D03*
Y1860002D02*
D03*
X5760004Y1660002D02*
D03*
X5660004Y1460002D02*
D03*
X5760004Y1260002D02*
D03*
X5660004Y1060002D02*
D03*
X5760004Y860002D02*
D03*
X5560004Y8060006D02*
D03*
X5460004Y7860006D02*
D03*
X5560004Y7660006D02*
D03*
Y4860004D02*
D03*
Y4460004D02*
D03*
X5460004Y4260004D02*
D03*
X5560004Y4060004D02*
D03*
X5460004Y3860003D02*
D03*
X5560004Y3660003D02*
D03*
X5460004Y3460003D02*
D03*
X5560004Y3260003D02*
D03*
X5460004Y3060003D02*
D03*
X5560004Y2860003D02*
D03*
X5460004Y2660003D02*
D03*
X5560004Y2460003D02*
D03*
X5460004Y2260003D02*
D03*
Y1860002D02*
D03*
X5560004Y1660002D02*
D03*
X5460004Y1460002D02*
D03*
X5560004Y1260002D02*
D03*
X5460004Y1060002D02*
D03*
X5560004Y860002D02*
D03*
X5360004Y8060006D02*
D03*
X5260004Y7860006D02*
D03*
X5360004Y4460004D02*
D03*
X5260004Y4260004D02*
D03*
X5360004Y4060004D02*
D03*
X5260004Y3860003D02*
D03*
X5360004Y3660003D02*
D03*
X5260004Y3460003D02*
D03*
X5360004Y3260003D02*
D03*
X5260004Y3060003D02*
D03*
X5360004Y2860003D02*
D03*
X5260004Y2660003D02*
D03*
X5360004Y2460003D02*
D03*
X5260004Y2260003D02*
D03*
Y1860002D02*
D03*
X5360004Y1660002D02*
D03*
X5260004Y1460002D02*
D03*
X5360004Y1260002D02*
D03*
X5260004Y1060002D02*
D03*
X5360004Y860002D02*
D03*
X5160004Y8060006D02*
D03*
Y2460003D02*
D03*
X5060004Y2260003D02*
D03*
Y1860002D02*
D03*
X5160004Y1660002D02*
D03*
X5060004Y1460002D02*
D03*
X5160004Y1260002D02*
D03*
X5060004Y1060002D02*
D03*
X5160004Y860002D02*
D03*
X4960004Y8060006D02*
D03*
X4860004Y7860006D02*
D03*
Y4660004D02*
D03*
X4960004Y4060004D02*
D03*
X4860004Y3860003D02*
D03*
X4960004Y3660003D02*
D03*
X4860004Y3460003D02*
D03*
X4960004Y2860003D02*
D03*
Y2460003D02*
D03*
X4860004Y2260003D02*
D03*
X4960004Y2060002D02*
D03*
Y1660002D02*
D03*
X4860004Y1460002D02*
D03*
X4960004Y1260002D02*
D03*
X4860004Y1060002D02*
D03*
X4960004Y860002D02*
D03*
X4760004Y8060006D02*
D03*
Y5260004D02*
D03*
X4660004Y4660004D02*
D03*
X4760004Y4460004D02*
D03*
X4660004Y4260004D02*
D03*
X4760004Y4060004D02*
D03*
X4660004Y3860003D02*
D03*
X4760004Y3660003D02*
D03*
X4660004Y3460003D02*
D03*
X4760004Y3260003D02*
D03*
X4660004Y3060003D02*
D03*
X4760004Y2860003D02*
D03*
Y2460003D02*
D03*
X4660004Y2260003D02*
D03*
X4760004Y2060002D02*
D03*
X4660004Y1860002D02*
D03*
Y1460002D02*
D03*
X4760004Y1260002D02*
D03*
X4660004Y1060002D02*
D03*
X4760004Y860002D02*
D03*
X4560004Y8460006D02*
D03*
Y5660004D02*
D03*
Y5260004D02*
D03*
X4460004Y4660004D02*
D03*
X4560004Y4460004D02*
D03*
X4460004Y4260004D02*
D03*
X4560004Y3660003D02*
D03*
X4460004Y3460003D02*
D03*
X4560004Y3260003D02*
D03*
X4460004Y3060003D02*
D03*
X4560004Y2460003D02*
D03*
X4460004Y2260003D02*
D03*
X4560004Y2060002D02*
D03*
X4460004Y1860002D02*
D03*
X4560004Y1660002D02*
D03*
Y1260002D02*
D03*
X4460004Y1060002D02*
D03*
X4560004Y860002D02*
D03*
X4360004Y8060006D02*
D03*
X4260004Y7860006D02*
D03*
X4360004Y5260004D02*
D03*
Y4460004D02*
D03*
X4260004Y4260004D02*
D03*
X4360004Y4060004D02*
D03*
Y3660003D02*
D03*
X4260004Y3460003D02*
D03*
X4360004Y3260003D02*
D03*
X4260004Y3060003D02*
D03*
X4360004Y2860003D02*
D03*
Y2460003D02*
D03*
Y2060002D02*
D03*
X4260004Y1860002D02*
D03*
X4360004Y1660002D02*
D03*
Y860002D02*
D03*
X4160004Y8060006D02*
D03*
X4060004Y7860006D02*
D03*
Y4660004D02*
D03*
X4160004Y4460004D02*
D03*
X4060004Y4260004D02*
D03*
X4160004Y4060004D02*
D03*
Y3260003D02*
D03*
X4060004Y3060003D02*
D03*
X4160004Y2860003D02*
D03*
Y2060002D02*
D03*
X4060004Y1860002D02*
D03*
X4160004Y1660002D02*
D03*
Y860002D02*
D03*
X3960004Y8060006D02*
D03*
X3860003Y7860006D02*
D03*
X3960004Y4860004D02*
D03*
Y3660003D02*
D03*
Y860002D02*
D03*
X3760003Y8060006D02*
D03*
X3660003Y7860006D02*
D03*
Y5460004D02*
D03*
X3760003Y5260004D02*
D03*
X3660003Y5060004D02*
D03*
Y3860003D02*
D03*
Y2660003D02*
D03*
X3760003Y1660002D02*
D03*
X3560003Y8460006D02*
D03*
Y8060006D02*
D03*
X3460003Y7860006D02*
D03*
X3560003Y7660006D02*
D03*
Y6460005D02*
D03*
X3460003Y6260005D02*
D03*
Y5460004D02*
D03*
X3560003Y5260004D02*
D03*
X3460003Y5060004D02*
D03*
X3560003Y4860004D02*
D03*
X3460003Y4260004D02*
D03*
X3560003Y4060004D02*
D03*
X3460003Y3460003D02*
D03*
X3560003Y2860003D02*
D03*
X3460003Y2660003D02*
D03*
X3560003Y2460003D02*
D03*
X3460003Y2260003D02*
D03*
X3560003Y1660002D02*
D03*
X3360003Y9260006D02*
D03*
Y8060006D02*
D03*
X3260003Y7860006D02*
D03*
X3360003Y7660006D02*
D03*
X3260003Y7460005D02*
D03*
X3360003Y6460005D02*
D03*
X3260003Y6260005D02*
D03*
Y5860005D02*
D03*
Y5460004D02*
D03*
Y5060004D02*
D03*
Y4260004D02*
D03*
Y3860003D02*
D03*
X3360003Y3660003D02*
D03*
X3260003Y3460003D02*
D03*
X3360003Y3260003D02*
D03*
X3260003Y3060003D02*
D03*
X3360003Y2860003D02*
D03*
X3260003Y2660003D02*
D03*
X3360003Y2460003D02*
D03*
X3260003Y2260003D02*
D03*
Y1860002D02*
D03*
X3360003Y1660002D02*
D03*
X3160003Y8060006D02*
D03*
X3060003Y7860006D02*
D03*
X3160003Y7660006D02*
D03*
X3060003Y7460005D02*
D03*
Y7060005D02*
D03*
X3160003Y6460005D02*
D03*
X3060003Y6260005D02*
D03*
X3160003Y6060005D02*
D03*
X3060003Y5860005D02*
D03*
Y5460004D02*
D03*
X3160003Y5260004D02*
D03*
X3060003Y5060004D02*
D03*
X3160003Y4860004D02*
D03*
Y4460004D02*
D03*
X3060003Y4260004D02*
D03*
X3160003Y4060004D02*
D03*
X3060003Y3860003D02*
D03*
X3160003Y3660003D02*
D03*
X3060003Y3460003D02*
D03*
X3160003Y3260003D02*
D03*
X3060003Y3060003D02*
D03*
X3160003Y2860003D02*
D03*
X3060003Y2660003D02*
D03*
X3160003Y2460003D02*
D03*
X3060003Y2260003D02*
D03*
Y1860002D02*
D03*
X3160003Y1660002D02*
D03*
X2960003Y8060006D02*
D03*
Y7660006D02*
D03*
X2860003Y7060005D02*
D03*
X2960003Y6460005D02*
D03*
X2860003Y6260005D02*
D03*
X2960003Y6060005D02*
D03*
X2860003Y5860005D02*
D03*
Y5460004D02*
D03*
X2960003Y5260004D02*
D03*
X2860003Y5060004D02*
D03*
X2960003Y4860004D02*
D03*
Y4460004D02*
D03*
X2860003Y4260004D02*
D03*
X2960003Y4060004D02*
D03*
X2860003Y3860003D02*
D03*
X2960003Y3660003D02*
D03*
X2860003Y3460003D02*
D03*
X2960003Y3260003D02*
D03*
X2860003Y3060003D02*
D03*
X2960003Y2860003D02*
D03*
X2860003Y2660003D02*
D03*
X2960003Y2460003D02*
D03*
X2860003Y2260003D02*
D03*
Y1860002D02*
D03*
X2960003Y1660002D02*
D03*
X2660003Y7060005D02*
D03*
X2760003Y6460005D02*
D03*
X2660003Y6260005D02*
D03*
X2760003Y6060005D02*
D03*
X2660003Y5860005D02*
D03*
Y5460004D02*
D03*
X2760003Y5260004D02*
D03*
X2660003Y5060004D02*
D03*
X2760003Y4860004D02*
D03*
Y4460004D02*
D03*
X2660003Y4260004D02*
D03*
X2760003Y4060004D02*
D03*
X2660003Y3860003D02*
D03*
X2760003Y3660003D02*
D03*
X2660003Y3460003D02*
D03*
X2760003Y3260003D02*
D03*
X2660003Y3060003D02*
D03*
X2760003Y2860003D02*
D03*
X2660003Y2660003D02*
D03*
X2760003Y2460003D02*
D03*
X2660003Y2260003D02*
D03*
Y1860002D02*
D03*
X2760003Y1660002D02*
D03*
X2560003Y8460006D02*
D03*
Y8060006D02*
D03*
X2460003Y7460005D02*
D03*
Y7060005D02*
D03*
Y2260003D02*
D03*
Y1860002D02*
D03*
X2560003Y1660002D02*
D03*
X2360003Y8060006D02*
D03*
Y7660006D02*
D03*
X2260003Y7460005D02*
D03*
Y7060005D02*
D03*
Y6660005D02*
D03*
Y6260005D02*
D03*
Y5860005D02*
D03*
Y5460004D02*
D03*
X2360003Y4860004D02*
D03*
Y4460004D02*
D03*
X2260003Y4260004D02*
D03*
X2360003Y4060004D02*
D03*
Y3660003D02*
D03*
X2260003Y3460003D02*
D03*
X2360003Y3260003D02*
D03*
X2260003Y3060003D02*
D03*
X2360003Y2860003D02*
D03*
Y2460003D02*
D03*
X2260003Y2260003D02*
D03*
Y1860002D02*
D03*
X2360003Y1660002D02*
D03*
X2160003Y9260006D02*
D03*
Y8060006D02*
D03*
Y7660006D02*
D03*
X2060002Y7460005D02*
D03*
Y6660005D02*
D03*
X2160003Y6460005D02*
D03*
X2060002Y6260005D02*
D03*
X2160003Y6060005D02*
D03*
X2060002Y5860005D02*
D03*
Y5460004D02*
D03*
X2160003Y5260004D02*
D03*
Y4860004D02*
D03*
Y4460004D02*
D03*
X2060002Y4260004D02*
D03*
X2160003Y4060004D02*
D03*
Y3660003D02*
D03*
X2060002Y3460003D02*
D03*
X2160003Y3260003D02*
D03*
X2060002Y3060003D02*
D03*
X2160003Y2860003D02*
D03*
Y2460003D02*
D03*
X2060002Y2260003D02*
D03*
Y1860002D02*
D03*
X2160003Y1660002D02*
D03*
X1960002Y9260006D02*
D03*
Y8060006D02*
D03*
Y7660006D02*
D03*
X1860002Y7460005D02*
D03*
X1960002Y6860005D02*
D03*
Y6460005D02*
D03*
X1860002Y6260005D02*
D03*
X1960002Y6060005D02*
D03*
X1860002Y5860005D02*
D03*
Y5460004D02*
D03*
X1960002Y5260004D02*
D03*
Y4860004D02*
D03*
Y4460004D02*
D03*
X1860002Y4260004D02*
D03*
X1960002Y4060004D02*
D03*
Y3660003D02*
D03*
X1860002Y3460003D02*
D03*
X1960002Y3260003D02*
D03*
X1860002Y3060003D02*
D03*
X1960002Y2860003D02*
D03*
Y2460003D02*
D03*
X1860002Y2260003D02*
D03*
Y1860002D02*
D03*
X1960002Y1660002D02*
D03*
X1760002Y9260006D02*
D03*
Y8460006D02*
D03*
Y8060006D02*
D03*
Y7660006D02*
D03*
X1660002Y7460005D02*
D03*
X1760002Y6460005D02*
D03*
X1660002Y6260005D02*
D03*
X1760002Y6060005D02*
D03*
X1660002Y5860005D02*
D03*
Y5460004D02*
D03*
X1760002Y5260004D02*
D03*
Y4860004D02*
D03*
Y4460004D02*
D03*
X1660002Y4260004D02*
D03*
X1760002Y4060004D02*
D03*
Y3660003D02*
D03*
X1660002Y3460003D02*
D03*
X1760002Y3260003D02*
D03*
X1660002Y3060003D02*
D03*
X1760002Y2860003D02*
D03*
Y2460003D02*
D03*
X1660002Y2260003D02*
D03*
Y1860002D02*
D03*
X1760002Y1660002D02*
D03*
X1660002Y1460002D02*
D03*
X1760002Y1260002D02*
D03*
X1660002Y1060002D02*
D03*
X1760002Y860002D02*
D03*
X1660002Y660002D02*
D03*
X1760002Y460002D02*
D03*
X1660002Y260002D02*
D03*
X1560002Y9260006D02*
D03*
Y8060006D02*
D03*
X1460002Y6260005D02*
D03*
X1560002Y6060005D02*
D03*
X1460002Y5860005D02*
D03*
Y5460004D02*
D03*
X1560002Y5260004D02*
D03*
Y4860004D02*
D03*
X1460002Y4660004D02*
D03*
Y4260004D02*
D03*
X1560002Y4060004D02*
D03*
Y3660003D02*
D03*
X1460002Y3460003D02*
D03*
Y3060003D02*
D03*
X1560002Y2860003D02*
D03*
Y2460003D02*
D03*
X1460002Y2260003D02*
D03*
X1560002Y1660002D02*
D03*
X1460002Y1460002D02*
D03*
X1560002Y1260002D02*
D03*
X1460002Y1060002D02*
D03*
X1560002Y860002D02*
D03*
X1460002Y660002D02*
D03*
X1560002Y460002D02*
D03*
X1460002Y260002D02*
D03*
X1360002Y9260006D02*
D03*
X1260002Y8660006D02*
D03*
X1360002Y8060006D02*
D03*
X1260002Y7460005D02*
D03*
X1360002Y6060005D02*
D03*
X1260002Y5860005D02*
D03*
X1360002Y5260004D02*
D03*
Y4860004D02*
D03*
X1260002Y4660004D02*
D03*
X1360002Y4460004D02*
D03*
Y4060004D02*
D03*
Y3660003D02*
D03*
X1260002Y3460003D02*
D03*
X1360002Y3260003D02*
D03*
Y2860003D02*
D03*
Y2460003D02*
D03*
X1260002Y2260003D02*
D03*
X1360002Y2060002D02*
D03*
X1260002Y1860002D02*
D03*
X1360002Y1660002D02*
D03*
X1260002Y1460002D02*
D03*
X1360002Y1260002D02*
D03*
X1260002Y1060002D02*
D03*
X1360002Y860002D02*
D03*
X1260002Y660002D02*
D03*
X1360002Y460002D02*
D03*
X1260002Y260002D02*
D03*
X1060002Y8660006D02*
D03*
X1160002Y8460006D02*
D03*
Y8060006D02*
D03*
X1060002Y7060005D02*
D03*
Y6260005D02*
D03*
X1160002Y6060005D02*
D03*
X1060002Y5860005D02*
D03*
X1160002Y5660004D02*
D03*
X1060002Y5460004D02*
D03*
X1160002Y5260004D02*
D03*
Y4860004D02*
D03*
X1060002Y4660004D02*
D03*
X1160002Y4460004D02*
D03*
X1060002Y4260004D02*
D03*
X1160002Y3660003D02*
D03*
X1060002Y3460003D02*
D03*
X1160002Y3260003D02*
D03*
X1060002Y3060003D02*
D03*
X1160002Y2460003D02*
D03*
X1060002Y2260003D02*
D03*
X1160002Y2060002D02*
D03*
X1060002Y1860002D02*
D03*
X1160002Y1260002D02*
D03*
X1060002Y1060002D02*
D03*
X1160002Y860002D02*
D03*
X1060002Y660002D02*
D03*
X1160002Y460002D02*
D03*
X1060002Y260002D02*
D03*
X860002Y8660006D02*
D03*
Y7460005D02*
D03*
Y7060005D02*
D03*
Y6660005D02*
D03*
X960002Y6460005D02*
D03*
X860002Y6260005D02*
D03*
X960002Y6060005D02*
D03*
X860002Y5860005D02*
D03*
X960002Y5660004D02*
D03*
X860002Y5460004D02*
D03*
X960002Y4860004D02*
D03*
X860002Y4660004D02*
D03*
X960002Y4460004D02*
D03*
X860002Y4260004D02*
D03*
X960002Y4060004D02*
D03*
Y3660003D02*
D03*
X860002Y3460003D02*
D03*
X960002Y3260003D02*
D03*
X860002Y3060003D02*
D03*
X960002Y2860003D02*
D03*
Y2460003D02*
D03*
X860002Y2260003D02*
D03*
X960002Y2060002D02*
D03*
X860002Y1860002D02*
D03*
X960002Y1660002D02*
D03*
X860002Y1460002D02*
D03*
X960002Y1260002D02*
D03*
X860002Y1060002D02*
D03*
X960002Y860002D02*
D03*
Y460002D02*
D03*
X860002Y260002D02*
D03*
X660002Y6660005D02*
D03*
X760002Y6460005D02*
D03*
X660002Y6260005D02*
D03*
Y5860005D02*
D03*
X760002Y5660004D02*
D03*
X660002Y5460004D02*
D03*
X760002Y5260004D02*
D03*
X660002Y4660004D02*
D03*
X760002Y4460004D02*
D03*
X660002Y4260004D02*
D03*
X760002Y4060004D02*
D03*
X660002Y3460003D02*
D03*
X760002Y3260003D02*
D03*
X660002Y3060003D02*
D03*
X760002Y2860003D02*
D03*
Y2060002D02*
D03*
X660002Y1860002D02*
D03*
X760002Y1660002D02*
D03*
Y860002D02*
D03*
X460002Y9060006D02*
D03*
Y7060005D02*
D03*
X560002Y6860005D02*
D03*
X460002Y6660005D02*
D03*
X560002Y6460005D02*
D03*
X460002Y6260005D02*
D03*
X560002Y6060005D02*
D03*
X460002Y5860005D02*
D03*
X560002Y5660004D02*
D03*
X460002Y5460004D02*
D03*
X560002Y5260004D02*
D03*
X460002Y4660004D02*
D03*
X560002Y4460004D02*
D03*
X460002Y4260004D02*
D03*
X560002Y4060004D02*
D03*
X460002Y3460003D02*
D03*
X560002Y3260003D02*
D03*
X460002Y3060003D02*
D03*
X560002Y2860003D02*
D03*
X460002Y2260003D02*
D03*
X560002Y2060002D02*
D03*
X460002Y1860002D02*
D03*
X560002Y1660002D02*
D03*
X460002Y1060002D02*
D03*
X260002Y9060006D02*
D03*
Y8260006D02*
D03*
Y7860006D02*
D03*
X360002Y1660002D02*
D03*
X260002Y1460002D02*
D03*
Y1060002D02*
D03*
D88*
X4827500Y6526000D02*
D03*
X4977500Y6376000D02*
D03*
X4827500D02*
D03*
X5127500D02*
D03*
Y6676000D02*
D03*
X4827500D02*
D03*
X5127500Y6526000D02*
D03*
X4977500Y6676000D02*
D03*
X4977499Y6526001D02*
D03*
X1553340Y6847059D02*
D03*
D89*
X5204400Y7745600D02*
D03*
%TF.MD5,a4b7b6356fab0f2c8d77f6e3a09b6810*%
M02*
