%TF.GenerationSoftware,Altium Limited,Altium Designer,24.0.1 (36)*%
G04 Layer_Physical_Order=1*
G04 Layer_Color=255*
%FSLAX45Y45*%
%MOMM*%
%TF.SameCoordinates,35AB2F61-03EE-4C9E-862A-60B4A91D9B88*%
%TF.FilePolarity,Positive*%
%TF.FileFunction,Copper,L1,Top,Signal*%
%TF.Part,Single*%
G01*
G75*
%TA.AperFunction,SMDPad,CuDef*%
%ADD10R,4.50000X4.50000*%
%ADD11R,0.25000X0.68000*%
%ADD12R,0.68000X0.25000*%
G04:AMPARAMS|DCode=13|XSize=0.25mm|YSize=0.68mm|CornerRadius=0.00625mm|HoleSize=0mm|Usage=FLASHONLY|Rotation=90.000|XOffset=0mm|YOffset=0mm|HoleType=Round|Shape=RoundedRectangle|*
%AMROUNDEDRECTD13*
21,1,0.25000,0.66750,0,0,90.0*
21,1,0.23750,0.68000,0,0,90.0*
1,1,0.01250,0.33375,0.11875*
1,1,0.01250,0.33375,-0.11875*
1,1,0.01250,-0.33375,-0.11875*
1,1,0.01250,-0.33375,0.11875*
%
%ADD13ROUNDEDRECTD13*%
%ADD14R,0.40000X1.19000*%
%ADD15R,0.60000X0.65000*%
%ADD16R,1.00000X0.95000*%
%ADD17R,0.65000X0.60000*%
%ADD18R,1.19000X0.40000*%
%ADD19R,0.95000X0.30000*%
%ADD20R,0.30000X0.95000*%
%ADD21R,3.35000X3.35000*%
%ADD22R,1.40000X1.00000*%
%ADD23R,0.95000X1.00000*%
%ADD24R,1.21000X0.59000*%
%TA.AperFunction,ConnectorPad*%
%ADD25R,1.14000X0.60000*%
%ADD26R,1.14000X0.30000*%
%TA.AperFunction,SMDPad,CuDef*%
%ADD27R,2.70000X1.35000*%
%ADD28R,0.60000X1.20000*%
%ADD29R,0.91440X1.21920*%
%TA.AperFunction,Conductor*%
%ADD30C,0.50000*%
%ADD31C,0.30000*%
%ADD32C,0.20000*%
%ADD33C,0.25400*%
%ADD34C,0.28600*%
%TA.AperFunction,WasherPad*%
%ADD35C,1.30000*%
%TA.AperFunction,ComponentPad*%
%ADD36R,1.50000X1.50000*%
%ADD37R,1.50800X1.50800*%
%ADD38C,1.50800*%
%ADD39R,1.50000X1.50000*%
%ADD40O,1.70000X0.90000*%
%ADD41O,2.00000X0.90000*%
%ADD42C,0.60000*%
%TA.AperFunction,ViaPad*%
%ADD43C,6.35000*%
%TA.AperFunction,ComponentPad*%
%ADD44R,1.30000X1.30000*%
%ADD45C,1.30000*%
%ADD46C,1.37000*%
%ADD47R,1.37000X1.37000*%
%TA.AperFunction,ViaPad*%
%ADD48C,0.60000*%
%ADD49C,0.70000*%
G36*
X4945000Y7040400D02*
X4747100D01*
Y7040000D01*
X4705400D01*
Y7040400D01*
X4594600D01*
Y7018946D01*
X4593574Y7017411D01*
X4591602Y7007500D01*
Y7006602D01*
X4583397Y6998397D01*
X4435000D01*
Y7205000D01*
X4945000D01*
Y7040400D01*
D02*
G37*
G36*
X4680000Y7007500D02*
X4932500D01*
Y6947500D01*
X4680000D01*
Y6921900D01*
X4664600D01*
Y6803100D01*
X4677500D01*
Y6788900D01*
X4581600D01*
Y6713100D01*
X4677500D01*
Y6640000D01*
X4435000D01*
Y6972500D01*
X4617500D01*
Y7007500D01*
X4620000D01*
Y7009600D01*
X4680000D01*
Y7007500D01*
D02*
G37*
D10*
X4977499Y6526001D02*
D03*
D11*
X5252499Y6189501D02*
D03*
X5052499D02*
D03*
X4902499D02*
D03*
X5102499D02*
D03*
X5152499D02*
D03*
X5202499D02*
D03*
X4702500D02*
D03*
X4752500D02*
D03*
X4802500D02*
D03*
X4852500D02*
D03*
X5002499D02*
D03*
X4952499D02*
D03*
Y6862500D02*
D03*
X4852500D02*
D03*
X4802500D02*
D03*
X4752500D02*
D03*
X5052499D02*
D03*
X4902499D02*
D03*
X5102499D02*
D03*
X5152499D02*
D03*
X5202499D02*
D03*
X4702500D02*
D03*
X5002499D02*
D03*
X5252499D02*
D03*
D12*
X5313999Y6251001D02*
D03*
Y6801000D02*
D03*
Y6751000D02*
D03*
Y6401001D02*
D03*
Y6451001D02*
D03*
Y6501001D02*
D03*
Y6601001D02*
D03*
Y6651000D02*
D03*
Y6701000D02*
D03*
Y6351001D02*
D03*
Y6301001D02*
D03*
X4641000Y6651000D02*
D03*
Y6601001D02*
D03*
Y6501001D02*
D03*
Y6551001D02*
D03*
Y6701000D02*
D03*
Y6751000D02*
D03*
Y6251001D02*
D03*
Y6301001D02*
D03*
Y6351001D02*
D03*
Y6401001D02*
D03*
Y6451001D02*
D03*
Y6801000D02*
D03*
D13*
X5313999Y6551001D02*
D03*
D14*
X1145248Y7421001D02*
D03*
X1080248D02*
D03*
X1015248D02*
D03*
Y7229001D02*
D03*
X1080248D02*
D03*
X1145248D02*
D03*
D15*
X5200000Y6067500D02*
D03*
Y5982500D02*
D03*
X5109400Y7745600D02*
D03*
Y7830600D02*
D03*
X3612500Y7202500D02*
D03*
Y7117500D02*
D03*
X3820000Y6135000D02*
D03*
Y6220000D02*
D03*
X3232500Y6845000D02*
D03*
Y6760000D02*
D03*
X360000Y8822500D02*
D03*
Y8737500D02*
D03*
X460000Y8822500D02*
D03*
Y8737500D02*
D03*
X4650000Y6982500D02*
D03*
Y7067500D02*
D03*
X5002500Y6067500D02*
D03*
Y5982500D02*
D03*
X4900000Y7067500D02*
D03*
Y6982500D02*
D03*
X4802500Y7067500D02*
D03*
Y6982500D02*
D03*
X7560000Y2222500D02*
D03*
Y2137500D02*
D03*
X2460000Y7567500D02*
D03*
Y7652500D02*
D03*
X3775000Y1790000D02*
D03*
Y1875000D02*
D03*
Y3040000D02*
D03*
Y3125000D02*
D03*
Y4290000D02*
D03*
Y4375000D02*
D03*
Y5540000D02*
D03*
Y5625000D02*
D03*
X475000Y1290000D02*
D03*
Y1375000D02*
D03*
Y2540000D02*
D03*
Y2625000D02*
D03*
Y3790000D02*
D03*
Y3875000D02*
D03*
Y5040000D02*
D03*
Y5125000D02*
D03*
X7275000Y1790000D02*
D03*
Y1875000D02*
D03*
Y3040000D02*
D03*
Y3125000D02*
D03*
Y4290000D02*
D03*
Y4375000D02*
D03*
Y5540000D02*
D03*
Y5625000D02*
D03*
X3975000Y1290000D02*
D03*
Y1375000D02*
D03*
Y2540000D02*
D03*
Y2625000D02*
D03*
Y3790000D02*
D03*
Y3875000D02*
D03*
Y5040000D02*
D03*
Y5125000D02*
D03*
D16*
X4969400Y7830600D02*
D03*
Y7650600D02*
D03*
X1005000Y8150000D02*
D03*
Y8330000D02*
D03*
D17*
X3480000Y6995000D02*
D03*
X3395000D02*
D03*
X1288340Y6489560D02*
D03*
X1373340D02*
D03*
X1568340D02*
D03*
X1483340D02*
D03*
X1373340Y6382060D02*
D03*
X1288340D02*
D03*
X1195840Y6697060D02*
D03*
X1110840D02*
D03*
X3134360Y9357360D02*
D03*
X3049360D02*
D03*
X5272500Y6965000D02*
D03*
X5357500D02*
D03*
X4350000Y6300000D02*
D03*
X4435000D02*
D03*
X4350000Y6400000D02*
D03*
X4435000D02*
D03*
X1002500Y8457500D02*
D03*
X917500D02*
D03*
D18*
X3580400Y6901100D02*
D03*
Y6836100D02*
D03*
Y6771100D02*
D03*
X3388400D02*
D03*
Y6836100D02*
D03*
Y6901100D02*
D03*
D19*
X1313340Y6997059D02*
D03*
Y6947060D02*
D03*
Y6897060D02*
D03*
Y6847060D02*
D03*
Y6797060D02*
D03*
Y6747060D02*
D03*
Y6697060D02*
D03*
X1793340D02*
D03*
Y6747060D02*
D03*
Y6797060D02*
D03*
Y6847060D02*
D03*
Y6897060D02*
D03*
Y6947060D02*
D03*
Y6997059D02*
D03*
D20*
X1403340Y6607060D02*
D03*
X1453340D02*
D03*
X1503340D02*
D03*
X1553340D02*
D03*
X1603340D02*
D03*
X1653340D02*
D03*
X1703340D02*
D03*
Y7087059D02*
D03*
X1653340D02*
D03*
X1603340D02*
D03*
X1553340D02*
D03*
X1503340D02*
D03*
X1453340D02*
D03*
X1403340D02*
D03*
D21*
X1553340Y6847059D02*
D03*
D22*
X4575000Y7645000D02*
D03*
Y7822800D02*
D03*
X4507500Y6872200D02*
D03*
Y7050000D02*
D03*
X3850000Y7461100D02*
D03*
Y7638900D02*
D03*
D23*
X2887640Y9357360D02*
D03*
X2707640D02*
D03*
D24*
X4350500Y7645000D02*
D03*
Y7455000D02*
D03*
X4099500D02*
D03*
Y7550000D02*
D03*
Y7645000D02*
D03*
D25*
X685000Y7847500D02*
D03*
Y7927500D02*
D03*
Y8407500D02*
D03*
Y8487500D02*
D03*
D26*
Y7992500D02*
D03*
Y8042500D02*
D03*
Y8092500D02*
D03*
Y8142500D02*
D03*
Y8342500D02*
D03*
Y8292500D02*
D03*
Y8242500D02*
D03*
Y8192500D02*
D03*
D27*
X8575000Y2727500D02*
D03*
Y2272500D02*
D03*
D28*
X2700000Y7785000D02*
D03*
X2795000Y7565000D02*
D03*
X2605000D02*
D03*
D29*
X2863830Y7325000D02*
D03*
X2536170D02*
D03*
D30*
X4575000Y7507500D02*
Y7645000D01*
Y7507500D02*
X5232500D01*
X3940688Y7613900D02*
X3974588Y7580000D01*
X3980000D01*
X3875000Y7613900D02*
X3940688D01*
X3980000Y7580000D02*
X3985412D01*
X3843900Y7461100D02*
X3850000Y7455000D01*
X4099500D01*
X2361102Y8953500D02*
X2794000D01*
X2921000Y8826500D01*
X2347596Y9357500D02*
X2496820D01*
X2286500Y9028102D02*
X2361102Y8953500D01*
X2286500Y9296404D02*
X2347596Y9357500D01*
X2286500Y9028102D02*
Y9296404D01*
X906790Y7920000D02*
X1082500D01*
X685000Y7847500D02*
X685000Y7847500D01*
X1145248Y7421001D02*
Y7857251D01*
X685000Y7847500D02*
X779588D01*
X1082500Y7920000D02*
X1145248Y7857251D01*
X779588Y7847500D02*
X822088Y7805000D01*
X1082500Y7920000D02*
X1407500D01*
X865000Y7961790D02*
X906790Y7920000D01*
X822088Y7805000D02*
X827500D01*
X835711Y7932500D02*
X865000Y7961790D01*
Y8060000D01*
X685000Y7927500D02*
X690000Y7932500D01*
X835711D01*
X7100000Y875000D02*
X7197500Y972500D01*
X8497500D01*
X3985412Y7580000D02*
X4010912Y7554500D01*
X3850000Y7638900D02*
X3875000Y7613900D01*
X3423600Y7461100D02*
X3843900D01*
X3287500Y7325000D02*
X3423600Y7461100D01*
X2863830Y7325000D02*
X3287500D01*
X1665000Y7920000D02*
X2670000D01*
X1407500D02*
X1665000D01*
X1407500Y7757500D02*
Y7920000D01*
X865000Y8060000D02*
Y8373211D01*
X2605000Y7565000D02*
X2605000Y7565000D01*
X2605000Y7409070D02*
Y7565000D01*
X2536170Y7340240D02*
X2605000Y7409070D01*
X2536170Y7325000D02*
Y7340240D01*
X2605000Y7645711D02*
X2639289Y7680000D01*
X2605000Y7565000D02*
Y7645711D01*
X2794500Y7709289D02*
Y8700000D01*
X2639289Y7680000D02*
X2765211D01*
X2794500Y7709289D01*
X2460000Y7567500D02*
X2461250Y7566250D01*
X2700000Y7785000D02*
Y7890000D01*
X2670000Y7920000D02*
X2700000Y7890000D01*
X2794500Y8700000D02*
X2921000Y8826500D01*
X8570000Y2732501D02*
X8575000Y2727500D01*
X8570000Y2732501D02*
Y3040000D01*
X7559500Y2137000D02*
X7560000Y2137500D01*
X7559000Y1808000D02*
X7559500Y1808500D01*
X8497500Y972500D02*
X8575000Y1050000D01*
Y1300000D01*
Y1808000D02*
Y2272500D01*
X690000Y8402500D02*
X835711D01*
X865000Y8373211D01*
X685000Y8407500D02*
X690000Y8402500D01*
X779588Y8487500D02*
X822088Y8530000D01*
X827500D01*
X685000Y8487500D02*
X685000Y8487500D01*
X779588D01*
X2795000Y7409070D02*
Y7565000D01*
Y7409070D02*
X2863830Y7340240D01*
Y7325000D02*
Y7340240D01*
X4575000Y7822800D02*
Y7963900D01*
X4010912Y7554500D02*
X4095000D01*
X4099500Y7550000D01*
X4104000Y7640500D02*
X4200710D01*
X4230000Y7611210D01*
Y7488789D02*
Y7611210D01*
X4099500Y7645000D02*
X4104000Y7640500D01*
Y7459500D02*
X4200710D01*
X4230000Y7488789D01*
X4099500Y7455000D02*
X4104000Y7459500D01*
X4350500Y7645000D02*
X4575000D01*
D31*
X6942500Y5717500D02*
X7100000Y5875000D01*
X6942500Y5321800D02*
X7100000Y5164300D01*
X6942500Y5321800D02*
Y5717500D01*
X6947500Y4025521D02*
Y4470727D01*
X7034600Y4557827D01*
X6947500Y4025521D02*
X7100000Y3873021D01*
X7034600Y4557827D02*
Y4559599D01*
X7099847Y4624846D01*
X6995891Y3273577D02*
X6998577D01*
X6942500Y3220186D02*
X6995891Y3273577D01*
X6942500Y2780521D02*
Y3220186D01*
X6998577Y3273577D02*
X7100000Y3375000D01*
X6942500Y2780521D02*
X7100000Y2623021D01*
X5020000Y5327500D02*
X5349381D01*
X5405000Y5057500D02*
Y5122500D01*
Y5271880D01*
X5349381Y5327500D02*
X5405000Y5271880D01*
X4287500Y5012500D02*
X5360000D01*
X5405000Y5057500D01*
X4150000Y4875000D02*
X4287500Y5012500D01*
X5600000Y5127500D02*
X5605000Y5122500D01*
X5600000Y5127500D02*
Y6530000D01*
X4177500Y5875000D02*
X4480000Y5572500D01*
X3600000Y5875000D02*
X4177500D01*
X7100000Y2125000D02*
Y2623021D01*
X7099847Y4624846D02*
X7100000Y4625000D01*
Y3375000D02*
Y3873021D01*
Y4625000D02*
Y5164300D01*
Y5875000D02*
Y6532500D01*
X7025000Y6607500D02*
X7100000Y6532500D01*
X5677500Y6607500D02*
X7025000D01*
X5437915Y6753500D02*
X5491915Y6807500D01*
X5316499Y6753500D02*
X5437915D01*
X3600000Y4625000D02*
X3899999D01*
X4150000Y4875000D01*
X5600000Y6530000D02*
X5677500Y6607500D01*
X5491915Y6807500D02*
X5677500D01*
X5313999Y6751000D02*
X5316499Y6753500D01*
X4210400Y3685401D02*
X4210400D01*
X5149846Y4624846D02*
X7099847D01*
X4150000Y3625001D02*
X4210400Y3685401D01*
X4210400D02*
X5149846Y4624846D01*
X3899999Y3375000D02*
X4150000Y3625000D01*
Y2375000D02*
X5149999Y3375000D01*
X7100000D01*
X5149999Y2125000D02*
X7100000D01*
X4150000Y1125000D02*
X5149999Y2125000D01*
X3600000D02*
X3899999D01*
X4150000Y2375000D01*
X3600000Y3375000D02*
X3899999D01*
X650000Y1125000D02*
X1649999Y2125000D01*
X3600000D01*
X650000Y2375000D02*
X1649999Y3375000D01*
X3600000D01*
X650000Y3625000D02*
Y3625001D01*
X710400Y3685401D02*
X710400D01*
X1649869Y4624869D02*
X3599870D01*
X650000Y3625001D02*
X710400Y3685401D01*
X710400D02*
X1649869Y4624869D01*
X3450000Y5725000D02*
X3600000Y5875000D01*
X650000Y4875000D02*
X1500000Y5725000D01*
X3450000D01*
X1198341Y6697060D02*
X1213340Y6712060D01*
X1198340Y6697060D02*
X1198341Y6697060D01*
X1015000Y7585000D02*
X1080248Y7519752D01*
X1004176Y7585000D02*
X1015000D01*
X1080248Y7421001D02*
Y7519752D01*
X1195840Y6592060D02*
Y6697060D01*
X1198341Y6697060D02*
X1313340D01*
X1195840Y6697060D02*
X1198340D01*
X1195840Y6592060D02*
X1195840Y6592060D01*
X1203493Y6526906D02*
X1240840Y6489560D01*
X1288340D01*
X1288340Y6489560D01*
X1203493Y6526906D02*
Y6584406D01*
X1195840Y6592060D02*
X1203493Y6584406D01*
X1230914Y6747060D02*
X1313340D01*
X1213340Y6712060D02*
Y6729486D01*
X1230914Y6747060D01*
X1568340Y6392060D02*
Y6489560D01*
X1568340Y6392060D02*
X1568340Y6392060D01*
X1655000Y7910000D02*
X1665000Y7920000D01*
X2461250Y7566250D02*
X2580000D01*
X1288340Y6289560D02*
Y6382060D01*
X1288340Y6382060D02*
X1288340Y6382060D01*
X1373340Y6489560D02*
X1375840D01*
X1373340Y6382060D02*
Y6489560D01*
X1375840D02*
X1403340Y6517060D01*
X1480840Y6489560D02*
X1483340D01*
X1453340Y6517059D02*
Y6607060D01*
Y6517059D02*
X1480840Y6489560D01*
X1403340Y6517060D02*
Y6607060D01*
D32*
X5500000Y4942500D02*
Y6600000D01*
X5352500Y4795000D02*
X5500000Y4942500D01*
X4050820Y5427500D02*
X5332500D01*
X4997483Y5502518D02*
X5297482D01*
X4752500Y5747500D02*
X4997483Y5502518D01*
X5332500Y5427500D02*
X5400000Y5495000D01*
X5313999Y6701000D02*
X7506500D01*
X4320000Y4795000D02*
X5352500D01*
X3975000Y4450000D02*
X4320000Y4795000D01*
X3975000Y3875000D02*
Y4450000D01*
X7506500Y6701000D02*
X7560000Y6647500D01*
Y2222500D02*
Y6647500D01*
X4956568Y5600000D02*
X5300000D01*
X5400000Y5495000D02*
Y6095000D01*
X3975000Y5351680D02*
X4050820Y5427500D01*
X7872500Y2222500D02*
X7875000Y2225000D01*
X7560000Y2222500D02*
X7872500D01*
X3610000Y7200000D02*
X3612500Y7202500D01*
X3490000Y7200000D02*
X3610000D01*
X3820000Y6030000D02*
Y6135000D01*
Y6220000D02*
Y6382500D01*
X3812500Y6390000D02*
X3820000Y6382500D01*
X3930000Y6400000D02*
Y6657500D01*
Y6290000D02*
Y6400000D01*
X3812500Y6390000D02*
X3920000D01*
X3930000Y6400000D01*
X3997500Y6222500D02*
X4410000D01*
X3930000Y6290000D02*
X3997500Y6222500D01*
X4435000Y6401001D02*
X4641000D01*
X4410000Y6222500D02*
X4435000Y6247500D01*
Y6300000D01*
Y6400000D02*
Y6401001D01*
Y6300000D02*
Y6400000D01*
X3816400Y6771100D02*
X3930000Y6657500D01*
X3580400Y6771100D02*
X3816400D01*
X3870400Y2540000D02*
X3975000D01*
X3775000Y3040000D02*
X3890000D01*
X3775000Y1790000D02*
X3890000D01*
X3850400Y5040000D02*
X3965000D01*
X7275000Y1790000D02*
X7390000D01*
X7275000Y3040000D02*
X7390000D01*
X7265000Y4290000D02*
X7380000D01*
X7275000Y5540000D02*
X7390000D01*
X470000Y4920000D02*
Y5035000D01*
Y3670000D02*
Y3785000D01*
Y2420000D02*
Y2535000D01*
X360000Y1290000D02*
X475000D01*
X3860000D02*
X3975000D01*
X3860000Y3790000D02*
X3975000D01*
X3775000Y4290000D02*
X3890000D01*
X3775000Y5540000D02*
X3890000D01*
X4260000Y6300000D02*
X4350000D01*
X4346231Y6396231D02*
X4350000Y6400000D01*
X4248330Y6396231D02*
X4346231D01*
X4050000Y6550000D02*
X4272940D01*
X4362940Y6460000D01*
X4479926D01*
X4050000Y6750000D02*
X4194860D01*
X4155074Y6850000D02*
X4404074Y6601001D01*
X4050000Y6850000D02*
X4155074D01*
X4404074Y6601001D02*
X4641000D01*
X4050000Y6650000D02*
X4233900D01*
X4194860Y6750000D02*
X4393859Y6551001D01*
X4641000D01*
X4233900Y6650000D02*
X4382899Y6501001D01*
X4641000D01*
X5254999Y6165501D02*
X5329499D01*
X5400000Y6095000D01*
X5200000Y5700000D02*
X5300000Y5800000D01*
X4963137Y5650000D02*
X5240148D01*
X5202745Y6064755D02*
X5284755D01*
X4969705Y5700000D02*
X5200000D01*
X5290148D02*
X5300000D01*
X5240148Y5650000D02*
X5290148Y5700000D01*
X5252499Y6168001D02*
X5254999Y6165501D01*
X5200000Y6067500D02*
X5202745Y6064755D01*
X5252499Y6168001D02*
Y6189501D01*
X5360000Y6967500D02*
X5471676D01*
X5489176Y6950000D01*
X5500000D01*
X5289882Y7115229D02*
X5322339D01*
X5322911Y7115800D02*
X5373300D01*
X6377500Y8120000D01*
X5322339Y7115229D02*
X5322911Y7115800D01*
X5152499Y6862501D02*
Y7049791D01*
X5257937Y7155229D02*
X5305228D01*
X5350000Y7200000D01*
X5152499Y7049791D02*
X5257937Y7155229D01*
X5202499Y7027845D02*
X5289882Y7115229D01*
X5202499Y6862500D02*
Y7027845D01*
X5102499Y7107488D02*
X5195011Y7200000D01*
X4984600Y7243212D02*
X5041388Y7300000D01*
X4984600Y7065745D02*
Y7243212D01*
X5002499Y6862500D02*
Y7047845D01*
X4984600Y7065745D02*
X5002499Y7047845D01*
X5050000Y7200000D02*
X5051249Y7198751D01*
Y6863750D02*
Y7198751D01*
Y6863750D02*
X5052499Y6862500D01*
X5041388Y7300000D02*
X5500932D01*
X6334500Y8133568D01*
X5102499Y6862500D02*
Y7107488D01*
X4942500Y5811716D02*
Y6112426D01*
Y5811716D02*
X4954216Y5800000D01*
X5150000D01*
X4902499Y5767206D02*
X4969705Y5700000D01*
X4852500Y5760637D02*
X4963137Y5650000D01*
X4902499Y5767206D02*
Y6189501D01*
X4802500Y5754069D02*
Y6189501D01*
Y5754069D02*
X4956568Y5600000D01*
X4752500Y5747500D02*
Y6189501D01*
X4852500Y5760637D02*
Y6189501D01*
X4641000Y6141000D02*
Y6251001D01*
X4400000Y5900000D02*
X4641000Y6141000D01*
X4379152Y6100000D02*
X4510000Y6230848D01*
X4200000Y6100000D02*
X4379152D01*
X4395194Y6000000D02*
X4555023Y6159829D01*
X4300000Y6000000D02*
X4395194D01*
X4550000Y5900000D02*
Y5903778D01*
X4702500Y6056277D01*
X3975000Y3875000D02*
X4150000D01*
X3975000Y5125000D02*
Y5351680D01*
X3975000Y5125000D02*
X4010660D01*
X4019000D02*
X4150000D01*
X2496960Y9357360D02*
X2707640D01*
X2496820Y9357500D02*
X2496960Y9357360D01*
X2887640D02*
X3049360D01*
X6377500Y8120000D02*
Y8219000D01*
X3212500Y6782500D02*
X3232500Y6762500D01*
X3190074Y6782500D02*
X3212500D01*
X3089174Y6883400D02*
X3190074Y6782500D01*
X3232500Y6760000D02*
Y6762500D01*
X3157060Y6995000D02*
X3395000D01*
X3085460Y6923400D02*
X3157060Y6995000D01*
X2195200Y6923400D02*
X3085460D01*
X2174240Y6883400D02*
X3089174D01*
X1891580Y7166060D02*
X2174240Y6883400D01*
X1793240Y7325360D02*
X2195200Y6923400D01*
X1627414Y7166060D02*
X1891580D01*
X1454919Y7325360D02*
X1793240D01*
X1403340Y7087059D02*
Y7273781D01*
X1454919Y7325360D01*
X1626052Y7236460D02*
X1633220D01*
X1553340Y7163748D02*
X1626052Y7236460D01*
X1608340Y7146986D02*
X1627414Y7166060D01*
X1503340Y7087059D02*
Y7238660D01*
X1503680Y7239000D01*
X1608340Y7092059D02*
Y7146986D01*
X3232500Y6771100D02*
X3388400D01*
X1553340Y7087059D02*
Y7163748D01*
X475000Y1375000D02*
X650000D01*
X475000Y1375000D02*
X475000Y1375000D01*
Y2625000D02*
X650000D01*
X475000Y2625000D02*
X475000Y2625000D01*
Y3875000D02*
X650000D01*
X475000Y3875000D02*
X475000Y3875000D01*
Y5125000D02*
X650000D01*
X475000Y5125000D02*
X475000Y5125000D01*
X3600000Y5625000D02*
X3775000D01*
X3775000Y5625000D01*
X3975000Y5125000D02*
X3975000Y5125000D01*
X3775000Y4375000D02*
X3775000Y4375000D01*
X3600000Y4375000D02*
X3775000D01*
X3975000Y3875000D02*
X3975000Y3875000D01*
X3600000Y3125000D02*
X3775000D01*
X3775000Y3125000D01*
X3975000Y2625000D02*
X3975000Y2625000D01*
X4150000D01*
X3775000Y1875000D02*
X3775000Y1875000D01*
X3600000Y1875000D02*
X3775000D01*
X3975000Y1375000D02*
X3975000Y1375000D01*
X4150000D01*
X7100000Y1875000D02*
X7275000D01*
X7275000Y1875000D01*
X7275000Y3125000D02*
X7275000Y3125000D01*
X7100000Y3125000D02*
X7275000D01*
Y4375000D02*
X7275000Y4375000D01*
X7100000Y4375000D02*
X7275000D01*
Y5625000D02*
X7275000Y5625000D01*
X7100000Y5625000D02*
X7275000D01*
X1018622Y6659560D02*
X1056122Y6697060D01*
X1018340Y6659560D02*
X1018622D01*
X5202499Y6069999D02*
Y6189501D01*
X5200000Y6067500D02*
X5202499Y6069999D01*
X5053512Y6141588D02*
X5069599Y6125501D01*
X5071470D02*
X5097873Y6099098D01*
X5069599Y6125501D02*
X5071470D01*
X5097873Y6099098D02*
X5108697D01*
X6334500Y8133568D02*
Y8333684D01*
X6377500Y8219000D02*
X6477000Y8318500D01*
X6619500Y8430000D02*
X6731000Y8318500D01*
X6430815Y8430000D02*
X6619500D01*
X6334500Y8333684D02*
X6430815Y8430000D01*
X5357500Y6965000D02*
X5360000Y6967500D01*
X4479926Y6460000D02*
X4488925Y6451001D01*
X4575000Y7645000D02*
X4575600Y7645600D01*
X5109400Y7830600D02*
X5109400Y7830600D01*
X4964400Y7645600D02*
X4969400Y7650600D01*
X4575600Y7645600D02*
X4964400D01*
X4969400Y7830600D02*
X5109400D01*
X5109400Y7745600D02*
X5204400D01*
X5053512Y6141588D02*
Y6188488D01*
X5052499Y6189501D02*
X5053512Y6188488D01*
X1056122Y6697060D02*
X1110840D01*
X993284Y8060000D02*
X1005000Y8071716D01*
Y8150000D01*
X865000Y8060000D02*
X993284D01*
X1002500Y8457500D02*
X1005000Y8455000D01*
Y8330000D02*
Y8455000D01*
X872803Y8477500D02*
X897500D01*
X827500Y8522803D02*
X872803Y8477500D01*
X827500Y8522803D02*
Y8530000D01*
X897500Y8477500D02*
X917500Y8457500D01*
X3700000Y7065000D02*
X3760000D01*
X3629900Y6994900D02*
X3700000Y7065000D01*
X3760000D02*
X3812500Y7117500D01*
X3619900Y6901100D02*
X3629900Y6911100D01*
Y6994900D01*
X3580400Y6901100D02*
X3619900D01*
X3612500Y7117500D02*
X3812500D01*
X3502198Y6836100D02*
X3580400D01*
X3480000Y6858298D02*
X3502198Y6836100D01*
X3480000Y6858298D02*
Y6995000D01*
X3388400Y6901100D02*
Y6988400D01*
X3241400Y6836100D02*
X3388400D01*
X3232500Y6845000D02*
X3241400Y6836100D01*
X1603340Y7087059D02*
X1608340Y7092059D01*
X2460000Y7652500D02*
Y7750000D01*
X7559500Y1808500D02*
Y2137000D01*
X3134360Y9357360D02*
X3229360D01*
X527500Y8292500D02*
X685000D01*
X460000Y8360000D02*
Y8737500D01*
Y8360000D02*
X527500Y8292500D01*
X425000Y7992500D02*
X685000D01*
X360000Y8057500D02*
X425000Y7992500D01*
X360000Y8057500D02*
Y8737500D01*
X410000Y8940000D02*
X460000Y8890000D01*
Y8822500D02*
Y8890000D01*
X360000Y8822500D02*
Y8890000D01*
X410000Y8940000D01*
X5152499Y6862500D02*
X5152499Y6862501D01*
X4555023Y6159829D02*
Y6284309D01*
X4510000Y6230848D02*
Y6339285D01*
X4942500Y6112426D02*
X4952499Y6122425D01*
X4702500Y6056277D02*
Y6189501D01*
X4510000Y6339285D02*
X4521716Y6351001D01*
X4555023Y6284309D02*
X4571716Y6301001D01*
X4641000D01*
X4521716Y6351001D02*
X4641000D01*
X4952499Y6122425D02*
Y6189501D01*
X4488925Y6451001D02*
X4641000D01*
D33*
X5343380Y7043780D02*
X5350000Y7050400D01*
X5327535Y7043780D02*
X5343380D01*
X5292300Y7008545D02*
X5327535Y7043780D01*
X5292300Y6982300D02*
Y7008545D01*
X5272500Y6965000D02*
X5275000D01*
X5292300Y6982300D01*
X5022518Y5897869D02*
X5181331D01*
X5189600Y5889600D01*
X5019800Y6047700D02*
X5046045D01*
X5093744Y6000000D01*
X5100000D01*
X1195557Y6916220D02*
X1201297D01*
X1220457Y6897060D01*
X1313340D01*
X5002500Y5917887D02*
X5022518Y5897869D01*
X5252699Y6862700D02*
Y6905199D01*
X5272500Y6925000D01*
X5252499Y6862500D02*
X5252699Y6862700D01*
X5272500Y6925000D02*
Y6965000D01*
X5100000Y5982500D02*
X5200000D01*
X5002500Y5917887D02*
Y5982500D01*
X5100000D02*
Y6000000D01*
X5002500Y6067500D02*
Y6189501D01*
Y6065000D02*
Y6067500D01*
X4802500Y6982500D02*
X4802500D01*
X4785000D02*
X4802500D01*
X4917300Y6940445D02*
X4952299Y6905445D01*
Y6862700D02*
Y6905445D01*
X4900000Y6980446D02*
X4917300Y6963146D01*
X4952299Y6862700D02*
X4952499Y6862500D01*
X4917300Y6940445D02*
Y6963146D01*
X5002500Y6065000D02*
X5019800Y6047700D01*
X4802500Y6862500D02*
Y6982500D01*
X5002499Y6189501D02*
X5002500D01*
D34*
X684620Y8093200D02*
X756208D01*
X684460Y8093040D02*
X684620Y8093200D01*
X1116234Y6797600D02*
X1312801D01*
X1115994Y6797360D02*
X1116234Y6797600D01*
X1312801D02*
X1313340Y6797060D01*
X995323Y6797360D02*
X1115994D01*
X969543Y6771580D02*
X995323Y6797360D01*
X958340Y6771580D02*
X969543D01*
X992795Y7300540D02*
X1009548Y7283787D01*
X632922Y7300540D02*
X992795D01*
X1009548Y7234700D02*
Y7283787D01*
Y7234700D02*
X1015248Y7229001D01*
X684300Y8241800D02*
X685000Y8242500D01*
X613793Y8241800D02*
X684300D01*
Y8143200D02*
X685000Y8142500D01*
X613793Y8143200D02*
X684300D01*
X593700Y8221707D02*
X613793Y8241800D01*
X593700Y8163293D02*
Y8221707D01*
Y8163293D02*
X613793Y8143200D01*
X536754Y8141960D02*
X684460D01*
X586226Y7347236D02*
X632922Y7300540D01*
X586226Y7347236D02*
Y7405771D01*
X560986Y7431011D02*
Y7442214D01*
Y7431011D02*
X586226Y7405771D01*
X1312801Y6846520D02*
X1313340Y6847060D01*
X1095731Y6846280D02*
X1095971Y6846520D01*
X1312801D01*
X995323Y6846280D02*
X1095731D01*
X969543Y6872060D02*
X995323Y6846280D01*
X958340Y6872060D02*
X969543D01*
X776300Y8113293D02*
Y8171708D01*
X756208Y8093200D02*
X776300Y8113293D01*
X1009548Y7415301D02*
X1015248Y7421001D01*
X1009548Y7366215D02*
Y7415301D01*
X992795Y7349461D02*
X1009548Y7366215D01*
X685700Y8191800D02*
X756208D01*
X776300Y8171708D01*
X685000Y8192500D02*
X685700Y8191800D01*
X536754Y8093040D02*
X684460D01*
X660400Y7430997D02*
Y7442200D01*
X653185Y7349461D02*
X992795D01*
X635146Y7405743D02*
X660400Y7430997D01*
X635146Y7367500D02*
X653185Y7349461D01*
X635146Y7367500D02*
Y7405743D01*
D35*
X8777500Y935000D02*
D03*
X277500Y9317500D02*
D03*
D36*
X3812500Y6390000D02*
D03*
D37*
X4150000Y4875000D02*
D03*
X650000Y1125000D02*
D03*
Y4875000D02*
D03*
Y3625000D02*
D03*
Y2375000D02*
D03*
X3600000Y4625000D02*
D03*
Y5875000D02*
D03*
Y2125000D02*
D03*
Y3375000D02*
D03*
X4150000Y3625000D02*
D03*
Y2375000D02*
D03*
Y1125000D02*
D03*
X7100000Y5875000D02*
D03*
Y4625000D02*
D03*
Y3375000D02*
D03*
Y2125000D02*
D03*
Y875000D02*
D03*
D38*
X4150000Y5125000D02*
D03*
X650000Y1375000D02*
D03*
Y5125000D02*
D03*
Y3875000D02*
D03*
Y2625000D02*
D03*
X3600000Y4375000D02*
D03*
Y5625000D02*
D03*
Y1875000D02*
D03*
Y3125000D02*
D03*
X4150000Y3875000D02*
D03*
Y2625000D02*
D03*
Y1375000D02*
D03*
X7100000Y5625000D02*
D03*
Y4375000D02*
D03*
Y3125000D02*
D03*
Y1875000D02*
D03*
Y625000D02*
D03*
D39*
X3812500Y7117500D02*
D03*
X1407500Y7757500D02*
D03*
X2496820Y9357500D02*
D03*
X7875000Y2225000D02*
D03*
X721360Y6037580D02*
D03*
X5957500Y6905000D02*
D03*
X5232500Y7507500D02*
D03*
D40*
X210000Y7735000D02*
D03*
Y8600000D02*
D03*
D41*
X627000Y7735000D02*
D03*
Y8600000D02*
D03*
D42*
X578000Y8456500D02*
D03*
Y7878500D02*
D03*
D43*
X8255000Y9080500D02*
D03*
X889000D02*
D03*
X8509000Y508000D02*
D03*
X508000D02*
D03*
D44*
X7559000Y1808000D02*
D03*
D45*
Y1300000D02*
D03*
X8575000D02*
D03*
Y1808000D02*
D03*
D46*
X2159000Y9080500D02*
D03*
X3683000D02*
D03*
X2921000D02*
D03*
X2667000D02*
D03*
X2413000D02*
D03*
X3429000D02*
D03*
X1905000D02*
D03*
X1651000D02*
D03*
X3175000D02*
D03*
X1397000D02*
D03*
X6223000D02*
D03*
X6477000Y8826500D02*
D03*
X7493000Y9080500D02*
D03*
Y8826500D02*
D03*
X7239000Y9080500D02*
D03*
Y8826500D02*
D03*
X6985000Y9080500D02*
D03*
Y8826500D02*
D03*
X6731000Y9080500D02*
D03*
Y8826500D02*
D03*
X6477000Y9080500D02*
D03*
X7747000D02*
D03*
Y8826500D02*
D03*
X6223000D02*
D03*
X3175000D02*
D03*
X4445000D02*
D03*
X3683000D02*
D03*
X3937000D02*
D03*
X4191000D02*
D03*
X3429000D02*
D03*
X5969000D02*
D03*
X5715000D02*
D03*
X5461000D02*
D03*
X4699000D02*
D03*
X4953000D02*
D03*
X5207000D02*
D03*
X2159000D02*
D03*
X2921000D02*
D03*
X2667000D02*
D03*
X2413000D02*
D03*
X1905000D02*
D03*
X1651000D02*
D03*
X5207000Y9080500D02*
D03*
X5969000D02*
D03*
X5715000D02*
D03*
X5461000D02*
D03*
X4953000D02*
D03*
X4699000D02*
D03*
X4445000D02*
D03*
X4191000D02*
D03*
X3937000D02*
D03*
X2159000Y8572500D02*
D03*
X3683000D02*
D03*
X2921000D02*
D03*
X2667000D02*
D03*
X2413000D02*
D03*
X3429000D02*
D03*
X1905000D02*
D03*
X1651000D02*
D03*
X3175000D02*
D03*
X1397000D02*
D03*
X6223000D02*
D03*
X6477000Y8318500D02*
D03*
X7493000Y8572500D02*
D03*
Y8318500D02*
D03*
X7239000Y8572500D02*
D03*
Y8318500D02*
D03*
X6985000Y8572500D02*
D03*
Y8318500D02*
D03*
X6731000Y8572500D02*
D03*
Y8318500D02*
D03*
X6477000Y8572500D02*
D03*
X7747000D02*
D03*
Y8318500D02*
D03*
X6223000D02*
D03*
X3175000D02*
D03*
X4445000D02*
D03*
X3683000D02*
D03*
X3937000D02*
D03*
X4191000D02*
D03*
X3429000D02*
D03*
X5969000D02*
D03*
X5715000D02*
D03*
X5461000D02*
D03*
X4699000D02*
D03*
X4953000D02*
D03*
X5207000D02*
D03*
X2159000D02*
D03*
X2921000D02*
D03*
X2667000D02*
D03*
X2413000D02*
D03*
X1905000D02*
D03*
X1651000D02*
D03*
X5207000Y8572500D02*
D03*
X5969000D02*
D03*
X5715000D02*
D03*
X5461000D02*
D03*
X4953000D02*
D03*
X4699000D02*
D03*
X4445000D02*
D03*
X4191000D02*
D03*
X3937000D02*
D03*
D47*
X1397000Y8826500D02*
D03*
Y8318500D02*
D03*
D48*
X8760006Y2860003D02*
D03*
Y2460003D02*
D03*
Y2060002D02*
D03*
Y1660002D02*
D03*
X8660006Y1460002D02*
D03*
X8760006Y1260002D02*
D03*
X8660006Y1060002D02*
D03*
X8460006Y8660006D02*
D03*
Y8260006D02*
D03*
Y7860006D02*
D03*
Y7460005D02*
D03*
Y7060005D02*
D03*
Y6660005D02*
D03*
Y6260005D02*
D03*
Y5860005D02*
D03*
Y5460004D02*
D03*
Y5060004D02*
D03*
Y4660004D02*
D03*
Y4260004D02*
D03*
Y3860003D02*
D03*
Y3460003D02*
D03*
X8560006Y2460003D02*
D03*
X8460006Y1460002D02*
D03*
Y1060002D02*
D03*
X8260006Y8660006D02*
D03*
X8360006Y8460006D02*
D03*
X8260006Y8260006D02*
D03*
X8360006Y8060006D02*
D03*
X8260006Y7860006D02*
D03*
X8360006Y7660006D02*
D03*
X8260006Y7460005D02*
D03*
X8360006Y7260005D02*
D03*
X8260006Y7060005D02*
D03*
X8360006Y6860005D02*
D03*
X8260006Y6660005D02*
D03*
X8360006Y6460005D02*
D03*
X8260006Y6260005D02*
D03*
X8360006Y6060005D02*
D03*
X8260006Y5860005D02*
D03*
X8360006Y5660004D02*
D03*
X8260006Y5460004D02*
D03*
X8360006Y5260004D02*
D03*
X8260006Y5060004D02*
D03*
X8360006Y4860004D02*
D03*
X8260006Y4660004D02*
D03*
X8360006Y4460004D02*
D03*
X8260006Y4260004D02*
D03*
X8360006Y4060004D02*
D03*
X8260006Y3860003D02*
D03*
X8360006Y3660003D02*
D03*
X8260006Y3460003D02*
D03*
X8360006Y3260003D02*
D03*
Y2860003D02*
D03*
X8260006Y2660003D02*
D03*
X8360006Y2460003D02*
D03*
X8260006Y2260003D02*
D03*
X8360006Y2060002D02*
D03*
X8260006Y1860002D02*
D03*
X8360006Y1660002D02*
D03*
X8260006Y1460002D02*
D03*
X8360006Y1260002D02*
D03*
X8260006Y1060002D02*
D03*
X8060006Y8660006D02*
D03*
X8160006Y8460006D02*
D03*
X8060006Y8260006D02*
D03*
X8160006Y8060006D02*
D03*
X8060006Y7860006D02*
D03*
X8160006Y7660006D02*
D03*
X8060006Y7460005D02*
D03*
X8160006Y7260005D02*
D03*
X8060006Y7060005D02*
D03*
X8160006Y6860005D02*
D03*
X8060006Y6660005D02*
D03*
X8160006Y6460005D02*
D03*
X8060006Y6260005D02*
D03*
X8160006Y6060005D02*
D03*
X8060006Y5860005D02*
D03*
X8160006Y5660004D02*
D03*
X8060006Y5460004D02*
D03*
X8160006Y5260004D02*
D03*
X8060006Y5060004D02*
D03*
X8160006Y4860004D02*
D03*
X8060006Y4660004D02*
D03*
X8160006Y4460004D02*
D03*
X8060006Y4260004D02*
D03*
X8160006Y4060004D02*
D03*
X8060006Y3860003D02*
D03*
X8160006Y3660003D02*
D03*
X8060006Y3460003D02*
D03*
X8160006Y3260003D02*
D03*
Y2860003D02*
D03*
X8060006Y2660003D02*
D03*
X8160006Y2460003D02*
D03*
X8060006Y2260003D02*
D03*
X8160006Y2060002D02*
D03*
X8060006Y1860002D02*
D03*
X8160006Y1660002D02*
D03*
X8060006Y1460002D02*
D03*
X8160006Y1260002D02*
D03*
X8060006Y1060002D02*
D03*
X8160006Y860002D02*
D03*
X8060006Y660002D02*
D03*
Y260002D02*
D03*
X7960006Y8460006D02*
D03*
Y8060006D02*
D03*
X7860006Y7860006D02*
D03*
X7960006Y7660006D02*
D03*
X7860006Y7460005D02*
D03*
X7960006Y7260005D02*
D03*
X7860006Y7060005D02*
D03*
X7960006Y6860005D02*
D03*
X7860006Y6660005D02*
D03*
X7960006Y6460005D02*
D03*
X7860006Y6260005D02*
D03*
X7960006Y6060005D02*
D03*
X7860006Y5860005D02*
D03*
X7960006Y5660004D02*
D03*
X7860006Y5460004D02*
D03*
X7960006Y5260004D02*
D03*
X7860006Y5060004D02*
D03*
X7960006Y4860004D02*
D03*
X7860006Y4660004D02*
D03*
X7960006Y4460004D02*
D03*
X7860006Y4260004D02*
D03*
X7960006Y4060004D02*
D03*
X7860006Y3860003D02*
D03*
X7960006Y3660003D02*
D03*
X7860006Y3460003D02*
D03*
X7960006Y3260003D02*
D03*
Y2860003D02*
D03*
X7860006Y2660003D02*
D03*
X7960006Y2460003D02*
D03*
Y2060002D02*
D03*
X7860006Y1860002D02*
D03*
X7960006Y1660002D02*
D03*
X7860006Y1460002D02*
D03*
X7960006Y1260002D02*
D03*
X7860006Y1060002D02*
D03*
X7960006Y860002D02*
D03*
X7860006Y660002D02*
D03*
X7960006Y460002D02*
D03*
X7860006Y260002D02*
D03*
X7760006Y9260006D02*
D03*
Y8060006D02*
D03*
Y7660006D02*
D03*
Y7260005D02*
D03*
Y6860005D02*
D03*
Y6460005D02*
D03*
Y6060005D02*
D03*
Y5660004D02*
D03*
Y5260004D02*
D03*
Y4860004D02*
D03*
Y4460004D02*
D03*
Y4060004D02*
D03*
Y3660003D02*
D03*
Y3260003D02*
D03*
Y2860003D02*
D03*
X7660006Y2660003D02*
D03*
X7760006Y2460003D02*
D03*
Y2060002D02*
D03*
Y1660002D02*
D03*
X7660006Y1460002D02*
D03*
X7760006Y1260002D02*
D03*
X7660006Y1060002D02*
D03*
X7760006Y860002D02*
D03*
X7660006Y660002D02*
D03*
X7760006Y460002D02*
D03*
X7660006Y260002D02*
D03*
X7560005Y9260006D02*
D03*
X7460005Y7860006D02*
D03*
Y7460005D02*
D03*
Y7060005D02*
D03*
Y6260005D02*
D03*
Y5860005D02*
D03*
Y5460004D02*
D03*
Y5060004D02*
D03*
Y4660004D02*
D03*
Y3860003D02*
D03*
Y3460003D02*
D03*
Y2660003D02*
D03*
Y2260003D02*
D03*
Y1460002D02*
D03*
Y1060002D02*
D03*
X7560005Y860002D02*
D03*
X7460005Y660002D02*
D03*
X7560005Y460002D02*
D03*
X7460005Y260002D02*
D03*
X7360005Y9260006D02*
D03*
Y8460006D02*
D03*
Y8060006D02*
D03*
X7260005Y7860006D02*
D03*
X7360005Y7660006D02*
D03*
X7260005Y7460005D02*
D03*
X7360005Y7260005D02*
D03*
X7260005Y7060005D02*
D03*
X7360005Y6860005D02*
D03*
Y6460005D02*
D03*
X7260005Y6260005D02*
D03*
X7360005Y6060005D02*
D03*
Y5260004D02*
D03*
X7260005Y5060004D02*
D03*
X7360005Y4860004D02*
D03*
X7260005Y4660004D02*
D03*
X7360005Y4460004D02*
D03*
Y4060004D02*
D03*
X7260005Y3860003D02*
D03*
X7360005Y3660003D02*
D03*
X7260005Y3460003D02*
D03*
X7360005Y3260003D02*
D03*
Y2860003D02*
D03*
X7260005Y2660003D02*
D03*
X7360005Y2460003D02*
D03*
X7260005Y2260003D02*
D03*
X7360005Y2060002D02*
D03*
Y1660002D02*
D03*
X7260005Y1460002D02*
D03*
X7360005Y1260002D02*
D03*
X7260005Y1060002D02*
D03*
X7360005Y860002D02*
D03*
X7260005Y660002D02*
D03*
X7360005Y460002D02*
D03*
X7260005Y260002D02*
D03*
X7160005Y9260006D02*
D03*
Y8060006D02*
D03*
X7060005Y7860006D02*
D03*
X7160005Y7660006D02*
D03*
X7060005Y7460005D02*
D03*
X7160005Y7260005D02*
D03*
X7060005Y7060005D02*
D03*
X7160005Y6860005D02*
D03*
X7060005Y5460004D02*
D03*
X7160005Y5260004D02*
D03*
Y4060004D02*
D03*
Y2860003D02*
D03*
Y1660002D02*
D03*
X7060005Y1460002D02*
D03*
X7160005Y1260002D02*
D03*
X7060005Y1060002D02*
D03*
X7160005Y460002D02*
D03*
X7060005Y260002D02*
D03*
X6960005Y9260006D02*
D03*
Y8060006D02*
D03*
X6860005Y7860006D02*
D03*
X6960005Y7660006D02*
D03*
X6860005Y7460005D02*
D03*
X6960005Y7260005D02*
D03*
X6860005Y7060005D02*
D03*
X6960005Y6860005D02*
D03*
Y6460005D02*
D03*
X6860005Y6260005D02*
D03*
X6960005Y6060005D02*
D03*
X6860005Y5460004D02*
D03*
Y5060004D02*
D03*
X6960005Y4860004D02*
D03*
X6860005Y4260004D02*
D03*
Y3860003D02*
D03*
X6960005Y3660003D02*
D03*
X6860005Y3460003D02*
D03*
Y2660003D02*
D03*
X6960005Y2460003D02*
D03*
X6860005Y2260003D02*
D03*
X6960005Y1660002D02*
D03*
X6860005Y1460002D02*
D03*
X6960005Y1260002D02*
D03*
X6860005Y1060002D02*
D03*
Y660002D02*
D03*
X6960005Y460002D02*
D03*
X6860005Y260002D02*
D03*
X6760005Y9260006D02*
D03*
Y8060006D02*
D03*
X6660005Y7860006D02*
D03*
X6760005Y7660006D02*
D03*
X6660005Y7460005D02*
D03*
X6760005Y7260005D02*
D03*
X6660005Y7060005D02*
D03*
X6760005Y6860005D02*
D03*
Y6460005D02*
D03*
X6660005Y6260005D02*
D03*
X6760005Y6060005D02*
D03*
Y5660004D02*
D03*
X6660005Y5460004D02*
D03*
X6760005Y5260004D02*
D03*
X6660005Y5060004D02*
D03*
X6760005Y4860004D02*
D03*
Y4460004D02*
D03*
X6660005Y4260004D02*
D03*
X6760005Y4060004D02*
D03*
X6660005Y3860003D02*
D03*
X6760005Y3660003D02*
D03*
X6660005Y3460003D02*
D03*
X6760005Y3260003D02*
D03*
Y2860003D02*
D03*
X6660005Y2660003D02*
D03*
X6760005Y2460003D02*
D03*
X6660005Y2260003D02*
D03*
X6760005Y1660002D02*
D03*
X6660005Y1460002D02*
D03*
X6760005Y1260002D02*
D03*
X6660005Y1060002D02*
D03*
X6760005Y860002D02*
D03*
X6660005Y660002D02*
D03*
X6760005Y460002D02*
D03*
X6660005Y260002D02*
D03*
X6560005Y9260006D02*
D03*
Y8060006D02*
D03*
X6460005Y7860006D02*
D03*
X6560005Y7660006D02*
D03*
X6460005Y7460005D02*
D03*
X6560005Y7260005D02*
D03*
X6460005Y7060005D02*
D03*
X6560005Y6860005D02*
D03*
Y6460005D02*
D03*
X6460005Y6260005D02*
D03*
X6560005Y6060005D02*
D03*
Y5660004D02*
D03*
X6460005Y5460004D02*
D03*
X6560005Y5260004D02*
D03*
X6460005Y5060004D02*
D03*
X6560005Y4860004D02*
D03*
Y4460004D02*
D03*
X6460005Y4260004D02*
D03*
X6560005Y4060004D02*
D03*
X6460005Y3860003D02*
D03*
X6560005Y3660003D02*
D03*
X6460005Y3460003D02*
D03*
X6560005Y3260003D02*
D03*
Y2860003D02*
D03*
X6460005Y2660003D02*
D03*
X6560005Y2460003D02*
D03*
X6460005Y2260003D02*
D03*
X6560005Y1660002D02*
D03*
X6460005Y1460002D02*
D03*
X6560005Y1260002D02*
D03*
X6460005Y1060002D02*
D03*
X6560005Y860002D02*
D03*
X6460005Y660002D02*
D03*
X6560005Y460002D02*
D03*
X6460005Y260002D02*
D03*
X6360005Y9260006D02*
D03*
Y8460006D02*
D03*
X6260005Y7860006D02*
D03*
X6360005Y7660006D02*
D03*
X6260005Y7460005D02*
D03*
X6360005Y7260005D02*
D03*
X6260005Y7060005D02*
D03*
X6360005Y6860005D02*
D03*
Y6460005D02*
D03*
X6260005Y6260005D02*
D03*
X6360005Y6060005D02*
D03*
Y5660004D02*
D03*
X6260005Y5460004D02*
D03*
X6360005Y5260004D02*
D03*
X6260005Y5060004D02*
D03*
X6360005Y4860004D02*
D03*
Y4460004D02*
D03*
X6260005Y4260004D02*
D03*
X6360005Y4060004D02*
D03*
X6260005Y3860003D02*
D03*
X6360005Y3660003D02*
D03*
X6260005Y3460003D02*
D03*
X6360005Y3260003D02*
D03*
Y2860003D02*
D03*
X6260005Y2660003D02*
D03*
X6360005Y2460003D02*
D03*
X6260005Y2260003D02*
D03*
X6360005Y1660002D02*
D03*
X6260005Y1460002D02*
D03*
X6360005Y1260002D02*
D03*
X6260005Y1060002D02*
D03*
X6360005Y860002D02*
D03*
Y460002D02*
D03*
X6160005Y9260006D02*
D03*
Y8060006D02*
D03*
Y7660006D02*
D03*
X6060005Y7460005D02*
D03*
X6160005Y7260005D02*
D03*
Y6860005D02*
D03*
Y6460005D02*
D03*
X6060005Y6260005D02*
D03*
X6160005Y6060005D02*
D03*
Y5660004D02*
D03*
X6060005Y5460004D02*
D03*
X6160005Y5260004D02*
D03*
X6060005Y5060004D02*
D03*
X6160005Y4860004D02*
D03*
Y4460004D02*
D03*
X6060005Y4260004D02*
D03*
X6160005Y4060004D02*
D03*
X6060005Y3860003D02*
D03*
X6160005Y3660003D02*
D03*
X6060005Y3460003D02*
D03*
X6160005Y3260003D02*
D03*
Y2860003D02*
D03*
X6060005Y2660003D02*
D03*
X6160005Y2460003D02*
D03*
X6060005Y2260003D02*
D03*
X6160005Y1660002D02*
D03*
X6060005Y1460002D02*
D03*
X6160005Y1260002D02*
D03*
X6060005Y1060002D02*
D03*
X6160005Y860002D02*
D03*
X5960005Y9260006D02*
D03*
Y8060006D02*
D03*
X5860005Y7860006D02*
D03*
Y7460005D02*
D03*
X5960005Y7260005D02*
D03*
Y6460005D02*
D03*
X5860005Y6260005D02*
D03*
X5960005Y6060005D02*
D03*
Y5660004D02*
D03*
X5860005Y5460004D02*
D03*
X5960005Y5260004D02*
D03*
Y2860003D02*
D03*
Y2460003D02*
D03*
X5860005Y1860002D02*
D03*
X5960005Y1660002D02*
D03*
X5860005Y1460002D02*
D03*
X5960005Y1260002D02*
D03*
X5860005Y1060002D02*
D03*
X5960005Y860002D02*
D03*
X5760004Y8060006D02*
D03*
X5660004Y7860006D02*
D03*
X5760004Y7660006D02*
D03*
Y7260005D02*
D03*
X5660004Y7060005D02*
D03*
X5760004Y6460005D02*
D03*
Y6060005D02*
D03*
Y5660004D02*
D03*
Y4860004D02*
D03*
Y4460004D02*
D03*
X5660004Y4260004D02*
D03*
X5760004Y4060004D02*
D03*
X5660004Y3860003D02*
D03*
X5760004Y3660003D02*
D03*
X5660004Y3460003D02*
D03*
X5760004Y3260003D02*
D03*
X5660004Y3060003D02*
D03*
X5760004Y2860003D02*
D03*
X5660004Y2660003D02*
D03*
X5760004Y2460003D02*
D03*
X5660004Y2260003D02*
D03*
Y1860002D02*
D03*
X5760004Y1660002D02*
D03*
X5660004Y1460002D02*
D03*
X5760004Y1260002D02*
D03*
X5660004Y1060002D02*
D03*
X5760004Y860002D02*
D03*
X5560004Y8060006D02*
D03*
X5460004Y7860006D02*
D03*
X5560004Y7660006D02*
D03*
Y4860004D02*
D03*
Y4460004D02*
D03*
X5460004Y4260004D02*
D03*
X5560004Y4060004D02*
D03*
X5460004Y3860003D02*
D03*
X5560004Y3660003D02*
D03*
X5460004Y3460003D02*
D03*
X5560004Y3260003D02*
D03*
X5460004Y3060003D02*
D03*
X5560004Y2860003D02*
D03*
X5460004Y2660003D02*
D03*
X5560004Y2460003D02*
D03*
X5460004Y2260003D02*
D03*
Y1860002D02*
D03*
X5560004Y1660002D02*
D03*
X5460004Y1460002D02*
D03*
X5560004Y1260002D02*
D03*
X5460004Y1060002D02*
D03*
X5560004Y860002D02*
D03*
X5360004Y8060006D02*
D03*
X5260004Y7860006D02*
D03*
X5360004Y4460004D02*
D03*
X5260004Y4260004D02*
D03*
X5360004Y4060004D02*
D03*
X5260004Y3860003D02*
D03*
X5360004Y3660003D02*
D03*
X5260004Y3460003D02*
D03*
X5360004Y3260003D02*
D03*
X5260004Y3060003D02*
D03*
X5360004Y2860003D02*
D03*
X5260004Y2660003D02*
D03*
X5360004Y2460003D02*
D03*
X5260004Y2260003D02*
D03*
Y1860002D02*
D03*
X5360004Y1660002D02*
D03*
X5260004Y1460002D02*
D03*
X5360004Y1260002D02*
D03*
X5260004Y1060002D02*
D03*
X5360004Y860002D02*
D03*
X5160004Y8060006D02*
D03*
Y2460003D02*
D03*
X5060004Y2260003D02*
D03*
Y1860002D02*
D03*
X5160004Y1660002D02*
D03*
X5060004Y1460002D02*
D03*
X5160004Y1260002D02*
D03*
X5060004Y1060002D02*
D03*
X5160004Y860002D02*
D03*
X4960004Y8060006D02*
D03*
X4860004Y7860006D02*
D03*
Y4660004D02*
D03*
X4960004Y4060004D02*
D03*
X4860004Y3860003D02*
D03*
X4960004Y3660003D02*
D03*
X4860004Y3460003D02*
D03*
X4960004Y2860003D02*
D03*
Y2460003D02*
D03*
X4860004Y2260003D02*
D03*
X4960004Y2060002D02*
D03*
Y1660002D02*
D03*
X4860004Y1460002D02*
D03*
X4960004Y1260002D02*
D03*
X4860004Y1060002D02*
D03*
X4960004Y860002D02*
D03*
X4760004Y8060006D02*
D03*
Y5260004D02*
D03*
X4660004Y4660004D02*
D03*
X4760004Y4460004D02*
D03*
X4660004Y4260004D02*
D03*
X4760004Y4060004D02*
D03*
X4660004Y3860003D02*
D03*
X4760004Y3660003D02*
D03*
X4660004Y3460003D02*
D03*
X4760004Y3260003D02*
D03*
X4660004Y3060003D02*
D03*
X4760004Y2860003D02*
D03*
Y2460003D02*
D03*
X4660004Y2260003D02*
D03*
X4760004Y2060002D02*
D03*
X4660004Y1860002D02*
D03*
Y1460002D02*
D03*
X4760004Y1260002D02*
D03*
X4660004Y1060002D02*
D03*
X4760004Y860002D02*
D03*
X4560004Y8460006D02*
D03*
Y5660004D02*
D03*
Y5260004D02*
D03*
X4460004Y4660004D02*
D03*
X4560004Y4460004D02*
D03*
X4460004Y4260004D02*
D03*
X4560004Y3660003D02*
D03*
X4460004Y3460003D02*
D03*
X4560004Y3260003D02*
D03*
X4460004Y3060003D02*
D03*
X4560004Y2460003D02*
D03*
X4460004Y2260003D02*
D03*
X4560004Y2060002D02*
D03*
X4460004Y1860002D02*
D03*
X4560004Y1660002D02*
D03*
Y1260002D02*
D03*
X4460004Y1060002D02*
D03*
X4560004Y860002D02*
D03*
X4360004Y8060006D02*
D03*
X4260004Y7860006D02*
D03*
X4360004Y5260004D02*
D03*
Y4460004D02*
D03*
X4260004Y4260004D02*
D03*
X4360004Y4060004D02*
D03*
Y3660003D02*
D03*
X4260004Y3460003D02*
D03*
X4360004Y3260003D02*
D03*
X4260004Y3060003D02*
D03*
X4360004Y2860003D02*
D03*
Y2460003D02*
D03*
Y2060002D02*
D03*
X4260004Y1860002D02*
D03*
X4360004Y1660002D02*
D03*
Y860002D02*
D03*
X4160004Y8060006D02*
D03*
X4060004Y7860006D02*
D03*
Y4660004D02*
D03*
X4160004Y4460004D02*
D03*
X4060004Y4260004D02*
D03*
X4160004Y4060004D02*
D03*
Y3260003D02*
D03*
X4060004Y3060003D02*
D03*
X4160004Y2860003D02*
D03*
Y2060002D02*
D03*
X4060004Y1860002D02*
D03*
X4160004Y1660002D02*
D03*
Y860002D02*
D03*
X3960004Y8060006D02*
D03*
X3860003Y7860006D02*
D03*
X3960004Y4860004D02*
D03*
Y3660003D02*
D03*
Y860002D02*
D03*
X3760003Y8060006D02*
D03*
X3660003Y7860006D02*
D03*
Y5460004D02*
D03*
X3760003Y5260004D02*
D03*
X3660003Y5060004D02*
D03*
Y3860003D02*
D03*
Y2660003D02*
D03*
X3760003Y1660002D02*
D03*
X3560003Y8460006D02*
D03*
Y8060006D02*
D03*
X3460003Y7860006D02*
D03*
X3560003Y7660006D02*
D03*
Y6460005D02*
D03*
X3460003Y6260005D02*
D03*
Y5460004D02*
D03*
X3560003Y5260004D02*
D03*
X3460003Y5060004D02*
D03*
X3560003Y4860004D02*
D03*
X3460003Y4260004D02*
D03*
X3560003Y4060004D02*
D03*
X3460003Y3460003D02*
D03*
X3560003Y2860003D02*
D03*
X3460003Y2660003D02*
D03*
X3560003Y2460003D02*
D03*
X3460003Y2260003D02*
D03*
X3560003Y1660002D02*
D03*
X3360003Y9260006D02*
D03*
Y8060006D02*
D03*
X3260003Y7860006D02*
D03*
X3360003Y7660006D02*
D03*
X3260003Y7460005D02*
D03*
X3360003Y6460005D02*
D03*
X3260003Y6260005D02*
D03*
Y5860005D02*
D03*
Y5460004D02*
D03*
Y5060004D02*
D03*
Y4260004D02*
D03*
Y3860003D02*
D03*
X3360003Y3660003D02*
D03*
X3260003Y3460003D02*
D03*
X3360003Y3260003D02*
D03*
X3260003Y3060003D02*
D03*
X3360003Y2860003D02*
D03*
X3260003Y2660003D02*
D03*
X3360003Y2460003D02*
D03*
X3260003Y2260003D02*
D03*
Y1860002D02*
D03*
X3360003Y1660002D02*
D03*
X3160003Y8060006D02*
D03*
X3060003Y7860006D02*
D03*
X3160003Y7660006D02*
D03*
X3060003Y7460005D02*
D03*
Y7060005D02*
D03*
X3160003Y6460005D02*
D03*
X3060003Y6260005D02*
D03*
X3160003Y6060005D02*
D03*
X3060003Y5860005D02*
D03*
Y5460004D02*
D03*
X3160003Y5260004D02*
D03*
X3060003Y5060004D02*
D03*
X3160003Y4860004D02*
D03*
Y4460004D02*
D03*
X3060003Y4260004D02*
D03*
X3160003Y4060004D02*
D03*
X3060003Y3860003D02*
D03*
X3160003Y3660003D02*
D03*
X3060003Y3460003D02*
D03*
X3160003Y3260003D02*
D03*
X3060003Y3060003D02*
D03*
X3160003Y2860003D02*
D03*
X3060003Y2660003D02*
D03*
X3160003Y2460003D02*
D03*
X3060003Y2260003D02*
D03*
Y1860002D02*
D03*
X3160003Y1660002D02*
D03*
X2960003Y8060006D02*
D03*
Y7660006D02*
D03*
X2860003Y7060005D02*
D03*
X2960003Y6460005D02*
D03*
X2860003Y6260005D02*
D03*
X2960003Y6060005D02*
D03*
X2860003Y5860005D02*
D03*
Y5460004D02*
D03*
X2960003Y5260004D02*
D03*
X2860003Y5060004D02*
D03*
X2960003Y4860004D02*
D03*
Y4460004D02*
D03*
X2860003Y4260004D02*
D03*
X2960003Y4060004D02*
D03*
X2860003Y3860003D02*
D03*
X2960003Y3660003D02*
D03*
X2860003Y3460003D02*
D03*
X2960003Y3260003D02*
D03*
X2860003Y3060003D02*
D03*
X2960003Y2860003D02*
D03*
X2860003Y2660003D02*
D03*
X2960003Y2460003D02*
D03*
X2860003Y2260003D02*
D03*
Y1860002D02*
D03*
X2960003Y1660002D02*
D03*
X2660003Y7060005D02*
D03*
X2760003Y6460005D02*
D03*
X2660003Y6260005D02*
D03*
X2760003Y6060005D02*
D03*
X2660003Y5860005D02*
D03*
Y5460004D02*
D03*
X2760003Y5260004D02*
D03*
X2660003Y5060004D02*
D03*
X2760003Y4860004D02*
D03*
Y4460004D02*
D03*
X2660003Y4260004D02*
D03*
X2760003Y4060004D02*
D03*
X2660003Y3860003D02*
D03*
X2760003Y3660003D02*
D03*
X2660003Y3460003D02*
D03*
X2760003Y3260003D02*
D03*
X2660003Y3060003D02*
D03*
X2760003Y2860003D02*
D03*
X2660003Y2660003D02*
D03*
X2760003Y2460003D02*
D03*
X2660003Y2260003D02*
D03*
Y1860002D02*
D03*
X2760003Y1660002D02*
D03*
X2560003Y8460006D02*
D03*
Y8060006D02*
D03*
X2460003Y7460005D02*
D03*
Y7060005D02*
D03*
Y2260003D02*
D03*
Y1860002D02*
D03*
X2560003Y1660002D02*
D03*
X2360003Y8060006D02*
D03*
Y7660006D02*
D03*
X2260003Y7460005D02*
D03*
Y7060005D02*
D03*
Y6660005D02*
D03*
Y6260005D02*
D03*
Y5860005D02*
D03*
Y5460004D02*
D03*
X2360003Y4860004D02*
D03*
Y4460004D02*
D03*
X2260003Y4260004D02*
D03*
X2360003Y4060004D02*
D03*
Y3660003D02*
D03*
X2260003Y3460003D02*
D03*
X2360003Y3260003D02*
D03*
X2260003Y3060003D02*
D03*
X2360003Y2860003D02*
D03*
Y2460003D02*
D03*
X2260003Y2260003D02*
D03*
Y1860002D02*
D03*
X2360003Y1660002D02*
D03*
X2160003Y9260006D02*
D03*
Y8060006D02*
D03*
Y7660006D02*
D03*
X2060002Y7460005D02*
D03*
Y6660005D02*
D03*
X2160003Y6460005D02*
D03*
X2060002Y6260005D02*
D03*
X2160003Y6060005D02*
D03*
X2060002Y5860005D02*
D03*
Y5460004D02*
D03*
X2160003Y5260004D02*
D03*
Y4860004D02*
D03*
Y4460004D02*
D03*
X2060002Y4260004D02*
D03*
X2160003Y4060004D02*
D03*
Y3660003D02*
D03*
X2060002Y3460003D02*
D03*
X2160003Y3260003D02*
D03*
X2060002Y3060003D02*
D03*
X2160003Y2860003D02*
D03*
Y2460003D02*
D03*
X2060002Y2260003D02*
D03*
Y1860002D02*
D03*
X2160003Y1660002D02*
D03*
X1960002Y9260006D02*
D03*
Y8060006D02*
D03*
Y7660006D02*
D03*
X1860002Y7460005D02*
D03*
X1960002Y6860005D02*
D03*
Y6460005D02*
D03*
X1860002Y6260005D02*
D03*
X1960002Y6060005D02*
D03*
X1860002Y5860005D02*
D03*
Y5460004D02*
D03*
X1960002Y5260004D02*
D03*
Y4860004D02*
D03*
Y4460004D02*
D03*
X1860002Y4260004D02*
D03*
X1960002Y4060004D02*
D03*
Y3660003D02*
D03*
X1860002Y3460003D02*
D03*
X1960002Y3260003D02*
D03*
X1860002Y3060003D02*
D03*
X1960002Y2860003D02*
D03*
Y2460003D02*
D03*
X1860002Y2260003D02*
D03*
Y1860002D02*
D03*
X1960002Y1660002D02*
D03*
X1760002Y9260006D02*
D03*
Y8460006D02*
D03*
Y8060006D02*
D03*
Y7660006D02*
D03*
X1660002Y7460005D02*
D03*
X1760002Y6460005D02*
D03*
X1660002Y6260005D02*
D03*
X1760002Y6060005D02*
D03*
X1660002Y5860005D02*
D03*
Y5460004D02*
D03*
X1760002Y5260004D02*
D03*
Y4860004D02*
D03*
Y4460004D02*
D03*
X1660002Y4260004D02*
D03*
X1760002Y4060004D02*
D03*
Y3660003D02*
D03*
X1660002Y3460003D02*
D03*
X1760002Y3260003D02*
D03*
X1660002Y3060003D02*
D03*
X1760002Y2860003D02*
D03*
Y2460003D02*
D03*
X1660002Y2260003D02*
D03*
Y1860002D02*
D03*
X1760002Y1660002D02*
D03*
X1660002Y1460002D02*
D03*
X1760002Y1260002D02*
D03*
X1660002Y1060002D02*
D03*
X1760002Y860002D02*
D03*
X1660002Y660002D02*
D03*
X1760002Y460002D02*
D03*
X1660002Y260002D02*
D03*
X1560002Y9260006D02*
D03*
Y8060006D02*
D03*
X1460002Y6260005D02*
D03*
X1560002Y6060005D02*
D03*
X1460002Y5860005D02*
D03*
Y5460004D02*
D03*
X1560002Y5260004D02*
D03*
Y4860004D02*
D03*
X1460002Y4660004D02*
D03*
Y4260004D02*
D03*
X1560002Y4060004D02*
D03*
Y3660003D02*
D03*
X1460002Y3460003D02*
D03*
Y3060003D02*
D03*
X1560002Y2860003D02*
D03*
Y2460003D02*
D03*
X1460002Y2260003D02*
D03*
X1560002Y1660002D02*
D03*
X1460002Y1460002D02*
D03*
X1560002Y1260002D02*
D03*
X1460002Y1060002D02*
D03*
X1560002Y860002D02*
D03*
X1460002Y660002D02*
D03*
X1560002Y460002D02*
D03*
X1460002Y260002D02*
D03*
X1360002Y9260006D02*
D03*
X1260002Y8660006D02*
D03*
X1360002Y8060006D02*
D03*
X1260002Y7460005D02*
D03*
X1360002Y6060005D02*
D03*
X1260002Y5860005D02*
D03*
X1360002Y5260004D02*
D03*
Y4860004D02*
D03*
X1260002Y4660004D02*
D03*
X1360002Y4460004D02*
D03*
Y4060004D02*
D03*
Y3660003D02*
D03*
X1260002Y3460003D02*
D03*
X1360002Y3260003D02*
D03*
Y2860003D02*
D03*
Y2460003D02*
D03*
X1260002Y2260003D02*
D03*
X1360002Y2060002D02*
D03*
X1260002Y1860002D02*
D03*
X1360002Y1660002D02*
D03*
X1260002Y1460002D02*
D03*
X1360002Y1260002D02*
D03*
X1260002Y1060002D02*
D03*
X1360002Y860002D02*
D03*
X1260002Y660002D02*
D03*
X1360002Y460002D02*
D03*
X1260002Y260002D02*
D03*
X1060002Y8660006D02*
D03*
X1160002Y8460006D02*
D03*
Y8060006D02*
D03*
X1060002Y7060005D02*
D03*
Y6260005D02*
D03*
X1160002Y6060005D02*
D03*
X1060002Y5860005D02*
D03*
X1160002Y5660004D02*
D03*
X1060002Y5460004D02*
D03*
X1160002Y5260004D02*
D03*
Y4860004D02*
D03*
X1060002Y4660004D02*
D03*
X1160002Y4460004D02*
D03*
X1060002Y4260004D02*
D03*
X1160002Y3660003D02*
D03*
X1060002Y3460003D02*
D03*
X1160002Y3260003D02*
D03*
X1060002Y3060003D02*
D03*
X1160002Y2460003D02*
D03*
X1060002Y2260003D02*
D03*
X1160002Y2060002D02*
D03*
X1060002Y1860002D02*
D03*
X1160002Y1260002D02*
D03*
X1060002Y1060002D02*
D03*
X1160002Y860002D02*
D03*
X1060002Y660002D02*
D03*
X1160002Y460002D02*
D03*
X1060002Y260002D02*
D03*
X860002Y8660006D02*
D03*
Y7460005D02*
D03*
Y7060005D02*
D03*
Y6660005D02*
D03*
X960002Y6460005D02*
D03*
X860002Y6260005D02*
D03*
X960002Y6060005D02*
D03*
X860002Y5860005D02*
D03*
X960002Y5660004D02*
D03*
X860002Y5460004D02*
D03*
X960002Y4860004D02*
D03*
X860002Y4660004D02*
D03*
X960002Y4460004D02*
D03*
X860002Y4260004D02*
D03*
X960002Y4060004D02*
D03*
Y3660003D02*
D03*
X860002Y3460003D02*
D03*
X960002Y3260003D02*
D03*
X860002Y3060003D02*
D03*
X960002Y2860003D02*
D03*
Y2460003D02*
D03*
X860002Y2260003D02*
D03*
X960002Y2060002D02*
D03*
X860002Y1860002D02*
D03*
X960002Y1660002D02*
D03*
X860002Y1460002D02*
D03*
X960002Y1260002D02*
D03*
X860002Y1060002D02*
D03*
X960002Y860002D02*
D03*
Y460002D02*
D03*
X860002Y260002D02*
D03*
X660002Y6660005D02*
D03*
X760002Y6460005D02*
D03*
X660002Y6260005D02*
D03*
Y5860005D02*
D03*
X760002Y5660004D02*
D03*
X660002Y5460004D02*
D03*
X760002Y5260004D02*
D03*
X660002Y4660004D02*
D03*
X760002Y4460004D02*
D03*
X660002Y4260004D02*
D03*
X760002Y4060004D02*
D03*
X660002Y3460003D02*
D03*
X760002Y3260003D02*
D03*
X660002Y3060003D02*
D03*
X760002Y2860003D02*
D03*
Y2060002D02*
D03*
X660002Y1860002D02*
D03*
X760002Y1660002D02*
D03*
Y860002D02*
D03*
X460002Y9060006D02*
D03*
Y7060005D02*
D03*
X560002Y6860005D02*
D03*
X460002Y6660005D02*
D03*
X560002Y6460005D02*
D03*
X460002Y6260005D02*
D03*
X560002Y6060005D02*
D03*
X460002Y5860005D02*
D03*
X560002Y5660004D02*
D03*
X460002Y5460004D02*
D03*
X560002Y5260004D02*
D03*
X460002Y4660004D02*
D03*
X560002Y4460004D02*
D03*
X460002Y4260004D02*
D03*
X560002Y4060004D02*
D03*
X460002Y3460003D02*
D03*
X560002Y3260003D02*
D03*
X460002Y3060003D02*
D03*
X560002Y2860003D02*
D03*
X460002Y2260003D02*
D03*
X560002Y2060002D02*
D03*
X460002Y1860002D02*
D03*
X560002Y1660002D02*
D03*
X460002Y1060002D02*
D03*
X260002Y9060006D02*
D03*
Y8260006D02*
D03*
Y7860006D02*
D03*
X360002Y1660002D02*
D03*
X260002Y1460002D02*
D03*
Y1060002D02*
D03*
X5605000Y5122500D02*
D03*
X5405000D02*
D03*
X4480000Y5572500D02*
D03*
X5020000Y5327500D02*
D03*
X5677500Y6607500D02*
D03*
Y6807500D02*
D03*
X5298452Y5501548D02*
D03*
X5300000Y5600000D02*
D03*
X4260000Y6300000D02*
D03*
X5284755Y6064755D02*
D03*
X5300000Y5800000D02*
D03*
Y5700000D02*
D03*
X5500000Y6950000D02*
D03*
X5350000Y7050400D02*
D03*
X5195011Y7200000D02*
D03*
X5050000D02*
D03*
X5350000D02*
D03*
X5500000Y6600000D02*
D03*
X5150000Y5800000D02*
D03*
X4200000Y6100000D02*
D03*
X4300000Y6000000D02*
D03*
X4400000Y5900000D02*
D03*
X4550000D02*
D03*
X4050000Y6550000D02*
D03*
Y6650000D02*
D03*
Y6750000D02*
D03*
Y6850000D02*
D03*
X4827500Y6526000D02*
D03*
X4977500Y6376000D02*
D03*
X4827500D02*
D03*
X5127500D02*
D03*
Y6676000D02*
D03*
X4827500D02*
D03*
X5127500Y6526000D02*
D03*
X4977500Y6676000D02*
D03*
X4977499Y6526001D02*
D03*
X1195557Y6916220D02*
D03*
X5108697Y6099098D02*
D03*
X4507500Y7162500D02*
D03*
X4532500Y6682500D02*
D03*
X4475000Y6765000D02*
D03*
X1553340Y6847059D02*
D03*
X4727500Y6977500D02*
D03*
D49*
X4575000Y7507500D02*
D03*
X3490000Y7200000D02*
D03*
X3820000Y6030000D02*
D03*
X3870400Y2540000D02*
D03*
X3890000Y1790000D02*
D03*
Y3040000D02*
D03*
X3850400Y5040000D02*
D03*
X7390000Y1790000D02*
D03*
Y3040000D02*
D03*
X7380000Y4290000D02*
D03*
X7390000Y5540000D02*
D03*
X470000Y4920000D02*
D03*
Y3670000D02*
D03*
Y2420000D02*
D03*
X360000Y1290000D02*
D03*
X3860000D02*
D03*
Y3790000D02*
D03*
X3890000Y4290000D02*
D03*
Y5540000D02*
D03*
X3980000Y7580000D02*
D03*
X4900000Y7162500D02*
D03*
X4248330Y6396231D02*
D03*
X5189600Y5889600D02*
D03*
X5100000Y6000000D02*
D03*
X1633220Y7239000D02*
D03*
X1503680D02*
D03*
X519836Y8167562D02*
D03*
X526918Y8067336D02*
D03*
X958340Y6771580D02*
D03*
Y6872060D02*
D03*
X660400Y7442200D02*
D03*
X560986Y7442214D02*
D03*
X1015000Y7585000D02*
D03*
X827500Y7805000D02*
D03*
X1195840Y6592060D02*
D03*
X1018340Y6659560D02*
D03*
X4812900Y7162500D02*
D03*
X5204400Y7745600D02*
D03*
X4642100Y7162500D02*
D03*
X1568340Y6392060D02*
D03*
X1288340Y6289560D02*
D03*
X2460000Y7750000D02*
D03*
X8570000Y3040000D02*
D03*
X3229360Y9357360D02*
D03*
X410000Y8940000D02*
D03*
X827500Y8530000D02*
D03*
X4575000Y7963900D02*
D03*
%TF.MD5,07534e2cda6f66e6cc064304badb573f*%
M02*
