%TF.GenerationSoftware,Altium Limited,Altium Designer,24.0.1 (36)*%
G04 Layer_Color=16711935*
%FSLAX45Y45*%
%MOMM*%
%TF.SameCoordinates,BC388B4F-315D-4572-B472-8F8CFEE0C7CC*%
%TF.FilePolarity,Negative*%
%TF.FileFunction,Soldermask,Bot*%
%TF.Part,Single*%
G01*
G75*
%TA.AperFunction,ComponentPad*%
%ADD35C,1.30000*%
%ADD36R,1.30000X1.30000*%
%ADD76R,1.60800X1.60800*%
%ADD77C,1.60800*%
%ADD78C,0.70000*%
%ADD79O,2.10000X1.00000*%
%ADD80O,1.80000X1.00000*%
%ADD81R,1.60000X1.60000*%
%ADD82R,1.60000X1.60000*%
%TA.AperFunction,ViaPad*%
%ADD83C,6.45000*%
%TA.AperFunction,ComponentPad*%
%ADD84C,1.47000*%
%ADD85R,1.47000X1.47000*%
D35*
X8575000Y1808000D02*
D03*
Y1300000D02*
D03*
X7559000D02*
D03*
D36*
Y1808000D02*
D03*
D76*
X7100000Y2125000D02*
D03*
Y3375000D02*
D03*
Y4625000D02*
D03*
Y5875000D02*
D03*
X4150000Y1125000D02*
D03*
Y2375000D02*
D03*
Y3625000D02*
D03*
Y4875000D02*
D03*
X3600000Y2125000D02*
D03*
Y3375000D02*
D03*
Y4625000D02*
D03*
Y5875000D02*
D03*
X650000Y1125000D02*
D03*
Y2375000D02*
D03*
Y3625000D02*
D03*
Y4875000D02*
D03*
X7100000Y875000D02*
D03*
D77*
Y1875000D02*
D03*
Y3125000D02*
D03*
Y4375000D02*
D03*
Y5625000D02*
D03*
X4150000Y1375000D02*
D03*
Y2625000D02*
D03*
Y3875000D02*
D03*
Y5125000D02*
D03*
X3600000Y1875000D02*
D03*
Y3125000D02*
D03*
Y4375000D02*
D03*
Y5625000D02*
D03*
X650000Y1375000D02*
D03*
Y2625000D02*
D03*
Y3875000D02*
D03*
Y5125000D02*
D03*
X7100000Y625000D02*
D03*
D78*
X578000Y7878500D02*
D03*
Y8456500D02*
D03*
D79*
X627000Y8600000D02*
D03*
Y7735000D02*
D03*
D80*
X210000Y8600000D02*
D03*
Y7735000D02*
D03*
D81*
X3812500Y6390000D02*
D03*
D82*
Y7117500D02*
D03*
X1375000Y7577500D02*
D03*
X2496820Y9357500D02*
D03*
X7875000Y2225000D02*
D03*
X1985000Y6117500D02*
D03*
X7022500Y6987500D02*
D03*
X5225000Y7530000D02*
D03*
D83*
X8255000Y9080500D02*
D03*
X889000D02*
D03*
X8509000Y508000D02*
D03*
X508000D02*
D03*
D84*
X2159000Y9080500D02*
D03*
X3683000D02*
D03*
X2921000D02*
D03*
X2667000D02*
D03*
X2413000D02*
D03*
X3429000D02*
D03*
X1905000D02*
D03*
X1651000D02*
D03*
X3175000D02*
D03*
X1397000D02*
D03*
X6223000D02*
D03*
X6477000Y8826500D02*
D03*
X7493000Y9080500D02*
D03*
Y8826500D02*
D03*
X7239000Y9080500D02*
D03*
Y8826500D02*
D03*
X6985000Y9080500D02*
D03*
Y8826500D02*
D03*
X6731000Y9080500D02*
D03*
Y8826500D02*
D03*
X6477000Y9080500D02*
D03*
X7747000D02*
D03*
Y8826500D02*
D03*
X6223000D02*
D03*
X3175000D02*
D03*
X4445000D02*
D03*
X3683000D02*
D03*
X3937000D02*
D03*
X4191000D02*
D03*
X3429000D02*
D03*
X5969000D02*
D03*
X5715000D02*
D03*
X5461000D02*
D03*
X4699000D02*
D03*
X4953000D02*
D03*
X5207000D02*
D03*
X2159000D02*
D03*
X2921000D02*
D03*
X2667000D02*
D03*
X2413000D02*
D03*
X1905000D02*
D03*
X1651000D02*
D03*
X5207000Y9080500D02*
D03*
X5969000D02*
D03*
X5715000D02*
D03*
X5461000D02*
D03*
X4953000D02*
D03*
X4699000D02*
D03*
X4445000D02*
D03*
X4191000D02*
D03*
X3937000D02*
D03*
X2159000Y8572500D02*
D03*
X3683000D02*
D03*
X2921000D02*
D03*
X2667000D02*
D03*
X2413000D02*
D03*
X3429000D02*
D03*
X1905000D02*
D03*
X1651000D02*
D03*
X3175000D02*
D03*
X1397000D02*
D03*
X6223000D02*
D03*
X6477000Y8318500D02*
D03*
X7493000Y8572500D02*
D03*
Y8318500D02*
D03*
X7239000Y8572500D02*
D03*
Y8318500D02*
D03*
X6985000Y8572500D02*
D03*
Y8318500D02*
D03*
X6731000Y8572500D02*
D03*
Y8318500D02*
D03*
X6477000Y8572500D02*
D03*
X7747000D02*
D03*
Y8318500D02*
D03*
X6223000D02*
D03*
X3175000D02*
D03*
X4445000D02*
D03*
X3683000D02*
D03*
X3937000D02*
D03*
X4191000D02*
D03*
X3429000D02*
D03*
X5969000D02*
D03*
X5715000D02*
D03*
X5461000D02*
D03*
X4699000D02*
D03*
X4953000D02*
D03*
X5207000D02*
D03*
X2159000D02*
D03*
X2921000D02*
D03*
X2667000D02*
D03*
X2413000D02*
D03*
X1905000D02*
D03*
X1651000D02*
D03*
X5207000Y8572500D02*
D03*
X5969000D02*
D03*
X5715000D02*
D03*
X5461000D02*
D03*
X4953000D02*
D03*
X4699000D02*
D03*
X4445000D02*
D03*
X4191000D02*
D03*
X3937000D02*
D03*
D85*
X1397000Y8826500D02*
D03*
Y8318500D02*
D03*
%TF.MD5,517eb1369bbbac3faecfd37fef8510e8*%
M02*
