%TF.GenerationSoftware,Altium Limited,Altium Designer,24.0.1 (36)*%
G04 Layer_Physical_Order=2*
G04 Layer_Color=36540*
%FSLAX45Y45*%
%MOMM*%
%TF.SameCoordinates,BC388B4F-315D-4572-B472-8F8CFEE0C7CC*%
%TF.FilePolarity,Positive*%
%TF.FileFunction,Copper,L2,Inr,Signal*%
%TF.Part,Single*%
G01*
G75*
%TA.AperFunction,ComponentPad*%
%ADD35C,1.30000*%
%ADD36R,1.30000X1.30000*%
%ADD38C,1.50800*%
%ADD39C,0.60000*%
%ADD40O,2.00000X0.90000*%
%ADD41O,1.70000X0.90000*%
%ADD42R,1.50000X1.50000*%
%ADD43R,1.50000X1.50000*%
%TA.AperFunction,ViaPad*%
%ADD44C,6.35000*%
%TA.AperFunction,ComponentPad*%
%ADD45C,1.37000*%
%ADD46R,1.37000X1.37000*%
%TA.AperFunction,ViaPad*%
%ADD47C,0.60000*%
%ADD48C,0.70000*%
G36*
X8600124Y9535064D02*
X8612605Y9529895D01*
X8623837Y9522389D01*
X8633389Y9512837D01*
X8640895Y9501605D01*
X8646064Y9489124D01*
X8648700Y9475874D01*
Y9469120D01*
Y3421380D01*
X8649519Y3404699D01*
X8656028Y3371979D01*
X8668794Y3341158D01*
X8687329Y3313419D01*
X8710919Y3289829D01*
X8738658Y3271294D01*
X8769479Y3258528D01*
X8802199Y3252019D01*
X8818880Y3251200D01*
X8904374D01*
X8917624Y3248564D01*
X8930105Y3243395D01*
X8941337Y3235889D01*
X8950889Y3226337D01*
X8958395Y3215105D01*
X8963564Y3202624D01*
X8966200Y3189374D01*
Y3182620D01*
Y119380D01*
Y112625D01*
X8963564Y99376D01*
X8958395Y86895D01*
X8950889Y75663D01*
X8941337Y66110D01*
X8930105Y58605D01*
X8917624Y53435D01*
X8904374Y50800D01*
X6208625D01*
X6195376Y53435D01*
X6182895Y58605D01*
X6171663Y66110D01*
X6162110Y75663D01*
X6154605Y86895D01*
X6149435Y99376D01*
X6146800Y112625D01*
Y515620D01*
X6145980Y532300D01*
X6139472Y565020D01*
X6126705Y595842D01*
X6108171Y623581D01*
X6084581Y647171D01*
X6056842Y665705D01*
X6026020Y678472D01*
X5993300Y684980D01*
X5976620Y685800D01*
X3795625D01*
X3782376Y688435D01*
X3769895Y693605D01*
X3758663Y701110D01*
X3749110Y710663D01*
X3741605Y721895D01*
X3736435Y734376D01*
X3733800Y747625D01*
Y1277620D01*
X3732980Y1294300D01*
X3726472Y1327020D01*
X3713705Y1357842D01*
X3695171Y1385581D01*
X3671581Y1409171D01*
X3643842Y1427705D01*
X3613020Y1440472D01*
X3580300Y1446980D01*
X3563620Y1447800D01*
X2151380D01*
X2134699Y1446980D01*
X2101979Y1440472D01*
X2071158Y1427705D01*
X2043419Y1409171D01*
X2019829Y1385581D01*
X2001294Y1357842D01*
X1988528Y1327020D01*
X1982019Y1294300D01*
X1981200Y1277620D01*
Y119380D01*
Y112625D01*
X1978564Y99376D01*
X1973395Y86895D01*
X1965889Y75663D01*
X1956337Y66110D01*
X1945105Y58605D01*
X1932624Y53435D01*
X1919374Y50800D01*
X1912620D01*
X1912385Y51035D01*
X112593D01*
X99343Y53671D01*
X86863Y58841D01*
X75631Y66346D01*
X66078Y75898D01*
X58573Y87131D01*
X53403Y99611D01*
X50768Y112861D01*
Y119615D01*
Y1912594D01*
X50773Y1912606D01*
X50782Y1912615D01*
X50793Y1912620D01*
X50800D01*
Y1919374D01*
X53435Y1932624D01*
X58605Y1945105D01*
X66110Y1956337D01*
X75663Y1965889D01*
X86895Y1973395D01*
X99376Y1978564D01*
X112625Y1981200D01*
X134620D01*
X151300Y1982019D01*
X184020Y1988528D01*
X214842Y2001294D01*
X242581Y2019829D01*
X266171Y2043419D01*
X284705Y2071158D01*
X297472Y2101979D01*
X303980Y2134699D01*
X304800Y2151380D01*
Y7437120D01*
X303980Y7453800D01*
X297472Y7486520D01*
X284705Y7517342D01*
X266171Y7545081D01*
X242581Y7568671D01*
X214842Y7587205D01*
X184020Y7599972D01*
X151300Y7606480D01*
X134620Y7607300D01*
X112625D01*
X99376Y7609935D01*
X86895Y7615105D01*
X75663Y7622610D01*
X66110Y7632163D01*
X58605Y7643395D01*
X53435Y7655876D01*
X52593Y7660109D01*
X50899Y7672200D01*
X50899Y7672210D01*
Y9469021D01*
X50800Y9469120D01*
Y9475874D01*
X53435Y9489124D01*
X58605Y9501605D01*
X66110Y9512837D01*
X75663Y9522389D01*
X86895Y9529895D01*
X99376Y9535064D01*
X112625Y9537700D01*
X3494174D01*
X3507424Y9535064D01*
X3519905Y9529895D01*
X3531137Y9522389D01*
X3540689Y9512837D01*
X3548195Y9501605D01*
X3553364Y9489124D01*
X3556000Y9475874D01*
Y9415780D01*
X3556819Y9399099D01*
X3563328Y9366379D01*
X3576094Y9335558D01*
X3594629Y9307819D01*
X3618219Y9284229D01*
X3645958Y9265694D01*
X3676779Y9252928D01*
X3709499Y9246419D01*
X3726180Y9245600D01*
X5519420D01*
X5536100Y9246419D01*
X5568820Y9252928D01*
X5599642Y9265694D01*
X5627381Y9284229D01*
X5650971Y9307819D01*
X5669505Y9335558D01*
X5682272Y9366379D01*
X5688780Y9399099D01*
X5689600Y9415780D01*
Y9475874D01*
X5692235Y9489124D01*
X5697405Y9501605D01*
X5704910Y9512837D01*
X5714463Y9522389D01*
X5725695Y9529895D01*
X5738176Y9535064D01*
X5751425Y9537700D01*
X8586874D01*
X8600124Y9535064D01*
D02*
G37*
%LPC*%
G36*
X2597220Y9457900D02*
X2396420D01*
Y9257100D01*
X2597220D01*
Y9457900D01*
D02*
G37*
G36*
X7759362Y9174400D02*
X7734638D01*
X7710756Y9168001D01*
X7689344Y9155639D01*
X7671861Y9138156D01*
X7659499Y9116744D01*
X7653100Y9092862D01*
Y9068138D01*
X7659499Y9044256D01*
X7671861Y9022844D01*
X7689344Y9005361D01*
X7710756Y8992999D01*
X7734638Y8986600D01*
X7759362D01*
X7783244Y8992999D01*
X7804656Y9005361D01*
X7822139Y9022844D01*
X7834501Y9044256D01*
X7840900Y9068138D01*
Y9092862D01*
X7834501Y9116744D01*
X7822139Y9138156D01*
X7804656Y9155639D01*
X7783244Y9168001D01*
X7759362Y9174400D01*
D02*
G37*
G36*
X7505362D02*
X7480638D01*
X7456756Y9168001D01*
X7435344Y9155639D01*
X7417861Y9138156D01*
X7405499Y9116744D01*
X7399100Y9092862D01*
Y9068138D01*
X7405499Y9044256D01*
X7417861Y9022844D01*
X7435344Y9005361D01*
X7456756Y8992999D01*
X7480638Y8986600D01*
X7505362D01*
X7529244Y8992999D01*
X7550656Y9005361D01*
X7568139Y9022844D01*
X7580501Y9044256D01*
X7586900Y9068138D01*
Y9092862D01*
X7580501Y9116744D01*
X7568139Y9138156D01*
X7550656Y9155639D01*
X7529244Y9168001D01*
X7505362Y9174400D01*
D02*
G37*
G36*
X7251362D02*
X7226638D01*
X7202756Y9168001D01*
X7181344Y9155639D01*
X7163861Y9138156D01*
X7151499Y9116744D01*
X7145100Y9092862D01*
Y9068138D01*
X7151499Y9044256D01*
X7163861Y9022844D01*
X7181344Y9005361D01*
X7202756Y8992999D01*
X7226638Y8986600D01*
X7251362D01*
X7275244Y8992999D01*
X7296656Y9005361D01*
X7314139Y9022844D01*
X7326501Y9044256D01*
X7332900Y9068138D01*
Y9092862D01*
X7326501Y9116744D01*
X7314139Y9138156D01*
X7296656Y9155639D01*
X7275244Y9168001D01*
X7251362Y9174400D01*
D02*
G37*
G36*
X6997362D02*
X6972638D01*
X6948756Y9168001D01*
X6927344Y9155639D01*
X6909861Y9138156D01*
X6897499Y9116744D01*
X6891100Y9092862D01*
Y9068138D01*
X6897499Y9044256D01*
X6909861Y9022844D01*
X6927344Y9005361D01*
X6948756Y8992999D01*
X6972638Y8986600D01*
X6997362D01*
X7021244Y8992999D01*
X7042656Y9005361D01*
X7060139Y9022844D01*
X7072501Y9044256D01*
X7078900Y9068138D01*
Y9092862D01*
X7072501Y9116744D01*
X7060139Y9138156D01*
X7042656Y9155639D01*
X7021244Y9168001D01*
X6997362Y9174400D01*
D02*
G37*
G36*
X6743362D02*
X6718638D01*
X6694756Y9168001D01*
X6673344Y9155639D01*
X6655861Y9138156D01*
X6643499Y9116744D01*
X6637100Y9092862D01*
Y9068138D01*
X6643499Y9044256D01*
X6655861Y9022844D01*
X6673344Y9005361D01*
X6694756Y8992999D01*
X6718638Y8986600D01*
X6743362D01*
X6767244Y8992999D01*
X6788656Y9005361D01*
X6806139Y9022844D01*
X6818501Y9044256D01*
X6824900Y9068138D01*
Y9092862D01*
X6818501Y9116744D01*
X6806139Y9138156D01*
X6788656Y9155639D01*
X6767244Y9168001D01*
X6743362Y9174400D01*
D02*
G37*
G36*
X6489362D02*
X6464638D01*
X6440756Y9168001D01*
X6419344Y9155639D01*
X6401861Y9138156D01*
X6389499Y9116744D01*
X6383100Y9092862D01*
Y9068138D01*
X6389499Y9044256D01*
X6401861Y9022844D01*
X6419344Y9005361D01*
X6440756Y8992999D01*
X6464638Y8986600D01*
X6489362D01*
X6513244Y8992999D01*
X6534656Y9005361D01*
X6552139Y9022844D01*
X6564501Y9044256D01*
X6570900Y9068138D01*
Y9092862D01*
X6564501Y9116744D01*
X6552139Y9138156D01*
X6534656Y9155639D01*
X6513244Y9168001D01*
X6489362Y9174400D01*
D02*
G37*
G36*
X6235362D02*
X6210638D01*
X6186756Y9168001D01*
X6165344Y9155639D01*
X6147861Y9138156D01*
X6135499Y9116744D01*
X6129100Y9092862D01*
Y9068138D01*
X6135499Y9044256D01*
X6147861Y9022844D01*
X6165344Y9005361D01*
X6186756Y8992999D01*
X6210638Y8986600D01*
X6235362D01*
X6259244Y8992999D01*
X6280656Y9005361D01*
X6298139Y9022844D01*
X6310501Y9044256D01*
X6316900Y9068138D01*
Y9092862D01*
X6310501Y9116744D01*
X6298139Y9138156D01*
X6280656Y9155639D01*
X6259244Y9168001D01*
X6235362Y9174400D01*
D02*
G37*
G36*
X5981362D02*
X5956638D01*
X5932756Y9168001D01*
X5911344Y9155639D01*
X5893861Y9138156D01*
X5881499Y9116744D01*
X5875100Y9092862D01*
Y9068138D01*
X5881499Y9044256D01*
X5893861Y9022844D01*
X5911344Y9005361D01*
X5932756Y8992999D01*
X5956638Y8986600D01*
X5981362D01*
X6005244Y8992999D01*
X6026656Y9005361D01*
X6044139Y9022844D01*
X6056501Y9044256D01*
X6062900Y9068138D01*
Y9092862D01*
X6056501Y9116744D01*
X6044139Y9138156D01*
X6026656Y9155639D01*
X6005244Y9168001D01*
X5981362Y9174400D01*
D02*
G37*
G36*
X5727362D02*
X5702638D01*
X5678756Y9168001D01*
X5657344Y9155639D01*
X5639861Y9138156D01*
X5627499Y9116744D01*
X5621100Y9092862D01*
Y9068138D01*
X5627499Y9044256D01*
X5639861Y9022844D01*
X5657344Y9005361D01*
X5678756Y8992999D01*
X5702638Y8986600D01*
X5727362D01*
X5751244Y8992999D01*
X5772656Y9005361D01*
X5790139Y9022844D01*
X5802501Y9044256D01*
X5808900Y9068138D01*
Y9092862D01*
X5802501Y9116744D01*
X5790139Y9138156D01*
X5772656Y9155639D01*
X5751244Y9168001D01*
X5727362Y9174400D01*
D02*
G37*
G36*
X5473362D02*
X5448638D01*
X5424756Y9168001D01*
X5403344Y9155639D01*
X5385861Y9138156D01*
X5373499Y9116744D01*
X5367100Y9092862D01*
Y9068138D01*
X5373499Y9044256D01*
X5385861Y9022844D01*
X5403344Y9005361D01*
X5424756Y8992999D01*
X5448638Y8986600D01*
X5473362D01*
X5497244Y8992999D01*
X5518656Y9005361D01*
X5536139Y9022844D01*
X5548501Y9044256D01*
X5554900Y9068138D01*
Y9092862D01*
X5548501Y9116744D01*
X5536139Y9138156D01*
X5518656Y9155639D01*
X5497244Y9168001D01*
X5473362Y9174400D01*
D02*
G37*
G36*
X4711362D02*
X4686638D01*
X4662756Y9168001D01*
X4641344Y9155639D01*
X4623861Y9138156D01*
X4611499Y9116744D01*
X4605100Y9092862D01*
Y9068138D01*
X4611499Y9044256D01*
X4623861Y9022844D01*
X4641344Y9005361D01*
X4662756Y8992999D01*
X4686638Y8986600D01*
X4711362D01*
X4735244Y8992999D01*
X4756656Y9005361D01*
X4774139Y9022844D01*
X4786501Y9044256D01*
X4792900Y9068138D01*
Y9092862D01*
X4786501Y9116744D01*
X4774139Y9138156D01*
X4756656Y9155639D01*
X4735244Y9168001D01*
X4711362Y9174400D01*
D02*
G37*
G36*
X4457362D02*
X4432638D01*
X4408756Y9168001D01*
X4387344Y9155639D01*
X4369861Y9138156D01*
X4357499Y9116744D01*
X4351100Y9092862D01*
Y9068138D01*
X4357499Y9044256D01*
X4369861Y9022844D01*
X4387344Y9005361D01*
X4408756Y8992999D01*
X4432638Y8986600D01*
X4457362D01*
X4481244Y8992999D01*
X4502656Y9005361D01*
X4520139Y9022844D01*
X4532501Y9044256D01*
X4538900Y9068138D01*
Y9092862D01*
X4532501Y9116744D01*
X4520139Y9138156D01*
X4502656Y9155639D01*
X4481244Y9168001D01*
X4457362Y9174400D01*
D02*
G37*
G36*
X4203362D02*
X4178638D01*
X4154756Y9168001D01*
X4133344Y9155639D01*
X4115861Y9138156D01*
X4103499Y9116744D01*
X4097100Y9092862D01*
Y9068138D01*
X4103499Y9044256D01*
X4115861Y9022844D01*
X4133344Y9005361D01*
X4154756Y8992999D01*
X4178638Y8986600D01*
X4203362D01*
X4227244Y8992999D01*
X4248656Y9005361D01*
X4266139Y9022844D01*
X4278501Y9044256D01*
X4284900Y9068138D01*
Y9092862D01*
X4278501Y9116744D01*
X4266139Y9138156D01*
X4248656Y9155639D01*
X4227244Y9168001D01*
X4203362Y9174400D01*
D02*
G37*
G36*
X3695362D02*
X3670638D01*
X3646756Y9168001D01*
X3625344Y9155639D01*
X3607861Y9138156D01*
X3595499Y9116744D01*
X3589100Y9092862D01*
Y9068138D01*
X3595499Y9044256D01*
X3607861Y9022844D01*
X3625344Y9005361D01*
X3646756Y8992999D01*
X3670638Y8986600D01*
X3695362D01*
X3719244Y8992999D01*
X3740656Y9005361D01*
X3758139Y9022844D01*
X3770501Y9044256D01*
X3776900Y9068138D01*
Y9092862D01*
X3770501Y9116744D01*
X3758139Y9138156D01*
X3740656Y9155639D01*
X3719244Y9168001D01*
X3695362Y9174400D01*
D02*
G37*
G36*
X3441362D02*
X3416638D01*
X3392756Y9168001D01*
X3371344Y9155639D01*
X3353861Y9138156D01*
X3341499Y9116744D01*
X3335100Y9092862D01*
Y9068138D01*
X3341499Y9044256D01*
X3353861Y9022844D01*
X3371344Y9005361D01*
X3392756Y8992999D01*
X3416638Y8986600D01*
X3441362D01*
X3465244Y8992999D01*
X3486656Y9005361D01*
X3504139Y9022844D01*
X3516501Y9044256D01*
X3522900Y9068138D01*
Y9092862D01*
X3516501Y9116744D01*
X3504139Y9138156D01*
X3486656Y9155639D01*
X3465244Y9168001D01*
X3441362Y9174400D01*
D02*
G37*
G36*
X3187362D02*
X3162638D01*
X3138756Y9168001D01*
X3117344Y9155639D01*
X3099861Y9138156D01*
X3087499Y9116744D01*
X3081100Y9092862D01*
Y9068138D01*
X3087499Y9044256D01*
X3099861Y9022844D01*
X3117344Y9005361D01*
X3138756Y8992999D01*
X3162638Y8986600D01*
X3187362D01*
X3211244Y8992999D01*
X3232656Y9005361D01*
X3250139Y9022844D01*
X3262501Y9044256D01*
X3268900Y9068138D01*
Y9092862D01*
X3262501Y9116744D01*
X3250139Y9138156D01*
X3232656Y9155639D01*
X3211244Y9168001D01*
X3187362Y9174400D01*
D02*
G37*
G36*
X2679362D02*
X2654638D01*
X2630756Y9168001D01*
X2609344Y9155639D01*
X2591861Y9138156D01*
X2579499Y9116744D01*
X2573100Y9092862D01*
Y9068138D01*
X2579499Y9044256D01*
X2591861Y9022844D01*
X2609344Y9005361D01*
X2630756Y8992999D01*
X2654638Y8986600D01*
X2679362D01*
X2703244Y8992999D01*
X2724656Y9005361D01*
X2742139Y9022844D01*
X2754501Y9044256D01*
X2760900Y9068138D01*
Y9092862D01*
X2754501Y9116744D01*
X2742139Y9138156D01*
X2724656Y9155639D01*
X2703244Y9168001D01*
X2679362Y9174400D01*
D02*
G37*
G36*
X2425362D02*
X2400638D01*
X2376756Y9168001D01*
X2355344Y9155639D01*
X2337861Y9138156D01*
X2325499Y9116744D01*
X2319100Y9092862D01*
Y9068138D01*
X2325499Y9044256D01*
X2337861Y9022844D01*
X2355344Y9005361D01*
X2376756Y8992999D01*
X2400638Y8986600D01*
X2425362D01*
X2449244Y8992999D01*
X2470656Y9005361D01*
X2488139Y9022844D01*
X2500501Y9044256D01*
X2506900Y9068138D01*
Y9092862D01*
X2500501Y9116744D01*
X2488139Y9138156D01*
X2470656Y9155639D01*
X2449244Y9168001D01*
X2425362Y9174400D01*
D02*
G37*
G36*
X2171362D02*
X2146638D01*
X2122756Y9168001D01*
X2101344Y9155639D01*
X2083861Y9138156D01*
X2071499Y9116744D01*
X2065100Y9092862D01*
Y9068138D01*
X2071499Y9044256D01*
X2083861Y9022844D01*
X2101344Y9005361D01*
X2122756Y8992999D01*
X2146638Y8986600D01*
X2171362D01*
X2195244Y8992999D01*
X2216656Y9005361D01*
X2234139Y9022844D01*
X2246501Y9044256D01*
X2252900Y9068138D01*
Y9092862D01*
X2246501Y9116744D01*
X2234139Y9138156D01*
X2216656Y9155639D01*
X2195244Y9168001D01*
X2171362Y9174400D01*
D02*
G37*
G36*
X1917362D02*
X1892638D01*
X1868756Y9168001D01*
X1847344Y9155639D01*
X1829861Y9138156D01*
X1817499Y9116744D01*
X1811100Y9092862D01*
Y9068138D01*
X1817499Y9044256D01*
X1829861Y9022844D01*
X1847344Y9005361D01*
X1868756Y8992999D01*
X1892638Y8986600D01*
X1917362D01*
X1941244Y8992999D01*
X1962656Y9005361D01*
X1980139Y9022844D01*
X1992501Y9044256D01*
X1998900Y9068138D01*
Y9092862D01*
X1992501Y9116744D01*
X1980139Y9138156D01*
X1962656Y9155639D01*
X1941244Y9168001D01*
X1917362Y9174400D01*
D02*
G37*
G36*
X1663362D02*
X1638638D01*
X1614756Y9168001D01*
X1593344Y9155639D01*
X1575861Y9138156D01*
X1563499Y9116744D01*
X1557100Y9092862D01*
Y9068138D01*
X1563499Y9044256D01*
X1575861Y9022844D01*
X1593344Y9005361D01*
X1614756Y8992999D01*
X1638638Y8986600D01*
X1663362D01*
X1687244Y8992999D01*
X1708656Y9005361D01*
X1726139Y9022844D01*
X1738501Y9044256D01*
X1744900Y9068138D01*
Y9092862D01*
X1738501Y9116744D01*
X1726139Y9138156D01*
X1708656Y9155639D01*
X1687244Y9168001D01*
X1663362Y9174400D01*
D02*
G37*
G36*
X1409362D02*
X1384638D01*
X1360756Y9168001D01*
X1339344Y9155639D01*
X1321861Y9138156D01*
X1309499Y9116744D01*
X1303100Y9092862D01*
Y9068138D01*
X1309499Y9044256D01*
X1321861Y9022844D01*
X1339344Y9005361D01*
X1360756Y8992999D01*
X1384638Y8986600D01*
X1409362D01*
X1433244Y8992999D01*
X1454656Y9005361D01*
X1472139Y9022844D01*
X1484501Y9044256D01*
X1490900Y9068138D01*
Y9092862D01*
X1484501Y9116744D01*
X1472139Y9138156D01*
X1454656Y9155639D01*
X1433244Y9168001D01*
X1409362Y9174400D01*
D02*
G37*
G36*
X8281987Y9423400D02*
X8228013D01*
X8174704Y9414957D01*
X8123372Y9398278D01*
X8075281Y9373774D01*
X8031616Y9342049D01*
X7993451Y9303884D01*
X7961726Y9260219D01*
X7937222Y9212128D01*
X7920543Y9160796D01*
X7912100Y9107487D01*
Y9053513D01*
X7920543Y9000204D01*
X7937222Y8948872D01*
X7961726Y8900781D01*
X7993451Y8857116D01*
X8031616Y8818951D01*
X8075281Y8787226D01*
X8123372Y8762722D01*
X8174704Y8746043D01*
X8228013Y8737600D01*
X8281987D01*
X8335296Y8746043D01*
X8386628Y8762722D01*
X8434719Y8787226D01*
X8478384Y8818951D01*
X8516549Y8857116D01*
X8548274Y8900781D01*
X8572778Y8948872D01*
X8589457Y9000204D01*
X8597900Y9053513D01*
Y9107487D01*
X8589457Y9160796D01*
X8572778Y9212128D01*
X8548274Y9260219D01*
X8516549Y9303884D01*
X8478384Y9342049D01*
X8434719Y9373774D01*
X8386628Y9398278D01*
X8335296Y9414957D01*
X8281987Y9423400D01*
D02*
G37*
G36*
X915987D02*
X862013D01*
X808704Y9414957D01*
X757372Y9398278D01*
X709281Y9373774D01*
X665616Y9342049D01*
X627451Y9303884D01*
X595726Y9260219D01*
X571222Y9212128D01*
X554543Y9160796D01*
X546100Y9107487D01*
Y9053513D01*
X554543Y9000204D01*
X571222Y8948872D01*
X595726Y8900781D01*
X627451Y8857116D01*
X665616Y8818951D01*
X709281Y8787226D01*
X757372Y8762722D01*
X808704Y8746043D01*
X862013Y8737600D01*
X915987D01*
X969296Y8746043D01*
X1020628Y8762722D01*
X1068719Y8787226D01*
X1112384Y8818951D01*
X1150549Y8857116D01*
X1182274Y8900781D01*
X1206778Y8948872D01*
X1223457Y9000204D01*
X1231900Y9053513D01*
Y9107487D01*
X1223457Y9160796D01*
X1206778Y9212128D01*
X1182274Y9260219D01*
X1150549Y9303884D01*
X1112384Y9342049D01*
X1068719Y9373774D01*
X1020628Y9398278D01*
X969296Y9414957D01*
X915987Y9423400D01*
D02*
G37*
G36*
X7759362Y8920400D02*
X7734638D01*
X7710756Y8914001D01*
X7689344Y8901639D01*
X7671861Y8884156D01*
X7659499Y8862744D01*
X7653100Y8838862D01*
Y8814138D01*
X7659499Y8790256D01*
X7671861Y8768844D01*
X7689344Y8751361D01*
X7710756Y8738999D01*
X7734638Y8732600D01*
X7759362D01*
X7783244Y8738999D01*
X7804656Y8751361D01*
X7822139Y8768844D01*
X7834501Y8790256D01*
X7840900Y8814138D01*
Y8838862D01*
X7834501Y8862744D01*
X7822139Y8884156D01*
X7804656Y8901639D01*
X7783244Y8914001D01*
X7759362Y8920400D01*
D02*
G37*
G36*
X7505362D02*
X7480638D01*
X7456756Y8914001D01*
X7435344Y8901639D01*
X7417861Y8884156D01*
X7405499Y8862744D01*
X7399100Y8838862D01*
Y8814138D01*
X7405499Y8790256D01*
X7417861Y8768844D01*
X7435344Y8751361D01*
X7456756Y8738999D01*
X7480638Y8732600D01*
X7505362D01*
X7529244Y8738999D01*
X7550656Y8751361D01*
X7568139Y8768844D01*
X7580501Y8790256D01*
X7586900Y8814138D01*
Y8838862D01*
X7580501Y8862744D01*
X7568139Y8884156D01*
X7550656Y8901639D01*
X7529244Y8914001D01*
X7505362Y8920400D01*
D02*
G37*
G36*
X6997362D02*
X6972638D01*
X6948756Y8914001D01*
X6927344Y8901639D01*
X6909861Y8884156D01*
X6897499Y8862744D01*
X6891100Y8838862D01*
Y8814138D01*
X6897499Y8790256D01*
X6909861Y8768844D01*
X6927344Y8751361D01*
X6948756Y8738999D01*
X6972638Y8732600D01*
X6997362D01*
X7021244Y8738999D01*
X7042656Y8751361D01*
X7060139Y8768844D01*
X7072501Y8790256D01*
X7078900Y8814138D01*
Y8838862D01*
X7072501Y8862744D01*
X7060139Y8884156D01*
X7042656Y8901639D01*
X7021244Y8914001D01*
X6997362Y8920400D01*
D02*
G37*
G36*
X6743362D02*
X6718638D01*
X6694756Y8914001D01*
X6673344Y8901639D01*
X6655861Y8884156D01*
X6643499Y8862744D01*
X6637100Y8838862D01*
Y8814138D01*
X6643499Y8790256D01*
X6655861Y8768844D01*
X6673344Y8751361D01*
X6694756Y8738999D01*
X6718638Y8732600D01*
X6743362D01*
X6767244Y8738999D01*
X6788656Y8751361D01*
X6806139Y8768844D01*
X6818501Y8790256D01*
X6824900Y8814138D01*
Y8838862D01*
X6818501Y8862744D01*
X6806139Y8884156D01*
X6788656Y8901639D01*
X6767244Y8914001D01*
X6743362Y8920400D01*
D02*
G37*
G36*
X6489362D02*
X6464638D01*
X6440756Y8914001D01*
X6419344Y8901639D01*
X6401861Y8884156D01*
X6389499Y8862744D01*
X6383100Y8838862D01*
Y8814138D01*
X6389499Y8790256D01*
X6401861Y8768844D01*
X6419344Y8751361D01*
X6440756Y8738999D01*
X6464638Y8732600D01*
X6489362D01*
X6513244Y8738999D01*
X6534656Y8751361D01*
X6552139Y8768844D01*
X6564501Y8790256D01*
X6570900Y8814138D01*
Y8838862D01*
X6564501Y8862744D01*
X6552139Y8884156D01*
X6534656Y8901639D01*
X6513244Y8914001D01*
X6489362Y8920400D01*
D02*
G37*
G36*
X6235362D02*
X6210638D01*
X6186756Y8914001D01*
X6165344Y8901639D01*
X6147861Y8884156D01*
X6135499Y8862744D01*
X6129100Y8838862D01*
Y8814138D01*
X6135499Y8790256D01*
X6147861Y8768844D01*
X6165344Y8751361D01*
X6186756Y8738999D01*
X6210638Y8732600D01*
X6235362D01*
X6259244Y8738999D01*
X6280656Y8751361D01*
X6298139Y8768844D01*
X6310501Y8790256D01*
X6316900Y8814138D01*
Y8838862D01*
X6310501Y8862744D01*
X6298139Y8884156D01*
X6280656Y8901639D01*
X6259244Y8914001D01*
X6235362Y8920400D01*
D02*
G37*
G36*
X5981362D02*
X5956638D01*
X5932756Y8914001D01*
X5911344Y8901639D01*
X5893861Y8884156D01*
X5881499Y8862744D01*
X5875100Y8838862D01*
Y8814138D01*
X5881499Y8790256D01*
X5893861Y8768844D01*
X5911344Y8751361D01*
X5932756Y8738999D01*
X5956638Y8732600D01*
X5981362D01*
X6005244Y8738999D01*
X6026656Y8751361D01*
X6044139Y8768844D01*
X6056501Y8790256D01*
X6062900Y8814138D01*
Y8838862D01*
X6056501Y8862744D01*
X6044139Y8884156D01*
X6026656Y8901639D01*
X6005244Y8914001D01*
X5981362Y8920400D01*
D02*
G37*
G36*
X5727362D02*
X5702638D01*
X5678756Y8914001D01*
X5657344Y8901639D01*
X5639861Y8884156D01*
X5627499Y8862744D01*
X5621100Y8838862D01*
Y8814138D01*
X5627499Y8790256D01*
X5639861Y8768844D01*
X5657344Y8751361D01*
X5678756Y8738999D01*
X5702638Y8732600D01*
X5727362D01*
X5751244Y8738999D01*
X5772656Y8751361D01*
X5790139Y8768844D01*
X5802501Y8790256D01*
X5808900Y8814138D01*
Y8838862D01*
X5802501Y8862744D01*
X5790139Y8884156D01*
X5772656Y8901639D01*
X5751244Y8914001D01*
X5727362Y8920400D01*
D02*
G37*
G36*
X5473362D02*
X5448638D01*
X5424756Y8914001D01*
X5403344Y8901639D01*
X5385861Y8884156D01*
X5373499Y8862744D01*
X5367100Y8838862D01*
Y8814138D01*
X5373499Y8790256D01*
X5385861Y8768844D01*
X5403344Y8751361D01*
X5424756Y8738999D01*
X5448638Y8732600D01*
X5473362D01*
X5497244Y8738999D01*
X5518656Y8751361D01*
X5536139Y8768844D01*
X5548501Y8790256D01*
X5554900Y8814138D01*
Y8838862D01*
X5548501Y8862744D01*
X5536139Y8884156D01*
X5518656Y8901639D01*
X5497244Y8914001D01*
X5473362Y8920400D01*
D02*
G37*
G36*
X5219362D02*
X5194638D01*
X5170756Y8914001D01*
X5149344Y8901639D01*
X5131861Y8884156D01*
X5119499Y8862744D01*
X5113100Y8838862D01*
Y8814138D01*
X5119499Y8790256D01*
X5131861Y8768844D01*
X5149344Y8751361D01*
X5170756Y8738999D01*
X5194638Y8732600D01*
X5219362D01*
X5243244Y8738999D01*
X5264656Y8751361D01*
X5282139Y8768844D01*
X5294501Y8790256D01*
X5300900Y8814138D01*
Y8838862D01*
X5294501Y8862744D01*
X5282139Y8884156D01*
X5264656Y8901639D01*
X5243244Y8914001D01*
X5219362Y8920400D01*
D02*
G37*
G36*
X4711362D02*
X4686638D01*
X4662756Y8914001D01*
X4641344Y8901639D01*
X4623861Y8884156D01*
X4611499Y8862744D01*
X4605100Y8838862D01*
Y8814138D01*
X4611499Y8790256D01*
X4623861Y8768844D01*
X4641344Y8751361D01*
X4662756Y8738999D01*
X4686638Y8732600D01*
X4711362D01*
X4735244Y8738999D01*
X4756656Y8751361D01*
X4774139Y8768844D01*
X4786501Y8790256D01*
X4792900Y8814138D01*
Y8838862D01*
X4786501Y8862744D01*
X4774139Y8884156D01*
X4756656Y8901639D01*
X4735244Y8914001D01*
X4711362Y8920400D01*
D02*
G37*
G36*
X4457362D02*
X4432638D01*
X4408756Y8914001D01*
X4387344Y8901639D01*
X4369861Y8884156D01*
X4357499Y8862744D01*
X4351100Y8838862D01*
Y8814138D01*
X4357499Y8790256D01*
X4369861Y8768844D01*
X4387344Y8751361D01*
X4408756Y8738999D01*
X4432638Y8732600D01*
X4457362D01*
X4481244Y8738999D01*
X4502656Y8751361D01*
X4520139Y8768844D01*
X4532501Y8790256D01*
X4538900Y8814138D01*
Y8838862D01*
X4532501Y8862744D01*
X4520139Y8884156D01*
X4502656Y8901639D01*
X4481244Y8914001D01*
X4457362Y8920400D01*
D02*
G37*
G36*
X4203362D02*
X4178638D01*
X4154756Y8914001D01*
X4133344Y8901639D01*
X4115861Y8884156D01*
X4103499Y8862744D01*
X4097100Y8838862D01*
Y8814138D01*
X4103499Y8790256D01*
X4115861Y8768844D01*
X4133344Y8751361D01*
X4154756Y8738999D01*
X4178638Y8732600D01*
X4203362D01*
X4227244Y8738999D01*
X4248656Y8751361D01*
X4266139Y8768844D01*
X4278501Y8790256D01*
X4284900Y8814138D01*
Y8838862D01*
X4278501Y8862744D01*
X4266139Y8884156D01*
X4248656Y8901639D01*
X4227244Y8914001D01*
X4203362Y8920400D01*
D02*
G37*
G36*
X3695362D02*
X3670638D01*
X3646756Y8914001D01*
X3625344Y8901639D01*
X3607861Y8884156D01*
X3595499Y8862744D01*
X3589100Y8838862D01*
Y8814138D01*
X3595499Y8790256D01*
X3607861Y8768844D01*
X3625344Y8751361D01*
X3646756Y8738999D01*
X3670638Y8732600D01*
X3695362D01*
X3719244Y8738999D01*
X3740656Y8751361D01*
X3758139Y8768844D01*
X3770501Y8790256D01*
X3776900Y8814138D01*
Y8838862D01*
X3770501Y8862744D01*
X3758139Y8884156D01*
X3740656Y8901639D01*
X3719244Y8914001D01*
X3695362Y8920400D01*
D02*
G37*
G36*
X3187362D02*
X3162638D01*
X3138756Y8914001D01*
X3117344Y8901639D01*
X3099861Y8884156D01*
X3087499Y8862744D01*
X3081100Y8838862D01*
Y8814138D01*
X3087499Y8790256D01*
X3099861Y8768844D01*
X3117344Y8751361D01*
X3138756Y8738999D01*
X3162638Y8732600D01*
X3187362D01*
X3211244Y8738999D01*
X3232656Y8751361D01*
X3250139Y8768844D01*
X3262501Y8790256D01*
X3268900Y8814138D01*
Y8838862D01*
X3262501Y8862744D01*
X3250139Y8884156D01*
X3232656Y8901639D01*
X3211244Y8914001D01*
X3187362Y8920400D01*
D02*
G37*
G36*
X2933362D02*
X2908638D01*
X2884756Y8914001D01*
X2863344Y8901639D01*
X2845861Y8884156D01*
X2833499Y8862744D01*
X2827100Y8838862D01*
Y8814138D01*
X2833499Y8790256D01*
X2845861Y8768844D01*
X2863344Y8751361D01*
X2884756Y8738999D01*
X2908638Y8732600D01*
X2933362D01*
X2957244Y8738999D01*
X2978656Y8751361D01*
X2996139Y8768844D01*
X3008501Y8790256D01*
X3014900Y8814138D01*
Y8838862D01*
X3008501Y8862744D01*
X2996139Y8884156D01*
X2978656Y8901639D01*
X2957244Y8914001D01*
X2933362Y8920400D01*
D02*
G37*
G36*
X2679362D02*
X2654638D01*
X2630756Y8914001D01*
X2609344Y8901639D01*
X2591861Y8884156D01*
X2579499Y8862744D01*
X2573100Y8838862D01*
Y8814138D01*
X2579499Y8790256D01*
X2591861Y8768844D01*
X2609344Y8751361D01*
X2630756Y8738999D01*
X2654638Y8732600D01*
X2679362D01*
X2703244Y8738999D01*
X2724656Y8751361D01*
X2742139Y8768844D01*
X2754501Y8790256D01*
X2760900Y8814138D01*
Y8838862D01*
X2754501Y8862744D01*
X2742139Y8884156D01*
X2724656Y8901639D01*
X2703244Y8914001D01*
X2679362Y8920400D01*
D02*
G37*
G36*
X2171362D02*
X2146638D01*
X2122756Y8914001D01*
X2101344Y8901639D01*
X2083861Y8884156D01*
X2071499Y8862744D01*
X2065100Y8838862D01*
Y8814138D01*
X2071499Y8790256D01*
X2083861Y8768844D01*
X2101344Y8751361D01*
X2122756Y8738999D01*
X2146638Y8732600D01*
X2171362D01*
X2195244Y8738999D01*
X2216656Y8751361D01*
X2234139Y8768844D01*
X2246501Y8790256D01*
X2252900Y8814138D01*
Y8838862D01*
X2246501Y8862744D01*
X2234139Y8884156D01*
X2216656Y8901639D01*
X2195244Y8914001D01*
X2171362Y8920400D01*
D02*
G37*
G36*
X1917362D02*
X1892638D01*
X1868756Y8914001D01*
X1847344Y8901639D01*
X1829861Y8884156D01*
X1817499Y8862744D01*
X1811100Y8838862D01*
Y8814138D01*
X1817499Y8790256D01*
X1829861Y8768844D01*
X1847344Y8751361D01*
X1868756Y8738999D01*
X1892638Y8732600D01*
X1917362D01*
X1941244Y8738999D01*
X1962656Y8751361D01*
X1980139Y8768844D01*
X1992501Y8790256D01*
X1998900Y8814138D01*
Y8838862D01*
X1992501Y8862744D01*
X1980139Y8884156D01*
X1962656Y8901639D01*
X1941244Y8914001D01*
X1917362Y8920400D01*
D02*
G37*
G36*
X1663362D02*
X1638638D01*
X1614756Y8914001D01*
X1593344Y8901639D01*
X1575861Y8884156D01*
X1563499Y8862744D01*
X1557100Y8838862D01*
Y8814138D01*
X1563499Y8790256D01*
X1575861Y8768844D01*
X1593344Y8751361D01*
X1614756Y8738999D01*
X1638638Y8732600D01*
X1663362D01*
X1687244Y8738999D01*
X1708656Y8751361D01*
X1726139Y8768844D01*
X1738501Y8790256D01*
X1744900Y8814138D01*
Y8838862D01*
X1738501Y8862744D01*
X1726139Y8884156D01*
X1708656Y8901639D01*
X1687244Y8914001D01*
X1663362Y8920400D01*
D02*
G37*
G36*
X1490900D02*
X1303100D01*
Y8732600D01*
X1490900D01*
Y8920400D01*
D02*
G37*
G36*
X7759362Y8666400D02*
X7734638D01*
X7710756Y8660001D01*
X7689344Y8647639D01*
X7671861Y8630156D01*
X7659499Y8608744D01*
X7653100Y8584862D01*
Y8560138D01*
X7659499Y8536256D01*
X7671861Y8514844D01*
X7689344Y8497361D01*
X7710756Y8484999D01*
X7734638Y8478600D01*
X7759362D01*
X7783244Y8484999D01*
X7804656Y8497361D01*
X7822139Y8514844D01*
X7834501Y8536256D01*
X7840900Y8560138D01*
Y8584862D01*
X7834501Y8608744D01*
X7822139Y8630156D01*
X7804656Y8647639D01*
X7783244Y8660001D01*
X7759362Y8666400D01*
D02*
G37*
G36*
X7505362D02*
X7480638D01*
X7456756Y8660001D01*
X7435344Y8647639D01*
X7417861Y8630156D01*
X7405499Y8608744D01*
X7399100Y8584862D01*
Y8560138D01*
X7405499Y8536256D01*
X7417861Y8514844D01*
X7435344Y8497361D01*
X7456756Y8484999D01*
X7480638Y8478600D01*
X7505362D01*
X7529244Y8484999D01*
X7550656Y8497361D01*
X7568139Y8514844D01*
X7580501Y8536256D01*
X7586900Y8560138D01*
Y8584862D01*
X7580501Y8608744D01*
X7568139Y8630156D01*
X7550656Y8647639D01*
X7529244Y8660001D01*
X7505362Y8666400D01*
D02*
G37*
G36*
X7251362D02*
X7226638D01*
X7202756Y8660001D01*
X7181344Y8647639D01*
X7163861Y8630156D01*
X7151499Y8608744D01*
X7145100Y8584862D01*
Y8560138D01*
X7151499Y8536256D01*
X7163861Y8514844D01*
X7181344Y8497361D01*
X7202756Y8484999D01*
X7226638Y8478600D01*
X7251362D01*
X7275244Y8484999D01*
X7296656Y8497361D01*
X7314139Y8514844D01*
X7326501Y8536256D01*
X7332900Y8560138D01*
Y8584862D01*
X7326501Y8608744D01*
X7314139Y8630156D01*
X7296656Y8647639D01*
X7275244Y8660001D01*
X7251362Y8666400D01*
D02*
G37*
G36*
X6997362D02*
X6972638D01*
X6948756Y8660001D01*
X6927344Y8647639D01*
X6909861Y8630156D01*
X6897499Y8608744D01*
X6891100Y8584862D01*
Y8560138D01*
X6897499Y8536256D01*
X6909861Y8514844D01*
X6927344Y8497361D01*
X6948756Y8484999D01*
X6972638Y8478600D01*
X6997362D01*
X7021244Y8484999D01*
X7042656Y8497361D01*
X7060139Y8514844D01*
X7072501Y8536256D01*
X7078900Y8560138D01*
Y8584862D01*
X7072501Y8608744D01*
X7060139Y8630156D01*
X7042656Y8647639D01*
X7021244Y8660001D01*
X6997362Y8666400D01*
D02*
G37*
G36*
X6743362D02*
X6718638D01*
X6694756Y8660001D01*
X6673344Y8647639D01*
X6655861Y8630156D01*
X6643499Y8608744D01*
X6637100Y8584862D01*
Y8560138D01*
X6643499Y8536256D01*
X6655861Y8514844D01*
X6673344Y8497361D01*
X6694756Y8484999D01*
X6718638Y8478600D01*
X6743362D01*
X6767244Y8484999D01*
X6788656Y8497361D01*
X6806139Y8514844D01*
X6818501Y8536256D01*
X6824900Y8560138D01*
Y8584862D01*
X6818501Y8608744D01*
X6806139Y8630156D01*
X6788656Y8647639D01*
X6767244Y8660001D01*
X6743362Y8666400D01*
D02*
G37*
G36*
X6489362D02*
X6464638D01*
X6440756Y8660001D01*
X6419344Y8647639D01*
X6401861Y8630156D01*
X6389499Y8608744D01*
X6383100Y8584862D01*
Y8560138D01*
X6389499Y8536256D01*
X6401861Y8514844D01*
X6419344Y8497361D01*
X6440756Y8484999D01*
X6464638Y8478600D01*
X6489362D01*
X6513244Y8484999D01*
X6534656Y8497361D01*
X6552139Y8514844D01*
X6564501Y8536256D01*
X6570900Y8560138D01*
Y8584862D01*
X6564501Y8608744D01*
X6552139Y8630156D01*
X6534656Y8647639D01*
X6513244Y8660001D01*
X6489362Y8666400D01*
D02*
G37*
G36*
X6235362D02*
X6210638D01*
X6186756Y8660001D01*
X6165344Y8647639D01*
X6147861Y8630156D01*
X6135499Y8608744D01*
X6129100Y8584862D01*
Y8560138D01*
X6135499Y8536256D01*
X6147861Y8514844D01*
X6165344Y8497361D01*
X6186756Y8484999D01*
X6210638Y8478600D01*
X6235362D01*
X6259244Y8484999D01*
X6280656Y8497361D01*
X6298139Y8514844D01*
X6310501Y8536256D01*
X6316900Y8560138D01*
Y8584862D01*
X6310501Y8608744D01*
X6298139Y8630156D01*
X6280656Y8647639D01*
X6259244Y8660001D01*
X6235362Y8666400D01*
D02*
G37*
G36*
X5981362D02*
X5956638D01*
X5932756Y8660001D01*
X5911344Y8647639D01*
X5893861Y8630156D01*
X5881499Y8608744D01*
X5875100Y8584862D01*
Y8560138D01*
X5881499Y8536256D01*
X5893861Y8514844D01*
X5911344Y8497361D01*
X5932756Y8484999D01*
X5956638Y8478600D01*
X5981362D01*
X6005244Y8484999D01*
X6026656Y8497361D01*
X6044139Y8514844D01*
X6056501Y8536256D01*
X6062900Y8560138D01*
Y8584862D01*
X6056501Y8608744D01*
X6044139Y8630156D01*
X6026656Y8647639D01*
X6005244Y8660001D01*
X5981362Y8666400D01*
D02*
G37*
G36*
X5727362D02*
X5702638D01*
X5678756Y8660001D01*
X5657344Y8647639D01*
X5639861Y8630156D01*
X5627499Y8608744D01*
X5621100Y8584862D01*
Y8560138D01*
X5627499Y8536256D01*
X5639861Y8514844D01*
X5657344Y8497361D01*
X5678756Y8484999D01*
X5702638Y8478600D01*
X5727362D01*
X5751244Y8484999D01*
X5772656Y8497361D01*
X5790139Y8514844D01*
X5802501Y8536256D01*
X5808900Y8560138D01*
Y8584862D01*
X5802501Y8608744D01*
X5790139Y8630156D01*
X5772656Y8647639D01*
X5751244Y8660001D01*
X5727362Y8666400D01*
D02*
G37*
G36*
X5473362D02*
X5448638D01*
X5424756Y8660001D01*
X5403344Y8647639D01*
X5385861Y8630156D01*
X5373499Y8608744D01*
X5367100Y8584862D01*
Y8560138D01*
X5373499Y8536256D01*
X5385861Y8514844D01*
X5403344Y8497361D01*
X5424756Y8484999D01*
X5448638Y8478600D01*
X5473362D01*
X5497244Y8484999D01*
X5518656Y8497361D01*
X5536139Y8514844D01*
X5548501Y8536256D01*
X5554900Y8560138D01*
Y8584862D01*
X5548501Y8608744D01*
X5536139Y8630156D01*
X5518656Y8647639D01*
X5497244Y8660001D01*
X5473362Y8666400D01*
D02*
G37*
G36*
X5219362D02*
X5194638D01*
X5170756Y8660001D01*
X5149344Y8647639D01*
X5131861Y8630156D01*
X5119499Y8608744D01*
X5113100Y8584862D01*
Y8560138D01*
X5119499Y8536256D01*
X5131861Y8514844D01*
X5149344Y8497361D01*
X5170756Y8484999D01*
X5194638Y8478600D01*
X5219362D01*
X5243244Y8484999D01*
X5264656Y8497361D01*
X5282139Y8514844D01*
X5294501Y8536256D01*
X5300900Y8560138D01*
Y8584862D01*
X5294501Y8608744D01*
X5282139Y8630156D01*
X5264656Y8647639D01*
X5243244Y8660001D01*
X5219362Y8666400D01*
D02*
G37*
G36*
X4965362D02*
X4940638D01*
X4916756Y8660001D01*
X4895344Y8647639D01*
X4877861Y8630156D01*
X4865499Y8608744D01*
X4859100Y8584862D01*
Y8560138D01*
X4865499Y8536256D01*
X4877861Y8514844D01*
X4895344Y8497361D01*
X4916756Y8484999D01*
X4940638Y8478600D01*
X4965362D01*
X4989244Y8484999D01*
X5010656Y8497361D01*
X5028139Y8514844D01*
X5040501Y8536256D01*
X5046900Y8560138D01*
Y8584862D01*
X5040501Y8608744D01*
X5028139Y8630156D01*
X5010656Y8647639D01*
X4989244Y8660001D01*
X4965362Y8666400D01*
D02*
G37*
G36*
X4711362D02*
X4686638D01*
X4662756Y8660001D01*
X4641344Y8647639D01*
X4623861Y8630156D01*
X4611499Y8608744D01*
X4605100Y8584862D01*
Y8560138D01*
X4611499Y8536256D01*
X4623861Y8514844D01*
X4641344Y8497361D01*
X4662756Y8484999D01*
X4686638Y8478600D01*
X4711362D01*
X4735244Y8484999D01*
X4756656Y8497361D01*
X4774139Y8514844D01*
X4786501Y8536256D01*
X4792900Y8560138D01*
Y8584862D01*
X4786501Y8608744D01*
X4774139Y8630156D01*
X4756656Y8647639D01*
X4735244Y8660001D01*
X4711362Y8666400D01*
D02*
G37*
G36*
X4457362D02*
X4432638D01*
X4408756Y8660001D01*
X4387344Y8647639D01*
X4369861Y8630156D01*
X4357499Y8608744D01*
X4351100Y8584862D01*
Y8560138D01*
X4357499Y8536256D01*
X4369861Y8514844D01*
X4387344Y8497361D01*
X4408756Y8484999D01*
X4432638Y8478600D01*
X4457362D01*
X4481244Y8484999D01*
X4502656Y8497361D01*
X4520139Y8514844D01*
X4532501Y8536256D01*
X4538900Y8560138D01*
Y8584862D01*
X4532501Y8608744D01*
X4520139Y8630156D01*
X4502656Y8647639D01*
X4481244Y8660001D01*
X4457362Y8666400D01*
D02*
G37*
G36*
X4203362D02*
X4178638D01*
X4154756Y8660001D01*
X4133344Y8647639D01*
X4115861Y8630156D01*
X4103499Y8608744D01*
X4097100Y8584862D01*
Y8560138D01*
X4103499Y8536256D01*
X4115861Y8514844D01*
X4133344Y8497361D01*
X4154756Y8484999D01*
X4178638Y8478600D01*
X4203362D01*
X4227244Y8484999D01*
X4248656Y8497361D01*
X4266139Y8514844D01*
X4278501Y8536256D01*
X4284900Y8560138D01*
Y8584862D01*
X4278501Y8608744D01*
X4266139Y8630156D01*
X4248656Y8647639D01*
X4227244Y8660001D01*
X4203362Y8666400D01*
D02*
G37*
G36*
X3949362D02*
X3924638D01*
X3900756Y8660001D01*
X3879344Y8647639D01*
X3861861Y8630156D01*
X3849499Y8608744D01*
X3843100Y8584862D01*
Y8560138D01*
X3849499Y8536256D01*
X3861861Y8514844D01*
X3879344Y8497361D01*
X3900756Y8484999D01*
X3924638Y8478600D01*
X3949362D01*
X3973244Y8484999D01*
X3994656Y8497361D01*
X4012139Y8514844D01*
X4024501Y8536256D01*
X4030900Y8560138D01*
Y8584862D01*
X4024501Y8608744D01*
X4012139Y8630156D01*
X3994656Y8647639D01*
X3973244Y8660001D01*
X3949362Y8666400D01*
D02*
G37*
G36*
X3695362D02*
X3670638D01*
X3646756Y8660001D01*
X3625344Y8647639D01*
X3607861Y8630156D01*
X3595499Y8608744D01*
X3589100Y8584862D01*
Y8560138D01*
X3595499Y8536256D01*
X3607861Y8514844D01*
X3625344Y8497361D01*
X3646756Y8484999D01*
X3670638Y8478600D01*
X3695362D01*
X3719244Y8484999D01*
X3740656Y8497361D01*
X3758139Y8514844D01*
X3770501Y8536256D01*
X3776900Y8560138D01*
Y8584862D01*
X3770501Y8608744D01*
X3758139Y8630156D01*
X3740656Y8647639D01*
X3719244Y8660001D01*
X3695362Y8666400D01*
D02*
G37*
G36*
X3441362D02*
X3416638D01*
X3392756Y8660001D01*
X3371344Y8647639D01*
X3353861Y8630156D01*
X3341499Y8608744D01*
X3335100Y8584862D01*
Y8560138D01*
X3341499Y8536256D01*
X3353861Y8514844D01*
X3371344Y8497361D01*
X3392756Y8484999D01*
X3416638Y8478600D01*
X3441362D01*
X3465244Y8484999D01*
X3486656Y8497361D01*
X3504139Y8514844D01*
X3516501Y8536256D01*
X3522900Y8560138D01*
Y8584862D01*
X3516501Y8608744D01*
X3504139Y8630156D01*
X3486656Y8647639D01*
X3465244Y8660001D01*
X3441362Y8666400D01*
D02*
G37*
G36*
X3187362D02*
X3162638D01*
X3138756Y8660001D01*
X3117344Y8647639D01*
X3099861Y8630156D01*
X3087499Y8608744D01*
X3081100Y8584862D01*
Y8560138D01*
X3087499Y8536256D01*
X3099861Y8514844D01*
X3117344Y8497361D01*
X3138756Y8484999D01*
X3162638Y8478600D01*
X3187362D01*
X3211244Y8484999D01*
X3232656Y8497361D01*
X3250139Y8514844D01*
X3262501Y8536256D01*
X3268900Y8560138D01*
Y8584862D01*
X3262501Y8608744D01*
X3250139Y8630156D01*
X3232656Y8647639D01*
X3211244Y8660001D01*
X3187362Y8666400D01*
D02*
G37*
G36*
X2933362D02*
X2908638D01*
X2884756Y8660001D01*
X2863344Y8647639D01*
X2845861Y8630156D01*
X2833499Y8608744D01*
X2827100Y8584862D01*
Y8560138D01*
X2833499Y8536256D01*
X2845861Y8514844D01*
X2863344Y8497361D01*
X2884756Y8484999D01*
X2908638Y8478600D01*
X2933362D01*
X2957244Y8484999D01*
X2978656Y8497361D01*
X2996139Y8514844D01*
X3008501Y8536256D01*
X3014900Y8560138D01*
Y8584862D01*
X3008501Y8608744D01*
X2996139Y8630156D01*
X2978656Y8647639D01*
X2957244Y8660001D01*
X2933362Y8666400D01*
D02*
G37*
G36*
X2679362D02*
X2654638D01*
X2630756Y8660001D01*
X2609344Y8647639D01*
X2591861Y8630156D01*
X2579499Y8608744D01*
X2573100Y8584862D01*
Y8560138D01*
X2579499Y8536256D01*
X2591861Y8514844D01*
X2609344Y8497361D01*
X2630756Y8484999D01*
X2654638Y8478600D01*
X2679362D01*
X2703244Y8484999D01*
X2724656Y8497361D01*
X2742139Y8514844D01*
X2754501Y8536256D01*
X2760900Y8560138D01*
Y8584862D01*
X2754501Y8608744D01*
X2742139Y8630156D01*
X2724656Y8647639D01*
X2703244Y8660001D01*
X2679362Y8666400D01*
D02*
G37*
G36*
X2425362D02*
X2400638D01*
X2376756Y8660001D01*
X2355344Y8647639D01*
X2337861Y8630156D01*
X2325499Y8608744D01*
X2319100Y8584862D01*
Y8560138D01*
X2325499Y8536256D01*
X2337861Y8514844D01*
X2355344Y8497361D01*
X2376756Y8484999D01*
X2400638Y8478600D01*
X2425362D01*
X2449244Y8484999D01*
X2470656Y8497361D01*
X2488139Y8514844D01*
X2500501Y8536256D01*
X2506900Y8560138D01*
Y8584862D01*
X2500501Y8608744D01*
X2488139Y8630156D01*
X2470656Y8647639D01*
X2449244Y8660001D01*
X2425362Y8666400D01*
D02*
G37*
G36*
X2171362D02*
X2146638D01*
X2122756Y8660001D01*
X2101344Y8647639D01*
X2083861Y8630156D01*
X2071499Y8608744D01*
X2065100Y8584862D01*
Y8560138D01*
X2071499Y8536256D01*
X2083861Y8514844D01*
X2101344Y8497361D01*
X2122756Y8484999D01*
X2146638Y8478600D01*
X2171362D01*
X2195244Y8484999D01*
X2216656Y8497361D01*
X2234139Y8514844D01*
X2246501Y8536256D01*
X2252900Y8560138D01*
Y8584862D01*
X2246501Y8608744D01*
X2234139Y8630156D01*
X2216656Y8647639D01*
X2195244Y8660001D01*
X2171362Y8666400D01*
D02*
G37*
G36*
X1917362D02*
X1892638D01*
X1868756Y8660001D01*
X1847344Y8647639D01*
X1829861Y8630156D01*
X1817499Y8608744D01*
X1811100Y8584862D01*
Y8560138D01*
X1817499Y8536256D01*
X1829861Y8514844D01*
X1847344Y8497361D01*
X1868756Y8484999D01*
X1892638Y8478600D01*
X1917362D01*
X1941244Y8484999D01*
X1962656Y8497361D01*
X1980139Y8514844D01*
X1992501Y8536256D01*
X1998900Y8560138D01*
Y8584862D01*
X1992501Y8608744D01*
X1980139Y8630156D01*
X1962656Y8647639D01*
X1941244Y8660001D01*
X1917362Y8666400D01*
D02*
G37*
G36*
X1663362D02*
X1638638D01*
X1614756Y8660001D01*
X1593344Y8647639D01*
X1575861Y8630156D01*
X1563499Y8608744D01*
X1557100Y8584862D01*
Y8560138D01*
X1563499Y8536256D01*
X1575861Y8514844D01*
X1593344Y8497361D01*
X1614756Y8484999D01*
X1638638Y8478600D01*
X1663362D01*
X1687244Y8484999D01*
X1708656Y8497361D01*
X1726139Y8514844D01*
X1738501Y8536256D01*
X1744900Y8560138D01*
Y8584862D01*
X1738501Y8608744D01*
X1726139Y8630156D01*
X1708656Y8647639D01*
X1687244Y8660001D01*
X1663362Y8666400D01*
D02*
G37*
G36*
X1409362D02*
X1384638D01*
X1360756Y8660001D01*
X1339344Y8647639D01*
X1321861Y8630156D01*
X1309499Y8608744D01*
X1303100Y8584862D01*
Y8560138D01*
X1309499Y8536256D01*
X1321861Y8514844D01*
X1339344Y8497361D01*
X1360756Y8484999D01*
X1384638Y8478600D01*
X1409362D01*
X1433244Y8484999D01*
X1454656Y8497361D01*
X1472139Y8514844D01*
X1484501Y8536256D01*
X1490900Y8560138D01*
Y8584862D01*
X1484501Y8608744D01*
X1472139Y8630156D01*
X1454656Y8647639D01*
X1433244Y8660001D01*
X1409362Y8666400D01*
D02*
G37*
G36*
X589020Y8511900D02*
X566980D01*
X546619Y8503466D01*
X531034Y8487881D01*
X522600Y8467520D01*
Y8445480D01*
X531034Y8425119D01*
X546619Y8409534D01*
X566980Y8401100D01*
X589020D01*
X609382Y8409534D01*
X624966Y8425119D01*
X633400Y8445480D01*
Y8467520D01*
X624966Y8487881D01*
X609382Y8503466D01*
X589020Y8511900D01*
D02*
G37*
G36*
X7759362Y8412400D02*
X7734638D01*
X7710756Y8406001D01*
X7689344Y8393639D01*
X7671861Y8376156D01*
X7659499Y8354744D01*
X7653100Y8330862D01*
Y8306138D01*
X7659499Y8282256D01*
X7671861Y8260844D01*
X7689344Y8243361D01*
X7710756Y8230999D01*
X7734638Y8224600D01*
X7759362D01*
X7783244Y8230999D01*
X7804656Y8243361D01*
X7822139Y8260844D01*
X7834501Y8282256D01*
X7840900Y8306138D01*
Y8330862D01*
X7834501Y8354744D01*
X7822139Y8376156D01*
X7804656Y8393639D01*
X7783244Y8406001D01*
X7759362Y8412400D01*
D02*
G37*
G36*
X7505362D02*
X7480638D01*
X7456756Y8406001D01*
X7435344Y8393639D01*
X7417861Y8376156D01*
X7405499Y8354744D01*
X7399100Y8330862D01*
Y8306138D01*
X7405499Y8282256D01*
X7417861Y8260844D01*
X7435344Y8243361D01*
X7456756Y8230999D01*
X7480638Y8224600D01*
X7505362D01*
X7529244Y8230999D01*
X7550656Y8243361D01*
X7568139Y8260844D01*
X7580501Y8282256D01*
X7586900Y8306138D01*
Y8330862D01*
X7580501Y8354744D01*
X7568139Y8376156D01*
X7550656Y8393639D01*
X7529244Y8406001D01*
X7505362Y8412400D01*
D02*
G37*
G36*
X7251362D02*
X7226638D01*
X7202756Y8406001D01*
X7181344Y8393639D01*
X7163861Y8376156D01*
X7151499Y8354744D01*
X7145100Y8330862D01*
Y8306138D01*
X7151499Y8282256D01*
X7163861Y8260844D01*
X7181344Y8243361D01*
X7202756Y8230999D01*
X7226638Y8224600D01*
X7251362D01*
X7275244Y8230999D01*
X7296656Y8243361D01*
X7314139Y8260844D01*
X7326501Y8282256D01*
X7332900Y8306138D01*
Y8330862D01*
X7326501Y8354744D01*
X7314139Y8376156D01*
X7296656Y8393639D01*
X7275244Y8406001D01*
X7251362Y8412400D01*
D02*
G37*
G36*
X6997362D02*
X6972638D01*
X6948756Y8406001D01*
X6927344Y8393639D01*
X6909861Y8376156D01*
X6897499Y8354744D01*
X6891100Y8330862D01*
Y8306138D01*
X6897499Y8282256D01*
X6909861Y8260844D01*
X6927344Y8243361D01*
X6948756Y8230999D01*
X6972638Y8224600D01*
X6997362D01*
X7021244Y8230999D01*
X7042656Y8243361D01*
X7060139Y8260844D01*
X7072501Y8282256D01*
X7078900Y8306138D01*
Y8330862D01*
X7072501Y8354744D01*
X7060139Y8376156D01*
X7042656Y8393639D01*
X7021244Y8406001D01*
X6997362Y8412400D01*
D02*
G37*
G36*
X6743362D02*
X6718638D01*
X6694756Y8406001D01*
X6673344Y8393639D01*
X6655861Y8376156D01*
X6643499Y8354744D01*
X6637100Y8330862D01*
Y8306138D01*
X6643499Y8282256D01*
X6655861Y8260844D01*
X6673344Y8243361D01*
X6694756Y8230999D01*
X6718638Y8224600D01*
X6743362D01*
X6767244Y8230999D01*
X6788656Y8243361D01*
X6806139Y8260844D01*
X6818501Y8282256D01*
X6824900Y8306138D01*
Y8330862D01*
X6818501Y8354744D01*
X6806139Y8376156D01*
X6788656Y8393639D01*
X6767244Y8406001D01*
X6743362Y8412400D01*
D02*
G37*
G36*
X6489362D02*
X6464638D01*
X6440756Y8406001D01*
X6419344Y8393639D01*
X6401861Y8376156D01*
X6389499Y8354744D01*
X6383100Y8330862D01*
Y8306138D01*
X6389499Y8282256D01*
X6401861Y8260844D01*
X6419344Y8243361D01*
X6440756Y8230999D01*
X6464638Y8224600D01*
X6489362D01*
X6513244Y8230999D01*
X6534656Y8243361D01*
X6552139Y8260844D01*
X6564501Y8282256D01*
X6570900Y8306138D01*
Y8330862D01*
X6564501Y8354744D01*
X6552139Y8376156D01*
X6534656Y8393639D01*
X6513244Y8406001D01*
X6489362Y8412400D01*
D02*
G37*
G36*
X6235362D02*
X6210638D01*
X6186756Y8406001D01*
X6165344Y8393639D01*
X6147861Y8376156D01*
X6135499Y8354744D01*
X6129100Y8330862D01*
Y8306138D01*
X6135499Y8282256D01*
X6147861Y8260844D01*
X6165344Y8243361D01*
X6186756Y8230999D01*
X6210638Y8224600D01*
X6235362D01*
X6259244Y8230999D01*
X6280656Y8243361D01*
X6298139Y8260844D01*
X6310501Y8282256D01*
X6316900Y8306138D01*
Y8330862D01*
X6310501Y8354744D01*
X6298139Y8376156D01*
X6280656Y8393639D01*
X6259244Y8406001D01*
X6235362Y8412400D01*
D02*
G37*
G36*
X5981362D02*
X5956638D01*
X5932756Y8406001D01*
X5911344Y8393639D01*
X5893861Y8376156D01*
X5881499Y8354744D01*
X5875100Y8330862D01*
Y8306138D01*
X5881499Y8282256D01*
X5893861Y8260844D01*
X5911344Y8243361D01*
X5932756Y8230999D01*
X5956638Y8224600D01*
X5981362D01*
X6005244Y8230999D01*
X6026656Y8243361D01*
X6044139Y8260844D01*
X6056501Y8282256D01*
X6062900Y8306138D01*
Y8330862D01*
X6056501Y8354744D01*
X6044139Y8376156D01*
X6026656Y8393639D01*
X6005244Y8406001D01*
X5981362Y8412400D01*
D02*
G37*
G36*
X5727362D02*
X5702638D01*
X5678756Y8406001D01*
X5657344Y8393639D01*
X5639861Y8376156D01*
X5627499Y8354744D01*
X5621100Y8330862D01*
Y8306138D01*
X5627499Y8282256D01*
X5639861Y8260844D01*
X5657344Y8243361D01*
X5678756Y8230999D01*
X5702638Y8224600D01*
X5727362D01*
X5751244Y8230999D01*
X5772656Y8243361D01*
X5790139Y8260844D01*
X5802501Y8282256D01*
X5808900Y8306138D01*
Y8330862D01*
X5802501Y8354744D01*
X5790139Y8376156D01*
X5772656Y8393639D01*
X5751244Y8406001D01*
X5727362Y8412400D01*
D02*
G37*
G36*
X5473362D02*
X5448638D01*
X5424756Y8406001D01*
X5403344Y8393639D01*
X5385861Y8376156D01*
X5373499Y8354744D01*
X5367100Y8330862D01*
Y8306138D01*
X5373499Y8282256D01*
X5385861Y8260844D01*
X5403344Y8243361D01*
X5424756Y8230999D01*
X5448638Y8224600D01*
X5473362D01*
X5497244Y8230999D01*
X5518656Y8243361D01*
X5536139Y8260844D01*
X5548501Y8282256D01*
X5554900Y8306138D01*
Y8330862D01*
X5548501Y8354744D01*
X5536139Y8376156D01*
X5518656Y8393639D01*
X5497244Y8406001D01*
X5473362Y8412400D01*
D02*
G37*
G36*
X5219362D02*
X5194638D01*
X5170756Y8406001D01*
X5149344Y8393639D01*
X5131861Y8376156D01*
X5119499Y8354744D01*
X5113100Y8330862D01*
Y8306138D01*
X5119499Y8282256D01*
X5131861Y8260844D01*
X5149344Y8243361D01*
X5170756Y8230999D01*
X5194638Y8224600D01*
X5219362D01*
X5243244Y8230999D01*
X5264656Y8243361D01*
X5282139Y8260844D01*
X5294501Y8282256D01*
X5300900Y8306138D01*
Y8330862D01*
X5294501Y8354744D01*
X5282139Y8376156D01*
X5264656Y8393639D01*
X5243244Y8406001D01*
X5219362Y8412400D01*
D02*
G37*
G36*
X4965362D02*
X4940638D01*
X4916756Y8406001D01*
X4895344Y8393639D01*
X4877861Y8376156D01*
X4865499Y8354744D01*
X4859100Y8330862D01*
Y8306138D01*
X4865499Y8282256D01*
X4877861Y8260844D01*
X4895344Y8243361D01*
X4916756Y8230999D01*
X4940638Y8224600D01*
X4965362D01*
X4989244Y8230999D01*
X5010656Y8243361D01*
X5028139Y8260844D01*
X5040501Y8282256D01*
X5046900Y8306138D01*
Y8330862D01*
X5040501Y8354744D01*
X5028139Y8376156D01*
X5010656Y8393639D01*
X4989244Y8406001D01*
X4965362Y8412400D01*
D02*
G37*
G36*
X4711362D02*
X4686638D01*
X4662756Y8406001D01*
X4641344Y8393639D01*
X4623861Y8376156D01*
X4611499Y8354744D01*
X4605100Y8330862D01*
Y8306138D01*
X4611499Y8282256D01*
X4623861Y8260844D01*
X4641344Y8243361D01*
X4662756Y8230999D01*
X4686638Y8224600D01*
X4711362D01*
X4735244Y8230999D01*
X4756656Y8243361D01*
X4774139Y8260844D01*
X4786501Y8282256D01*
X4792900Y8306138D01*
Y8330862D01*
X4786501Y8354744D01*
X4774139Y8376156D01*
X4756656Y8393639D01*
X4735244Y8406001D01*
X4711362Y8412400D01*
D02*
G37*
G36*
X4457362D02*
X4432638D01*
X4408756Y8406001D01*
X4387344Y8393639D01*
X4369861Y8376156D01*
X4357499Y8354744D01*
X4351100Y8330862D01*
Y8306138D01*
X4357499Y8282256D01*
X4369861Y8260844D01*
X4387344Y8243361D01*
X4408756Y8230999D01*
X4432638Y8224600D01*
X4457362D01*
X4481244Y8230999D01*
X4502656Y8243361D01*
X4520139Y8260844D01*
X4532501Y8282256D01*
X4538900Y8306138D01*
Y8330862D01*
X4532501Y8354744D01*
X4520139Y8376156D01*
X4502656Y8393639D01*
X4481244Y8406001D01*
X4457362Y8412400D01*
D02*
G37*
G36*
X4203362D02*
X4178638D01*
X4154756Y8406001D01*
X4133344Y8393639D01*
X4115861Y8376156D01*
X4103499Y8354744D01*
X4097100Y8330862D01*
Y8306138D01*
X4103499Y8282256D01*
X4115861Y8260844D01*
X4133344Y8243361D01*
X4154756Y8230999D01*
X4178638Y8224600D01*
X4203362D01*
X4227244Y8230999D01*
X4248656Y8243361D01*
X4266139Y8260844D01*
X4278501Y8282256D01*
X4284900Y8306138D01*
Y8330862D01*
X4278501Y8354744D01*
X4266139Y8376156D01*
X4248656Y8393639D01*
X4227244Y8406001D01*
X4203362Y8412400D01*
D02*
G37*
G36*
X3949362D02*
X3924638D01*
X3900756Y8406001D01*
X3879344Y8393639D01*
X3861861Y8376156D01*
X3849499Y8354744D01*
X3843100Y8330862D01*
Y8306138D01*
X3849499Y8282256D01*
X3861861Y8260844D01*
X3879344Y8243361D01*
X3900756Y8230999D01*
X3924638Y8224600D01*
X3949362D01*
X3973244Y8230999D01*
X3994656Y8243361D01*
X4012139Y8260844D01*
X4024501Y8282256D01*
X4030900Y8306138D01*
Y8330862D01*
X4024501Y8354744D01*
X4012139Y8376156D01*
X3994656Y8393639D01*
X3973244Y8406001D01*
X3949362Y8412400D01*
D02*
G37*
G36*
X3695362D02*
X3670638D01*
X3646756Y8406001D01*
X3625344Y8393639D01*
X3607861Y8376156D01*
X3595499Y8354744D01*
X3589100Y8330862D01*
Y8306138D01*
X3595499Y8282256D01*
X3607861Y8260844D01*
X3625344Y8243361D01*
X3646756Y8230999D01*
X3670638Y8224600D01*
X3695362D01*
X3719244Y8230999D01*
X3740656Y8243361D01*
X3758139Y8260844D01*
X3770501Y8282256D01*
X3776900Y8306138D01*
Y8330862D01*
X3770501Y8354744D01*
X3758139Y8376156D01*
X3740656Y8393639D01*
X3719244Y8406001D01*
X3695362Y8412400D01*
D02*
G37*
G36*
X3441362D02*
X3416638D01*
X3392756Y8406001D01*
X3371344Y8393639D01*
X3353861Y8376156D01*
X3341499Y8354744D01*
X3335100Y8330862D01*
Y8306138D01*
X3341499Y8282256D01*
X3353861Y8260844D01*
X3371344Y8243361D01*
X3392756Y8230999D01*
X3416638Y8224600D01*
X3441362D01*
X3465244Y8230999D01*
X3486656Y8243361D01*
X3504139Y8260844D01*
X3516501Y8282256D01*
X3522900Y8306138D01*
Y8330862D01*
X3516501Y8354744D01*
X3504139Y8376156D01*
X3486656Y8393639D01*
X3465244Y8406001D01*
X3441362Y8412400D01*
D02*
G37*
G36*
X3187362D02*
X3162638D01*
X3138756Y8406001D01*
X3117344Y8393639D01*
X3099861Y8376156D01*
X3087499Y8354744D01*
X3081100Y8330862D01*
Y8306138D01*
X3087499Y8282256D01*
X3099861Y8260844D01*
X3117344Y8243361D01*
X3138756Y8230999D01*
X3162638Y8224600D01*
X3187362D01*
X3211244Y8230999D01*
X3232656Y8243361D01*
X3250139Y8260844D01*
X3262501Y8282256D01*
X3268900Y8306138D01*
Y8330862D01*
X3262501Y8354744D01*
X3250139Y8376156D01*
X3232656Y8393639D01*
X3211244Y8406001D01*
X3187362Y8412400D01*
D02*
G37*
G36*
X2933362D02*
X2908638D01*
X2884756Y8406001D01*
X2863344Y8393639D01*
X2845861Y8376156D01*
X2833499Y8354744D01*
X2827100Y8330862D01*
Y8306138D01*
X2833499Y8282256D01*
X2845861Y8260844D01*
X2863344Y8243361D01*
X2884756Y8230999D01*
X2908638Y8224600D01*
X2933362D01*
X2957244Y8230999D01*
X2978656Y8243361D01*
X2996139Y8260844D01*
X3008501Y8282256D01*
X3014900Y8306138D01*
Y8330862D01*
X3008501Y8354744D01*
X2996139Y8376156D01*
X2978656Y8393639D01*
X2957244Y8406001D01*
X2933362Y8412400D01*
D02*
G37*
G36*
X2679362D02*
X2654638D01*
X2630756Y8406001D01*
X2609344Y8393639D01*
X2591861Y8376156D01*
X2579499Y8354744D01*
X2573100Y8330862D01*
Y8306138D01*
X2579499Y8282256D01*
X2591861Y8260844D01*
X2609344Y8243361D01*
X2630756Y8230999D01*
X2654638Y8224600D01*
X2679362D01*
X2703244Y8230999D01*
X2724656Y8243361D01*
X2742139Y8260844D01*
X2754501Y8282256D01*
X2760900Y8306138D01*
Y8330862D01*
X2754501Y8354744D01*
X2742139Y8376156D01*
X2724656Y8393639D01*
X2703244Y8406001D01*
X2679362Y8412400D01*
D02*
G37*
G36*
X2425362D02*
X2400638D01*
X2376756Y8406001D01*
X2355344Y8393639D01*
X2337861Y8376156D01*
X2325499Y8354744D01*
X2319100Y8330862D01*
Y8306138D01*
X2325499Y8282256D01*
X2337861Y8260844D01*
X2355344Y8243361D01*
X2376756Y8230999D01*
X2400638Y8224600D01*
X2425362D01*
X2449244Y8230999D01*
X2470656Y8243361D01*
X2488139Y8260844D01*
X2500501Y8282256D01*
X2506900Y8306138D01*
Y8330862D01*
X2500501Y8354744D01*
X2488139Y8376156D01*
X2470656Y8393639D01*
X2449244Y8406001D01*
X2425362Y8412400D01*
D02*
G37*
G36*
X2171362D02*
X2146638D01*
X2122756Y8406001D01*
X2101344Y8393639D01*
X2083861Y8376156D01*
X2071499Y8354744D01*
X2065100Y8330862D01*
Y8306138D01*
X2071499Y8282256D01*
X2083861Y8260844D01*
X2101344Y8243361D01*
X2122756Y8230999D01*
X2146638Y8224600D01*
X2171362D01*
X2195244Y8230999D01*
X2216656Y8243361D01*
X2234139Y8260844D01*
X2246501Y8282256D01*
X2252900Y8306138D01*
Y8330862D01*
X2246501Y8354744D01*
X2234139Y8376156D01*
X2216656Y8393639D01*
X2195244Y8406001D01*
X2171362Y8412400D01*
D02*
G37*
G36*
X1917362D02*
X1892638D01*
X1868756Y8406001D01*
X1847344Y8393639D01*
X1829861Y8376156D01*
X1817499Y8354744D01*
X1811100Y8330862D01*
Y8306138D01*
X1817499Y8282256D01*
X1829861Y8260844D01*
X1847344Y8243361D01*
X1868756Y8230999D01*
X1892638Y8224600D01*
X1917362D01*
X1941244Y8230999D01*
X1962656Y8243361D01*
X1980139Y8260844D01*
X1992501Y8282256D01*
X1998900Y8306138D01*
Y8330862D01*
X1992501Y8354744D01*
X1980139Y8376156D01*
X1962656Y8393639D01*
X1941244Y8406001D01*
X1917362Y8412400D01*
D02*
G37*
G36*
X1663362D02*
X1638638D01*
X1614756Y8406001D01*
X1593344Y8393639D01*
X1575861Y8376156D01*
X1563499Y8354744D01*
X1557100Y8330862D01*
Y8306138D01*
X1563499Y8282256D01*
X1575861Y8260844D01*
X1593344Y8243361D01*
X1614756Y8230999D01*
X1638638Y8224600D01*
X1663362D01*
X1687244Y8230999D01*
X1708656Y8243361D01*
X1726139Y8260844D01*
X1738501Y8282256D01*
X1744900Y8306138D01*
Y8330862D01*
X1738501Y8354744D01*
X1726139Y8376156D01*
X1708656Y8393639D01*
X1687244Y8406001D01*
X1663362Y8412400D01*
D02*
G37*
G36*
X1490900D02*
X1303100D01*
Y8224600D01*
X1490900D01*
Y8412400D01*
D02*
G37*
G36*
X531850Y8227961D02*
X507822D01*
X485622Y8218766D01*
X468632Y8201775D01*
X459436Y8179576D01*
Y8155547D01*
X468632Y8133348D01*
X479091Y8122888D01*
X480105Y8105942D01*
X475714Y8101550D01*
X466518Y8079351D01*
Y8055322D01*
X475714Y8033123D01*
X492705Y8016132D01*
X514904Y8006936D01*
X538933D01*
X561132Y8016132D01*
X578123Y8033123D01*
X587318Y8055322D01*
Y8079351D01*
X578123Y8101550D01*
X567664Y8112010D01*
X566649Y8128956D01*
X571041Y8133348D01*
X580236Y8155547D01*
Y8179576D01*
X571041Y8201775D01*
X554050Y8218766D01*
X531850Y8227961D01*
D02*
G37*
G36*
X589020Y7933900D02*
X566980D01*
X546619Y7925466D01*
X531034Y7909882D01*
X522600Y7889520D01*
Y7867480D01*
X531034Y7847119D01*
X546619Y7831534D01*
X566980Y7823100D01*
X589020D01*
X609382Y7831534D01*
X624966Y7847119D01*
X633400Y7867480D01*
Y7889520D01*
X624966Y7909882D01*
X609382Y7925466D01*
X589020Y7933900D01*
D02*
G37*
G36*
X1475400Y7677900D02*
X1274600D01*
Y7477100D01*
X1475400D01*
Y7677900D01*
D02*
G37*
G36*
X4587014Y7567900D02*
X4562986D01*
X4540786Y7558705D01*
X4523795Y7541714D01*
X4514600Y7519514D01*
Y7495486D01*
X4523795Y7473286D01*
X4540786Y7456295D01*
X4562986Y7447100D01*
X4587014D01*
X4609214Y7456295D01*
X4626205Y7473286D01*
X4635400Y7495486D01*
Y7519514D01*
X4626205Y7541714D01*
X4609214Y7558705D01*
X4587014Y7567900D01*
D02*
G37*
G36*
X5325400Y7630400D02*
X5124600D01*
Y7429600D01*
X5325400D01*
Y7630400D01*
D02*
G37*
G36*
X573000Y7502614D02*
X548972D01*
X526772Y7493418D01*
X509782Y7476428D01*
X500586Y7454228D01*
Y7430200D01*
X509782Y7408000D01*
X526772Y7391009D01*
X548972Y7381814D01*
X573000D01*
X595200Y7391009D01*
X610686Y7406495D01*
X626186Y7390995D01*
X648386Y7381800D01*
X672414D01*
X694614Y7390995D01*
X711605Y7407986D01*
X720800Y7430186D01*
Y7454214D01*
X711605Y7476414D01*
X694614Y7493405D01*
X672414Y7502600D01*
X648386D01*
X626186Y7493405D01*
X610700Y7477918D01*
X595200Y7493418D01*
X573000Y7502614D01*
D02*
G37*
G36*
X1645234Y7299400D02*
X1621206D01*
X1599006Y7290205D01*
X1582015Y7273214D01*
X1575323Y7257057D01*
X1561577D01*
X1554885Y7273214D01*
X1537894Y7290205D01*
X1515694Y7299400D01*
X1491666D01*
X1469466Y7290205D01*
X1452475Y7273214D01*
X1443280Y7251014D01*
Y7226986D01*
X1452475Y7204786D01*
X1469466Y7187795D01*
X1491666Y7178600D01*
X1515694D01*
X1537894Y7187795D01*
X1554885Y7204786D01*
X1561577Y7220943D01*
X1575323D01*
X1582015Y7204786D01*
X1599006Y7187795D01*
X1621206Y7178600D01*
X1645234D01*
X1667434Y7187795D01*
X1684425Y7204786D01*
X1693620Y7226986D01*
Y7251014D01*
X1684425Y7273214D01*
X1667434Y7290205D01*
X1645234Y7299400D01*
D02*
G37*
G36*
X5361020Y7255400D02*
X5338980D01*
X5318619Y7246966D01*
X5303034Y7231382D01*
X5294600Y7211020D01*
Y7188980D01*
X5303034Y7168619D01*
X5318619Y7153034D01*
X5338980Y7144600D01*
X5361020D01*
X5381381Y7153034D01*
X5396966Y7168619D01*
X5405400Y7188980D01*
Y7211020D01*
X5396966Y7231382D01*
X5381381Y7246966D01*
X5361020Y7255400D01*
D02*
G37*
G36*
X5206030D02*
X5183991D01*
X5163629Y7246966D01*
X5148045Y7231382D01*
X5139611Y7211020D01*
Y7188980D01*
X5148045Y7168619D01*
X5163629Y7153034D01*
X5183991Y7144600D01*
X5206030D01*
X5226392Y7153034D01*
X5241977Y7168619D01*
X5250411Y7188980D01*
Y7211020D01*
X5241977Y7231382D01*
X5226392Y7246966D01*
X5206030Y7255400D01*
D02*
G37*
G36*
X5061020D02*
X5038980D01*
X5018619Y7246966D01*
X5003034Y7231382D01*
X4994600Y7211020D01*
Y7188980D01*
X5003034Y7168619D01*
X5018619Y7153034D01*
X5038980Y7144600D01*
X5061020D01*
X5081382Y7153034D01*
X5096966Y7168619D01*
X5105400Y7188980D01*
Y7211020D01*
X5096966Y7231382D01*
X5081382Y7246966D01*
X5061020Y7255400D01*
D02*
G37*
G36*
X3912900Y7217900D02*
X3712100D01*
Y7017100D01*
X3912900D01*
Y7217900D01*
D02*
G37*
G36*
X5361020Y7105800D02*
X5338980D01*
X5318619Y7097366D01*
X5303034Y7081781D01*
X5294600Y7061420D01*
Y7039380D01*
X5303034Y7019018D01*
X5318619Y7003434D01*
X5338980Y6995000D01*
X5361020D01*
X5381381Y7003434D01*
X5396966Y7019018D01*
X5405400Y7039380D01*
Y7061420D01*
X5396966Y7081781D01*
X5381381Y7097366D01*
X5361020Y7105800D01*
D02*
G37*
G36*
X4738520Y7032900D02*
X4716480D01*
X4696119Y7024466D01*
X4680534Y7008881D01*
X4672100Y6988520D01*
Y6966480D01*
X4680534Y6946118D01*
X4696119Y6930534D01*
X4716480Y6922100D01*
X4738520D01*
X4758882Y6930534D01*
X4774466Y6946118D01*
X4782900Y6966480D01*
Y6988520D01*
X4774466Y7008881D01*
X4758882Y7024466D01*
X4738520Y7032900D01*
D02*
G37*
G36*
X7122900Y7087900D02*
X6922100D01*
Y6887100D01*
X7122900D01*
Y7087900D01*
D02*
G37*
G36*
X5688520Y6862900D02*
X5666480D01*
X5646119Y6854466D01*
X5630534Y6838881D01*
X5622100Y6818520D01*
Y6796480D01*
X5630534Y6776119D01*
X5646119Y6760534D01*
X5666480Y6752100D01*
X5688520D01*
X5708881Y6760534D01*
X5724466Y6776119D01*
X5732900Y6796480D01*
Y6818520D01*
X5724466Y6838881D01*
X5708881Y6854466D01*
X5688520Y6862900D01*
D02*
G37*
G36*
X970354Y6932460D02*
X946326D01*
X924126Y6923265D01*
X907135Y6906274D01*
X897940Y6884074D01*
Y6860046D01*
X907135Y6837846D01*
X923162Y6821820D01*
X907135Y6805793D01*
X897940Y6783594D01*
Y6759565D01*
X907135Y6737366D01*
X924126Y6720375D01*
X946326Y6711180D01*
X970354D01*
X992554Y6720375D01*
X1009545Y6737366D01*
X1018740Y6759565D01*
Y6783594D01*
X1009545Y6805793D01*
X993518Y6821820D01*
X1009545Y6837846D01*
X1018740Y6860046D01*
Y6884074D01*
X1009545Y6906274D01*
X992554Y6923265D01*
X970354Y6932460D01*
D02*
G37*
G36*
X4511020Y6837900D02*
X4488980D01*
X4468618Y6829466D01*
X4453034Y6813881D01*
X4444600Y6793520D01*
Y6771480D01*
X4453034Y6751119D01*
X4468618Y6735534D01*
X4483190Y6729498D01*
X4487019Y6715367D01*
X4485534Y6713881D01*
X4477100Y6693520D01*
Y6671480D01*
X4485534Y6651119D01*
X4501119Y6635534D01*
X4521480Y6627100D01*
X4543520D01*
X4563881Y6635534D01*
X4579466Y6651119D01*
X4587900Y6671480D01*
Y6693520D01*
X4579466Y6713881D01*
X4563881Y6729466D01*
X4549310Y6735502D01*
X4545480Y6749633D01*
X4546966Y6751119D01*
X4555400Y6771480D01*
Y6793520D01*
X4546966Y6813881D01*
X4531381Y6829466D01*
X4511020Y6837900D01*
D02*
G37*
G36*
X5688520Y6662900D02*
X5666480D01*
X5646119Y6654466D01*
X5630534Y6638881D01*
X5622100Y6618520D01*
Y6596480D01*
X5630534Y6576118D01*
X5646119Y6560534D01*
X5666480Y6552100D01*
X5688520D01*
X5708881Y6560534D01*
X5724466Y6576118D01*
X5732900Y6596480D01*
Y6618520D01*
X5724466Y6638881D01*
X5708881Y6654466D01*
X5688520Y6662900D01*
D02*
G37*
G36*
X5511020Y6655400D02*
X5488980D01*
X5468618Y6646966D01*
X5453034Y6631381D01*
X5444600Y6611020D01*
Y6588980D01*
X5453034Y6568619D01*
X5468618Y6553034D01*
X5488980Y6544600D01*
X5511020D01*
X5531381Y6553034D01*
X5546966Y6568619D01*
X5555400Y6588980D01*
Y6611020D01*
X5546966Y6631381D01*
X5531381Y6646966D01*
X5511020Y6655400D01*
D02*
G37*
G36*
X1207854Y6652460D02*
X1183826D01*
X1161626Y6643265D01*
X1144635Y6626274D01*
X1135440Y6604074D01*
Y6580046D01*
X1144635Y6557846D01*
X1161626Y6540855D01*
X1183826Y6531660D01*
X1207854D01*
X1230054Y6540855D01*
X1247044Y6557846D01*
X1256240Y6580046D01*
Y6604074D01*
X1247044Y6626274D01*
X1230054Y6643265D01*
X1207854Y6652460D01*
D02*
G37*
G36*
X4061020Y6905400D02*
X4038980D01*
X4018619Y6896966D01*
X4003034Y6881381D01*
X3994600Y6861020D01*
Y6838980D01*
X4003034Y6818619D01*
X4013356Y6808297D01*
X4017209Y6800000D01*
X4013356Y6791703D01*
X4003034Y6781381D01*
X3994600Y6761020D01*
Y6738980D01*
X4003034Y6718619D01*
X4013356Y6708297D01*
X4017209Y6700000D01*
X4013356Y6691703D01*
X4003034Y6681381D01*
X3994600Y6661020D01*
Y6638980D01*
X4003034Y6618618D01*
X4013356Y6608297D01*
X4017209Y6600000D01*
X4013356Y6591703D01*
X4003034Y6581382D01*
X3994600Y6561020D01*
Y6538980D01*
X4003034Y6518619D01*
X4018619Y6503034D01*
X4038980Y6494600D01*
X4061020D01*
X4081381Y6503034D01*
X4096966Y6518619D01*
X4105400Y6538980D01*
Y6561020D01*
X4096966Y6581382D01*
X4086644Y6591703D01*
X4082791Y6600000D01*
X4086644Y6608297D01*
X4096966Y6618618D01*
X4105400Y6638980D01*
Y6661020D01*
X4096966Y6681381D01*
X4086644Y6691703D01*
X4082791Y6700000D01*
X4086644Y6708297D01*
X4096966Y6718619D01*
X4105400Y6738980D01*
Y6761020D01*
X4096966Y6781381D01*
X4086644Y6791703D01*
X4082791Y6800000D01*
X4086644Y6808297D01*
X4096966Y6818619D01*
X4105400Y6838980D01*
Y6861020D01*
X4096966Y6881381D01*
X4081381Y6896966D01*
X4061020Y6905400D01*
D02*
G37*
G36*
X1580354Y6452460D02*
X1556326D01*
X1534126Y6443264D01*
X1517135Y6426274D01*
X1507940Y6404074D01*
Y6380046D01*
X1517135Y6357846D01*
X1534126Y6340855D01*
X1556326Y6331660D01*
X1580354D01*
X1602554Y6340855D01*
X1619544Y6357846D01*
X1628740Y6380046D01*
Y6404074D01*
X1619544Y6426274D01*
X1602554Y6443264D01*
X1580354Y6452460D01*
D02*
G37*
G36*
X3912900Y6490400D02*
X3712100D01*
Y6289600D01*
X3912900D01*
Y6490400D01*
D02*
G37*
G36*
X4271020Y6355400D02*
X4248980D01*
X4228619Y6346966D01*
X4213034Y6331382D01*
X4204600Y6311020D01*
Y6288980D01*
X4213034Y6268619D01*
X4228619Y6253034D01*
X4248980Y6244600D01*
X4271020D01*
X4291382Y6253034D01*
X4306966Y6268619D01*
X4315400Y6288980D01*
Y6311020D01*
X4306966Y6331382D01*
X4291382Y6346966D01*
X4271020Y6355400D01*
D02*
G37*
G36*
X4211020Y6155400D02*
X4188980D01*
X4168619Y6146966D01*
X4153034Y6131381D01*
X4144600Y6111020D01*
Y6088980D01*
X4153034Y6068619D01*
X4168619Y6053034D01*
X4188980Y6044600D01*
X4211020D01*
X4231381Y6053034D01*
X4246966Y6068619D01*
X4255400Y6088980D01*
Y6111020D01*
X4246966Y6131381D01*
X4231381Y6146966D01*
X4211020Y6155400D01*
D02*
G37*
G36*
X5295775Y6120155D02*
X5273735D01*
X5253374Y6111721D01*
X5237789Y6096137D01*
X5229355Y6075775D01*
Y6053735D01*
X5237789Y6033374D01*
X5253374Y6017789D01*
X5273735Y6009355D01*
X5295775D01*
X5316137Y6017789D01*
X5331721Y6033374D01*
X5340155Y6053735D01*
Y6075775D01*
X5331721Y6096137D01*
X5316137Y6111721D01*
X5295775Y6120155D01*
D02*
G37*
G36*
X4311020Y6055400D02*
X4288980D01*
X4268619Y6046966D01*
X4253034Y6031381D01*
X4244600Y6011020D01*
Y5988980D01*
X4253034Y5968618D01*
X4268619Y5953034D01*
X4288980Y5944600D01*
X4311020D01*
X4331381Y5953034D01*
X4346966Y5968618D01*
X4355400Y5988980D01*
Y6011020D01*
X4346966Y6031381D01*
X4331381Y6046966D01*
X4311020Y6055400D01*
D02*
G37*
G36*
X5119717Y6154497D02*
X5097678D01*
X5077316Y6146063D01*
X5061732Y6130479D01*
X5053297Y6110117D01*
Y6088078D01*
X5061732Y6067716D01*
X5067853Y6061595D01*
X5065786Y6051204D01*
X5048795Y6034214D01*
X5039600Y6012014D01*
Y5987986D01*
X5048795Y5965786D01*
X5065786Y5948795D01*
X5087986Y5939600D01*
X5112014D01*
X5134214Y5948795D01*
X5151205Y5965786D01*
X5160400Y5987986D01*
Y6012014D01*
X5151205Y6034214D01*
X5138952Y6046466D01*
X5140079Y6052132D01*
X5155663Y6067716D01*
X5164097Y6088078D01*
Y6110117D01*
X5155663Y6130479D01*
X5140079Y6146063D01*
X5119717Y6154497D01*
D02*
G37*
G36*
X4561020Y5955400D02*
X4538980D01*
X4518619Y5946966D01*
X4503034Y5931381D01*
X4494600Y5911020D01*
Y5888980D01*
X4503034Y5868618D01*
X4518619Y5853034D01*
X4538980Y5844600D01*
X4561020D01*
X4581381Y5853034D01*
X4596966Y5868618D01*
X4605400Y5888980D01*
Y5911020D01*
X4596966Y5931381D01*
X4581381Y5946966D01*
X4561020Y5955400D01*
D02*
G37*
G36*
X4411020D02*
X4388980D01*
X4368619Y5946966D01*
X4353034Y5931381D01*
X4344600Y5911020D01*
Y5888980D01*
X4353034Y5868618D01*
X4368619Y5853034D01*
X4388980Y5844600D01*
X4411020D01*
X4431382Y5853034D01*
X4446966Y5868618D01*
X4455400Y5888980D01*
Y5911020D01*
X4446966Y5931381D01*
X4431382Y5946966D01*
X4411020Y5955400D01*
D02*
G37*
G36*
X7113271Y5975800D02*
X7086730D01*
X7061093Y5968930D01*
X7038108Y5955660D01*
X7019340Y5936892D01*
X7006070Y5913907D01*
X6999200Y5888270D01*
Y5861729D01*
X7006070Y5836092D01*
X7019340Y5813107D01*
X7038108Y5794340D01*
X7061093Y5781069D01*
X7086730Y5774200D01*
X7113271D01*
X7138907Y5781069D01*
X7161892Y5794340D01*
X7180660Y5813107D01*
X7193930Y5836092D01*
X7200800Y5861729D01*
Y5888270D01*
X7193930Y5913907D01*
X7180660Y5936892D01*
X7161892Y5955660D01*
X7138907Y5968930D01*
X7113271Y5975800D01*
D02*
G37*
G36*
X3613271D02*
X3586730D01*
X3561093Y5968930D01*
X3538108Y5955660D01*
X3519340Y5936892D01*
X3506070Y5913907D01*
X3499200Y5888270D01*
Y5861729D01*
X3506070Y5836092D01*
X3519340Y5813107D01*
X3538108Y5794340D01*
X3561093Y5781069D01*
X3586730Y5774200D01*
X3613271D01*
X3638907Y5781069D01*
X3661893Y5794340D01*
X3680660Y5813107D01*
X3693931Y5836092D01*
X3700800Y5861729D01*
Y5888270D01*
X3693931Y5913907D01*
X3680660Y5936892D01*
X3661893Y5955660D01*
X3638907Y5968930D01*
X3613271Y5975800D01*
D02*
G37*
G36*
X5161020Y5855400D02*
X5138980D01*
X5118619Y5846966D01*
X5103034Y5831382D01*
X5094600Y5811020D01*
Y5788980D01*
X5103034Y5768619D01*
X5118619Y5753034D01*
X5138980Y5744600D01*
X5161020D01*
X5181382Y5753034D01*
X5196966Y5768619D01*
X5205400Y5788980D01*
Y5811020D01*
X5196966Y5831382D01*
X5181382Y5846966D01*
X5161020Y5855400D01*
D02*
G37*
G36*
X7113271Y5725800D02*
X7086730D01*
X7061093Y5718930D01*
X7038108Y5705660D01*
X7019340Y5686892D01*
X7006070Y5663907D01*
X6999200Y5638270D01*
Y5611729D01*
X7006070Y5586092D01*
X7019340Y5563107D01*
X7038108Y5544340D01*
X7061093Y5531069D01*
X7086730Y5524200D01*
X7113271D01*
X7138907Y5531069D01*
X7161892Y5544340D01*
X7180660Y5563107D01*
X7193930Y5586092D01*
X7200800Y5611729D01*
Y5638270D01*
X7193930Y5663907D01*
X7180660Y5686892D01*
X7161892Y5705660D01*
X7138907Y5718930D01*
X7113271Y5725800D01*
D02*
G37*
G36*
X3613271D02*
X3586730D01*
X3561093Y5718930D01*
X3538108Y5705660D01*
X3519340Y5686892D01*
X3506070Y5663907D01*
X3499200Y5638270D01*
Y5611729D01*
X3506070Y5586092D01*
X3519340Y5563107D01*
X3538108Y5544340D01*
X3561093Y5531069D01*
X3586730Y5524200D01*
X3613271D01*
X3638907Y5531069D01*
X3661893Y5544340D01*
X3680660Y5563107D01*
X3693931Y5586092D01*
X3700800Y5611729D01*
Y5638270D01*
X3693931Y5663907D01*
X3680660Y5686892D01*
X3661893Y5705660D01*
X3638907Y5718930D01*
X3613271Y5725800D01*
D02*
G37*
G36*
X4491020Y5627900D02*
X4468980D01*
X4448618Y5619466D01*
X4433034Y5603881D01*
X4424600Y5583520D01*
Y5561480D01*
X4433034Y5541118D01*
X4448618Y5525534D01*
X4468980Y5517100D01*
X4491020D01*
X4511381Y5525534D01*
X4526966Y5541118D01*
X4535400Y5561480D01*
Y5583520D01*
X4526966Y5603881D01*
X4511381Y5619466D01*
X4491020Y5627900D01*
D02*
G37*
G36*
X5311020Y5855400D02*
X5288980D01*
X5268619Y5846966D01*
X5253034Y5831382D01*
X5244600Y5811020D01*
Y5788980D01*
X5253034Y5768619D01*
X5263356Y5758297D01*
X5267209Y5750000D01*
X5263356Y5741703D01*
X5253034Y5731381D01*
X5244600Y5711020D01*
Y5688980D01*
X5253034Y5668619D01*
X5263356Y5658297D01*
X5267209Y5650000D01*
X5263356Y5641703D01*
X5253034Y5631381D01*
X5244600Y5611020D01*
Y5588980D01*
X5253034Y5568619D01*
X5261808Y5559844D01*
X5266431Y5549891D01*
X5261808Y5543251D01*
X5251486Y5532929D01*
X5243052Y5512567D01*
Y5490528D01*
X5251486Y5470166D01*
X5267071Y5454582D01*
X5287432Y5446148D01*
X5309472D01*
X5329834Y5454582D01*
X5345418Y5470166D01*
X5353852Y5490528D01*
Y5512567D01*
X5345418Y5532929D01*
X5336644Y5541703D01*
X5332022Y5551656D01*
X5336644Y5558296D01*
X5346966Y5568619D01*
X5355400Y5588980D01*
Y5611020D01*
X5346966Y5631381D01*
X5336644Y5641703D01*
X5332791Y5650000D01*
X5336644Y5658297D01*
X5346966Y5668619D01*
X5355400Y5688980D01*
Y5711020D01*
X5346966Y5731381D01*
X5336644Y5741703D01*
X5332791Y5750000D01*
X5336644Y5758297D01*
X5346966Y5768619D01*
X5355400Y5788980D01*
Y5811020D01*
X5346966Y5831382D01*
X5331382Y5846966D01*
X5311020Y5855400D01*
D02*
G37*
G36*
X5031020Y5382900D02*
X5008980D01*
X4988619Y5374466D01*
X4973034Y5358881D01*
X4964600Y5338520D01*
Y5316480D01*
X4973034Y5296118D01*
X4988619Y5280534D01*
X5008980Y5272100D01*
X5031020D01*
X5051382Y5280534D01*
X5066966Y5296118D01*
X5075400Y5316480D01*
Y5338520D01*
X5066966Y5358881D01*
X5051382Y5374466D01*
X5031020Y5382900D01*
D02*
G37*
G36*
X5616020Y5177900D02*
X5593980D01*
X5573619Y5169466D01*
X5558034Y5153881D01*
X5549600Y5133520D01*
Y5111480D01*
X5558034Y5091119D01*
X5573619Y5075534D01*
X5593980Y5067100D01*
X5616020D01*
X5636381Y5075534D01*
X5651966Y5091119D01*
X5660400Y5111480D01*
Y5133520D01*
X5651966Y5153881D01*
X5636381Y5169466D01*
X5616020Y5177900D01*
D02*
G37*
G36*
X5416020D02*
X5393980D01*
X5373619Y5169466D01*
X5358034Y5153881D01*
X5349600Y5133520D01*
Y5111480D01*
X5358034Y5091119D01*
X5373619Y5075534D01*
X5393980Y5067100D01*
X5416020D01*
X5436382Y5075534D01*
X5451966Y5091119D01*
X5460400Y5111480D01*
Y5133520D01*
X5451966Y5153881D01*
X5436382Y5169466D01*
X5416020Y5177900D01*
D02*
G37*
G36*
X4163270Y5225800D02*
X4136729D01*
X4111093Y5218931D01*
X4088107Y5205660D01*
X4069340Y5186893D01*
X4056069Y5163907D01*
X4049200Y5138271D01*
Y5111730D01*
X4056069Y5086093D01*
X4069340Y5063108D01*
X4088107Y5044340D01*
X4111093Y5031070D01*
X4136729Y5024200D01*
X4163270D01*
X4188907Y5031070D01*
X4211892Y5044340D01*
X4230660Y5063108D01*
X4243930Y5086093D01*
X4250800Y5111730D01*
Y5138271D01*
X4243930Y5163907D01*
X4230660Y5186893D01*
X4211892Y5205660D01*
X4188907Y5218931D01*
X4163270Y5225800D01*
D02*
G37*
G36*
X663270D02*
X636729D01*
X611093Y5218931D01*
X588108Y5205660D01*
X569340Y5186893D01*
X556069Y5163907D01*
X549200Y5138271D01*
Y5111730D01*
X556069Y5086093D01*
X569340Y5063108D01*
X588108Y5044340D01*
X611093Y5031070D01*
X636729Y5024200D01*
X663270D01*
X688907Y5031070D01*
X711892Y5044340D01*
X730660Y5063108D01*
X743930Y5086093D01*
X750800Y5111730D01*
Y5138271D01*
X743930Y5163907D01*
X730660Y5186893D01*
X711892Y5205660D01*
X688907Y5218931D01*
X663270Y5225800D01*
D02*
G37*
G36*
X4163270Y4975800D02*
X4136729D01*
X4111093Y4968931D01*
X4088107Y4955660D01*
X4069340Y4936893D01*
X4056069Y4913907D01*
X4049200Y4888271D01*
Y4861730D01*
X4056069Y4836093D01*
X4069340Y4813108D01*
X4088107Y4794340D01*
X4111093Y4781070D01*
X4136729Y4774200D01*
X4163270D01*
X4188907Y4781070D01*
X4211892Y4794340D01*
X4230660Y4813108D01*
X4243930Y4836093D01*
X4250800Y4861730D01*
Y4888271D01*
X4243930Y4913907D01*
X4230660Y4936893D01*
X4211892Y4955660D01*
X4188907Y4968931D01*
X4163270Y4975800D01*
D02*
G37*
G36*
X663270D02*
X636729D01*
X611093Y4968931D01*
X588108Y4955660D01*
X569340Y4936893D01*
X556069Y4913907D01*
X549200Y4888271D01*
Y4861730D01*
X556069Y4836093D01*
X569340Y4813108D01*
X588108Y4794340D01*
X611093Y4781070D01*
X636729Y4774200D01*
X663270D01*
X688907Y4781070D01*
X711892Y4794340D01*
X730660Y4813108D01*
X743930Y4836093D01*
X750800Y4861730D01*
Y4888271D01*
X743930Y4913907D01*
X730660Y4936893D01*
X711892Y4955660D01*
X688907Y4968931D01*
X663270Y4975800D01*
D02*
G37*
G36*
X7113271Y4725800D02*
X7086730D01*
X7061093Y4718930D01*
X7038108Y4705660D01*
X7019340Y4686892D01*
X7006070Y4663907D01*
X6999200Y4638270D01*
Y4611729D01*
X7006070Y4586092D01*
X7019340Y4563107D01*
X7038108Y4544340D01*
X7061093Y4531069D01*
X7086730Y4524200D01*
X7113271D01*
X7138907Y4531069D01*
X7161892Y4544340D01*
X7180660Y4563107D01*
X7193930Y4586092D01*
X7200800Y4611729D01*
Y4638270D01*
X7193930Y4663907D01*
X7180660Y4686892D01*
X7161892Y4705660D01*
X7138907Y4718930D01*
X7113271Y4725800D01*
D02*
G37*
G36*
X3613271D02*
X3586730D01*
X3561093Y4718930D01*
X3538108Y4705660D01*
X3519340Y4686892D01*
X3506070Y4663907D01*
X3499200Y4638270D01*
Y4611729D01*
X3506070Y4586092D01*
X3519340Y4563107D01*
X3538108Y4544340D01*
X3561093Y4531069D01*
X3586730Y4524200D01*
X3613271D01*
X3638907Y4531069D01*
X3661893Y4544340D01*
X3680660Y4563107D01*
X3693931Y4586092D01*
X3700800Y4611729D01*
Y4638270D01*
X3693931Y4663907D01*
X3680660Y4686892D01*
X3661893Y4705660D01*
X3638907Y4718930D01*
X3613271Y4725800D01*
D02*
G37*
G36*
X7113271Y4475800D02*
X7086730D01*
X7061093Y4468930D01*
X7038108Y4455660D01*
X7019340Y4436892D01*
X7006070Y4413907D01*
X6999200Y4388270D01*
Y4361729D01*
X7006070Y4336092D01*
X7019340Y4313107D01*
X7038108Y4294340D01*
X7061093Y4281069D01*
X7086730Y4274200D01*
X7113271D01*
X7138907Y4281069D01*
X7161892Y4294340D01*
X7180660Y4313107D01*
X7193930Y4336092D01*
X7200800Y4361729D01*
Y4388270D01*
X7193930Y4413907D01*
X7180660Y4436892D01*
X7161892Y4455660D01*
X7138907Y4468930D01*
X7113271Y4475800D01*
D02*
G37*
G36*
X3613271D02*
X3586730D01*
X3561093Y4468930D01*
X3538108Y4455660D01*
X3519340Y4436892D01*
X3506070Y4413907D01*
X3499200Y4388270D01*
Y4361729D01*
X3506070Y4336092D01*
X3519340Y4313107D01*
X3538108Y4294340D01*
X3561093Y4281069D01*
X3586730Y4274200D01*
X3613271D01*
X3638907Y4281069D01*
X3661893Y4294340D01*
X3680660Y4313107D01*
X3693931Y4336092D01*
X3700800Y4361729D01*
Y4388270D01*
X3693931Y4413907D01*
X3680660Y4436892D01*
X3661893Y4455660D01*
X3638907Y4468930D01*
X3613271Y4475800D01*
D02*
G37*
G36*
X4163270Y3975800D02*
X4136729D01*
X4111093Y3968931D01*
X4088107Y3955660D01*
X4069340Y3936893D01*
X4056069Y3913908D01*
X4049200Y3888271D01*
Y3861730D01*
X4056069Y3836093D01*
X4069340Y3813108D01*
X4088107Y3794340D01*
X4111093Y3781070D01*
X4136729Y3774200D01*
X4163270D01*
X4188907Y3781070D01*
X4211892Y3794340D01*
X4230660Y3813108D01*
X4243930Y3836093D01*
X4250800Y3861730D01*
Y3888271D01*
X4243930Y3913908D01*
X4230660Y3936893D01*
X4211892Y3955660D01*
X4188907Y3968931D01*
X4163270Y3975800D01*
D02*
G37*
G36*
X663270D02*
X636729D01*
X611093Y3968931D01*
X588108Y3955660D01*
X569340Y3936893D01*
X556069Y3913908D01*
X549200Y3888271D01*
Y3861730D01*
X556069Y3836093D01*
X569340Y3813108D01*
X588108Y3794340D01*
X611093Y3781070D01*
X636729Y3774200D01*
X663270D01*
X688907Y3781070D01*
X711892Y3794340D01*
X730660Y3813108D01*
X743930Y3836093D01*
X750800Y3861730D01*
Y3888271D01*
X743930Y3913908D01*
X730660Y3936893D01*
X711892Y3955660D01*
X688907Y3968931D01*
X663270Y3975800D01*
D02*
G37*
G36*
X4163270Y3725800D02*
X4136729D01*
X4111093Y3718931D01*
X4088107Y3705660D01*
X4069340Y3686893D01*
X4056069Y3663908D01*
X4049200Y3638271D01*
Y3611730D01*
X4056069Y3586093D01*
X4069340Y3563108D01*
X4088107Y3544340D01*
X4111093Y3531070D01*
X4136729Y3524200D01*
X4163270D01*
X4188907Y3531070D01*
X4211892Y3544340D01*
X4230660Y3563108D01*
X4243930Y3586093D01*
X4250800Y3611730D01*
Y3638271D01*
X4243930Y3663908D01*
X4230660Y3686893D01*
X4211892Y3705660D01*
X4188907Y3718931D01*
X4163270Y3725800D01*
D02*
G37*
G36*
X663270D02*
X636729D01*
X611093Y3718931D01*
X588108Y3705660D01*
X569340Y3686893D01*
X556069Y3663908D01*
X549200Y3638271D01*
Y3611730D01*
X556069Y3586093D01*
X569340Y3563108D01*
X588108Y3544340D01*
X611093Y3531070D01*
X636729Y3524200D01*
X663270D01*
X688907Y3531070D01*
X711892Y3544340D01*
X730660Y3563108D01*
X743930Y3586093D01*
X750800Y3611730D01*
Y3638271D01*
X743930Y3663908D01*
X730660Y3686893D01*
X711892Y3705660D01*
X688907Y3718931D01*
X663270Y3725800D01*
D02*
G37*
G36*
X7113271Y3475800D02*
X7086730D01*
X7061093Y3468930D01*
X7038108Y3455660D01*
X7019340Y3436892D01*
X7006070Y3413907D01*
X6999200Y3388270D01*
Y3361729D01*
X7006070Y3336093D01*
X7019340Y3313107D01*
X7038108Y3294340D01*
X7061093Y3281069D01*
X7086730Y3274200D01*
X7113271D01*
X7138907Y3281069D01*
X7161892Y3294340D01*
X7180660Y3313107D01*
X7193930Y3336093D01*
X7200800Y3361729D01*
Y3388270D01*
X7193930Y3413907D01*
X7180660Y3436892D01*
X7161892Y3455660D01*
X7138907Y3468930D01*
X7113271Y3475800D01*
D02*
G37*
G36*
X3613271D02*
X3586730D01*
X3561093Y3468930D01*
X3538108Y3455660D01*
X3519340Y3436892D01*
X3506070Y3413907D01*
X3499200Y3388270D01*
Y3361729D01*
X3506070Y3336093D01*
X3519340Y3313107D01*
X3538108Y3294340D01*
X3561093Y3281069D01*
X3586730Y3274200D01*
X3613271D01*
X3638907Y3281069D01*
X3661893Y3294340D01*
X3680660Y3313107D01*
X3693931Y3336093D01*
X3700800Y3361729D01*
Y3388270D01*
X3693931Y3413907D01*
X3680660Y3436892D01*
X3661893Y3455660D01*
X3638907Y3468930D01*
X3613271Y3475800D01*
D02*
G37*
G36*
X7113271Y3225800D02*
X7086730D01*
X7061093Y3218930D01*
X7038108Y3205660D01*
X7019340Y3186892D01*
X7006070Y3163907D01*
X6999200Y3138270D01*
Y3111729D01*
X7006070Y3086093D01*
X7019340Y3063107D01*
X7038108Y3044340D01*
X7061093Y3031069D01*
X7086730Y3024200D01*
X7113271D01*
X7138907Y3031069D01*
X7161892Y3044340D01*
X7180660Y3063107D01*
X7193930Y3086093D01*
X7200800Y3111729D01*
Y3138270D01*
X7193930Y3163907D01*
X7180660Y3186892D01*
X7161892Y3205660D01*
X7138907Y3218930D01*
X7113271Y3225800D01*
D02*
G37*
G36*
X3613271D02*
X3586730D01*
X3561093Y3218930D01*
X3538108Y3205660D01*
X3519340Y3186892D01*
X3506070Y3163907D01*
X3499200Y3138270D01*
Y3111729D01*
X3506070Y3086093D01*
X3519340Y3063107D01*
X3538108Y3044340D01*
X3561093Y3031069D01*
X3586730Y3024200D01*
X3613271D01*
X3638907Y3031069D01*
X3661893Y3044340D01*
X3680660Y3063107D01*
X3693931Y3086093D01*
X3700800Y3111729D01*
Y3138270D01*
X3693931Y3163907D01*
X3680660Y3186892D01*
X3661893Y3205660D01*
X3638907Y3218930D01*
X3613271Y3225800D01*
D02*
G37*
G36*
X8582014Y3100400D02*
X8557986D01*
X8535786Y3091205D01*
X8518795Y3074214D01*
X8509600Y3052014D01*
Y3027986D01*
X8518795Y3005786D01*
X8535786Y2988795D01*
X8557986Y2979600D01*
X8582014D01*
X8604214Y2988795D01*
X8621204Y3005786D01*
X8630400Y3027986D01*
Y3052014D01*
X8621204Y3074214D01*
X8604214Y3091205D01*
X8582014Y3100400D01*
D02*
G37*
G36*
X4163270Y2725800D02*
X4136729D01*
X4111093Y2718931D01*
X4088107Y2705660D01*
X4069340Y2686893D01*
X4056069Y2663908D01*
X4049200Y2638271D01*
Y2611730D01*
X4056069Y2586093D01*
X4069340Y2563108D01*
X4088107Y2544340D01*
X4111093Y2531070D01*
X4136729Y2524200D01*
X4163270D01*
X4188907Y2531070D01*
X4211892Y2544340D01*
X4230660Y2563108D01*
X4243930Y2586093D01*
X4250800Y2611730D01*
Y2638271D01*
X4243930Y2663908D01*
X4230660Y2686893D01*
X4211892Y2705660D01*
X4188907Y2718931D01*
X4163270Y2725800D01*
D02*
G37*
G36*
X663270D02*
X636729D01*
X611093Y2718931D01*
X588108Y2705660D01*
X569340Y2686893D01*
X556069Y2663908D01*
X549200Y2638271D01*
Y2611730D01*
X556069Y2586093D01*
X569340Y2563108D01*
X588108Y2544340D01*
X611093Y2531070D01*
X636729Y2524200D01*
X663270D01*
X688907Y2531070D01*
X711892Y2544340D01*
X730660Y2563108D01*
X743930Y2586093D01*
X750800Y2611730D01*
Y2638271D01*
X743930Y2663908D01*
X730660Y2686893D01*
X711892Y2705660D01*
X688907Y2718931D01*
X663270Y2725800D01*
D02*
G37*
G36*
X4163270Y2475800D02*
X4136729D01*
X4111093Y2468931D01*
X4088107Y2455660D01*
X4069340Y2436893D01*
X4056069Y2413908D01*
X4049200Y2388271D01*
Y2361730D01*
X4056069Y2336093D01*
X4069340Y2313108D01*
X4088107Y2294340D01*
X4111093Y2281070D01*
X4136729Y2274200D01*
X4163270D01*
X4188907Y2281070D01*
X4211892Y2294340D01*
X4230660Y2313108D01*
X4243930Y2336093D01*
X4250800Y2361730D01*
Y2388271D01*
X4243930Y2413908D01*
X4230660Y2436893D01*
X4211892Y2455660D01*
X4188907Y2468931D01*
X4163270Y2475800D01*
D02*
G37*
G36*
X663270D02*
X636729D01*
X611093Y2468931D01*
X588108Y2455660D01*
X569340Y2436893D01*
X556069Y2413908D01*
X549200Y2388271D01*
Y2361730D01*
X556069Y2336093D01*
X569340Y2313108D01*
X588108Y2294340D01*
X611093Y2281070D01*
X636729Y2274200D01*
X663270D01*
X688907Y2281070D01*
X711892Y2294340D01*
X730660Y2313108D01*
X743930Y2336093D01*
X750800Y2361730D01*
Y2388271D01*
X743930Y2413908D01*
X730660Y2436893D01*
X711892Y2455660D01*
X688907Y2468931D01*
X663270Y2475800D01*
D02*
G37*
G36*
X7975400Y2325400D02*
X7774600D01*
Y2124600D01*
X7975400D01*
Y2325400D01*
D02*
G37*
G36*
X7113271Y2225800D02*
X7086730D01*
X7061093Y2218930D01*
X7038108Y2205660D01*
X7019340Y2186892D01*
X7006070Y2163907D01*
X6999200Y2138270D01*
Y2111729D01*
X7006070Y2086093D01*
X7019340Y2063107D01*
X7038108Y2044340D01*
X7061093Y2031069D01*
X7086730Y2024200D01*
X7113271D01*
X7138907Y2031069D01*
X7161892Y2044340D01*
X7180660Y2063107D01*
X7193930Y2086093D01*
X7200800Y2111729D01*
Y2138270D01*
X7193930Y2163907D01*
X7180660Y2186892D01*
X7161892Y2205660D01*
X7138907Y2218930D01*
X7113271Y2225800D01*
D02*
G37*
G36*
X3613271D02*
X3586730D01*
X3561093Y2218930D01*
X3538108Y2205660D01*
X3519340Y2186892D01*
X3506070Y2163907D01*
X3499200Y2138270D01*
Y2111729D01*
X3506070Y2086093D01*
X3519340Y2063107D01*
X3538108Y2044340D01*
X3561093Y2031069D01*
X3586730Y2024200D01*
X3613271D01*
X3638907Y2031069D01*
X3661893Y2044340D01*
X3680660Y2063107D01*
X3693931Y2086093D01*
X3700800Y2111729D01*
Y2138270D01*
X3693931Y2163907D01*
X3680660Y2186892D01*
X3661893Y2205660D01*
X3638907Y2218930D01*
X3613271Y2225800D01*
D02*
G37*
G36*
X7113271Y1975800D02*
X7086730D01*
X7061093Y1968930D01*
X7038108Y1955660D01*
X7019340Y1936892D01*
X7006070Y1913907D01*
X6999200Y1888270D01*
Y1861729D01*
X7006070Y1836093D01*
X7019340Y1813107D01*
X7038108Y1794340D01*
X7061093Y1781069D01*
X7086730Y1774200D01*
X7113271D01*
X7138907Y1781069D01*
X7161892Y1794340D01*
X7180660Y1813107D01*
X7193930Y1836093D01*
X7200800Y1861729D01*
Y1888270D01*
X7193930Y1913907D01*
X7180660Y1936892D01*
X7161892Y1955660D01*
X7138907Y1968930D01*
X7113271Y1975800D01*
D02*
G37*
G36*
X3613271D02*
X3586730D01*
X3561093Y1968930D01*
X3538108Y1955660D01*
X3519340Y1936892D01*
X3506070Y1913907D01*
X3499200Y1888270D01*
Y1861729D01*
X3506070Y1836093D01*
X3519340Y1813107D01*
X3538108Y1794340D01*
X3561093Y1781069D01*
X3586730Y1774200D01*
X3613271D01*
X3638907Y1781069D01*
X3661893Y1794340D01*
X3680660Y1813107D01*
X3693931Y1836093D01*
X3700800Y1861729D01*
Y1888270D01*
X3693931Y1913907D01*
X3680660Y1936892D01*
X3661893Y1955660D01*
X3638907Y1968930D01*
X3613271Y1975800D01*
D02*
G37*
G36*
X8586902Y1898400D02*
X8563099D01*
X8540107Y1892239D01*
X8519493Y1880338D01*
X8502662Y1863507D01*
X8490761Y1842893D01*
X8484600Y1819901D01*
Y1796099D01*
X8490761Y1773107D01*
X8502662Y1752493D01*
X8519493Y1735662D01*
X8540107Y1723761D01*
X8563099Y1717600D01*
X8586902D01*
X8609893Y1723761D01*
X8630507Y1735662D01*
X8647338Y1752493D01*
X8659239Y1773107D01*
X8665400Y1796099D01*
Y1819901D01*
X8659239Y1842893D01*
X8647338Y1863507D01*
X8630507Y1880338D01*
X8609893Y1892239D01*
X8586902Y1898400D01*
D02*
G37*
G36*
X7649400D02*
X7468600D01*
Y1717600D01*
X7649400D01*
Y1898400D01*
D02*
G37*
G36*
X4163270Y1475800D02*
X4136729D01*
X4111093Y1468931D01*
X4088107Y1455660D01*
X4069340Y1436893D01*
X4056069Y1413908D01*
X4049200Y1388271D01*
Y1361730D01*
X4056069Y1336093D01*
X4069340Y1313108D01*
X4088107Y1294340D01*
X4111093Y1281070D01*
X4136729Y1274200D01*
X4163270D01*
X4188907Y1281070D01*
X4211892Y1294340D01*
X4230660Y1313108D01*
X4243930Y1336093D01*
X4250800Y1361730D01*
Y1388271D01*
X4243930Y1413908D01*
X4230660Y1436893D01*
X4211892Y1455660D01*
X4188907Y1468931D01*
X4163270Y1475800D01*
D02*
G37*
G36*
X663270D02*
X636729D01*
X611093Y1468931D01*
X588108Y1455660D01*
X569340Y1436893D01*
X556069Y1413908D01*
X549200Y1388271D01*
Y1361730D01*
X556069Y1336093D01*
X569340Y1313108D01*
X588108Y1294340D01*
X611093Y1281070D01*
X636729Y1274200D01*
X663270D01*
X688907Y1281070D01*
X711892Y1294340D01*
X730660Y1313108D01*
X743930Y1336093D01*
X750800Y1361730D01*
Y1388271D01*
X743930Y1413908D01*
X730660Y1436893D01*
X711892Y1455660D01*
X688907Y1468931D01*
X663270Y1475800D01*
D02*
G37*
G36*
X8586902Y1390400D02*
X8563099D01*
X8540107Y1384239D01*
X8519493Y1372338D01*
X8502662Y1355507D01*
X8490761Y1334893D01*
X8484600Y1311901D01*
Y1288099D01*
X8490761Y1265107D01*
X8502662Y1244493D01*
X8519493Y1227662D01*
X8540107Y1215761D01*
X8563099Y1209600D01*
X8586902D01*
X8609893Y1215761D01*
X8630507Y1227662D01*
X8647338Y1244493D01*
X8659239Y1265107D01*
X8665400Y1288099D01*
Y1311901D01*
X8659239Y1334893D01*
X8647338Y1355507D01*
X8630507Y1372338D01*
X8609893Y1384239D01*
X8586902Y1390400D01*
D02*
G37*
G36*
X4163270Y1225800D02*
X4136729D01*
X4111093Y1218931D01*
X4088107Y1205660D01*
X4069340Y1186893D01*
X4056069Y1163908D01*
X4049200Y1138271D01*
Y1111730D01*
X4056069Y1086093D01*
X4069340Y1063108D01*
X4088107Y1044340D01*
X4111093Y1031070D01*
X4136729Y1024200D01*
X4163270D01*
X4188907Y1031070D01*
X4211892Y1044340D01*
X4230660Y1063108D01*
X4243930Y1086093D01*
X4250800Y1111730D01*
Y1138271D01*
X4243930Y1163908D01*
X4230660Y1186893D01*
X4211892Y1205660D01*
X4188907Y1218931D01*
X4163270Y1225800D01*
D02*
G37*
G36*
X663270D02*
X636729D01*
X611093Y1218931D01*
X588108Y1205660D01*
X569340Y1186893D01*
X556069Y1163908D01*
X549200Y1138271D01*
Y1111730D01*
X556069Y1086093D01*
X569340Y1063108D01*
X588108Y1044340D01*
X611093Y1031070D01*
X636729Y1024200D01*
X663270D01*
X688907Y1031070D01*
X711892Y1044340D01*
X730660Y1063108D01*
X743930Y1086093D01*
X750800Y1111730D01*
Y1138271D01*
X743930Y1163908D01*
X730660Y1186893D01*
X711892Y1205660D01*
X688907Y1218931D01*
X663270Y1225800D01*
D02*
G37*
G36*
X7113271Y975800D02*
X7086730D01*
X7061093Y968930D01*
X7038108Y955660D01*
X7019340Y936892D01*
X7006070Y913907D01*
X6999200Y888270D01*
Y861729D01*
X7006070Y836093D01*
X7019340Y813107D01*
X7038108Y794340D01*
X7061093Y781069D01*
X7086730Y774200D01*
X7113271D01*
X7138907Y781069D01*
X7161892Y794340D01*
X7180660Y813107D01*
X7193930Y836093D01*
X7200800Y861729D01*
Y888270D01*
X7193930Y913907D01*
X7180660Y936892D01*
X7161892Y955660D01*
X7138907Y968930D01*
X7113271Y975800D01*
D02*
G37*
G36*
X8535987Y850900D02*
X8482013D01*
X8428704Y842457D01*
X8377372Y825778D01*
X8329281Y801274D01*
X8285616Y769549D01*
X8247451Y731384D01*
X8215726Y687719D01*
X8191222Y639628D01*
X8174543Y588296D01*
X8166100Y534987D01*
Y481013D01*
X8174543Y427704D01*
X8191222Y376372D01*
X8215726Y328281D01*
X8247451Y284616D01*
X8285616Y246451D01*
X8329281Y214726D01*
X8377372Y190222D01*
X8428704Y173543D01*
X8482013Y165100D01*
X8535987D01*
X8589296Y173543D01*
X8640628Y190222D01*
X8688719Y214726D01*
X8732384Y246451D01*
X8770549Y284616D01*
X8802274Y328281D01*
X8826778Y376372D01*
X8843457Y427704D01*
X8851900Y481013D01*
Y534987D01*
X8843457Y588296D01*
X8826778Y639628D01*
X8802274Y687719D01*
X8770549Y731384D01*
X8732384Y769549D01*
X8688719Y801274D01*
X8640628Y825778D01*
X8589296Y842457D01*
X8535987Y850900D01*
D02*
G37*
G36*
X534987D02*
X481013D01*
X427704Y842457D01*
X376372Y825778D01*
X328281Y801274D01*
X284616Y769549D01*
X246451Y731384D01*
X214726Y687719D01*
X190222Y639628D01*
X173543Y588296D01*
X165100Y534987D01*
Y481013D01*
X173543Y427704D01*
X190222Y376372D01*
X214726Y328281D01*
X246451Y284616D01*
X284616Y246451D01*
X328281Y214726D01*
X376372Y190222D01*
X427704Y173543D01*
X481013Y165100D01*
X534987D01*
X588296Y173543D01*
X639628Y190222D01*
X687719Y214726D01*
X731384Y246451D01*
X769549Y284616D01*
X801274Y328281D01*
X825778Y376372D01*
X842457Y427704D01*
X850900Y481013D01*
Y534987D01*
X842457Y588296D01*
X825778Y639628D01*
X801274Y687719D01*
X769549Y731384D01*
X731384Y769549D01*
X687719Y801274D01*
X639628Y825778D01*
X588296Y842457D01*
X534987Y850900D01*
D02*
G37*
%LPD*%
D35*
X8575000Y1808000D02*
D03*
Y1300000D02*
D03*
X7559000D02*
D03*
D36*
Y1808000D02*
D03*
D38*
X7100000Y2125000D02*
D03*
Y1875000D02*
D03*
Y3375000D02*
D03*
Y3125000D02*
D03*
Y4625000D02*
D03*
Y4375000D02*
D03*
Y5875000D02*
D03*
Y5625000D02*
D03*
X4150000Y1125000D02*
D03*
Y1375000D02*
D03*
Y2375000D02*
D03*
Y2625000D02*
D03*
Y3625000D02*
D03*
Y3875000D02*
D03*
Y4875000D02*
D03*
Y5125000D02*
D03*
X3600000Y2125000D02*
D03*
Y1875000D02*
D03*
Y3375000D02*
D03*
Y3125000D02*
D03*
Y4625000D02*
D03*
Y4375000D02*
D03*
Y5875000D02*
D03*
Y5625000D02*
D03*
X650000Y1125000D02*
D03*
Y1375000D02*
D03*
Y2375000D02*
D03*
Y2625000D02*
D03*
Y3625000D02*
D03*
Y3875000D02*
D03*
Y4875000D02*
D03*
Y5125000D02*
D03*
X7100000Y875000D02*
D03*
Y625000D02*
D03*
D39*
X578000Y7878500D02*
D03*
Y8456500D02*
D03*
D40*
X627000Y8600000D02*
D03*
Y7735000D02*
D03*
D41*
X210000Y8600000D02*
D03*
Y7735000D02*
D03*
D42*
X3812500Y6390000D02*
D03*
D43*
Y7117500D02*
D03*
X1375000Y7577500D02*
D03*
X2496820Y9357500D02*
D03*
X7875000Y2225000D02*
D03*
X1985000Y6117500D02*
D03*
X7022500Y6987500D02*
D03*
X5225000Y7530000D02*
D03*
D44*
X8255000Y9080500D02*
D03*
X889000D02*
D03*
X8509000Y508000D02*
D03*
X508000D02*
D03*
D45*
X2159000Y9080500D02*
D03*
X3683000D02*
D03*
X2921000D02*
D03*
X2667000D02*
D03*
X2413000D02*
D03*
X3429000D02*
D03*
X1905000D02*
D03*
X1651000D02*
D03*
X3175000D02*
D03*
X1397000D02*
D03*
X6223000D02*
D03*
X6477000Y8826500D02*
D03*
X7493000Y9080500D02*
D03*
Y8826500D02*
D03*
X7239000Y9080500D02*
D03*
Y8826500D02*
D03*
X6985000Y9080500D02*
D03*
Y8826500D02*
D03*
X6731000Y9080500D02*
D03*
Y8826500D02*
D03*
X6477000Y9080500D02*
D03*
X7747000D02*
D03*
Y8826500D02*
D03*
X6223000D02*
D03*
X3175000D02*
D03*
X4445000D02*
D03*
X3683000D02*
D03*
X3937000D02*
D03*
X4191000D02*
D03*
X3429000D02*
D03*
X5969000D02*
D03*
X5715000D02*
D03*
X5461000D02*
D03*
X4699000D02*
D03*
X4953000D02*
D03*
X5207000D02*
D03*
X2159000D02*
D03*
X2921000D02*
D03*
X2667000D02*
D03*
X2413000D02*
D03*
X1905000D02*
D03*
X1651000D02*
D03*
X5207000Y9080500D02*
D03*
X5969000D02*
D03*
X5715000D02*
D03*
X5461000D02*
D03*
X4953000D02*
D03*
X4699000D02*
D03*
X4445000D02*
D03*
X4191000D02*
D03*
X3937000D02*
D03*
X2159000Y8572500D02*
D03*
X3683000D02*
D03*
X2921000D02*
D03*
X2667000D02*
D03*
X2413000D02*
D03*
X3429000D02*
D03*
X1905000D02*
D03*
X1651000D02*
D03*
X3175000D02*
D03*
X1397000D02*
D03*
X6223000D02*
D03*
X6477000Y8318500D02*
D03*
X7493000Y8572500D02*
D03*
Y8318500D02*
D03*
X7239000Y8572500D02*
D03*
Y8318500D02*
D03*
X6985000Y8572500D02*
D03*
Y8318500D02*
D03*
X6731000Y8572500D02*
D03*
Y8318500D02*
D03*
X6477000Y8572500D02*
D03*
X7747000D02*
D03*
Y8318500D02*
D03*
X6223000D02*
D03*
X3175000D02*
D03*
X4445000D02*
D03*
X3683000D02*
D03*
X3937000D02*
D03*
X4191000D02*
D03*
X3429000D02*
D03*
X5969000D02*
D03*
X5715000D02*
D03*
X5461000D02*
D03*
X4699000D02*
D03*
X4953000D02*
D03*
X5207000D02*
D03*
X2159000D02*
D03*
X2921000D02*
D03*
X2667000D02*
D03*
X2413000D02*
D03*
X1905000D02*
D03*
X1651000D02*
D03*
X5207000Y8572500D02*
D03*
X5969000D02*
D03*
X5715000D02*
D03*
X5461000D02*
D03*
X4953000D02*
D03*
X4699000D02*
D03*
X4445000D02*
D03*
X4191000D02*
D03*
X3937000D02*
D03*
D46*
X1397000Y8826500D02*
D03*
Y8318500D02*
D03*
D47*
X5015000Y5867500D02*
D03*
X5285400Y5972500D02*
D03*
X5284755Y6064755D02*
D03*
X5300000Y5700000D02*
D03*
Y5800000D02*
D03*
X5191760Y5892800D02*
D03*
X8860006Y3060003D02*
D03*
Y2660003D02*
D03*
Y2260003D02*
D03*
Y1860002D02*
D03*
Y1460002D02*
D03*
Y1060002D02*
D03*
Y260002D02*
D03*
X8760006Y2460003D02*
D03*
Y2060002D02*
D03*
Y1660002D02*
D03*
X8660006Y1460002D02*
D03*
X8760006Y1260002D02*
D03*
Y860002D02*
D03*
X8460006Y8660006D02*
D03*
X8560006Y8460006D02*
D03*
X8460006Y8260006D02*
D03*
X8560006Y8060006D02*
D03*
X8460006Y7860006D02*
D03*
X8560006Y7660006D02*
D03*
X8460006Y7460005D02*
D03*
X8560006Y7260005D02*
D03*
X8460006Y7060005D02*
D03*
X8560006Y6860005D02*
D03*
X8460006Y6660005D02*
D03*
X8560006Y6460005D02*
D03*
X8460006Y6260005D02*
D03*
X8560006Y6060005D02*
D03*
X8460006Y5860005D02*
D03*
X8560006Y5660004D02*
D03*
X8460006Y5460004D02*
D03*
X8560006Y5260004D02*
D03*
X8460006Y5060004D02*
D03*
X8560006Y4860004D02*
D03*
X8460006Y4660004D02*
D03*
X8560006Y4460004D02*
D03*
X8460006Y4260004D02*
D03*
X8560006Y4060004D02*
D03*
X8460006Y3860003D02*
D03*
X8560006Y3660003D02*
D03*
X8460006Y3460003D02*
D03*
X8560006Y3260003D02*
D03*
Y2460003D02*
D03*
X8460006Y1460002D02*
D03*
X8260006Y8660006D02*
D03*
X8360006Y8460006D02*
D03*
X8260006Y8260006D02*
D03*
X8360006Y8060006D02*
D03*
X8260006Y7860006D02*
D03*
X8360006Y7660006D02*
D03*
X8260006Y7460005D02*
D03*
X8360006Y7260005D02*
D03*
X8260006Y7060005D02*
D03*
X8360006Y6860005D02*
D03*
X8260006Y6660005D02*
D03*
X8360006Y6460005D02*
D03*
X8260006Y6260005D02*
D03*
X8360006Y6060005D02*
D03*
X8260006Y5860005D02*
D03*
X8360006Y5660004D02*
D03*
X8260006Y5460004D02*
D03*
X8360006Y5260004D02*
D03*
X8260006Y5060004D02*
D03*
X8360006Y4860004D02*
D03*
X8260006Y4660004D02*
D03*
X8360006Y4460004D02*
D03*
X8260006Y4260004D02*
D03*
X8360006Y4060004D02*
D03*
X8260006Y3860003D02*
D03*
X8360006Y3660003D02*
D03*
X8260006Y3460003D02*
D03*
X8360006Y3260003D02*
D03*
Y2860003D02*
D03*
X8260006Y2660003D02*
D03*
X8360006Y2460003D02*
D03*
X8260006Y2260003D02*
D03*
X8360006Y2060002D02*
D03*
X8260006Y1860002D02*
D03*
X8360006Y1660002D02*
D03*
X8260006Y1460002D02*
D03*
X8360006Y1260002D02*
D03*
X8060006Y8660006D02*
D03*
X8160006Y8460006D02*
D03*
X8060006Y8260006D02*
D03*
X8160006Y8060006D02*
D03*
X8060006Y7860006D02*
D03*
X8160006Y7660006D02*
D03*
X8060006Y7460005D02*
D03*
X8160006Y7260005D02*
D03*
X8060006Y7060005D02*
D03*
X8160006Y6860005D02*
D03*
X8060006Y6660005D02*
D03*
X8160006Y6460005D02*
D03*
X8060006Y6260005D02*
D03*
X8160006Y6060005D02*
D03*
X8060006Y5860005D02*
D03*
X8160006Y5660004D02*
D03*
X8060006Y5460004D02*
D03*
X8160006Y5260004D02*
D03*
X8060006Y5060004D02*
D03*
X8160006Y4860004D02*
D03*
X8060006Y4660004D02*
D03*
X8160006Y4460004D02*
D03*
X8060006Y4260004D02*
D03*
X8160006Y4060004D02*
D03*
X8060006Y3860003D02*
D03*
X8160006Y3660003D02*
D03*
X8060006Y3460003D02*
D03*
X8160006Y3260003D02*
D03*
Y2860003D02*
D03*
X8060006Y2660003D02*
D03*
X8160006Y2460003D02*
D03*
X8060006Y2260003D02*
D03*
X8160006Y2060002D02*
D03*
X8060006Y1860002D02*
D03*
X8160006Y1660002D02*
D03*
X8060006Y1460002D02*
D03*
X8160006Y1260002D02*
D03*
Y860002D02*
D03*
X8060006Y660002D02*
D03*
Y260002D02*
D03*
X7960006Y8460006D02*
D03*
Y8060006D02*
D03*
X7860006Y7860006D02*
D03*
X7960006Y7660006D02*
D03*
X7860006Y7460005D02*
D03*
X7960006Y7260005D02*
D03*
X7860006Y7060005D02*
D03*
X7960006Y6860005D02*
D03*
X7860006Y6660005D02*
D03*
X7960006Y6460005D02*
D03*
X7860006Y6260005D02*
D03*
X7960006Y6060005D02*
D03*
X7860006Y5860005D02*
D03*
X7960006Y5660004D02*
D03*
X7860006Y5460004D02*
D03*
X7960006Y5260004D02*
D03*
X7860006Y5060004D02*
D03*
X7960006Y4860004D02*
D03*
X7860006Y4660004D02*
D03*
X7960006Y4460004D02*
D03*
X7860006Y4260004D02*
D03*
X7960006Y4060004D02*
D03*
X7860006Y3860003D02*
D03*
X7960006Y3660003D02*
D03*
X7860006Y3460003D02*
D03*
X7960006Y3260003D02*
D03*
Y2860003D02*
D03*
X7860006Y2660003D02*
D03*
X7960006Y2460003D02*
D03*
Y2060002D02*
D03*
X7860006Y1860002D02*
D03*
X7960006Y1660002D02*
D03*
X7860006Y1460002D02*
D03*
X7960006Y1260002D02*
D03*
Y860002D02*
D03*
X7860006Y660002D02*
D03*
X7960006Y460002D02*
D03*
X7860006Y260002D02*
D03*
X7760006Y9260006D02*
D03*
Y8060006D02*
D03*
Y7660006D02*
D03*
Y7260005D02*
D03*
Y6860005D02*
D03*
Y6460005D02*
D03*
Y6060005D02*
D03*
Y5660004D02*
D03*
Y5260004D02*
D03*
Y4860004D02*
D03*
Y4460004D02*
D03*
Y4060004D02*
D03*
Y3660003D02*
D03*
Y3260003D02*
D03*
Y2860003D02*
D03*
X7660006Y2660003D02*
D03*
X7760006Y2460003D02*
D03*
Y2060002D02*
D03*
Y1660002D02*
D03*
X7660006Y1460002D02*
D03*
X7760006Y1260002D02*
D03*
Y860002D02*
D03*
X7660006Y660002D02*
D03*
X7760006Y460002D02*
D03*
X7660006Y260002D02*
D03*
X7560005Y9260006D02*
D03*
X7460005Y7860006D02*
D03*
Y7460005D02*
D03*
Y7060005D02*
D03*
Y6260005D02*
D03*
Y5860005D02*
D03*
Y5460004D02*
D03*
Y5060004D02*
D03*
Y4660004D02*
D03*
Y4260004D02*
D03*
Y3860003D02*
D03*
Y3460003D02*
D03*
Y3060003D02*
D03*
Y2660003D02*
D03*
Y1460002D02*
D03*
X7560005Y860002D02*
D03*
X7460005Y660002D02*
D03*
X7560005Y460002D02*
D03*
X7460005Y260002D02*
D03*
X7360005Y9260006D02*
D03*
Y8460006D02*
D03*
Y8060006D02*
D03*
X7260005Y7860006D02*
D03*
X7360005Y7660006D02*
D03*
X7260005Y7460005D02*
D03*
X7360005Y7260005D02*
D03*
X7260005Y7060005D02*
D03*
X7360005Y6860005D02*
D03*
Y6460005D02*
D03*
X7260005Y6260005D02*
D03*
X7360005Y6060005D02*
D03*
Y5260004D02*
D03*
X7260005Y5060004D02*
D03*
X7360005Y4860004D02*
D03*
Y4060004D02*
D03*
X7260005Y3860003D02*
D03*
X7360005Y3660003D02*
D03*
Y3260003D02*
D03*
Y2860003D02*
D03*
X7260005Y2660003D02*
D03*
X7360005Y2460003D02*
D03*
X7260005Y2260003D02*
D03*
X7360005Y2060002D02*
D03*
Y1660002D02*
D03*
X7260005Y1460002D02*
D03*
X7360005Y1260002D02*
D03*
Y860002D02*
D03*
X7260005Y660002D02*
D03*
X7360005Y460002D02*
D03*
X7260005Y260002D02*
D03*
X7160005Y9260006D02*
D03*
Y8060006D02*
D03*
X7060005Y7860006D02*
D03*
X7160005Y7660006D02*
D03*
X7060005Y7460005D02*
D03*
X7160005Y7260005D02*
D03*
X7060005Y5460004D02*
D03*
X7160005Y5260004D02*
D03*
Y4060004D02*
D03*
Y2860003D02*
D03*
Y1660002D02*
D03*
X7060005Y1460002D02*
D03*
X7160005Y1260002D02*
D03*
X7060005Y1060002D02*
D03*
X7160005Y460002D02*
D03*
X7060005Y260002D02*
D03*
X6960005Y9260006D02*
D03*
Y8060006D02*
D03*
X6860005Y7860006D02*
D03*
X6960005Y7660006D02*
D03*
X6860005Y7460005D02*
D03*
X6960005Y7260005D02*
D03*
X6860005Y7060005D02*
D03*
X6960005Y6460005D02*
D03*
X6860005Y6260005D02*
D03*
X6960005Y6060005D02*
D03*
X6860005Y5060004D02*
D03*
X6960005Y4860004D02*
D03*
X6860005Y3860003D02*
D03*
X6960005Y3660003D02*
D03*
X6860005Y2660003D02*
D03*
X6960005Y2460003D02*
D03*
X6860005Y2260003D02*
D03*
X6960005Y1660002D02*
D03*
X6860005Y1460002D02*
D03*
X6960005Y1260002D02*
D03*
X6860005Y1060002D02*
D03*
Y660002D02*
D03*
X6960005Y460002D02*
D03*
X6860005Y260002D02*
D03*
X6760005Y9260006D02*
D03*
Y8060006D02*
D03*
X6660005Y7860006D02*
D03*
X6760005Y7660006D02*
D03*
X6660005Y7460005D02*
D03*
X6760005Y7260005D02*
D03*
X6660005Y7060005D02*
D03*
X6760005Y6460005D02*
D03*
X6660005Y6260005D02*
D03*
X6760005Y6060005D02*
D03*
Y5660004D02*
D03*
X6660005Y5460004D02*
D03*
X6760005Y5260004D02*
D03*
X6660005Y5060004D02*
D03*
X6760005Y4860004D02*
D03*
X6660005Y4260004D02*
D03*
X6760005Y4060004D02*
D03*
X6660005Y3860003D02*
D03*
X6760005Y3660003D02*
D03*
Y3260003D02*
D03*
Y2860003D02*
D03*
X6660005Y2660003D02*
D03*
X6760005Y2460003D02*
D03*
X6660005Y2260003D02*
D03*
X6760005Y1660002D02*
D03*
X6660005Y1460002D02*
D03*
X6760005Y1260002D02*
D03*
X6660005Y1060002D02*
D03*
X6760005Y860002D02*
D03*
X6660005Y660002D02*
D03*
X6760005Y460002D02*
D03*
X6660005Y260002D02*
D03*
X6560005Y9260006D02*
D03*
Y8060006D02*
D03*
X6460005Y7860006D02*
D03*
X6560005Y7660006D02*
D03*
X6460005Y7460005D02*
D03*
X6560005Y7260005D02*
D03*
X6460005Y7060005D02*
D03*
X6560005Y6460005D02*
D03*
X6460005Y6260005D02*
D03*
X6560005Y6060005D02*
D03*
Y5660004D02*
D03*
X6460005Y5460004D02*
D03*
X6560005Y5260004D02*
D03*
X6460005Y5060004D02*
D03*
X6560005Y4860004D02*
D03*
X6460005Y4260004D02*
D03*
X6560005Y4060004D02*
D03*
X6460005Y3860003D02*
D03*
X6560005Y3660003D02*
D03*
Y3260003D02*
D03*
Y2860003D02*
D03*
X6460005Y2660003D02*
D03*
X6560005Y2460003D02*
D03*
X6460005Y2260003D02*
D03*
X6560005Y1660002D02*
D03*
X6460005Y1460002D02*
D03*
X6560005Y1260002D02*
D03*
X6460005Y1060002D02*
D03*
X6560005Y860002D02*
D03*
X6460005Y660002D02*
D03*
X6560005Y460002D02*
D03*
X6460005Y260002D02*
D03*
X6360005Y9260006D02*
D03*
X6260005Y7860006D02*
D03*
X6360005Y7660006D02*
D03*
X6260005Y7460005D02*
D03*
X6360005Y7260005D02*
D03*
X6260005Y7060005D02*
D03*
X6360005Y6460005D02*
D03*
X6260005Y6260005D02*
D03*
X6360005Y6060005D02*
D03*
Y5660004D02*
D03*
X6260005Y5460004D02*
D03*
X6360005Y5260004D02*
D03*
X6260005Y5060004D02*
D03*
X6360005Y4860004D02*
D03*
X6260005Y4260004D02*
D03*
X6360005Y4060004D02*
D03*
X6260005Y3860003D02*
D03*
X6360005Y3660003D02*
D03*
Y3260003D02*
D03*
Y2860003D02*
D03*
X6260005Y2660003D02*
D03*
X6360005Y2460003D02*
D03*
X6260005Y2260003D02*
D03*
X6360005Y1660002D02*
D03*
X6260005Y1460002D02*
D03*
X6360005Y1260002D02*
D03*
X6260005Y1060002D02*
D03*
X6360005Y860002D02*
D03*
X6260005Y660002D02*
D03*
X6360005Y460002D02*
D03*
X6260005Y260002D02*
D03*
X6160005Y9260006D02*
D03*
Y7660006D02*
D03*
X6060005Y7460005D02*
D03*
X6160005Y7260005D02*
D03*
X6060005Y7060005D02*
D03*
X6160005Y6460005D02*
D03*
X6060005Y6260005D02*
D03*
X6160005Y6060005D02*
D03*
Y5660004D02*
D03*
X6060005Y5460004D02*
D03*
X6160005Y5260004D02*
D03*
X6060005Y5060004D02*
D03*
X6160005Y4860004D02*
D03*
X6060005Y4260004D02*
D03*
X6160005Y4060004D02*
D03*
X6060005Y3860003D02*
D03*
X6160005Y3660003D02*
D03*
Y3260003D02*
D03*
Y2860003D02*
D03*
X6060005Y2660003D02*
D03*
X6160005Y2460003D02*
D03*
X6060005Y2260003D02*
D03*
X6160005Y1660002D02*
D03*
X6060005Y1460002D02*
D03*
X6160005Y1260002D02*
D03*
X6060005Y1060002D02*
D03*
X6160005Y860002D02*
D03*
X5960005Y9260006D02*
D03*
Y8060006D02*
D03*
X5860005Y7860006D02*
D03*
Y7460005D02*
D03*
X5960005Y7260005D02*
D03*
X5860005Y7060005D02*
D03*
X5960005Y6460005D02*
D03*
X5860005Y6260005D02*
D03*
X5960005Y6060005D02*
D03*
Y5660004D02*
D03*
X5860005Y5460004D02*
D03*
X5960005Y1660002D02*
D03*
X5860005Y1460002D02*
D03*
X5960005Y1260002D02*
D03*
X5860005Y1060002D02*
D03*
X5960005Y860002D02*
D03*
X5760004Y9260006D02*
D03*
Y8060006D02*
D03*
X5660004Y7860006D02*
D03*
X5760004Y7260005D02*
D03*
Y6460005D02*
D03*
Y6060005D02*
D03*
Y5660004D02*
D03*
Y4860004D02*
D03*
Y4460004D02*
D03*
X5660004Y4260004D02*
D03*
X5760004Y4060004D02*
D03*
X5660004Y3860003D02*
D03*
X5760004Y3660003D02*
D03*
Y3260003D02*
D03*
X5660004Y3060003D02*
D03*
X5760004Y2860003D02*
D03*
X5660004Y2660003D02*
D03*
X5760004Y2460003D02*
D03*
X5660004Y2260003D02*
D03*
Y1860002D02*
D03*
X5760004Y1660002D02*
D03*
X5660004Y1460002D02*
D03*
X5760004Y1260002D02*
D03*
X5660004Y1060002D02*
D03*
X5760004Y860002D02*
D03*
X5560004Y8060006D02*
D03*
X5460004Y7860006D02*
D03*
X5560004Y7660006D02*
D03*
Y4860004D02*
D03*
Y4460004D02*
D03*
X5460004Y4260004D02*
D03*
X5560004Y4060004D02*
D03*
X5460004Y3860003D02*
D03*
X5560004Y3660003D02*
D03*
Y3260003D02*
D03*
X5460004Y3060003D02*
D03*
X5560004Y2860003D02*
D03*
X5460004Y2660003D02*
D03*
X5560004Y2460003D02*
D03*
X5460004Y2260003D02*
D03*
Y1860002D02*
D03*
X5560004Y1660002D02*
D03*
X5460004Y1460002D02*
D03*
X5560004Y1260002D02*
D03*
X5460004Y1060002D02*
D03*
X5560004Y860002D02*
D03*
X5360004Y8060006D02*
D03*
X5260004Y7860006D02*
D03*
X5360004Y4460004D02*
D03*
X5260004Y4260004D02*
D03*
X5360004Y4060004D02*
D03*
X5260004Y3860003D02*
D03*
X5360004Y3660003D02*
D03*
Y3260003D02*
D03*
X5260004Y3060003D02*
D03*
X5360004Y2860003D02*
D03*
X5260004Y2660003D02*
D03*
X5360004Y2460003D02*
D03*
X5260004Y2260003D02*
D03*
Y1860002D02*
D03*
X5360004Y1660002D02*
D03*
X5260004Y1460002D02*
D03*
X5360004Y1260002D02*
D03*
X5260004Y1060002D02*
D03*
X5360004Y860002D02*
D03*
X5160004Y8060006D02*
D03*
Y2460003D02*
D03*
X5060004Y2260003D02*
D03*
Y1860002D02*
D03*
X5160004Y1660002D02*
D03*
X5060004Y1460002D02*
D03*
X5160004Y1260002D02*
D03*
X5060004Y1060002D02*
D03*
X5160004Y860002D02*
D03*
X4960004Y8060006D02*
D03*
X4860004Y4660004D02*
D03*
X4960004Y4060004D02*
D03*
X4860004Y3860003D02*
D03*
X4960004Y3660003D02*
D03*
X4860004Y3460003D02*
D03*
X4960004Y2860003D02*
D03*
Y2460003D02*
D03*
X4860004Y2260003D02*
D03*
X4960004Y1660002D02*
D03*
X4860004Y1460002D02*
D03*
X4960004Y1260002D02*
D03*
X4860004Y1060002D02*
D03*
X4960004Y860002D02*
D03*
X4760004Y8060006D02*
D03*
X4660004Y4660004D02*
D03*
X4760004Y4460004D02*
D03*
Y4060004D02*
D03*
X4660004Y3860003D02*
D03*
X4760004Y3660003D02*
D03*
X4660004Y3460003D02*
D03*
X4760004Y3260003D02*
D03*
X4660004Y3060003D02*
D03*
X4760004Y2460003D02*
D03*
X4660004Y2260003D02*
D03*
X4760004Y2060002D02*
D03*
X4660004Y1860002D02*
D03*
Y1460002D02*
D03*
X4760004Y1260002D02*
D03*
X4660004Y1060002D02*
D03*
X4760004Y860002D02*
D03*
X4560004Y8460006D02*
D03*
Y8060006D02*
D03*
Y5660004D02*
D03*
Y5260004D02*
D03*
X4460004Y4660004D02*
D03*
X4560004Y4460004D02*
D03*
X4460004Y4260004D02*
D03*
X4560004Y3660003D02*
D03*
X4460004Y3460003D02*
D03*
X4560004Y3260003D02*
D03*
X4460004Y3060003D02*
D03*
X4560004Y2460003D02*
D03*
X4460004Y2260003D02*
D03*
X4560004Y2060002D02*
D03*
X4460004Y1860002D02*
D03*
X4560004Y1260002D02*
D03*
X4460004Y1060002D02*
D03*
X4560004Y860002D02*
D03*
X4360004Y8060006D02*
D03*
X4260004Y7860006D02*
D03*
X4360004Y5260004D02*
D03*
Y4460004D02*
D03*
X4260004Y4260004D02*
D03*
X4360004Y4060004D02*
D03*
Y3660003D02*
D03*
X4260004Y3460003D02*
D03*
X4360004Y3260003D02*
D03*
X4260004Y3060003D02*
D03*
X4360004Y2860003D02*
D03*
Y2060002D02*
D03*
X4260004Y1860002D02*
D03*
X4360004Y1660002D02*
D03*
Y860002D02*
D03*
X4160004Y8060006D02*
D03*
X4060004Y7860006D02*
D03*
X4160004Y4460004D02*
D03*
Y4060004D02*
D03*
Y3260003D02*
D03*
Y2860003D02*
D03*
Y2060002D02*
D03*
Y1660002D02*
D03*
Y860002D02*
D03*
X3960004Y8060006D02*
D03*
X3860003Y7860006D02*
D03*
Y5460004D02*
D03*
X3960004Y4860004D02*
D03*
Y3660003D02*
D03*
X3860003Y1460002D02*
D03*
Y1060002D02*
D03*
X3960004Y860002D02*
D03*
X3760003Y8060006D02*
D03*
X3660003Y7860006D02*
D03*
Y5460004D02*
D03*
Y3860003D02*
D03*
Y2660003D02*
D03*
X3760003Y1660002D02*
D03*
X3560003Y8460006D02*
D03*
Y8060006D02*
D03*
X3460003Y7860006D02*
D03*
X3560003Y7660006D02*
D03*
X3460003Y6260005D02*
D03*
X3560003Y5260004D02*
D03*
Y4860004D02*
D03*
Y4060004D02*
D03*
Y2860003D02*
D03*
X3460003Y2660003D02*
D03*
X3560003Y2460003D02*
D03*
Y1660002D02*
D03*
X3360003Y9260006D02*
D03*
Y8060006D02*
D03*
X3260003Y7860006D02*
D03*
X3360003Y7660006D02*
D03*
X3260003Y7460005D02*
D03*
Y6260005D02*
D03*
X3360003Y3660003D02*
D03*
Y3260003D02*
D03*
X3260003Y3060003D02*
D03*
X3360003Y2860003D02*
D03*
X3260003Y2660003D02*
D03*
X3360003Y2460003D02*
D03*
X3260003Y2260003D02*
D03*
Y1860002D02*
D03*
X3360003Y1660002D02*
D03*
X3160003Y8060006D02*
D03*
X3060003Y7860006D02*
D03*
X3160003Y7660006D02*
D03*
X3060003Y7460005D02*
D03*
Y7060005D02*
D03*
Y6260005D02*
D03*
X3160003Y6060005D02*
D03*
X3060003Y5860005D02*
D03*
Y5460004D02*
D03*
X3160003Y5260004D02*
D03*
X3060003Y5060004D02*
D03*
X3160003Y4860004D02*
D03*
Y4460004D02*
D03*
X3060003Y4260004D02*
D03*
X3160003Y4060004D02*
D03*
X3060003Y3860003D02*
D03*
X3160003Y3660003D02*
D03*
Y3260003D02*
D03*
X3060003Y3060003D02*
D03*
X3160003Y2860003D02*
D03*
X3060003Y2660003D02*
D03*
X3160003Y2460003D02*
D03*
X3060003Y2260003D02*
D03*
Y1860002D02*
D03*
X3160003Y1660002D02*
D03*
X2960003Y8060006D02*
D03*
Y7660006D02*
D03*
X2860003Y7060005D02*
D03*
Y6260005D02*
D03*
X2960003Y6060005D02*
D03*
X2860003Y5860005D02*
D03*
Y5460004D02*
D03*
X2960003Y5260004D02*
D03*
X2860003Y5060004D02*
D03*
X2960003Y4860004D02*
D03*
Y4460004D02*
D03*
X2860003Y4260004D02*
D03*
X2960003Y4060004D02*
D03*
X2860003Y3860003D02*
D03*
X2960003Y3660003D02*
D03*
Y3260003D02*
D03*
X2860003Y3060003D02*
D03*
X2960003Y2860003D02*
D03*
X2860003Y2660003D02*
D03*
X2960003Y2460003D02*
D03*
X2860003Y2260003D02*
D03*
Y1860002D02*
D03*
X2960003Y1660002D02*
D03*
X2660003Y7060005D02*
D03*
Y6260005D02*
D03*
X2760003Y6060005D02*
D03*
X2660003Y5860005D02*
D03*
Y5460004D02*
D03*
X2760003Y5260004D02*
D03*
X2660003Y5060004D02*
D03*
X2760003Y4860004D02*
D03*
Y4460004D02*
D03*
X2660003Y4260004D02*
D03*
X2760003Y4060004D02*
D03*
X2660003Y3860003D02*
D03*
X2760003Y3660003D02*
D03*
Y3260003D02*
D03*
X2660003Y3060003D02*
D03*
X2760003Y2860003D02*
D03*
X2660003Y2660003D02*
D03*
X2760003Y2460003D02*
D03*
X2660003Y2260003D02*
D03*
Y1860002D02*
D03*
X2760003Y1660002D02*
D03*
X2560003Y8460006D02*
D03*
Y8060006D02*
D03*
X2460003Y7060005D02*
D03*
X2560003Y1660002D02*
D03*
X2360003Y8060006D02*
D03*
X2260003Y7460005D02*
D03*
Y7060005D02*
D03*
Y6660005D02*
D03*
Y6260005D02*
D03*
Y5860005D02*
D03*
Y5460004D02*
D03*
Y4260004D02*
D03*
X2360003Y3660003D02*
D03*
Y3260003D02*
D03*
X2260003Y3060003D02*
D03*
X2360003Y2860003D02*
D03*
Y2460003D02*
D03*
X2260003Y2260003D02*
D03*
Y1860002D02*
D03*
X2360003Y1660002D02*
D03*
X2160003Y9260006D02*
D03*
Y8060006D02*
D03*
Y7660006D02*
D03*
X2060002Y7460005D02*
D03*
Y6660005D02*
D03*
X2160003Y6460005D02*
D03*
Y6060005D02*
D03*
X2060002Y5860005D02*
D03*
Y5460004D02*
D03*
X2160003Y5260004D02*
D03*
Y4860004D02*
D03*
Y4460004D02*
D03*
X2060002Y4260004D02*
D03*
X2160003Y4060004D02*
D03*
Y3660003D02*
D03*
Y3260003D02*
D03*
X2060002Y3060003D02*
D03*
X2160003Y2860003D02*
D03*
Y2460003D02*
D03*
X2060002Y2260003D02*
D03*
Y1860002D02*
D03*
X2160003Y1660002D02*
D03*
X1960002Y9260006D02*
D03*
Y8060006D02*
D03*
Y7660006D02*
D03*
X1860002Y7460005D02*
D03*
X1960002Y6860005D02*
D03*
Y6460005D02*
D03*
X1860002Y6260005D02*
D03*
Y5860005D02*
D03*
Y5460004D02*
D03*
X1960002Y5260004D02*
D03*
Y4860004D02*
D03*
Y4460004D02*
D03*
X1860002Y4260004D02*
D03*
X1960002Y4060004D02*
D03*
Y3660003D02*
D03*
Y3260003D02*
D03*
X1860002Y3060003D02*
D03*
X1960002Y2860003D02*
D03*
Y2460003D02*
D03*
X1860002Y2260003D02*
D03*
Y1860002D02*
D03*
X1960002Y1660002D02*
D03*
X1860002Y1460002D02*
D03*
Y1060002D02*
D03*
Y660002D02*
D03*
Y260002D02*
D03*
X1760002Y9260006D02*
D03*
Y8460006D02*
D03*
Y8060006D02*
D03*
Y7660006D02*
D03*
X1660002Y7460005D02*
D03*
X1760002Y6460005D02*
D03*
X1660002Y6260005D02*
D03*
X1760002Y6060005D02*
D03*
X1660002Y5860005D02*
D03*
Y5460004D02*
D03*
X1760002Y5260004D02*
D03*
Y4860004D02*
D03*
Y4460004D02*
D03*
X1660002Y4260004D02*
D03*
X1760002Y4060004D02*
D03*
Y3660003D02*
D03*
Y3260003D02*
D03*
X1660002Y3060003D02*
D03*
X1760002Y2860003D02*
D03*
Y2460003D02*
D03*
X1660002Y2260003D02*
D03*
Y1860002D02*
D03*
X1760002Y1660002D02*
D03*
X1660002Y1460002D02*
D03*
X1760002Y1260002D02*
D03*
X1660002Y1060002D02*
D03*
X1760002Y860002D02*
D03*
X1660002Y660002D02*
D03*
X1760002Y460002D02*
D03*
X1660002Y260002D02*
D03*
X1560002Y9260006D02*
D03*
Y8060006D02*
D03*
Y7660006D02*
D03*
X1460002Y6260005D02*
D03*
X1560002Y6060005D02*
D03*
X1460002Y5860005D02*
D03*
Y5460004D02*
D03*
X1560002Y5260004D02*
D03*
Y4860004D02*
D03*
X1460002Y4660004D02*
D03*
Y4260004D02*
D03*
X1560002Y4060004D02*
D03*
Y3660003D02*
D03*
X1460002Y3460003D02*
D03*
X1560002Y2860003D02*
D03*
Y2460003D02*
D03*
X1460002Y2260003D02*
D03*
X1560002Y1660002D02*
D03*
X1460002Y1460002D02*
D03*
X1560002Y1260002D02*
D03*
X1460002Y1060002D02*
D03*
X1560002Y860002D02*
D03*
X1460002Y660002D02*
D03*
X1560002Y460002D02*
D03*
X1460002Y260002D02*
D03*
X1360002Y9260006D02*
D03*
X1260002Y8660006D02*
D03*
X1360002Y8060006D02*
D03*
X1260002Y6260005D02*
D03*
X1360002Y6060005D02*
D03*
X1260002Y5860005D02*
D03*
X1360002Y5260004D02*
D03*
Y4860004D02*
D03*
X1260002Y4660004D02*
D03*
X1360002Y4060004D02*
D03*
Y3660003D02*
D03*
X1260002Y3460003D02*
D03*
X1360002Y3260003D02*
D03*
Y2860003D02*
D03*
Y2460003D02*
D03*
X1260002Y2260003D02*
D03*
X1360002Y2060002D02*
D03*
Y1660002D02*
D03*
X1260002Y1460002D02*
D03*
X1360002Y1260002D02*
D03*
X1260002Y1060002D02*
D03*
X1360002Y860002D02*
D03*
X1260002Y660002D02*
D03*
X1360002Y460002D02*
D03*
X1260002Y260002D02*
D03*
X1060002Y8660006D02*
D03*
X1160002Y8460006D02*
D03*
Y8060006D02*
D03*
X1060002Y7060005D02*
D03*
Y6260005D02*
D03*
X1160002Y6060005D02*
D03*
X1060002Y5860005D02*
D03*
X1160002Y5660004D02*
D03*
X1060002Y5460004D02*
D03*
X1160002Y4860004D02*
D03*
X1060002Y4660004D02*
D03*
X1160002Y4460004D02*
D03*
X1060002Y4260004D02*
D03*
X1160002Y3660003D02*
D03*
X1060002Y3460003D02*
D03*
X1160002Y3260003D02*
D03*
X1060002Y3060003D02*
D03*
X1160002Y2460003D02*
D03*
X1060002Y2260003D02*
D03*
X1160002Y2060002D02*
D03*
X1060002Y1860002D02*
D03*
X1160002Y1260002D02*
D03*
X1060002Y1060002D02*
D03*
X1160002Y860002D02*
D03*
X1060002Y660002D02*
D03*
X1160002Y460002D02*
D03*
X1060002Y260002D02*
D03*
X860002Y8660006D02*
D03*
X960002Y7660006D02*
D03*
X860002Y7460005D02*
D03*
Y7060005D02*
D03*
Y6660005D02*
D03*
X960002Y6460005D02*
D03*
X860002Y6260005D02*
D03*
X960002Y6060005D02*
D03*
X860002Y5860005D02*
D03*
X960002Y5660004D02*
D03*
X860002Y5460004D02*
D03*
X960002Y4860004D02*
D03*
X860002Y4660004D02*
D03*
X960002Y4460004D02*
D03*
X860002Y4260004D02*
D03*
X960002Y3660003D02*
D03*
X860002Y3460003D02*
D03*
X960002Y3260003D02*
D03*
X860002Y3060003D02*
D03*
X960002Y2860003D02*
D03*
Y2460003D02*
D03*
X860002Y2260003D02*
D03*
X960002Y2060002D02*
D03*
X860002Y1860002D02*
D03*
X960002Y1660002D02*
D03*
Y1260002D02*
D03*
X860002Y1060002D02*
D03*
X960002Y860002D02*
D03*
Y460002D02*
D03*
X860002Y260002D02*
D03*
X660002Y6660005D02*
D03*
X760002Y6460005D02*
D03*
X660002Y6260005D02*
D03*
X760002Y6060005D02*
D03*
X660002Y5860005D02*
D03*
X760002Y5660004D02*
D03*
X660002Y5460004D02*
D03*
X760002Y5260004D02*
D03*
X660002Y4660004D02*
D03*
X760002Y4460004D02*
D03*
X660002Y4260004D02*
D03*
X760002Y4060004D02*
D03*
X660002Y3460003D02*
D03*
X760002Y3260003D02*
D03*
X660002Y3060003D02*
D03*
X760002Y2860003D02*
D03*
Y2060002D02*
D03*
X660002Y1860002D02*
D03*
X760002Y1660002D02*
D03*
Y860002D02*
D03*
X460002Y9060006D02*
D03*
Y7060005D02*
D03*
X560002Y6860005D02*
D03*
X460002Y6660005D02*
D03*
X560002Y6460005D02*
D03*
X460002Y6260005D02*
D03*
X560002Y6060005D02*
D03*
X460002Y5860005D02*
D03*
X560002Y5660004D02*
D03*
X460002Y5460004D02*
D03*
X560002Y5260004D02*
D03*
X460002Y4660004D02*
D03*
X560002Y4460004D02*
D03*
X460002Y4260004D02*
D03*
X560002Y4060004D02*
D03*
X460002Y3460003D02*
D03*
X560002Y3260003D02*
D03*
X460002Y3060003D02*
D03*
X560002Y2860003D02*
D03*
X460002Y2260003D02*
D03*
X560002Y2060002D02*
D03*
X460002Y1860002D02*
D03*
Y1060002D02*
D03*
X360002Y9260006D02*
D03*
X260002Y9060006D02*
D03*
Y8260006D02*
D03*
Y7860006D02*
D03*
X360002Y2060002D02*
D03*
X260002Y1860002D02*
D03*
X360002Y1660002D02*
D03*
X260002Y1460002D02*
D03*
X360002Y1260002D02*
D03*
X260002Y1060002D02*
D03*
X4827500Y6526000D02*
D03*
X4977500Y6376000D02*
D03*
X4827500D02*
D03*
X5127500D02*
D03*
Y6676000D02*
D03*
X4827500D02*
D03*
X5127500Y6526000D02*
D03*
X4977500Y6676000D02*
D03*
X4977499Y6526001D02*
D03*
X1553340Y6847059D02*
D03*
X4532500Y6682500D02*
D03*
X5605000Y5122500D02*
D03*
X5405000D02*
D03*
X4480000Y5572500D02*
D03*
X5020000Y5327500D02*
D03*
X5677500Y6607500D02*
D03*
Y6807500D02*
D03*
X5298452Y5501548D02*
D03*
X5300000Y5600000D02*
D03*
X4260000Y6300000D02*
D03*
X5350000Y7050400D02*
D03*
X5195011Y7200000D02*
D03*
X5050000D02*
D03*
X5350000D02*
D03*
X5500000Y6600000D02*
D03*
X5150000Y5800000D02*
D03*
X4200000Y6100000D02*
D03*
X4300000Y6000000D02*
D03*
X4400000Y5900000D02*
D03*
X4550000D02*
D03*
X4050000Y6550000D02*
D03*
Y6650000D02*
D03*
Y6750000D02*
D03*
Y6850000D02*
D03*
X5108697Y6099098D02*
D03*
X4500000Y6782500D02*
D03*
X4727500Y6977500D02*
D03*
D48*
X4575000Y7507500D02*
D03*
X5100000Y6000000D02*
D03*
X1633220Y7239000D02*
D03*
X1503680D02*
D03*
X519836Y8167562D02*
D03*
X526918Y8067336D02*
D03*
X958340Y6771580D02*
D03*
Y6872060D02*
D03*
X660400Y7442200D02*
D03*
X560986Y7442214D02*
D03*
X1195840Y6592060D02*
D03*
X1568340Y6392060D02*
D03*
X8570000Y3040000D02*
D03*
%TF.MD5,a69957363e599464c995fcfa536d89d0*%
M02*
